<svg width="2328" height="721" viewBox="0 0 2328 721" fill="none" xmlns="http://www.w3.org/2000/svg">
<mask id="path-1-outside-1_2031_2" maskUnits="userSpaceOnUse" x="1592" y="621" width="428" height="85" fill="black">
<rect fill="white" x="1592" y="621" width="428" height="85"/>
<path d="M1597.87 699V627.74H1649.4V636.149H1607.3V657.974H1646.73V666.335H1607.3V690.591H1651.05V699H1597.87ZM1663.98 699V627.74H1673.66L1711.08 683.688V627.74H1720.12V699H1710.45L1673.02 643.003V699H1663.98ZM1736.21 699V627.74H1787.74V636.149H1745.64V657.974H1785.07V666.335H1745.64V690.591H1789.39V699H1736.21ZM1802.56 699V627.74H1834.16C1840.51 627.74 1845.34 628.388 1848.65 629.684C1851.95 630.948 1854.59 633.2 1856.57 636.441C1858.55 639.682 1859.53 643.262 1859.53 647.183C1859.53 652.239 1857.9 656.5 1854.62 659.967C1851.35 663.435 1846.3 665.638 1839.46 666.578C1841.95 667.777 1843.85 668.96 1845.15 670.127C1847.9 672.654 1850.51 675.814 1852.97 679.605L1865.37 699H1853.51L1844.08 684.174C1841.32 679.897 1839.05 676.624 1837.27 674.356C1835.49 672.087 1833.88 670.499 1832.46 669.592C1831.07 668.685 1829.64 668.053 1828.18 667.696C1827.11 667.469 1825.36 667.356 1822.93 667.356H1811.99V699H1802.56ZM1811.99 659.19H1832.26C1836.57 659.19 1839.94 658.752 1842.37 657.877C1844.81 656.97 1846.65 655.544 1847.92 653.6C1849.18 651.623 1849.81 649.484 1849.81 647.183C1849.81 643.813 1848.58 641.043 1846.12 638.871C1843.69 636.7 1839.83 635.615 1834.55 635.615H1811.99V659.19ZM1907.7 671.05V662.69L1937.89 662.641V689.084C1933.26 692.778 1928.48 695.565 1923.55 697.445C1918.63 699.292 1913.57 700.215 1908.39 700.215C1901.39 700.215 1895.02 698.725 1889.28 695.743C1883.58 692.73 1879.27 688.387 1876.35 682.716C1873.44 677.045 1871.98 670.71 1871.98 663.71C1871.98 656.775 1873.42 650.311 1876.3 644.316C1879.22 638.288 1883.4 633.816 1888.84 630.9C1894.29 627.983 1900.56 626.525 1907.66 626.525C1912.81 626.525 1917.46 627.367 1921.61 629.052C1925.79 630.705 1929.06 633.022 1931.43 636.003C1933.79 638.985 1935.59 642.873 1936.82 647.669L1928.31 650.003C1927.25 646.373 1925.92 643.522 1924.33 641.448C1922.74 639.374 1920.47 637.721 1917.52 636.49C1914.57 635.226 1911.3 634.594 1907.7 634.594C1903.39 634.594 1899.67 635.258 1896.52 636.587C1893.38 637.883 1890.84 639.6 1888.89 641.739C1886.98 643.878 1885.49 646.227 1884.42 648.787C1882.61 653.195 1881.7 657.974 1881.7 663.127C1881.7 669.478 1882.78 674.793 1884.96 679.071C1887.16 683.348 1890.35 686.524 1894.53 688.598C1898.71 690.672 1903.15 691.709 1907.85 691.709C1911.93 691.709 1915.92 690.931 1919.81 689.376C1923.7 687.788 1926.65 686.103 1928.65 684.32V671.05H1907.7ZM1971.92 699V668.814L1944.45 627.74H1955.92L1969.97 649.225C1972.56 653.243 1974.98 657.262 1977.21 661.28C1979.35 657.553 1981.95 653.357 1984.99 648.69L1998.8 627.74H2009.78L1981.35 668.814V699H1971.92Z"/>
</mask>
<path d="M1597.87 699V627.74H1649.4V636.149H1607.3V657.974H1646.73V666.335H1607.3V690.591H1651.05V699H1597.87ZM1663.98 699V627.74H1673.66L1711.08 683.688V627.74H1720.12V699H1710.45L1673.02 643.003V699H1663.98ZM1736.21 699V627.74H1787.74V636.149H1745.64V657.974H1785.07V666.335H1745.64V690.591H1789.39V699H1736.21ZM1802.56 699V627.74H1834.16C1840.51 627.74 1845.34 628.388 1848.65 629.684C1851.95 630.948 1854.59 633.2 1856.57 636.441C1858.55 639.682 1859.53 643.262 1859.53 647.183C1859.53 652.239 1857.9 656.5 1854.62 659.967C1851.35 663.435 1846.3 665.638 1839.46 666.578C1841.95 667.777 1843.85 668.96 1845.15 670.127C1847.9 672.654 1850.51 675.814 1852.97 679.605L1865.37 699H1853.51L1844.08 684.174C1841.32 679.897 1839.05 676.624 1837.27 674.356C1835.49 672.087 1833.88 670.499 1832.46 669.592C1831.07 668.685 1829.64 668.053 1828.18 667.696C1827.11 667.469 1825.36 667.356 1822.93 667.356H1811.99V699H1802.56ZM1811.99 659.19H1832.26C1836.57 659.19 1839.94 658.752 1842.37 657.877C1844.81 656.97 1846.65 655.544 1847.92 653.6C1849.18 651.623 1849.81 649.484 1849.81 647.183C1849.81 643.813 1848.58 641.043 1846.12 638.871C1843.69 636.7 1839.83 635.615 1834.55 635.615H1811.99V659.19ZM1907.7 671.05V662.69L1937.89 662.641V689.084C1933.26 692.778 1928.48 695.565 1923.55 697.445C1918.63 699.292 1913.57 700.215 1908.39 700.215C1901.39 700.215 1895.02 698.725 1889.28 695.743C1883.58 692.73 1879.27 688.387 1876.35 682.716C1873.44 677.045 1871.98 670.71 1871.98 663.71C1871.98 656.775 1873.42 650.311 1876.3 644.316C1879.22 638.288 1883.4 633.816 1888.84 630.9C1894.29 627.983 1900.56 626.525 1907.66 626.525C1912.81 626.525 1917.46 627.367 1921.61 629.052C1925.79 630.705 1929.06 633.022 1931.43 636.003C1933.79 638.985 1935.59 642.873 1936.82 647.669L1928.31 650.003C1927.25 646.373 1925.92 643.522 1924.33 641.448C1922.74 639.374 1920.47 637.721 1917.52 636.49C1914.57 635.226 1911.3 634.594 1907.7 634.594C1903.39 634.594 1899.67 635.258 1896.52 636.587C1893.38 637.883 1890.84 639.6 1888.89 641.739C1886.98 643.878 1885.49 646.227 1884.42 648.787C1882.61 653.195 1881.7 657.974 1881.7 663.127C1881.7 669.478 1882.78 674.793 1884.96 679.071C1887.16 683.348 1890.35 686.524 1894.53 688.598C1898.71 690.672 1903.15 691.709 1907.85 691.709C1911.93 691.709 1915.92 690.931 1919.81 689.376C1923.7 687.788 1926.65 686.103 1928.65 684.32V671.05H1907.7ZM1971.92 699V668.814L1944.45 627.74H1955.92L1969.97 649.225C1972.56 653.243 1974.98 657.262 1977.21 661.28C1979.35 657.553 1981.95 653.357 1984.99 648.69L1998.8 627.74H2009.78L1981.35 668.814V699H1971.92Z" fill="#1B1B1B"/>
<path d="M1597.87 699H1592.87V704H1597.87V699ZM1597.87 627.74V622.74H1592.87V627.74H1597.87ZM1649.4 627.74H1654.4V622.74H1649.4V627.74ZM1649.4 636.149V641.149H1654.4V636.149H1649.4ZM1607.3 636.149V631.149H1602.3V636.149H1607.3ZM1607.3 657.974H1602.3V662.974H1607.3V657.974ZM1646.73 657.974H1651.73V652.974H1646.73V657.974ZM1646.73 666.335V671.335H1651.73V666.335H1646.73ZM1607.3 666.335V661.335H1602.3V666.335H1607.3ZM1607.3 690.591H1602.3V695.591H1607.3V690.591ZM1651.05 690.591H1656.05V685.591H1651.05V690.591ZM1651.05 699V704H1656.05V699H1651.05ZM1602.87 699V627.74H1592.87V699H1602.87ZM1597.87 632.74H1649.4V622.74H1597.87V632.74ZM1644.4 627.74V636.149H1654.4V627.74H1644.4ZM1649.4 631.149H1607.3V641.149H1649.4V631.149ZM1602.3 636.149V657.974H1612.3V636.149H1602.3ZM1607.3 662.974H1646.73V652.974H1607.3V662.974ZM1641.73 657.974V666.335H1651.73V657.974H1641.73ZM1646.73 661.335H1607.3V671.335H1646.73V661.335ZM1602.3 666.335V690.591H1612.3V666.335H1602.3ZM1607.3 695.591H1651.05V685.591H1607.3V695.591ZM1646.05 690.591V699H1656.05V690.591H1646.05ZM1651.05 694H1597.87V704H1651.05V694ZM1663.98 699H1658.98V704H1663.98V699ZM1663.98 627.74V622.74H1658.98V627.74H1663.98ZM1673.66 627.74L1677.81 624.96L1676.33 622.74H1673.66V627.74ZM1711.08 683.688L1706.93 686.469L1716.08 700.155V683.688H1711.08ZM1711.08 627.74V622.74H1706.08V627.74H1711.08ZM1720.12 627.74H1725.12V622.74H1720.12V627.74ZM1720.12 699V704H1725.12V699H1720.12ZM1710.45 699L1706.29 701.778L1707.78 704H1710.45V699ZM1673.02 643.003L1677.18 640.225L1668.02 626.525V643.003H1673.02ZM1673.02 699V704H1678.02V699H1673.02ZM1668.98 699V627.74H1658.98V699H1668.98ZM1663.98 632.74H1673.66V622.74H1663.98V632.74ZM1669.5 630.52L1706.93 686.469L1715.24 680.908L1677.81 624.96L1669.5 630.52ZM1716.08 683.688V627.74H1706.08V683.688H1716.08ZM1711.08 632.74H1720.12V622.74H1711.08V632.74ZM1715.12 627.74V699H1725.12V627.74H1715.12ZM1720.12 694H1710.45V704H1720.12V694ZM1714.61 696.222L1677.18 640.225L1668.87 645.782L1706.29 701.778L1714.61 696.222ZM1668.02 643.003V699H1678.02V643.003H1668.02ZM1673.02 694H1663.98V704H1673.02V694ZM1736.21 699H1731.21V704H1736.21V699ZM1736.21 627.74V622.74H1731.21V627.74H1736.21ZM1787.74 627.74H1792.74V622.74H1787.74V627.74ZM1787.74 636.149V641.149H1792.74V636.149H1787.74ZM1745.64 636.149V631.149H1740.64V636.149H1745.64ZM1745.64 657.974H1740.64V662.974H1745.64V657.974ZM1785.07 657.974H1790.07V652.974H1785.07V657.974ZM1785.07 666.335V671.335H1790.07V666.335H1785.07ZM1745.64 666.335V661.335H1740.64V666.335H1745.64ZM1745.64 690.591H1740.64V695.591H1745.64V690.591ZM1789.39 690.591H1794.39V685.591H1789.39V690.591ZM1789.39 699V704H1794.39V699H1789.39ZM1741.21 699V627.74H1731.21V699H1741.21ZM1736.21 632.74H1787.74V622.74H1736.21V632.74ZM1782.74 627.74V636.149H1792.74V627.74H1782.74ZM1787.74 631.149H1745.64V641.149H1787.74V631.149ZM1740.64 636.149V657.974H1750.64V636.149H1740.64ZM1745.64 662.974H1785.07V652.974H1745.64V662.974ZM1780.07 657.974V666.335H1790.07V657.974H1780.07ZM1785.07 661.335H1745.64V671.335H1785.07V661.335ZM1740.64 666.335V690.591H1750.64V666.335H1740.64ZM1745.64 695.591H1789.39V685.591H1745.64V695.591ZM1784.39 690.591V699H1794.39V690.591H1784.39ZM1789.39 694H1736.21V704H1789.39V694ZM1802.56 699H1797.56V704H1802.56V699ZM1802.56 627.74V622.74H1797.56V627.74H1802.56ZM1848.65 629.684L1846.82 634.339L1846.84 634.347L1846.86 634.355L1848.65 629.684ZM1839.46 666.578L1838.78 661.625L1822.31 663.887L1837.29 671.085L1839.46 666.578ZM1845.15 670.127L1848.53 666.443L1848.51 666.426L1848.49 666.41L1845.15 670.127ZM1852.97 679.605L1857.18 676.913L1857.17 676.897L1857.16 676.882L1852.97 679.605ZM1865.37 699V704H1874.5L1869.58 696.307L1865.37 699ZM1853.51 699L1849.29 701.683L1850.76 704H1853.51V699ZM1844.08 684.174L1848.3 681.491L1848.29 681.479L1848.28 681.467L1844.08 684.174ZM1832.46 669.592L1829.73 673.782L1829.75 673.796L1829.77 673.81L1832.46 669.592ZM1828.18 667.696L1829.37 662.839L1829.29 662.821L1829.22 662.805L1828.18 667.696ZM1811.99 667.356V662.356H1806.99V667.356H1811.99ZM1811.99 699V704H1816.99V699H1811.99ZM1811.99 659.19H1806.99V664.19H1811.99V659.19ZM1842.37 657.877L1844.07 662.582L1844.1 662.572L1844.12 662.561L1842.37 657.877ZM1847.92 653.6L1852.11 656.325L1852.12 656.309L1852.13 656.293L1847.92 653.6ZM1846.12 638.871L1842.79 642.6L1842.8 642.611L1842.81 642.622L1846.12 638.871ZM1811.99 635.615V630.615H1806.99V635.615H1811.99ZM1807.56 699V627.74H1797.56V699H1807.56ZM1802.56 632.74H1834.16V622.74H1802.56V632.74ZM1834.16 632.74C1840.3 632.74 1844.39 633.385 1846.82 634.339L1850.47 625.03C1846.29 623.392 1840.72 622.74 1834.16 622.74V632.74ZM1846.86 634.355C1849.05 635.194 1850.85 636.676 1852.3 639.045L1860.84 633.837C1858.33 629.725 1854.85 626.703 1850.43 625.014L1846.86 634.355ZM1852.3 639.045C1853.78 641.474 1854.53 644.149 1854.53 647.183H1864.53C1864.53 642.375 1863.31 637.889 1860.84 633.837L1852.3 639.045ZM1854.53 647.183C1854.53 651.047 1853.33 654.056 1850.99 656.535L1858.26 663.4C1862.47 658.944 1864.53 653.43 1864.53 647.183H1854.53ZM1850.99 656.535C1848.78 658.873 1844.98 660.773 1838.78 661.625L1840.14 671.532C1847.62 670.504 1853.92 667.997 1858.26 663.4L1850.99 656.535ZM1837.29 671.085C1839.58 672.184 1841 673.125 1841.8 673.843L1848.49 666.41C1846.7 664.795 1844.33 663.371 1841.62 662.071L1837.29 671.085ZM1841.77 673.811C1844.15 676.002 1846.5 678.82 1848.78 682.329L1857.16 676.882C1854.52 672.808 1851.65 669.307 1848.53 666.443L1841.77 673.811ZM1848.76 682.298L1861.15 701.693L1869.58 696.307L1857.18 676.913L1848.76 682.298ZM1865.37 694H1853.51V704H1865.37V694ZM1857.73 696.317L1848.3 681.491L1839.86 686.858L1849.29 701.683L1857.73 696.317ZM1848.28 681.467C1845.49 677.141 1843.13 673.717 1841.2 671.266L1833.34 677.445C1834.98 679.531 1837.15 682.653 1839.87 686.881L1848.28 681.467ZM1841.2 671.266C1839.28 668.822 1837.27 666.725 1835.14 665.374L1829.77 673.81C1830.5 674.274 1831.7 675.353 1833.34 677.445L1841.2 671.266ZM1835.19 665.402C1833.37 664.22 1831.43 663.343 1829.37 662.839L1826.99 672.553C1827.85 672.762 1828.76 673.149 1829.73 673.782L1835.19 665.402ZM1829.22 662.805C1827.6 662.461 1825.39 662.356 1822.93 662.356V672.356C1825.33 672.356 1826.63 672.478 1827.14 672.587L1829.22 662.805ZM1822.93 662.356H1811.99V672.356H1822.93V662.356ZM1806.99 667.356V699H1816.99V667.356H1806.99ZM1811.99 694H1802.56V704H1811.99V694ZM1811.99 664.19H1832.26V654.19H1811.99V664.19ZM1832.26 664.19C1836.82 664.19 1840.85 663.74 1844.07 662.582L1840.68 653.173C1839.04 653.765 1836.33 654.19 1832.26 654.19V664.19ZM1844.12 662.561C1847.43 661.326 1850.19 659.273 1852.11 656.325L1843.72 650.875C1843.11 651.816 1842.18 652.614 1840.63 653.193L1844.12 662.561ZM1852.13 656.293C1853.9 653.529 1854.81 650.458 1854.81 647.183H1844.81C1844.81 648.51 1844.46 649.717 1843.7 650.906L1852.13 656.293ZM1854.81 647.183C1854.81 642.421 1853 638.269 1849.42 635.121L1842.81 642.622C1844.17 643.816 1844.81 645.205 1844.81 647.183H1854.81ZM1849.45 635.143C1845.68 631.775 1840.34 630.615 1834.55 630.615V640.615C1839.32 640.615 1841.7 641.625 1842.79 642.6L1849.45 635.143ZM1834.55 630.615H1811.99V640.615H1834.55V630.615ZM1806.99 635.615V659.19H1816.99V635.615H1806.99ZM1907.7 671.05H1902.7V676.05H1907.7V671.05ZM1907.7 662.689L1907.7 657.69L1902.7 657.698V662.689H1907.7ZM1937.89 662.641H1942.89V657.633L1937.88 657.641L1937.89 662.641ZM1937.89 689.084L1941.01 692.994L1942.89 691.492V689.084H1937.89ZM1923.55 697.445L1925.31 702.126L1925.32 702.121L1925.33 702.116L1923.55 697.445ZM1889.28 695.743L1886.95 700.164L1886.96 700.172L1886.98 700.18L1889.28 695.743ZM1876.3 644.316L1871.8 642.138L1871.8 642.148L1876.3 644.316ZM1921.61 629.052L1919.72 633.685L1919.75 633.694L1919.77 633.702L1921.61 629.052ZM1936.82 647.669L1938.14 652.491L1942.89 651.19L1941.66 646.426L1936.82 647.669ZM1928.31 650.003L1923.52 651.416L1924.91 656.123L1929.64 654.825L1928.31 650.003ZM1917.52 636.49L1915.55 641.085L1915.58 641.094L1915.6 641.103L1917.52 636.49ZM1896.52 636.587L1898.43 641.209L1898.45 641.201L1898.47 641.192L1896.52 636.587ZM1888.89 641.739L1885.19 638.376L1885.18 638.391L1885.17 638.407L1888.89 641.739ZM1884.42 648.787L1879.81 646.86L1879.8 646.872L1879.8 646.884L1884.42 648.787ZM1884.96 679.071L1880.5 681.334L1880.5 681.347L1880.51 681.36L1884.96 679.071ZM1919.81 689.376L1921.67 694.018L1921.68 694.011L1921.7 694.004L1919.81 689.376ZM1928.65 684.32L1931.97 688.061L1933.65 686.569V684.32H1928.65ZM1928.65 671.05H1933.65V666.05H1928.65V671.05ZM1912.7 671.05V662.689H1902.7V671.05H1912.7ZM1907.71 667.689L1937.9 667.641L1937.88 657.641L1907.7 657.69L1907.71 667.689ZM1932.89 662.641V689.084H1942.89V662.641H1932.89ZM1934.77 685.174C1930.49 688.587 1926.16 691.098 1921.77 692.773L1925.33 702.116C1930.8 700.032 1936.02 696.97 1941.01 692.994L1934.77 685.174ZM1921.8 692.763C1917.42 694.403 1912.96 695.215 1908.39 695.215V705.215C1914.18 705.215 1919.83 704.181 1925.31 702.126L1921.8 692.763ZM1908.39 695.215C1902.12 695.215 1896.55 693.888 1891.59 691.307L1886.98 700.18C1893.48 703.561 1900.65 705.215 1908.39 705.215V695.215ZM1891.62 691.322C1886.81 688.781 1883.24 685.179 1880.8 680.429L1871.91 685.003C1875.3 691.596 1880.35 696.678 1886.95 700.164L1891.62 691.322ZM1880.8 680.429C1878.28 675.533 1876.98 669.994 1876.98 663.71H1866.98C1866.98 671.426 1868.59 678.557 1871.91 685.003L1880.8 680.429ZM1876.98 663.71C1876.98 657.493 1878.26 651.773 1880.81 646.483L1871.8 642.148C1868.57 648.848 1866.98 656.058 1866.98 663.71H1876.98ZM1880.8 646.493C1883.3 641.332 1886.77 637.682 1891.21 635.307L1886.48 626.492C1880.03 629.95 1875.14 635.244 1871.8 642.138L1880.8 646.493ZM1891.21 635.307C1895.82 632.834 1901.26 631.525 1907.66 631.525V621.525C1899.86 621.525 1892.76 623.132 1886.48 626.492L1891.21 635.307ZM1907.66 631.525C1912.26 631.525 1916.26 632.276 1919.72 633.685L1923.49 624.42C1918.66 622.458 1913.36 621.525 1907.66 621.525V631.525ZM1919.77 633.702C1923.28 635.091 1925.78 636.933 1927.51 639.111L1935.34 632.896C1932.34 629.112 1928.29 626.319 1923.44 624.403L1919.77 633.702ZM1927.51 639.111C1929.33 641.404 1930.87 644.601 1931.98 648.913L1941.66 646.426C1940.31 641.146 1938.25 636.565 1935.34 632.896L1927.51 639.111ZM1935.5 642.848L1926.99 645.181L1929.64 654.825L1938.14 652.491L1935.5 642.848ZM1933.11 648.59C1931.94 644.613 1930.39 641.135 1928.3 638.408L1920.36 644.487C1921.45 645.908 1922.55 648.133 1923.52 651.416L1933.11 648.59ZM1928.3 638.408C1926.07 635.5 1923.03 633.369 1919.45 631.876L1915.6 641.103C1917.92 642.073 1919.41 643.247 1920.36 644.487L1928.3 638.408ZM1919.49 631.894C1915.85 630.333 1911.9 629.594 1907.7 629.594V639.594C1910.71 639.594 1913.3 640.119 1915.55 641.085L1919.49 631.894ZM1907.7 629.594C1902.9 629.594 1898.48 630.334 1894.58 631.981L1898.47 641.192C1900.86 640.183 1903.89 639.594 1907.7 639.594V629.594ZM1894.62 631.964C1890.91 633.493 1887.72 635.602 1885.19 638.376L1892.59 645.103C1893.96 643.599 1895.85 642.273 1898.43 641.209L1894.62 631.964ZM1885.17 638.407C1882.89 640.947 1881.1 643.768 1879.81 646.86L1889.03 650.715C1889.88 648.687 1891.07 646.809 1892.62 645.072L1885.17 638.407ZM1879.8 646.884C1877.71 651.942 1876.7 657.375 1876.7 663.127H1886.7C1886.7 658.574 1887.5 654.447 1889.04 650.691L1879.8 646.884ZM1876.7 663.127C1876.7 670.02 1877.87 676.165 1880.5 681.334L1889.41 676.807C1887.7 673.421 1886.7 668.937 1886.7 663.127H1876.7ZM1880.51 681.36C1883.19 686.554 1887.14 690.513 1892.31 693.077L1896.75 684.119C1893.56 682.534 1891.13 680.142 1889.4 676.781L1880.51 681.36ZM1892.31 693.077C1897.19 695.496 1902.39 696.709 1907.85 696.709V686.709C1903.92 686.709 1900.24 685.848 1896.75 684.119L1892.31 693.077ZM1907.85 696.709C1912.59 696.709 1917.2 695.803 1921.67 694.018L1917.95 684.733C1914.64 686.059 1911.28 686.709 1907.85 686.709V696.709ZM1921.7 694.004C1925.85 692.31 1929.37 690.367 1931.97 688.061L1925.34 680.58C1923.92 681.838 1921.54 683.266 1917.92 684.747L1921.7 694.004ZM1933.65 684.32V671.05H1923.65V684.32H1933.65ZM1928.65 666.05H1907.7V676.05H1928.65V666.05ZM1971.92 699H1966.92V704H1971.92V699ZM1971.92 668.814H1976.92V667.297L1976.07 666.035L1971.92 668.814ZM1944.45 627.74V622.74H1935.09L1940.3 630.519L1944.45 627.74ZM1955.92 627.74L1960.11 625.004L1958.63 622.74H1955.92V627.74ZM1969.97 649.225L1974.17 646.514L1974.17 646.501L1974.16 646.489L1969.97 649.225ZM1977.21 661.28L1972.85 663.711L1977.15 671.442L1981.55 663.769L1977.21 661.28ZM1984.99 648.69L1980.82 645.939L1980.81 645.948L1980.81 645.957L1984.99 648.69ZM1998.8 627.74V622.74H1996.1L1994.62 624.989L1998.8 627.74ZM2009.78 627.74L2013.89 630.586L2019.33 622.74H2009.78V627.74ZM1981.35 668.814L1977.24 665.968L1976.35 667.252V668.814H1981.35ZM1981.35 699V704H1986.35V699H1981.35ZM1976.92 699V668.814H1966.92V699H1976.92ZM1976.07 666.035L1948.61 624.961L1940.3 630.519L1967.76 671.593L1976.07 666.035ZM1944.45 632.74H1955.92V622.74H1944.45V632.74ZM1951.74 630.476L1965.79 651.961L1974.16 646.489L1960.11 625.004L1951.74 630.476ZM1965.77 651.936C1968.31 655.866 1970.66 659.791 1972.85 663.711L1981.58 658.849C1979.29 654.732 1976.82 650.62 1974.17 646.514L1965.77 651.936ZM1981.55 663.769C1983.63 660.145 1986.17 656.032 1989.18 651.423L1980.81 645.957C1977.72 650.682 1975.08 654.962 1972.88 658.791L1981.55 663.769ZM1989.17 651.441L2002.97 630.491L1994.62 624.989L1980.82 645.939L1989.17 651.441ZM1998.8 632.74H2009.78V622.74H1998.8V632.74ZM2005.67 624.894L1977.24 665.968L1985.46 671.66L2013.89 630.586L2005.67 624.894ZM1976.35 668.814V699H1986.35V668.814H1976.35ZM1981.35 694H1971.92V704H1981.35V694Z" fill="#DCA413" mask="url(#path-1-outside-1_2031_2)"/>
<mask id="path-3-outside-2_2031_2" maskUnits="userSpaceOnUse" x="2083" y="622" width="203" height="82" fill="black">
<rect fill="white" x="2083" y="622" width="203" height="82"/>
<path d="M2088.29 699V627.74H2097.72V690.591H2132.82V699H2088.29ZM2154.84 699V636.149H2131.36V627.74H2187.84V636.149H2164.27V699H2154.84ZM2197.56 699V627.74H2222.11C2227.65 627.74 2231.88 628.08 2234.8 628.761C2238.88 629.701 2242.36 631.402 2245.25 633.865C2249.01 637.04 2251.81 641.107 2253.66 646.065C2255.54 650.991 2256.48 656.63 2256.48 662.981C2256.48 668.393 2255.84 673.189 2254.58 677.369C2253.32 681.55 2251.7 685.017 2249.72 687.771C2247.74 690.494 2245.57 692.648 2243.21 694.236C2240.87 695.792 2238.04 696.975 2234.7 697.785C2231.39 698.595 2227.59 699 2223.28 699H2197.56ZM2206.99 690.591H2222.21C2226.91 690.591 2230.58 690.153 2233.24 689.278C2235.93 688.403 2238.07 687.172 2239.66 685.584C2241.89 683.348 2243.63 680.351 2244.86 676.592C2246.12 672.8 2246.75 668.215 2246.75 662.835C2246.75 655.382 2245.52 649.662 2243.06 645.677C2240.63 641.658 2237.66 638.969 2234.17 637.608C2231.64 636.635 2227.57 636.149 2221.96 636.149H2206.99V690.591Z"/>
<path d="M2270.86 699V689.035H2280.83V699H2270.86Z"/>
</mask>
<path d="M2088.29 699V627.74H2097.72V690.591H2132.82V699H2088.29ZM2154.84 699V636.149H2131.36V627.74H2187.84V636.149H2164.27V699H2154.84ZM2197.56 699V627.74H2222.11C2227.65 627.74 2231.88 628.08 2234.8 628.761C2238.88 629.701 2242.36 631.402 2245.25 633.865C2249.01 637.04 2251.81 641.107 2253.66 646.065C2255.54 650.991 2256.48 656.63 2256.48 662.981C2256.48 668.393 2255.84 673.189 2254.58 677.369C2253.32 681.55 2251.7 685.017 2249.72 687.771C2247.74 690.494 2245.57 692.648 2243.21 694.236C2240.87 695.792 2238.04 696.975 2234.7 697.785C2231.39 698.595 2227.59 699 2223.28 699H2197.56ZM2206.99 690.591H2222.21C2226.91 690.591 2230.58 690.153 2233.24 689.278C2235.93 688.403 2238.07 687.172 2239.66 685.584C2241.89 683.348 2243.63 680.351 2244.86 676.592C2246.12 672.8 2246.75 668.215 2246.75 662.835C2246.75 655.382 2245.52 649.662 2243.06 645.677C2240.63 641.658 2237.66 638.969 2234.17 637.608C2231.64 636.635 2227.57 636.149 2221.96 636.149H2206.99V690.591Z" fill="#1B1B1B"/>
<path d="M2270.86 699V689.035H2280.83V699H2270.86Z" fill="black"/>
<path d="M2088.29 699H2083.29V704H2088.29V699ZM2088.29 627.74V622.74H2083.29V627.74H2088.29ZM2097.72 627.74H2102.72V622.74H2097.72V627.74ZM2097.72 690.591H2092.72V695.591H2097.72V690.591ZM2132.82 690.591H2137.82V685.591H2132.82V690.591ZM2132.82 699V704H2137.82V699H2132.82ZM2093.29 699V627.74H2083.29V699H2093.29ZM2088.29 632.74H2097.72V622.74H2088.29V632.74ZM2092.72 627.74V690.591H2102.72V627.74H2092.72ZM2097.72 695.591H2132.82V685.591H2097.72V695.591ZM2127.82 690.591V699H2137.82V690.591H2127.82ZM2132.82 694H2088.29V704H2132.82V694ZM2154.84 699H2149.84V704H2154.84V699ZM2154.84 636.149H2159.84V631.149H2154.84V636.149ZM2131.36 636.149H2126.36V641.149H2131.36V636.149ZM2131.36 627.74V622.74H2126.36V627.74H2131.36ZM2187.84 627.74H2192.84V622.74H2187.84V627.74ZM2187.84 636.149V641.149H2192.84V636.149H2187.84ZM2164.27 636.149V631.149H2159.27V636.149H2164.27ZM2164.27 699V704H2169.27V699H2164.27ZM2159.84 699V636.149H2149.84V699H2159.84ZM2154.84 631.149H2131.36V641.149H2154.84V631.149ZM2136.36 636.149V627.74H2126.36V636.149H2136.36ZM2131.36 632.74H2187.84V622.74H2131.36V632.74ZM2182.84 627.74V636.149H2192.84V627.74H2182.84ZM2187.84 631.149H2164.27V641.149H2187.84V631.149ZM2159.27 636.149V699H2169.27V636.149H2159.27ZM2164.27 694H2154.84V704H2164.27V694ZM2197.56 699H2192.56V704H2197.56V699ZM2197.56 627.74V622.74H2192.56V627.74H2197.56ZM2234.8 628.761L2233.66 633.63L2233.67 633.632L2233.68 633.633L2234.8 628.761ZM2245.25 633.865L2242 637.667L2242.01 637.676L2242.02 637.684L2245.25 633.865ZM2253.66 646.065L2248.97 647.811L2248.98 647.829L2248.99 647.848L2253.66 646.065ZM2249.72 687.771L2253.77 690.709L2253.77 690.698L2253.78 690.687L2249.72 687.771ZM2243.21 694.236L2245.98 698.397L2245.99 698.392L2245.99 698.388L2243.21 694.236ZM2234.7 697.785L2233.52 692.926L2233.51 692.929L2234.7 697.785ZM2206.99 690.591H2201.99V695.591H2206.99V690.591ZM2233.24 689.278L2231.69 684.524L2231.69 684.526L2231.68 684.529L2233.24 689.278ZM2244.86 676.592L2240.12 675.01L2240.11 675.023L2240.11 675.035L2244.86 676.592ZM2243.06 645.677L2238.78 648.264L2238.79 648.285L2238.81 648.305L2243.06 645.677ZM2234.17 637.608L2235.98 632.948L2235.97 632.944L2235.96 632.941L2234.17 637.608ZM2206.99 636.149V631.149H2201.99V636.149H2206.99ZM2202.56 699V627.74H2192.56V699H2202.56ZM2197.56 632.74H2222.11V622.74H2197.56V632.74ZM2222.11 632.74C2227.53 632.74 2231.31 633.081 2233.66 633.63L2235.93 623.892C2232.45 623.08 2227.77 622.74 2222.11 622.74V632.74ZM2233.68 633.633C2237.06 634.412 2239.79 635.78 2242 637.667L2248.49 630.062C2244.94 627.024 2240.7 624.989 2235.92 623.888L2233.68 633.633ZM2242.02 637.684C2245.07 640.264 2247.4 643.596 2248.97 647.811L2258.34 644.32C2256.22 638.619 2252.94 633.817 2248.47 630.045L2242.02 637.684ZM2248.99 647.848C2250.61 652.101 2251.48 657.117 2251.48 662.981H2261.48C2261.48 656.142 2260.46 649.881 2258.33 644.283L2248.99 647.848ZM2251.48 662.981C2251.48 668.015 2250.89 672.308 2249.79 675.922L2259.37 678.816C2260.8 674.07 2261.48 668.771 2261.48 662.981H2251.48ZM2249.79 675.922C2248.65 679.72 2247.24 682.656 2245.66 684.856L2253.78 690.687C2256.16 687.378 2257.99 683.379 2259.37 678.816L2249.79 675.922ZM2245.67 684.833C2243.98 687.164 2242.22 688.878 2240.42 690.085L2245.99 698.388C2248.93 696.419 2251.5 693.823 2253.77 690.709L2245.67 684.833ZM2240.43 690.076C2238.68 691.244 2236.41 692.224 2233.52 692.926L2235.88 702.644C2239.66 701.726 2243.06 700.34 2245.98 698.397L2240.43 690.076ZM2233.51 692.929C2230.68 693.622 2227.29 694 2223.28 694V704C2227.89 704 2232.11 703.568 2235.89 702.641L2233.51 692.929ZM2223.28 694H2197.56V704H2223.28V694ZM2206.99 695.591H2222.21V685.591H2206.99V695.591ZM2222.21 695.591C2227.13 695.591 2231.42 695.144 2234.81 694.027L2231.68 684.529C2229.75 685.163 2226.68 685.591 2222.21 685.591V695.591ZM2234.79 694.033C2238.04 692.976 2240.92 691.391 2243.19 689.12L2236.12 682.049C2235.22 682.953 2233.82 683.831 2231.69 684.524L2234.79 694.033ZM2243.19 689.12C2246.11 686.207 2248.19 682.47 2249.61 678.148L2240.11 675.035C2239.06 678.231 2237.68 680.489 2236.12 682.049L2243.19 689.12ZM2249.6 678.173C2251.08 673.729 2251.75 668.579 2251.75 662.835H2241.75C2241.75 667.851 2241.16 671.871 2240.12 675.01L2249.6 678.173ZM2251.75 662.835C2251.75 654.953 2250.47 648.162 2247.31 643.048L2238.81 648.305C2240.57 651.163 2241.75 655.812 2241.75 662.835H2251.75ZM2247.34 643.089C2244.48 638.367 2240.74 634.8 2235.98 632.948L2232.35 642.268C2234.59 643.138 2236.78 644.949 2238.78 648.264L2247.34 643.089ZM2235.96 632.941C2232.52 631.619 2227.67 631.149 2221.96 631.149V641.149C2227.47 641.149 2230.75 641.652 2232.37 642.274L2235.96 632.941ZM2221.96 631.149H2206.99V641.149H2221.96V631.149ZM2201.99 636.149V690.591H2211.99V636.149H2201.99ZM2270.86 699H2265.86V704H2270.86V699ZM2270.86 689.035V684.035H2265.86V689.035H2270.86ZM2280.83 689.035H2285.83V684.035H2280.83V689.035ZM2280.83 699V704H2285.83V699H2280.83ZM2275.86 699V689.035H2265.86V699H2275.86ZM2270.86 694.035H2280.83V684.035H2270.86V694.035ZM2275.83 689.035V699H2285.83V689.035H2275.83ZM2280.83 694H2270.86V704H2280.83V694Z" fill="#DCA413" mask="url(#path-3-outside-2_2031_2)"/>
<mask id="path-5-inside-3_2031_2" fill="white">
<path fill-rule="evenodd" clip-rule="evenodd" d="M487.341 555.151L695.625 313H807.909L555.028 607H542.549L542.656 607.101H407.732L192.537 405H327.461L487.341 555.151Z"/>
</mask>
<path fill-rule="evenodd" clip-rule="evenodd" d="M487.341 555.151L695.625 313H807.909L555.028 607H542.549L542.656 607.101H407.732L192.537 405H327.461L487.341 555.151Z" fill="#DCA413"/>
<path d="M695.625 313V308H693.331L691.835 309.74L695.625 313ZM487.341 555.151L483.918 558.796L487.726 562.372L491.132 558.412L487.341 555.151ZM807.909 313L811.699 316.26L818.804 308H807.909V313ZM555.028 607V612H557.322L558.818 610.26L555.028 607ZM542.549 607V602H529.923L539.126 610.644L542.549 607ZM542.656 607.101V612.101H555.283L546.08 603.456L542.656 607.101ZM407.732 607.101L404.309 610.745L405.752 612.101H407.732V607.101ZM192.537 405V400H179.909L189.114 408.645L192.537 405ZM327.461 405L330.884 401.355L329.441 400H327.461V405ZM691.835 309.74L483.551 551.891L491.132 558.412L699.416 316.26L691.835 309.74ZM807.909 308H695.625V318H807.909V308ZM558.818 610.26L811.699 316.26L804.118 309.74L551.237 603.74L558.818 610.26ZM542.549 612H555.028V602H542.549V612ZM546.08 603.456L545.972 603.356L539.126 610.644L539.233 610.745L546.08 603.456ZM407.732 612.101H542.656V602.101H407.732V612.101ZM189.114 408.645L404.309 610.745L411.155 603.456L195.96 401.355L189.114 408.645ZM327.461 400H192.537V410H327.461V400ZM490.764 551.507L330.884 401.355L324.038 408.645L483.918 558.796L490.764 551.507Z" fill="black" mask="url(#path-5-inside-3_2031_2)"/>
<mask id="path-7-inside-4_2031_2" fill="white">
<path fill-rule="evenodd" clip-rule="evenodd" d="M255.572 569.182L432.647 363H542.924L333.37 607H289.64H223.093H180.875L0.0805054 438H115.235L255.572 569.182Z"/>
</mask>
<path fill-rule="evenodd" clip-rule="evenodd" d="M255.572 569.182L432.647 363H542.924L333.37 607H289.64H223.093H180.875L0.0805054 438H115.235L255.572 569.182Z" fill="#1B1B1B"/>
<path d="M432.647 363V358H430.35L428.854 359.742L432.647 363ZM255.572 569.182L252.158 572.835L255.967 576.396L259.365 572.439L255.572 569.182ZM542.924 363L546.717 366.258L553.809 358H542.924V363ZM333.37 607V612H335.666L337.163 610.258L333.37 607ZM180.875 607L177.46 610.653L178.902 612H180.875V607ZM0.0805054 438V433H-12.5904L-3.33388 441.653L0.0805054 438ZM115.235 438L118.65 434.347L117.208 433H115.235V438ZM428.854 359.742L251.779 565.924L259.365 572.439L436.44 366.258L428.854 359.742ZM542.924 358H432.647V368H542.924V358ZM337.163 610.258L546.717 366.258L539.131 359.742L329.577 603.742L337.163 610.258ZM289.64 612H333.37V602H289.64V612ZM223.093 612H289.64V602H223.093V612ZM180.875 612H223.093V602H180.875V612ZM-3.33388 441.653L177.46 610.653L184.289 603.347L3.49489 434.347L-3.33388 441.653ZM115.235 433H0.0805054V443H115.235V433ZM258.986 565.529L118.65 434.347L111.821 441.653L252.158 572.835L258.986 565.529Z" fill="#DCA413" mask="url(#path-7-inside-4_2031_2)"/>
<mask id="path-9-outside-5_2031_2" maskUnits="userSpaceOnUse" x="1577" y="390.311" width="725" height="192" fill="black">
<rect fill="white" x="1577" y="390.311" width="725" height="192"/>
<path d="M1582.55 572.311V399.91H1641.14C1655.28 399.91 1665.72 401.502 1672.48 404.686C1679.31 407.792 1684.63 412.451 1688.44 418.664C1692.32 424.799 1694.26 431.322 1694.26 438.234C1694.26 446.932 1691.23 455.241 1685.18 463.162C1679.2 471.006 1668.44 477.374 1652.91 482.266C1665.26 485.295 1674.69 489.061 1681.21 493.565C1687.82 498.069 1692.79 503.428 1696.13 509.641C1699.54 515.853 1701.25 522.532 1701.25 529.676C1701.25 537.442 1699.23 544.703 1695.19 551.459C1691.23 558.138 1685.76 563.302 1678.77 566.952C1671.78 570.525 1661.02 572.311 1646.5 572.311H1582.55ZM1617.03 471.666H1624.83C1635.86 471.666 1644.09 468.987 1649.53 463.628C1655.04 458.192 1657.8 451.591 1657.8 443.825C1657.8 439.709 1656.99 436.137 1655.35 433.108C1653.72 430.08 1650.89 427.75 1646.85 426.119C1642.81 424.411 1635.05 423.557 1623.55 423.557H1617.03V471.666ZM1617.03 547.848H1624.02C1636.68 547.848 1645.3 547.033 1649.88 545.402C1654.46 543.771 1657.92 541.131 1660.25 537.481C1662.58 533.831 1663.74 529.793 1663.74 525.366C1663.74 516.824 1659.94 509.602 1652.33 503.7C1644.72 497.72 1635.05 494.73 1623.32 494.73H1617.03V547.848ZM1732.82 572.311V399.91H1797.35C1810.55 399.91 1820.61 401.579 1827.52 404.919C1834.43 408.18 1839.87 413.189 1843.83 419.945C1847.87 426.624 1849.89 434.196 1849.89 442.66C1849.89 452.756 1846.98 462.308 1841.15 471.316C1835.33 480.247 1827.1 487.081 1816.46 491.818L1872.84 572.311H1829.15L1786.4 501.836H1766.6V572.311H1732.82ZM1766.6 478.189H1774.87C1789.7 478.189 1799.92 474.966 1805.51 468.521C1811.1 462.075 1813.89 454.775 1813.89 446.621C1813.89 439.554 1811.6 433.963 1807.02 429.847C1802.44 425.653 1793.12 423.557 1779.06 423.557H1766.6V478.189ZM1897.53 572.311V399.91H1933.41V572.311H1897.53ZM2115.48 565.438C2107.95 568.777 2101.38 571.068 2095.79 572.311C2090.2 573.553 2083.83 574.563 2076.69 575.339C2069.62 576.194 2062.63 576.621 2055.72 576.621C2025.59 576.621 2003.11 568.117 1988.27 551.11C1973.44 534.103 1966.03 512.436 1966.03 486.11C1966.03 459.629 1973.4 437.923 1988.16 420.994C2002.99 404.064 2026.25 395.6 2057.93 395.6C2076.65 395.6 2095.29 397.813 2113.85 402.239V430.313C2104.92 427.206 2097.62 424.954 2091.95 423.557C2086.28 422.081 2080.88 420.994 2075.76 420.295C2070.71 419.596 2065.66 419.246 2060.61 419.246C2040.81 419.246 2026.44 425.614 2017.51 438.35C2008.58 451.086 2004.12 466.851 2004.12 485.644C2004.12 505.369 2009.16 521.328 2019.26 533.52C2029.43 545.713 2044.54 551.809 2064.57 551.809C2081.27 551.809 2098.24 547.538 2115.48 538.995V565.438ZM2146.81 572.311V399.91H2181.29V483.547L2247.23 399.91H2277.05L2217.29 477.257L2291.49 572.311H2246.64L2181.29 487.508V572.311H2146.81Z"/>
</mask>
<path d="M1582.55 572.311V399.91H1641.14C1655.28 399.91 1665.72 401.502 1672.48 404.686C1679.31 407.792 1684.63 412.451 1688.44 418.664C1692.32 424.799 1694.26 431.322 1694.26 438.234C1694.26 446.932 1691.23 455.241 1685.18 463.162C1679.2 471.006 1668.44 477.374 1652.91 482.266C1665.26 485.295 1674.69 489.061 1681.21 493.565C1687.82 498.069 1692.79 503.428 1696.13 509.641C1699.54 515.853 1701.25 522.532 1701.25 529.676C1701.25 537.442 1699.23 544.703 1695.19 551.459C1691.23 558.138 1685.76 563.302 1678.77 566.952C1671.78 570.525 1661.02 572.311 1646.5 572.311H1582.55ZM1617.03 471.666H1624.83C1635.86 471.666 1644.09 468.987 1649.53 463.628C1655.04 458.192 1657.8 451.591 1657.8 443.825C1657.8 439.709 1656.99 436.137 1655.35 433.108C1653.72 430.08 1650.89 427.75 1646.85 426.119C1642.81 424.411 1635.05 423.557 1623.55 423.557H1617.03V471.666ZM1617.03 547.848H1624.02C1636.68 547.848 1645.3 547.033 1649.88 545.402C1654.46 543.771 1657.92 541.131 1660.25 537.481C1662.58 533.831 1663.74 529.793 1663.74 525.366C1663.74 516.824 1659.94 509.602 1652.33 503.7C1644.72 497.72 1635.05 494.73 1623.32 494.73H1617.03V547.848ZM1732.82 572.311V399.91H1797.35C1810.55 399.91 1820.61 401.579 1827.52 404.919C1834.43 408.18 1839.87 413.189 1843.83 419.945C1847.87 426.624 1849.89 434.196 1849.89 442.66C1849.89 452.756 1846.98 462.308 1841.15 471.316C1835.33 480.247 1827.1 487.081 1816.46 491.818L1872.84 572.311H1829.15L1786.4 501.836H1766.6V572.311H1732.82ZM1766.6 478.189H1774.87C1789.7 478.189 1799.92 474.966 1805.51 468.521C1811.1 462.075 1813.89 454.775 1813.89 446.621C1813.89 439.554 1811.6 433.963 1807.02 429.847C1802.44 425.653 1793.12 423.557 1779.06 423.557H1766.6V478.189ZM1897.53 572.311V399.91H1933.41V572.311H1897.53ZM2115.48 565.438C2107.95 568.777 2101.38 571.068 2095.79 572.311C2090.2 573.553 2083.83 574.563 2076.69 575.339C2069.62 576.194 2062.63 576.621 2055.72 576.621C2025.59 576.621 2003.11 568.117 1988.27 551.11C1973.44 534.103 1966.03 512.436 1966.03 486.11C1966.03 459.629 1973.4 437.923 1988.16 420.994C2002.99 404.064 2026.25 395.6 2057.93 395.6C2076.65 395.6 2095.29 397.813 2113.85 402.239V430.313C2104.92 427.206 2097.62 424.954 2091.95 423.557C2086.28 422.081 2080.88 420.994 2075.76 420.295C2070.71 419.596 2065.66 419.246 2060.61 419.246C2040.81 419.246 2026.44 425.614 2017.51 438.35C2008.58 451.086 2004.12 466.851 2004.12 485.644C2004.12 505.369 2009.16 521.328 2019.26 533.52C2029.43 545.713 2044.54 551.809 2064.57 551.809C2081.27 551.809 2098.24 547.538 2115.48 538.995V565.438ZM2146.81 572.311V399.91H2181.29V483.547L2247.23 399.91H2277.05L2217.29 477.257L2291.49 572.311H2246.64L2181.29 487.508V572.311H2146.81Z" fill="#DCA413"/>
<path d="M1582.55 572.311H1577.55V577.311H1582.55V572.311ZM1582.55 399.91V394.91H1577.55V399.91H1582.55ZM1672.48 404.686L1670.35 409.209L1670.38 409.223L1670.41 409.237L1672.48 404.686ZM1688.44 418.664L1684.17 421.276L1684.19 421.307L1684.21 421.338L1688.44 418.664ZM1685.18 463.162L1681.2 460.125L1681.2 460.131L1685.18 463.162ZM1652.91 482.266L1651.41 477.497L1634.36 482.866L1651.72 487.122L1652.91 482.266ZM1681.21 493.565L1678.37 497.68L1678.39 497.688L1678.4 497.695L1681.21 493.565ZM1696.13 509.641L1691.72 512.008L1691.73 512.029L1691.74 512.05L1696.13 509.641ZM1695.19 551.459L1690.9 548.894L1690.9 548.902L1690.89 548.909L1695.19 551.459ZM1678.77 566.952L1681.04 571.404L1681.06 571.394L1681.08 571.384L1678.77 566.952ZM1617.03 471.666H1612.03V476.666H1617.03V471.666ZM1649.53 463.628L1653.04 467.189L1653.04 467.189L1649.53 463.628ZM1646.85 426.119L1644.9 430.724L1644.94 430.74L1644.98 430.755L1646.85 426.119ZM1617.03 423.557V418.557H1612.03V423.557H1617.03ZM1617.03 547.848H1612.03V552.848H1617.03V547.848ZM1660.25 537.481L1656.03 534.791L1660.25 537.481ZM1652.33 503.7L1649.24 507.631L1649.25 507.641L1649.26 507.651L1652.33 503.7ZM1617.03 494.73V489.73H1612.03V494.73H1617.03ZM1587.55 572.311V399.91H1577.55V572.311H1587.55ZM1582.55 404.91H1641.14V394.91H1582.55V404.91ZM1641.14 404.91C1655.08 404.91 1664.62 406.508 1670.35 409.209L1674.61 400.163C1666.83 396.495 1655.47 394.91 1641.14 394.91V404.91ZM1670.41 409.237C1676.36 411.944 1680.91 415.941 1684.17 421.276L1692.7 416.052C1688.36 408.961 1682.26 403.64 1674.55 400.134L1670.41 409.237ZM1684.21 421.338C1687.62 426.715 1689.26 432.318 1689.26 438.234H1699.26C1699.26 430.327 1697.02 422.883 1692.66 415.99L1684.21 421.338ZM1689.26 438.234C1689.26 445.677 1686.7 452.942 1681.2 460.125L1689.15 466.199C1695.77 457.54 1699.26 448.186 1699.26 438.234H1689.26ZM1681.2 460.131C1676.13 466.775 1666.54 472.731 1651.41 477.497L1654.41 487.035C1670.34 482.016 1682.26 475.237 1689.15 466.194L1681.2 460.131ZM1651.72 487.122C1663.79 490.083 1672.56 493.666 1678.37 497.68L1684.06 489.451C1676.82 484.456 1666.72 480.507 1654.1 477.41L1651.72 487.122ZM1678.4 497.695C1684.42 501.808 1688.81 506.591 1691.72 512.008L1700.53 507.273C1696.76 500.265 1691.21 494.331 1684.03 489.435L1678.4 497.695ZM1691.74 512.05C1694.75 517.519 1696.25 523.368 1696.25 529.676H1706.25C1706.25 521.696 1704.33 514.188 1700.51 507.231L1691.74 512.05ZM1696.25 529.676C1696.25 536.526 1694.48 542.902 1690.9 548.894L1699.49 554.025C1703.98 546.504 1706.25 538.358 1706.25 529.676H1696.25ZM1690.89 548.909C1687.41 554.775 1682.63 559.294 1676.45 562.52L1681.08 571.384C1688.88 567.311 1695.05 561.501 1699.49 554.01L1690.89 548.909ZM1676.49 562.5C1670.58 565.522 1660.8 567.311 1646.5 567.311V577.311C1661.25 577.311 1672.98 575.527 1681.04 571.404L1676.49 562.5ZM1646.5 567.311H1582.55V577.311H1646.5V567.311ZM1617.03 476.666H1624.83V466.666H1617.03V476.666ZM1624.83 476.666C1636.59 476.666 1646.32 473.812 1653.04 467.189L1646.02 460.067C1641.87 464.161 1635.13 466.666 1624.83 466.666V476.666ZM1653.04 467.189C1659.51 460.81 1662.8 452.925 1662.8 443.825H1652.8C1652.8 450.257 1650.58 455.574 1646.02 460.068L1653.04 467.189ZM1662.8 443.825C1662.8 439.044 1661.85 434.626 1659.76 430.738L1650.95 435.479C1652.12 437.649 1652.8 440.375 1652.8 443.825H1662.8ZM1659.76 430.738C1657.44 426.433 1653.55 423.432 1648.72 421.483L1644.98 430.755C1648.23 432.068 1650.01 433.726 1650.95 435.479L1659.76 430.738ZM1648.8 421.514C1646.11 420.378 1642.6 419.673 1638.54 419.227C1634.42 418.773 1629.41 418.557 1623.55 418.557V428.557C1629.19 428.557 1633.81 428.767 1637.45 429.167C1641.17 429.576 1643.55 430.152 1644.9 430.724L1648.8 421.514ZM1623.55 418.557H1617.03V428.557H1623.55V418.557ZM1612.03 423.557V471.666H1622.03V423.557H1612.03ZM1617.03 552.848H1624.02V542.848H1617.03V552.848ZM1624.02 552.848C1636.62 552.848 1646.06 552.07 1651.56 550.113L1648.2 540.692C1644.54 541.996 1636.74 542.848 1624.02 542.848V552.848ZM1651.56 550.113C1657.05 548.158 1661.46 544.873 1664.46 540.171L1656.03 534.791C1654.37 537.389 1651.87 539.385 1648.2 540.692L1651.56 550.113ZM1664.46 540.171C1667.32 535.699 1668.74 530.724 1668.74 525.366H1658.74C1658.74 528.862 1657.84 531.963 1656.03 534.791L1664.46 540.171ZM1668.74 525.366C1668.74 515.067 1664.04 506.46 1655.39 499.749L1649.26 507.651C1655.83 512.743 1658.74 518.581 1658.74 525.366H1668.74ZM1655.42 499.768C1646.75 492.959 1635.92 489.73 1623.32 489.73V499.73C1634.17 499.73 1642.68 502.481 1649.24 507.631L1655.42 499.768ZM1623.32 489.73H1617.03V499.73H1623.32V489.73ZM1612.03 494.73V547.848H1622.03V494.73H1612.03ZM1732.82 572.311H1727.82V577.311H1732.82V572.311ZM1732.82 399.91V394.91H1727.82V399.91H1732.82ZM1827.52 404.919L1825.35 409.421L1825.37 409.431L1825.39 409.44L1827.52 404.919ZM1843.83 419.945L1839.52 422.474L1839.53 422.503L1839.55 422.533L1843.83 419.945ZM1841.15 471.316L1845.34 474.048L1845.35 474.039L1845.35 474.031L1841.15 471.316ZM1816.46 491.818L1814.42 487.25L1808.88 489.718L1812.36 494.687L1816.46 491.818ZM1872.84 572.311V577.311H1882.44L1876.93 569.442L1872.84 572.311ZM1829.15 572.311L1824.88 574.904L1826.34 577.311H1829.15V572.311ZM1786.4 501.836L1790.68 499.243L1789.22 496.836H1786.4V501.836ZM1766.6 501.836V496.836H1761.6V501.836H1766.6ZM1766.6 572.311V577.311H1771.6V572.311H1766.6ZM1766.6 478.189H1761.6V483.189H1766.6V478.189ZM1807.02 429.847L1803.65 433.535L1803.66 433.551L1803.68 433.566L1807.02 429.847ZM1766.6 423.557V418.557H1761.6V423.557H1766.6ZM1737.82 572.311V399.91H1727.82V572.311H1737.82ZM1732.82 404.91H1797.35V394.91H1732.82V404.91ZM1797.35 404.91C1810.27 404.91 1819.44 406.565 1825.35 409.421L1829.7 400.416C1821.78 396.593 1810.84 394.91 1797.35 394.91V404.91ZM1825.39 409.44C1831.37 412.261 1836.05 416.564 1839.52 422.474L1848.14 417.417C1843.69 409.815 1837.5 404.099 1829.66 400.397L1825.39 409.44ZM1839.55 422.533C1843.08 428.365 1844.89 435.028 1844.89 442.66H1854.89C1854.89 433.364 1852.66 424.883 1848.11 417.358L1839.55 422.533ZM1844.89 442.66C1844.89 451.731 1842.29 460.349 1836.95 468.602L1845.35 474.031C1851.66 464.267 1854.89 453.78 1854.89 442.66H1844.89ZM1836.96 468.585C1831.71 476.635 1824.27 482.867 1814.42 487.25L1818.49 496.386C1829.92 491.294 1838.94 483.859 1845.34 474.048L1836.96 468.585ZM1812.36 494.687L1868.74 575.179L1876.93 569.442L1820.55 488.949L1812.36 494.687ZM1872.84 567.311H1829.15V577.311H1872.84V567.311ZM1833.43 569.717L1790.68 499.243L1782.13 504.429L1824.88 574.904L1833.43 569.717ZM1786.4 496.836H1766.6V506.836H1786.4V496.836ZM1761.6 501.836V572.311H1771.6V501.836H1761.6ZM1766.6 567.311H1732.82V577.311H1766.6V567.311ZM1766.6 483.189H1774.87V473.189H1766.6V483.189ZM1774.87 483.189C1790.14 483.189 1802.23 479.923 1809.28 471.797L1801.73 465.244C1797.6 470.01 1789.27 473.189 1774.87 473.189V483.189ZM1809.28 471.797C1815.62 464.488 1818.89 456.038 1818.89 446.621H1808.89C1808.89 453.512 1806.57 459.662 1801.73 465.244L1809.28 471.797ZM1818.89 446.621C1818.89 438.366 1816.16 431.336 1810.36 426.127L1803.68 433.566C1807.05 436.59 1808.89 440.742 1808.89 446.621H1818.89ZM1810.4 426.158C1807.21 423.239 1802.78 421.396 1797.69 420.251C1792.55 419.093 1786.31 418.557 1779.06 418.557V428.557C1785.88 428.557 1791.32 429.068 1795.5 430.007C1799.73 430.958 1802.25 432.261 1803.65 433.535L1810.4 426.158ZM1779.06 418.557H1766.6V428.557H1779.06V418.557ZM1761.6 423.557V478.189H1771.6V423.557H1761.6ZM1897.53 572.311H1892.53V577.311H1897.53V572.311ZM1897.53 399.91V394.91H1892.53V399.91H1897.53ZM1933.41 399.91H1938.41V394.91H1933.41V399.91ZM1933.41 572.311V577.311H1938.41V572.311H1933.41ZM1902.53 572.311V399.91H1892.53V572.311H1902.53ZM1897.53 404.91H1933.41V394.91H1897.53V404.91ZM1928.41 399.91V572.311H1938.41V399.91H1928.41ZM1933.41 567.311H1897.53V577.311H1933.41V567.311ZM2115.48 565.438L2117.51 570.009L2120.48 568.691V565.438H2115.48ZM2076.69 575.339L2076.15 570.369L2076.12 570.372L2076.09 570.375L2076.69 575.339ZM1988.16 420.994L1984.4 417.699L1984.39 417.709L1988.16 420.994ZM2113.85 402.239H2118.85V398.292L2115.01 397.376L2113.85 402.239ZM2113.85 430.313L2112.21 435.035L2118.85 437.346V430.313H2113.85ZM2091.95 423.557L2090.69 428.395L2090.72 428.403L2090.75 428.411L2091.95 423.557ZM2075.76 420.295L2075.07 425.248L2075.08 425.249L2075.76 420.295ZM2019.26 533.52L2015.41 536.709L2015.42 536.717L2015.42 536.724L2019.26 533.52ZM2115.48 538.995H2120.48V530.938L2113.26 534.515L2115.48 538.995ZM2113.45 560.867C2106.1 564.125 2099.87 566.283 2094.71 567.43L2096.88 577.192C2102.9 575.854 2109.79 573.429 2117.51 570.009L2113.45 560.867ZM2094.71 567.43C2089.33 568.624 2083.15 569.607 2076.15 570.369L2077.23 580.31C2084.51 579.518 2091.07 578.483 2096.88 577.192L2094.71 567.43ZM2076.09 570.375C2069.21 571.206 2062.43 571.621 2055.72 571.621V581.621C2062.84 581.621 2070.03 581.181 2077.29 580.303L2076.09 570.375ZM2055.72 571.621C2026.52 571.621 2005.64 563.408 1992.04 547.824L1984.51 554.396C2000.58 572.826 2024.66 581.621 2055.72 581.621V571.621ZM1992.04 547.824C1978.13 531.876 1971.03 511.441 1971.03 486.11H1961.03C1961.03 513.432 1968.75 536.33 1984.51 554.396L1992.04 547.824ZM1971.03 486.11C1971.03 460.608 1978.1 440.139 1991.93 424.279L1984.39 417.709C1968.7 435.707 1961.03 458.649 1961.03 486.11H1971.03ZM1991.92 424.289C2005.46 408.829 2027.08 400.6 2057.93 400.6V390.6C2025.42 390.6 2000.52 399.3 1984.4 417.699L1991.92 424.289ZM2057.93 400.6C2076.25 400.6 2094.5 402.765 2112.69 407.103L2115.01 397.376C2096.08 392.86 2077.05 390.6 2057.93 390.6V400.6ZM2108.85 402.239V430.313H2118.85V402.239H2108.85ZM2115.49 425.59C2106.49 422.46 2099.03 420.152 2093.15 418.702L2090.75 428.411C2096.21 429.756 2103.34 431.953 2112.21 435.035L2115.49 425.59ZM2093.21 418.718C2087.37 417.199 2081.78 416.07 2076.43 415.341L2075.08 425.249C2079.99 425.918 2085.19 426.963 2090.69 428.395L2093.21 418.718ZM2076.44 415.342C2071.17 414.612 2065.89 414.246 2060.61 414.246V424.246C2065.43 424.246 2070.25 424.58 2075.07 425.248L2076.44 415.342ZM2060.61 414.246C2039.68 414.246 2023.54 421.048 2013.42 435.48L2021.61 441.221C2029.35 430.18 2041.94 424.246 2060.61 424.246V414.246ZM2013.42 435.48C2003.79 449.219 1999.12 466.041 1999.12 485.644H2009.12C2009.12 467.66 2013.38 452.954 2021.61 441.221L2013.42 435.48ZM1999.12 485.644C1999.12 506.239 2004.4 523.417 2015.41 536.709L2023.11 530.332C2013.93 519.24 2009.12 504.5 2009.12 485.644H1999.12ZM2015.42 536.724C2026.78 550.343 2043.48 556.809 2064.57 556.809V546.809C2045.6 546.809 2032.08 541.083 2023.1 530.317L2015.42 536.724ZM2064.57 556.809C2082.15 556.809 2099.87 552.308 2117.7 543.475L2113.26 534.515C2096.6 542.768 2080.39 546.809 2064.57 546.809V556.809ZM2110.48 538.995V565.438H2120.48V538.995H2110.48ZM2146.81 572.311H2141.81V577.311H2146.81V572.311ZM2146.81 399.91V394.91H2141.81V399.91H2146.81ZM2181.29 399.91H2186.29V394.91H2181.29V399.91ZM2181.29 483.547H2176.29V497.967L2185.22 486.643L2181.29 483.547ZM2247.23 399.91V394.91H2244.8L2243.3 396.814L2247.23 399.91ZM2277.05 399.91L2281 402.967L2287.23 394.91H2277.05V399.91ZM2217.29 477.257L2213.33 474.2L2210.96 477.273L2213.35 480.334L2217.29 477.257ZM2291.49 572.311V577.311H2301.74L2295.43 569.234L2291.49 572.311ZM2246.64 572.311L2242.68 575.363L2244.18 577.311H2246.64V572.311ZM2181.29 487.508L2185.25 484.456L2176.29 472.828V487.508H2181.29ZM2181.29 572.311V577.311H2186.29V572.311H2181.29ZM2151.81 572.311V399.91H2141.81V572.311H2151.81ZM2146.81 404.91H2181.29V394.91H2146.81V404.91ZM2176.29 399.91V483.547H2186.29V399.91H2176.29ZM2185.22 486.643L2251.15 403.005L2243.3 396.814L2177.37 480.452L2185.22 486.643ZM2247.23 404.91H2277.05V394.91H2247.23V404.91ZM2273.09 396.853L2213.33 474.2L2221.25 480.314L2281 402.967L2273.09 396.853ZM2213.35 480.334L2287.55 575.387L2295.43 569.234L2221.23 474.18L2213.35 480.334ZM2291.49 567.311H2246.64V577.311H2291.49V567.311ZM2250.6 569.259L2185.25 484.456L2177.33 490.56L2242.68 575.363L2250.6 569.259ZM2176.29 487.508V572.311H2186.29V487.508H2176.29ZM2181.29 567.311H2146.81V577.311H2181.29V567.311Z" fill="#1B1B1B" mask="url(#path-9-outside-5_2031_2)"/>
<mask id="path-11-outside-6_2031_2" maskUnits="userSpaceOnUse" x="884" y="389" width="677" height="195" fill="black">
<rect fill="white" x="884" y="389" width="677" height="195"/>
<path d="M934.141 574L890.485 398.902H924.913L956.856 527.031L987.025 398.902H1017.43L1046.06 526.321L1079.66 398.902H1104.86L1058.96 574H1024.17L997.2 453.916L968.924 574H934.141ZM1129 574V398.902H1238.43V422.919H1165.44V471.78H1225.3V495.916H1165.44V549.155H1243.99V574H1129ZM1264.7 572.462V542.411C1278.19 548.09 1288.24 551.482 1294.87 552.586C1301.57 553.69 1307.72 554.242 1313.32 554.242C1323.42 554.242 1330.95 551.955 1335.92 547.38C1340.89 542.806 1343.37 537.324 1343.37 530.935C1343.37 526.045 1342.03 521.628 1339.35 517.685C1336.67 513.82 1329.89 508.811 1319 502.659L1307.29 496.152C1290.57 486.766 1279.25 478.09 1273.33 470.124C1267.34 462.158 1264.34 452.93 1264.34 442.44C1264.34 429.268 1269.31 417.989 1279.25 408.603C1289.27 399.217 1303.62 394.524 1322.31 394.524C1336.28 394.524 1352.01 396.535 1369.52 400.558V428.597C1351.7 421.893 1337.54 418.541 1327.05 418.541C1318.37 418.541 1311.75 420.473 1307.17 424.338C1302.68 428.124 1300.43 432.699 1300.43 438.062C1300.43 442.164 1301.77 445.989 1304.45 449.538C1307.05 453.088 1313.8 457.938 1324.68 464.09L1337.22 471.071C1356.39 481.876 1368.61 491.262 1373.9 499.228C1379.1 507.273 1381.71 516.304 1381.71 526.321C1381.71 540.676 1376.26 552.941 1365.38 563.116C1354.57 573.29 1337.34 578.377 1313.68 578.377C1299.64 578.377 1283.31 576.406 1264.7 572.462ZM1456.36 574V422.919H1393.66V398.902H1555.62V422.919H1492.92V574H1456.36Z"/>
</mask>
<path d="M934.141 574L890.485 398.902H924.913L956.856 527.031L987.025 398.902H1017.43L1046.06 526.321L1079.66 398.902H1104.86L1058.96 574H1024.17L997.2 453.916L968.924 574H934.141ZM1129 574V398.902H1238.43V422.919H1165.44V471.78H1225.3V495.916H1165.44V549.155H1243.99V574H1129ZM1264.7 572.462V542.411C1278.19 548.09 1288.24 551.482 1294.87 552.586C1301.57 553.69 1307.72 554.242 1313.32 554.242C1323.42 554.242 1330.95 551.955 1335.92 547.38C1340.89 542.806 1343.37 537.324 1343.37 530.935C1343.37 526.045 1342.03 521.628 1339.35 517.685C1336.67 513.82 1329.89 508.811 1319 502.659L1307.29 496.152C1290.57 486.766 1279.25 478.09 1273.33 470.124C1267.34 462.158 1264.34 452.93 1264.34 442.44C1264.34 429.268 1269.31 417.989 1279.25 408.603C1289.27 399.217 1303.62 394.524 1322.31 394.524C1336.28 394.524 1352.01 396.535 1369.52 400.558V428.597C1351.7 421.893 1337.54 418.541 1327.05 418.541C1318.37 418.541 1311.75 420.473 1307.17 424.338C1302.68 428.124 1300.43 432.699 1300.43 438.062C1300.43 442.164 1301.77 445.989 1304.45 449.538C1307.05 453.088 1313.8 457.938 1324.68 464.09L1337.22 471.071C1356.39 481.876 1368.61 491.262 1373.9 499.228C1379.1 507.273 1381.71 516.304 1381.71 526.321C1381.71 540.676 1376.26 552.941 1365.38 563.116C1354.57 573.29 1337.34 578.377 1313.68 578.377C1299.64 578.377 1283.31 576.406 1264.7 572.462ZM1456.36 574V422.919H1393.66V398.902H1555.62V422.919H1492.92V574H1456.36Z" fill="#1B1B1B"/>
<path d="M934.141 574L929.289 575.21L930.234 579H934.141V574ZM890.485 398.902V393.902H884.085L885.633 400.111L890.485 398.902ZM924.913 398.902L929.764 397.692L928.819 393.902H924.913V398.902ZM956.856 527.031L952.005 528.241L961.723 528.177L956.856 527.031ZM987.025 398.902V393.902H983.066L982.158 397.756L987.025 398.902ZM1017.43 398.902L1022.31 397.806L1021.43 393.902H1017.43V398.902ZM1046.06 526.321L1041.18 527.417L1050.9 527.596L1046.06 526.321ZM1079.66 398.902V393.902H1075.81L1074.83 397.627L1079.66 398.902ZM1104.86 398.902L1109.7 400.17L1111.34 393.902H1104.86V398.902ZM1058.96 574V579H1062.82L1063.79 575.268L1058.96 574ZM1024.17 574L1019.3 575.096L1020.17 579H1024.17V574ZM997.2 453.916L1002.08 452.82L992.333 452.77L997.2 453.916ZM968.924 574V579H972.883L973.791 575.146L968.924 574ZM938.992 572.79L895.336 397.692L885.633 400.111L929.289 575.21L938.992 572.79ZM890.485 403.902H924.913V393.902H890.485V403.902ZM920.061 400.111L952.005 528.241L961.708 525.822L929.764 397.692L920.061 400.111ZM961.723 528.177L991.892 400.048L982.158 397.756L951.989 525.885L961.723 528.177ZM987.025 403.902H1017.43V393.902H987.025V403.902ZM1012.55 399.998L1041.18 527.417L1050.94 525.225L1022.31 397.806L1012.55 399.998ZM1050.9 527.596L1084.5 400.177L1074.83 397.627L1041.23 525.046L1050.9 527.596ZM1079.66 403.902H1104.86V393.902H1079.66V403.902ZM1100.03 397.634L1054.12 572.732L1063.79 575.268L1109.7 400.17L1100.03 397.634ZM1058.96 569H1024.17V579H1058.96V569ZM1029.05 572.904L1002.08 452.82L992.321 455.012L1019.3 575.096L1029.05 572.904ZM992.333 452.77L964.057 572.854L973.791 575.146L1002.07 455.062L992.333 452.77ZM968.924 569H934.141V579H968.924V569ZM1129 574H1124V579H1129V574ZM1129 398.902V393.902H1124V398.902H1129ZM1238.43 398.902H1243.43V393.902H1238.43V398.902ZM1238.43 422.919V427.919H1243.43V422.919H1238.43ZM1165.44 422.919V417.919H1160.44V422.919H1165.44ZM1165.44 471.78H1160.44V476.78H1165.44V471.78ZM1225.3 471.78H1230.3V466.78H1225.3V471.78ZM1225.3 495.916V500.916H1230.3V495.916H1225.3ZM1165.44 495.916V490.916H1160.44V495.916H1165.44ZM1165.44 549.155H1160.44V554.155H1165.44V549.155ZM1243.99 549.155H1248.99V544.155H1243.99V549.155ZM1243.99 574V579H1248.99V574H1243.99ZM1134 574V398.902H1124V574H1134ZM1129 403.902H1238.43V393.902H1129V403.902ZM1233.43 398.902V422.919H1243.43V398.902H1233.43ZM1238.43 417.919H1165.44V427.919H1238.43V417.919ZM1160.44 422.919V471.78H1170.44V422.919H1160.44ZM1165.44 476.78H1225.3V466.78H1165.44V476.78ZM1220.3 471.78V495.916H1230.3V471.78H1220.3ZM1225.3 490.916H1165.44V500.916H1225.3V490.916ZM1160.44 495.916V549.155H1170.44V495.916H1160.44ZM1165.44 554.155H1243.99V544.155H1165.44V554.155ZM1238.99 549.155V574H1248.99V549.155H1238.99ZM1243.99 569H1129V579H1243.99V569ZM1264.7 572.462H1259.7V576.514L1263.66 577.353L1264.7 572.462ZM1264.7 542.411L1266.64 537.803L1259.7 534.881V542.411H1264.7ZM1294.87 552.586L1294.04 557.518L1294.05 557.519L1294.87 552.586ZM1339.35 517.685L1343.49 514.873L1343.47 514.854L1343.46 514.834L1339.35 517.685ZM1319 502.659L1321.46 498.306L1321.45 498.297L1321.43 498.288L1319 502.659ZM1307.29 496.152L1304.84 500.512L1304.85 500.518L1304.86 500.523L1307.29 496.152ZM1273.33 470.124L1277.35 467.143L1277.34 467.13L1277.33 467.118L1273.33 470.124ZM1279.25 408.603L1275.83 404.954L1275.82 404.961L1275.82 404.968L1279.25 408.603ZM1369.52 400.558H1374.52V396.576L1370.64 395.685L1369.52 400.558ZM1369.52 428.597L1367.76 433.277L1374.52 435.82V428.597H1369.52ZM1307.17 424.338L1310.39 428.163L1310.4 428.158L1307.17 424.338ZM1304.45 449.538L1308.48 446.581L1308.46 446.553L1308.44 446.524L1304.45 449.538ZM1324.68 464.09L1322.22 468.443L1322.23 468.451L1322.25 468.459L1324.68 464.09ZM1337.22 471.071L1339.68 466.715L1339.67 466.708L1339.65 466.702L1337.22 471.071ZM1373.9 499.228L1378.1 496.512L1378.08 496.488L1378.06 496.464L1373.9 499.228ZM1365.38 563.116L1361.97 559.463L1361.96 559.469L1361.95 559.475L1365.38 563.116ZM1269.7 572.462V542.411H1259.7V572.462H1269.7ZM1262.76 547.02C1276.29 552.715 1286.8 556.311 1294.04 557.518L1295.69 547.654C1289.68 546.653 1280.09 543.465 1266.64 537.803L1262.76 547.02ZM1294.05 557.519C1300.97 558.659 1307.4 559.242 1313.32 559.242V549.242C1308.05 549.242 1302.17 548.721 1295.68 547.652L1294.05 557.519ZM1313.32 559.242C1324.07 559.242 1333.05 556.82 1339.31 551.059L1332.53 543.702C1328.85 547.09 1322.77 549.242 1313.32 549.242V559.242ZM1339.31 551.059C1345.24 545.598 1348.37 538.809 1348.37 530.935H1338.37C1338.37 535.839 1336.54 540.013 1332.53 543.702L1339.31 551.059ZM1348.37 530.935C1348.37 525.069 1346.75 519.668 1343.49 514.873L1335.22 520.496C1337.32 523.588 1338.37 527.021 1338.37 530.935H1348.37ZM1343.46 514.834C1341.65 512.228 1338.76 509.622 1335.22 507.007C1331.61 504.34 1327.01 501.44 1321.46 498.306L1316.54 507.012C1321.88 510.031 1326.11 512.711 1329.28 515.052C1332.52 517.446 1334.37 519.277 1335.24 520.535L1343.46 514.834ZM1321.43 498.288L1309.72 491.781L1304.86 500.523L1316.57 507.03L1321.43 498.288ZM1309.74 491.792C1293.16 482.489 1282.61 474.233 1277.35 467.143L1269.32 473.105C1275.89 481.948 1287.97 491.044 1304.84 500.512L1309.74 491.792ZM1277.33 467.118C1272.02 460.065 1269.34 451.906 1269.34 442.44H1259.34C1259.34 453.954 1262.66 464.25 1269.34 473.13L1277.33 467.118ZM1269.34 442.44C1269.34 430.701 1273.7 420.72 1282.68 412.238L1275.82 404.968C1264.92 415.258 1259.34 427.835 1259.34 442.44H1269.34ZM1282.67 412.252C1291.47 404.008 1304.43 399.524 1322.31 399.524V389.524C1302.82 389.524 1287.07 394.427 1275.83 404.954L1282.67 412.252ZM1322.31 399.524C1335.81 399.524 1351.16 401.47 1368.4 405.431L1370.64 395.685C1352.86 391.601 1336.74 389.524 1322.31 389.524V399.524ZM1364.52 400.558V428.597H1374.52V400.558H1364.52ZM1371.28 423.917C1353.27 417.145 1338.44 413.541 1327.05 413.541V423.541C1336.63 423.541 1350.12 426.641 1367.76 433.277L1371.28 423.917ZM1327.05 413.541C1317.71 413.541 1309.75 415.613 1303.94 420.519L1310.4 428.158C1313.74 425.334 1319.03 423.541 1327.05 423.541V413.541ZM1303.95 420.514C1298.45 425.147 1295.43 431.071 1295.43 438.062H1305.43C1305.43 434.327 1306.9 431.102 1310.39 428.163L1303.95 420.514ZM1295.43 438.062C1295.43 443.345 1297.18 448.213 1300.46 452.552L1308.44 446.524C1306.35 443.765 1305.43 440.982 1305.43 438.062H1295.43ZM1300.42 452.495C1302.19 454.917 1305.05 457.386 1308.54 459.897C1312.11 462.467 1316.69 465.317 1322.22 468.443L1327.14 459.737C1321.79 456.711 1317.55 454.06 1314.38 451.779C1311.13 449.439 1309.31 447.708 1308.48 446.581L1300.42 452.495ZM1322.25 468.459L1334.79 475.439L1339.65 466.702L1327.11 459.721L1322.25 468.459ZM1334.77 475.426C1353.92 486.224 1365.17 495.117 1369.73 501.992L1378.06 496.464C1372.06 487.407 1358.86 477.529 1339.68 466.715L1334.77 475.426ZM1369.7 501.945C1374.36 509.143 1376.71 517.222 1376.71 526.321H1386.71C1386.71 515.387 1383.85 505.404 1378.1 496.512L1369.7 501.945ZM1376.71 526.321C1376.71 539.233 1371.88 550.193 1361.97 559.463L1368.79 566.768C1380.65 555.688 1386.71 542.119 1386.71 526.321H1376.71ZM1361.95 559.475C1352.49 568.382 1336.79 573.377 1313.68 573.377V583.377C1337.89 583.377 1356.66 578.198 1368.81 566.756L1361.95 559.475ZM1313.68 573.377C1300.09 573.377 1284.12 571.466 1265.73 567.571L1263.66 577.353C1282.51 581.346 1299.19 583.377 1313.68 583.377V573.377ZM1456.36 574H1451.36V579H1456.36V574ZM1456.36 422.919H1461.36V417.919H1456.36V422.919ZM1393.66 422.919H1388.66V427.919H1393.66V422.919ZM1393.66 398.902V393.902H1388.66V398.902H1393.66ZM1555.62 398.902H1560.62V393.902H1555.62V398.902ZM1555.62 422.919V427.919H1560.62V422.919H1555.62ZM1492.92 422.919V417.919H1487.92V422.919H1492.92ZM1492.92 574V579H1497.92V574H1492.92ZM1461.36 574V422.919H1451.36V574H1461.36ZM1456.36 417.919H1393.66V427.919H1456.36V417.919ZM1398.66 422.919V398.902H1388.66V422.919H1398.66ZM1393.66 403.902H1555.62V393.902H1393.66V403.902ZM1550.62 398.902V422.919H1560.62V398.902H1550.62ZM1555.62 417.919H1492.92V427.919H1555.62V417.919ZM1487.92 422.919V574H1497.92V422.919H1487.92ZM1492.92 569H1456.36V579H1492.92V569Z" fill="#DCA413" mask="url(#path-11-outside-6_2031_2)"/>
<mask id="path-13-outside-7_2031_2" maskUnits="userSpaceOnUse" x="153" y="49" width="447" height="192" fill="black">
<rect fill="white" x="153" y="49" width="447" height="192"/>
<path d="M239.113 231V184.988H158.62V159.127L237.715 58.599H269.283V159.127H289.435V184.988H269.283V231H239.113ZM186.228 159.127H239.812V91.5648L186.228 159.127ZM378.548 235.31C364.725 235.31 352.804 231.466 342.786 223.778C332.768 216.09 325.08 205.062 319.722 190.695C314.363 176.329 311.684 161.03 311.684 144.799C311.684 128.647 314.325 113.387 319.605 99.02C324.964 84.5756 332.691 73.5093 342.786 65.8212C352.882 58.133 364.802 54.2889 378.548 54.2889C392.138 54.2889 403.981 58.0942 414.076 65.7047C424.172 73.3152 431.899 84.3426 437.257 98.787C442.616 113.154 445.295 128.491 445.295 144.799C445.295 160.564 442.732 175.591 437.607 189.88C432.481 204.091 424.91 215.235 414.892 223.312C404.874 231.311 392.759 235.31 378.548 235.31ZM378.548 213.76C388.876 213.76 396.487 208.052 401.379 196.636C406.272 185.221 408.718 167.165 408.718 142.47C408.718 120.26 406.194 103.602 401.146 92.4967C396.176 81.3916 388.643 75.8391 378.548 75.8391C368.219 75.8391 360.57 81.5469 355.6 92.9627C350.707 104.301 348.261 122.317 348.261 147.013C348.261 169.223 350.785 185.919 355.833 197.102C360.881 208.207 368.452 213.76 378.548 213.76ZM543.843 231V184.988H463.351V159.127L542.445 58.599H574.013V159.127H594.166V184.988H574.013V231H543.843ZM490.958 159.127H544.542V91.5648L490.958 159.127Z"/>
</mask>
<path d="M239.113 231V184.988H158.62V159.127L237.715 58.599H269.283V159.127H289.435V184.988H269.283V231H239.113ZM186.228 159.127H239.812V91.5648L186.228 159.127ZM378.548 235.31C364.725 235.31 352.804 231.466 342.786 223.778C332.768 216.09 325.08 205.062 319.722 190.695C314.363 176.329 311.684 161.03 311.684 144.799C311.684 128.647 314.325 113.387 319.605 99.02C324.964 84.5756 332.691 73.5093 342.786 65.8212C352.882 58.133 364.802 54.2889 378.548 54.2889C392.138 54.2889 403.981 58.0942 414.076 65.7047C424.172 73.3152 431.899 84.3426 437.257 98.787C442.616 113.154 445.295 128.491 445.295 144.799C445.295 160.564 442.732 175.591 437.607 189.88C432.481 204.091 424.91 215.235 414.892 223.312C404.874 231.311 392.759 235.31 378.548 235.31ZM378.548 213.76C388.876 213.76 396.487 208.052 401.379 196.636C406.272 185.221 408.718 167.165 408.718 142.47C408.718 120.26 406.194 103.602 401.146 92.4967C396.176 81.3916 388.643 75.8391 378.548 75.8391C368.219 75.8391 360.57 81.5469 355.6 92.9627C350.707 104.301 348.261 122.317 348.261 147.013C348.261 169.223 350.785 185.919 355.833 197.102C360.881 208.207 368.452 213.76 378.548 213.76ZM543.843 231V184.988H463.351V159.127L542.445 58.599H574.013V159.127H594.166V184.988H574.013V231H543.843ZM490.958 159.127H544.542V91.5648L490.958 159.127Z" fill="#DCA413"/>
<path d="M239.113 231H234.113V236H239.113V231ZM239.113 184.988H244.113V179.988H239.113V184.988ZM158.62 184.988H153.62V189.988H158.62V184.988ZM158.62 159.127L154.691 156.036L153.62 157.396V159.127H158.62ZM237.715 58.599V53.599H235.287L233.785 55.5072L237.715 58.599ZM269.283 58.599H274.283V53.599H269.283V58.599ZM269.283 159.127H264.283V164.127H269.283V159.127ZM289.435 159.127H294.435V154.127H289.435V159.127ZM289.435 184.988V189.988H294.435V184.988H289.435ZM269.283 184.988V179.988H264.283V184.988H269.283ZM269.283 231V236H274.283V231H269.283ZM186.228 159.127L182.31 156.02L175.88 164.127H186.228V159.127ZM239.812 159.127V164.127H244.812V159.127H239.812ZM239.812 91.5648H244.812V77.2141L235.894 88.4579L239.812 91.5648ZM244.113 231V184.988H234.113V231H244.113ZM239.113 179.988H158.62V189.988H239.113V179.988ZM163.62 184.988V159.127H153.62V184.988H163.62ZM162.55 162.219L241.644 61.6907L233.785 55.5072L154.691 156.036L162.55 162.219ZM237.715 63.599H269.283V53.599H237.715V63.599ZM264.283 58.599V159.127H274.283V58.599H264.283ZM269.283 164.127H289.435V154.127H269.283V164.127ZM284.435 159.127V184.988H294.435V159.127H284.435ZM289.435 179.988H269.283V189.988H289.435V179.988ZM264.283 184.988V231H274.283V184.988H264.283ZM269.283 226H239.113V236H269.283V226ZM186.228 164.127H239.812V154.127H186.228V164.127ZM244.812 159.127V91.5648H234.812V159.127H244.812ZM235.894 88.4579L182.31 156.02L190.145 162.234L243.729 94.6718L235.894 88.4579ZM319.605 99.02L314.918 97.281L314.915 97.288L314.912 97.295L319.605 99.02ZM414.076 65.7047L411.067 69.6973L414.076 65.7047ZM437.257 98.787L432.57 100.526L432.573 100.534L437.257 98.787ZM437.607 189.88L442.31 191.576L442.313 191.568L437.607 189.88ZM414.892 223.312L418.012 227.219L418.021 227.212L418.03 227.204L414.892 223.312ZM401.146 92.4967L396.583 94.5393L396.589 94.5525L396.595 94.5657L401.146 92.4967ZM355.6 92.9627L351.016 90.9668L351.012 90.9742L351.009 90.9817L355.6 92.9627ZM355.833 197.102L351.276 199.159L351.281 199.171L355.833 197.102ZM378.548 230.31C365.715 230.31 354.891 226.765 345.83 219.811L339.742 227.744C350.717 236.167 363.734 240.31 378.548 240.31V230.31ZM345.83 219.811C336.702 212.806 329.508 202.625 324.407 188.948L315.037 192.443C320.653 207.499 328.835 219.373 339.742 227.744L345.83 219.811ZM324.407 188.948C319.269 175.172 316.684 160.469 316.684 144.799H306.684C306.684 161.591 309.458 177.485 315.037 192.443L324.407 188.948ZM316.684 144.799C316.684 129.202 319.232 114.529 324.298 100.745L314.912 97.295C309.417 112.244 306.684 128.091 306.684 144.799H316.684ZM324.293 100.759C329.393 87.0117 336.621 76.8009 345.816 69.799L339.757 61.8433C328.76 70.2177 320.535 82.1395 314.918 97.281L324.293 100.759ZM345.816 69.799C354.967 62.8302 365.8 59.2889 378.548 59.2889V49.2889C363.805 49.2889 350.797 53.4358 339.757 61.8433L345.816 69.799ZM378.548 59.2889C391.138 59.2889 401.905 62.7908 411.067 69.6973L417.086 61.7121C406.057 53.3976 393.138 49.2889 378.548 49.2889V59.2889ZM411.067 69.6973C420.247 76.6178 427.471 86.7808 432.57 100.526L441.945 97.048C436.327 81.9045 428.097 70.0126 417.086 61.7121L411.067 69.6973ZM432.573 100.534C437.71 114.307 440.295 129.05 440.295 144.799H450.295C450.295 127.933 447.522 112 441.942 97.0397L432.573 100.534ZM440.295 144.799C440.295 160.011 437.824 174.465 432.9 188.192L442.313 191.568C447.64 176.717 450.295 161.117 450.295 144.799H440.295ZM432.903 188.184C428.034 201.685 420.943 212.011 411.754 219.419L418.03 227.204C428.877 218.46 436.929 206.498 442.31 191.576L432.903 188.184ZM411.772 219.405C402.737 226.618 391.756 230.31 378.548 230.31V240.31C393.762 240.31 407.011 236.003 418.012 227.219L411.772 219.405ZM378.548 218.76C384.696 218.76 390.256 217.039 395.002 213.479C399.69 209.963 403.287 204.879 405.975 198.606L396.784 194.667C394.58 199.809 391.924 203.287 389.002 205.479C386.138 207.627 382.729 208.76 378.548 208.76V218.76ZM405.975 198.606C411.286 186.214 413.718 167.305 413.718 142.47H403.718C403.718 167.025 401.258 184.227 396.784 194.667L405.975 198.606ZM413.718 142.47C413.718 120.037 411.193 102.516 405.698 90.4277L396.595 94.5657C401.195 104.687 403.718 120.482 403.718 142.47H413.718ZM405.71 90.4542C402.976 84.3443 399.375 79.3981 394.736 75.9787C390.041 72.5181 384.574 70.8391 378.548 70.8391V80.8391C382.617 80.8391 385.965 81.9363 388.802 84.0282C391.696 86.1614 394.347 89.5441 396.583 94.5393L405.71 90.4542ZM378.548 70.8391C372.4 70.8391 366.835 72.5603 362.074 76.1127C357.371 79.622 353.745 84.6976 351.016 90.9668L360.184 94.9586C362.425 89.812 365.108 86.3258 368.055 84.1273C370.943 81.9718 374.367 80.8391 378.548 80.8391V70.8391ZM351.009 90.9817C345.692 103.303 343.261 122.181 343.261 147.013H353.261C353.261 122.453 355.723 105.298 360.191 94.9437L351.009 90.9817ZM343.261 147.013C343.261 169.449 345.787 187 351.276 199.159L360.39 195.045C355.783 184.838 353.261 168.997 353.261 147.013H343.261ZM351.281 199.171C354.056 205.277 357.687 210.215 362.341 213.628C367.05 217.081 372.521 218.76 378.548 218.76V208.76C374.479 208.76 371.117 207.663 368.254 205.563C365.336 203.424 362.657 200.033 360.385 195.033L351.281 199.171ZM543.843 231H538.843V236H543.843V231ZM543.843 184.988H548.843V179.988H543.843V184.988ZM463.351 184.988H458.351V189.988H463.351V184.988ZM463.351 159.127L459.421 156.036L458.351 157.396V159.127H463.351ZM542.445 58.599V53.599H540.017L538.516 55.5072L542.445 58.599ZM574.013 58.599H579.013V53.599H574.013V58.599ZM574.013 159.127H569.013V164.127H574.013V159.127ZM594.166 159.127H599.166V154.127H594.166V159.127ZM594.166 184.988V189.988H599.166V184.988H594.166ZM574.013 184.988V179.988H569.013V184.988H574.013ZM574.013 231V236H579.013V231H574.013ZM490.958 159.127L487.041 156.02L480.611 164.127H490.958V159.127ZM544.542 159.127V164.127H549.542V159.127H544.542ZM544.542 91.5648H549.542V77.2141L540.625 88.4579L544.542 91.5648ZM548.843 231V184.988H538.843V231H548.843ZM543.843 179.988H463.351V189.988H543.843V179.988ZM468.351 184.988V159.127H458.351V184.988H468.351ZM467.28 162.219L546.375 61.6907L538.516 55.5072L459.421 156.036L467.28 162.219ZM542.445 63.599H574.013V53.599H542.445V63.599ZM569.013 58.599V159.127H579.013V58.599H569.013ZM574.013 164.127H594.166V154.127H574.013V164.127ZM589.166 159.127V184.988H599.166V159.127H589.166ZM594.166 179.988H574.013V189.988H594.166V179.988ZM569.013 184.988V231H579.013V184.988H569.013ZM574.013 226H543.843V236H574.013V226ZM490.958 164.127H544.542V154.127H490.958V164.127ZM549.542 159.127V91.5648H539.542V159.127H549.542ZM540.625 88.4579L487.041 156.02L494.876 162.234L548.46 94.6718L540.625 88.4579Z" fill="#1B1B1B" mask="url(#path-13-outside-7_2031_2)"/>
<mask id="path-15-outside-8_2031_2" maskUnits="userSpaceOnUse" x="1323" y="49" width="860" height="192" fill="black">
<rect fill="white" x="1323" y="49" width="860" height="192"/>
<path d="M1328.55 231V58.599H1437V82.2459H1364.43V134.665H1424.07V158.428H1364.43V231H1328.55ZM1542.3 235.31C1524.37 235.31 1508.76 231.621 1495.48 224.244C1482.2 216.789 1472.1 206.111 1465.19 192.21C1458.28 178.231 1454.82 162.428 1454.82 144.799C1454.82 127.249 1458.28 111.484 1465.19 97.5057C1472.1 83.5272 1482.24 72.8492 1495.59 65.4717C1508.95 58.0165 1524.52 54.2889 1542.3 54.2889C1560.01 54.2889 1575.54 58.0165 1588.9 65.4717C1602.26 72.8492 1612.39 83.5272 1619.3 97.5057C1626.21 111.484 1629.67 127.249 1629.67 144.799C1629.67 162.428 1626.21 178.231 1619.3 192.21C1612.39 206.111 1602.29 216.789 1589.02 224.244C1575.81 231.621 1560.24 235.31 1542.3 235.31ZM1542.3 211.547C1558.92 211.547 1571.27 204.79 1579.35 191.278C1587.5 177.688 1591.58 162.156 1591.58 144.683C1591.58 127.132 1587.5 111.639 1579.35 98.2046C1571.19 84.6921 1558.85 77.9358 1542.3 77.9358C1525.69 77.9358 1513.3 84.6921 1505.14 98.2046C1496.99 111.639 1492.91 127.132 1492.91 144.683C1492.91 162.156 1496.95 177.688 1505.03 191.278C1513.18 204.79 1525.61 211.547 1542.3 211.547ZM1660.54 58.599H1696.42V164.253C1696.42 183.357 1699.64 196.015 1706.09 202.228C1712.61 208.44 1721.03 211.547 1731.36 211.547C1741.54 211.547 1749.61 208.479 1755.59 202.344C1761.65 196.209 1764.68 184.366 1764.68 166.816V58.599H1795.9V164.486C1795.9 184.444 1793.37 198.772 1788.33 207.47C1783.35 216.09 1776.13 222.885 1766.66 227.855C1757.18 232.825 1745.19 235.31 1730.66 235.31C1716.37 235.31 1704.1 233.019 1693.85 228.437C1683.6 223.778 1675.49 216.905 1669.51 207.819C1663.53 198.655 1660.54 184.094 1660.54 164.136V58.599ZM1837.6 231V58.599H1869.17L1949.08 176.368V58.599H1977.85V231H1945.7L1866.37 113.231V231H1837.6ZM2020.95 231V58.599H2095.15C2115.03 58.599 2130.49 61.7829 2141.51 68.1509C2152.62 74.5189 2161.43 83.9155 2167.96 96.3408C2174.56 108.688 2177.86 123.638 2177.86 141.188C2177.86 158.351 2174.71 173.688 2168.42 187.201C2162.21 200.713 2153.12 211.391 2141.16 219.235C2129.21 227.078 2112.82 231 2092.01 231H2020.95ZM2056.83 206.538H2083.62C2097.6 206.538 2108.28 204.363 2115.65 200.014C2123.11 195.666 2128.97 188.327 2133.24 177.998C2137.59 167.592 2139.77 156.021 2139.77 143.285C2139.77 131.093 2137.67 120.298 2133.48 110.902C2129.28 101.505 2123.46 94.3994 2116 89.5846C2108.63 84.6921 2096.12 82.2459 2078.49 82.2459H2056.83V206.538Z"/>
</mask>
<path d="M1328.55 231V58.599H1437V82.2459H1364.43V134.665H1424.07V158.428H1364.43V231H1328.55ZM1542.3 235.31C1524.37 235.31 1508.76 231.621 1495.48 224.244C1482.2 216.789 1472.1 206.111 1465.19 192.21C1458.28 178.231 1454.82 162.428 1454.82 144.799C1454.82 127.249 1458.28 111.484 1465.19 97.5057C1472.1 83.5272 1482.24 72.8492 1495.59 65.4717C1508.95 58.0165 1524.52 54.2889 1542.3 54.2889C1560.01 54.2889 1575.54 58.0165 1588.9 65.4717C1602.26 72.8492 1612.39 83.5272 1619.3 97.5057C1626.21 111.484 1629.67 127.249 1629.67 144.799C1629.67 162.428 1626.21 178.231 1619.3 192.21C1612.39 206.111 1602.29 216.789 1589.02 224.244C1575.81 231.621 1560.24 235.31 1542.3 235.31ZM1542.3 211.547C1558.92 211.547 1571.27 204.79 1579.35 191.278C1587.5 177.688 1591.58 162.156 1591.58 144.683C1591.58 127.132 1587.5 111.639 1579.35 98.2046C1571.19 84.6921 1558.85 77.9358 1542.3 77.9358C1525.69 77.9358 1513.3 84.6921 1505.14 98.2046C1496.99 111.639 1492.91 127.132 1492.91 144.683C1492.91 162.156 1496.95 177.688 1505.03 191.278C1513.18 204.79 1525.61 211.547 1542.3 211.547ZM1660.54 58.599H1696.42V164.253C1696.42 183.357 1699.64 196.015 1706.09 202.228C1712.61 208.44 1721.03 211.547 1731.36 211.547C1741.54 211.547 1749.61 208.479 1755.59 202.344C1761.65 196.209 1764.68 184.366 1764.68 166.816V58.599H1795.9V164.486C1795.9 184.444 1793.37 198.772 1788.33 207.47C1783.35 216.09 1776.13 222.885 1766.66 227.855C1757.18 232.825 1745.19 235.31 1730.66 235.31C1716.37 235.31 1704.1 233.019 1693.85 228.437C1683.6 223.778 1675.49 216.905 1669.51 207.819C1663.53 198.655 1660.54 184.094 1660.54 164.136V58.599ZM1837.6 231V58.599H1869.17L1949.08 176.368V58.599H1977.85V231H1945.7L1866.37 113.231V231H1837.6ZM2020.95 231V58.599H2095.15C2115.03 58.599 2130.49 61.7829 2141.51 68.1509C2152.62 74.5189 2161.43 83.9155 2167.96 96.3408C2174.56 108.688 2177.86 123.638 2177.86 141.188C2177.86 158.351 2174.71 173.688 2168.42 187.201C2162.21 200.713 2153.12 211.391 2141.16 219.235C2129.21 227.078 2112.82 231 2092.01 231H2020.95ZM2056.83 206.538H2083.62C2097.6 206.538 2108.28 204.363 2115.65 200.014C2123.11 195.666 2128.97 188.327 2133.24 177.998C2137.59 167.592 2139.77 156.021 2139.77 143.285C2139.77 131.093 2137.67 120.298 2133.48 110.902C2129.28 101.505 2123.46 94.3994 2116 89.5846C2108.63 84.6921 2096.12 82.2459 2078.49 82.2459H2056.83V206.538Z" fill="#DCA413"/>
<path d="M1328.55 231H1323.55V236H1328.55V231ZM1328.55 58.599V53.599H1323.55V58.599H1328.55ZM1437 58.599H1442V53.599H1437V58.599ZM1437 82.2459V87.2459H1442V82.2459H1437ZM1364.43 82.2459V77.2459H1359.43V82.2459H1364.43ZM1364.43 134.665H1359.43V139.665H1364.43V134.665ZM1424.07 134.665H1429.07V129.665H1424.07V134.665ZM1424.07 158.428V163.428H1429.07V158.428H1424.07ZM1364.43 158.428V153.428H1359.43V158.428H1364.43ZM1364.43 231V236H1369.43V231H1364.43ZM1333.55 231V58.599H1323.55V231H1333.55ZM1328.55 63.599H1437V53.599H1328.55V63.599ZM1432 58.599V82.2459H1442V58.599H1432ZM1437 77.2459H1364.43V87.2459H1437V77.2459ZM1359.43 82.2459V134.665H1369.43V82.2459H1359.43ZM1364.43 139.665H1424.07V129.665H1364.43V139.665ZM1419.07 134.665V158.428H1429.07V134.665H1419.07ZM1424.07 153.428H1364.43V163.428H1424.07V153.428ZM1359.43 158.428V231H1369.43V158.428H1359.43ZM1364.43 226H1328.55V236H1364.43V226ZM1495.48 224.244L1493.03 228.604L1493.04 228.609L1493.05 228.615L1495.48 224.244ZM1465.19 192.21L1460.71 194.426L1460.71 194.436L1465.19 192.21ZM1465.19 97.5057L1460.71 95.2896L1465.19 97.5057ZM1495.59 65.4717L1498.01 69.8485L1498.02 69.8431L1498.03 69.8377L1495.59 65.4717ZM1588.9 65.4717L1586.46 69.8377L1586.47 69.8431L1586.48 69.8485L1588.9 65.4717ZM1619.3 192.21L1623.78 194.436L1623.78 194.426L1619.3 192.21ZM1589.02 224.244L1591.45 228.608L1591.46 228.604L1589.02 224.244ZM1579.35 191.278L1575.06 188.705L1575.06 188.713L1579.35 191.278ZM1579.35 98.2046L1575.07 100.788L1575.07 100.799L1579.35 98.2046ZM1505.14 98.2046L1509.42 100.799L1509.43 100.788L1505.14 98.2046ZM1505.03 191.278L1500.73 193.832L1500.74 193.847L1500.75 193.861L1505.03 191.278ZM1542.3 230.31C1525.06 230.31 1510.32 226.769 1497.9 219.873L1493.05 228.615C1507.19 236.474 1523.67 240.31 1542.3 240.31V230.31ZM1497.92 219.884C1485.54 212.93 1476.14 203.004 1469.67 189.984L1460.71 194.436C1468.06 209.217 1478.86 220.647 1493.03 228.604L1497.92 219.884ZM1469.67 189.994C1463.14 176.789 1459.82 161.76 1459.82 144.799H1449.82C1449.82 163.096 1453.41 179.673 1460.71 194.426L1469.67 189.994ZM1459.82 144.799C1459.82 127.92 1463.14 112.929 1469.67 99.7218L1460.71 95.2896C1453.41 110.039 1449.82 126.577 1449.82 144.799H1459.82ZM1469.67 99.7218C1476.14 86.6358 1485.57 76.7217 1498.01 69.8485L1493.18 61.0949C1478.91 68.9768 1468.06 80.4186 1460.71 95.2896L1469.67 99.7218ZM1498.03 69.8377C1510.53 62.8615 1525.23 59.2889 1542.3 59.2889V49.2889C1523.81 49.2889 1507.37 53.1716 1493.16 61.1057L1498.03 69.8377ZM1542.3 59.2889C1559.29 59.2889 1573.96 62.8597 1586.46 69.8377L1591.34 61.1057C1577.12 53.1734 1560.73 49.2889 1542.3 49.2889V59.2889ZM1586.48 69.8485C1598.93 76.7217 1608.35 86.6358 1614.82 99.7218L1623.78 95.2896C1616.43 80.4186 1605.59 68.9768 1591.32 61.0949L1586.48 69.8485ZM1614.82 99.7218C1621.35 112.929 1624.67 127.92 1624.67 144.799H1634.67C1634.67 126.577 1631.08 110.039 1623.78 95.2896L1614.82 99.7218ZM1624.67 144.799C1624.67 161.76 1621.35 176.789 1614.82 189.994L1623.78 194.426C1631.08 179.673 1634.67 163.096 1634.67 144.799H1624.67ZM1614.82 189.984C1608.35 203.004 1598.95 212.93 1586.57 219.884L1591.46 228.604C1605.64 220.647 1616.43 209.217 1623.78 194.436L1614.82 189.984ZM1586.58 219.879C1574.25 226.769 1559.55 230.31 1542.3 230.31V240.31C1560.94 240.31 1577.38 236.474 1591.45 228.608L1586.58 219.879ZM1542.3 216.547C1560.56 216.547 1574.6 208.965 1583.64 193.843L1575.06 188.713C1567.94 200.615 1557.28 206.547 1542.3 206.547V216.547ZM1583.63 193.85C1592.3 179.405 1596.58 162.967 1596.58 144.683H1586.58C1586.58 161.346 1582.7 175.97 1575.06 188.705L1583.63 193.85ZM1596.58 144.683C1596.58 126.327 1592.3 109.916 1583.62 95.6104L1575.07 100.799C1582.7 113.363 1586.58 127.937 1586.58 144.683H1596.58ZM1583.63 95.6213C1574.52 80.523 1560.49 72.9358 1542.3 72.9358V82.9358C1557.2 82.9358 1567.87 88.8611 1575.07 100.788L1583.63 95.6213ZM1542.3 72.9358C1524.05 72.9358 1509.98 80.5146 1500.86 95.6213L1509.43 100.788C1516.62 88.8696 1527.32 82.9358 1542.3 82.9358V72.9358ZM1500.87 95.6104C1492.19 109.916 1487.91 126.327 1487.91 144.683H1497.91C1497.91 127.937 1501.79 113.363 1509.42 100.799L1500.87 95.6104ZM1487.91 144.683C1487.91 162.958 1492.15 179.39 1500.73 193.832L1509.33 188.723C1501.76 175.986 1497.91 161.354 1497.91 144.683H1487.91ZM1500.75 193.861C1509.87 208.976 1523.98 216.547 1542.3 216.547V206.547C1527.24 206.547 1516.5 200.604 1509.31 188.695L1500.75 193.861ZM1660.54 58.599V53.599H1655.54V58.599H1660.54ZM1696.42 58.599H1701.42V53.599H1696.42V58.599ZM1706.09 202.228L1702.62 205.828L1702.63 205.838L1702.64 205.848L1706.09 202.228ZM1755.59 202.344L1752.03 198.831L1752.02 198.843L1752.01 198.854L1755.59 202.344ZM1764.68 58.599V53.599H1759.68V58.599H1764.68ZM1795.9 58.599H1800.9V53.599H1795.9V58.599ZM1788.33 207.47L1784 204.96L1784 204.966L1783.99 204.972L1788.33 207.47ZM1766.66 227.855L1768.98 232.283L1766.66 227.855ZM1693.85 228.437L1691.78 232.989L1691.8 232.996L1691.81 233.002L1693.85 228.437ZM1669.51 207.819L1665.32 210.551L1665.33 210.56L1665.33 210.568L1669.51 207.819ZM1660.54 63.599H1696.42V53.599H1660.54V63.599ZM1691.42 58.599V164.253H1701.42V58.599H1691.42ZM1691.42 164.253C1691.42 174.048 1692.24 182.437 1693.99 189.308C1695.73 196.149 1698.48 201.844 1702.62 205.828L1709.55 198.628C1707.24 196.398 1705.16 192.658 1703.68 186.841C1702.21 181.054 1701.42 173.562 1701.42 164.253H1691.42ZM1702.64 205.848C1710.23 213.077 1719.95 216.547 1731.36 216.547V206.547C1722.12 206.547 1714.99 203.804 1709.53 198.607L1702.64 205.848ZM1731.36 216.547C1742.61 216.547 1752.08 213.114 1759.17 205.834L1752.01 198.854C1747.15 203.845 1740.46 206.547 1731.36 206.547V216.547ZM1759.15 205.857C1766.71 198.196 1769.68 184.512 1769.68 166.816H1759.68C1759.68 184.22 1756.58 194.223 1752.03 198.831L1759.15 205.857ZM1769.68 166.816V58.599H1759.68V166.816H1769.68ZM1764.68 63.599H1795.9V53.599H1764.68V63.599ZM1790.9 58.599V164.486H1800.9V58.599H1790.9ZM1790.9 164.486C1790.9 184.274 1788.35 197.466 1784 204.96L1792.65 209.979C1798.4 200.078 1800.9 184.614 1800.9 164.486H1790.9ZM1783.99 204.972C1779.53 212.709 1773.04 218.863 1764.34 223.427L1768.98 232.283C1779.23 226.907 1787.18 219.47 1792.66 209.967L1783.99 204.972ZM1764.34 223.427C1755.79 227.911 1744.65 230.31 1730.66 230.31V240.31C1745.72 240.31 1758.58 237.739 1768.98 232.283L1764.34 223.427ZM1730.66 230.31C1716.89 230.31 1705.35 228.101 1695.89 223.873L1691.81 233.002C1702.86 237.938 1715.86 240.31 1730.66 240.31V230.31ZM1695.92 223.885C1686.5 219.602 1679.13 213.34 1673.68 205.07L1665.33 210.568C1671.85 220.47 1680.71 227.954 1691.78 232.989L1695.92 223.885ZM1673.7 205.087C1668.53 197.166 1665.54 183.813 1665.54 164.136H1655.54C1655.54 184.376 1658.53 200.145 1665.32 210.551L1673.7 205.087ZM1665.54 164.136V58.599H1655.54V164.136H1665.54ZM1837.6 231H1832.6V236H1837.6V231ZM1837.6 58.599V53.599H1832.6V58.599H1837.6ZM1869.17 58.599L1873.3 55.7916L1871.82 53.599H1869.17V58.599ZM1949.08 176.368L1944.94 179.175L1954.08 192.641V176.368H1949.08ZM1949.08 58.599V53.599H1944.08V58.599H1949.08ZM1977.85 58.599H1982.85V53.599H1977.85V58.599ZM1977.85 231V236H1982.85V231H1977.85ZM1945.7 231L1941.55 233.793L1943.04 236H1945.7V231ZM1866.37 113.231L1870.52 110.438L1861.37 96.8587V113.231H1866.37ZM1866.37 231V236H1871.37V231H1866.37ZM1842.6 231V58.599H1832.6V231H1842.6ZM1837.6 63.599H1869.17V53.599H1837.6V63.599ZM1865.03 61.4064L1944.94 179.175L1953.21 173.56L1873.3 55.7916L1865.03 61.4064ZM1954.08 176.368V58.599H1944.08V176.368H1954.08ZM1949.08 63.599H1977.85V53.599H1949.08V63.599ZM1972.85 58.599V231H1982.85V58.599H1972.85ZM1977.85 226H1945.7V236H1977.85V226ZM1949.85 228.207L1870.52 110.438L1862.22 116.025L1941.55 233.793L1949.85 228.207ZM1861.37 113.231V231H1871.37V113.231H1861.37ZM1866.37 226H1837.6V236H1866.37V226ZM2020.95 231H2015.95V236H2020.95V231ZM2020.95 58.599V53.599H2015.95V58.599H2020.95ZM2141.51 68.1509L2139.01 72.4808L2139.02 72.4846L2139.03 72.4884L2141.51 68.1509ZM2167.96 96.3408L2163.53 98.665L2163.54 98.6816L2163.55 98.6981L2167.96 96.3408ZM2168.42 187.201L2163.89 185.091L2163.88 185.101L2163.88 185.112L2168.42 187.201ZM2056.83 206.538H2051.83V211.538H2056.83V206.538ZM2115.65 200.014L2113.13 195.696L2113.12 195.701L2113.11 195.707L2115.65 200.014ZM2133.24 177.998L2128.63 176.07L2128.63 176.079L2128.62 176.088L2133.24 177.998ZM2133.48 110.902L2128.91 112.939L2133.48 110.902ZM2116 89.5845L2113.24 93.7515L2113.27 93.7683L2113.29 93.7847L2116 89.5845ZM2056.83 82.2459V77.2459H2051.83V82.2459H2056.83ZM2025.95 231V58.599H2015.95V231H2025.95ZM2020.95 63.599H2095.15V53.599H2020.95V63.599ZM2095.15 63.599C2114.6 63.599 2129.06 66.732 2139.01 72.4808L2144.01 63.821C2131.91 56.8339 2115.46 53.599 2095.15 53.599V63.599ZM2139.03 72.4884C2149.23 78.3382 2157.4 86.9975 2163.53 98.665L2172.38 94.0166C2165.46 80.8335 2156.01 70.6995 2144 63.8134L2139.03 72.4884ZM2163.55 98.6981C2169.67 110.159 2172.86 124.256 2172.86 141.188H2182.86C2182.86 123.02 2179.44 107.218 2172.37 93.9836L2163.55 98.6981ZM2172.86 141.188C2172.86 157.732 2169.83 172.332 2163.89 185.091L2172.96 189.311C2179.6 175.044 2182.86 158.97 2182.86 141.188H2172.86ZM2163.88 185.112C2158.04 197.808 2149.57 207.746 2138.42 215.054L2143.91 223.416C2156.68 215.037 2166.38 203.619 2172.97 189.289L2163.88 185.112ZM2138.42 215.054C2127.57 222.171 2112.27 226 2092.01 226V236C2113.37 236 2130.84 231.985 2143.91 223.416L2138.42 215.054ZM2092.01 226H2020.95V236H2092.01V226ZM2056.83 211.538H2083.62V201.538H2056.83V211.538ZM2083.62 211.538C2097.99 211.538 2109.7 209.326 2118.19 204.322L2113.11 195.707C2106.85 199.401 2097.21 201.538 2083.62 201.538V211.538ZM2118.17 204.333C2126.82 199.29 2133.3 190.949 2137.86 179.909L2128.62 176.088C2124.65 185.705 2119.4 192.042 2113.13 195.696L2118.17 204.333ZM2137.86 179.926C2142.49 168.835 2144.77 156.598 2144.77 143.285H2134.77C2134.77 155.444 2132.69 166.349 2128.63 176.07L2137.86 179.926ZM2144.77 143.285C2144.77 130.519 2142.57 119.009 2138.04 108.864L2128.91 112.939C2132.77 121.587 2134.77 131.667 2134.77 143.285H2144.77ZM2138.04 108.864C2133.52 98.7266 2127.11 90.8048 2118.72 85.3844L2113.29 93.7847C2119.81 97.9939 2125.05 104.284 2128.91 112.939L2138.04 108.864ZM2118.77 85.4176C2110.09 79.6625 2096.3 77.2459 2078.49 77.2459V87.2459C2095.95 87.2459 2107.16 89.7217 2113.24 93.7515L2118.77 85.4176ZM2078.49 77.2459H2056.83V87.2459H2078.49V77.2459ZM2051.83 82.2459V206.538H2061.83V82.2459H2051.83Z" fill="#1B1B1B" mask="url(#path-15-outside-8_2031_2)"/>
<mask id="path-17-outside-9_2031_2" maskUnits="userSpaceOnUse" x="701" y="49" width="531" height="192" fill="black">
<rect fill="white" x="701" y="49" width="531" height="192"/>
<path d="M706.55 231V58.599H738.118L818.028 176.368V58.599H846.801V231H814.65L735.322 113.231V231H706.55ZM966.666 235.31C948.727 235.31 933.118 231.621 919.838 224.244C906.559 216.789 896.463 206.111 889.551 192.21C882.64 178.231 879.184 162.428 879.184 144.799C879.184 127.249 882.64 111.484 889.551 97.5057C896.463 83.5272 906.597 72.8492 919.955 65.4717C933.312 58.0165 948.882 54.2889 966.666 54.2889C984.372 54.2889 999.904 58.0165 1013.26 65.4717C1026.62 72.8492 1036.75 83.5272 1043.66 97.5057C1050.58 111.484 1054.03 127.249 1054.03 144.799C1054.03 162.428 1050.58 178.231 1043.66 192.21C1036.75 206.111 1026.66 216.789 1013.38 224.244C1000.18 231.621 984.605 235.31 966.666 235.31ZM966.666 211.547C983.285 211.547 995.632 204.79 1003.71 191.278C1011.86 177.688 1015.94 162.156 1015.94 144.683C1015.94 127.132 1011.86 111.639 1003.71 98.2046C995.555 84.6921 983.207 77.9358 966.666 77.9358C950.047 77.9358 937.661 84.6921 929.507 98.2046C921.353 111.639 917.275 127.132 917.275 144.683C917.275 162.156 921.314 177.688 929.39 191.278C937.544 204.79 949.97 211.547 966.666 211.547ZM1129.05 231V82.2459H1067.31V58.599H1226.78V82.2459H1165.04V231H1129.05Z"/>
</mask>
<path d="M706.55 231V58.599H738.118L818.028 176.368V58.599H846.801V231H814.65L735.322 113.231V231H706.55ZM966.666 235.31C948.727 235.31 933.118 231.621 919.838 224.244C906.559 216.789 896.463 206.111 889.551 192.21C882.64 178.231 879.184 162.428 879.184 144.799C879.184 127.249 882.64 111.484 889.551 97.5057C896.463 83.5272 906.597 72.8492 919.955 65.4717C933.312 58.0165 948.882 54.2889 966.666 54.2889C984.372 54.2889 999.904 58.0165 1013.26 65.4717C1026.62 72.8492 1036.75 83.5272 1043.66 97.5057C1050.58 111.484 1054.03 127.249 1054.03 144.799C1054.03 162.428 1050.58 178.231 1043.66 192.21C1036.75 206.111 1026.66 216.789 1013.38 224.244C1000.18 231.621 984.605 235.31 966.666 235.31ZM966.666 211.547C983.285 211.547 995.632 204.79 1003.71 191.278C1011.86 177.688 1015.94 162.156 1015.94 144.683C1015.94 127.132 1011.86 111.639 1003.71 98.2046C995.555 84.6921 983.207 77.9358 966.666 77.9358C950.047 77.9358 937.661 84.6921 929.507 98.2046C921.353 111.639 917.275 127.132 917.275 144.683C917.275 162.156 921.314 177.688 929.39 191.278C937.544 204.79 949.97 211.547 966.666 211.547ZM1129.05 231V82.2459H1067.31V58.599H1226.78V82.2459H1165.04V231H1129.05Z" fill="#1B1B1B"/>
<path d="M706.55 231H701.55V236H706.55V231ZM706.55 58.599V53.599H701.55V58.599H706.55ZM738.118 58.599L742.256 55.7916L740.768 53.599H738.118V58.599ZM818.028 176.368L813.891 179.175L823.028 192.641V176.368H818.028ZM818.028 58.599V53.599H813.028V58.599H818.028ZM846.801 58.599H851.801V53.599H846.801V58.599ZM846.801 231V236H851.801V231H846.801ZM814.65 231L810.503 233.793L811.99 236H814.65V231ZM735.322 113.231L739.469 110.438L730.322 96.8587V113.231H735.322ZM735.322 231V236H740.322V231H735.322ZM711.55 231V58.599H701.55V231H711.55ZM706.55 63.599H738.118V53.599H706.55V63.599ZM733.981 61.4064L813.891 179.175L822.166 173.56L742.256 55.7916L733.981 61.4064ZM823.028 176.368V58.599H813.028V176.368H823.028ZM818.028 63.599H846.801V53.599H818.028V63.599ZM841.801 58.599V231H851.801V58.599H841.801ZM846.801 226H814.65V236H846.801V226ZM818.797 228.207L739.469 110.438L731.176 116.025L810.503 233.793L818.797 228.207ZM730.322 113.231V231H740.322V113.231H730.322ZM735.322 226H706.55V236H735.322V226ZM919.838 224.244L917.39 228.604L917.4 228.609L917.41 228.615L919.838 224.244ZM889.551 192.21L885.069 194.426L885.074 194.436L889.551 192.21ZM889.551 97.5057L885.069 95.2896L889.551 97.5057ZM919.955 65.4717L922.372 69.8485L922.382 69.8431L922.391 69.8377L919.955 65.4717ZM1013.26 65.4717L1010.82 69.8377L1010.83 69.8431L1010.84 69.8485L1013.26 65.4717ZM1043.66 192.21L1048.14 194.436L1048.15 194.426L1043.66 192.21ZM1013.38 224.244L1015.82 228.608L1015.83 228.604L1013.38 224.244ZM1003.71 191.278L999.421 188.705L999.417 188.713L1003.71 191.278ZM1003.71 98.2046L999.428 100.788L999.435 100.799L1003.71 98.2046ZM929.507 98.2046L933.781 100.799L933.788 100.788L929.507 98.2046ZM929.39 191.278L925.092 193.832L925.1 193.847L925.109 193.861L929.39 191.278ZM966.666 230.31C949.423 230.31 934.679 226.769 922.266 219.873L917.41 228.615C931.556 236.474 948.031 240.31 966.666 240.31V230.31ZM922.286 219.884C909.9 212.93 900.502 203.004 894.029 189.984L885.074 194.436C892.424 209.217 903.218 220.647 917.39 228.604L922.286 219.884ZM894.034 189.994C887.505 176.789 884.184 161.76 884.184 144.799H874.184C874.184 163.096 877.775 179.673 885.069 194.426L894.034 189.994ZM884.184 144.799C884.184 127.92 887.503 112.929 894.034 99.7218L885.069 95.2896C877.777 110.039 874.184 126.577 874.184 144.799H884.184ZM894.034 99.7218C900.504 86.6358 909.928 76.7217 922.372 69.8485L917.537 61.0949C903.267 68.9768 892.422 80.4186 885.069 95.2896L894.034 99.7218ZM922.391 69.8377C934.891 62.8615 949.596 59.2889 966.666 59.2889V49.2889C948.169 49.2889 931.733 53.1716 917.518 61.1057L922.391 69.8377ZM966.666 59.2889C983.655 59.2889 998.322 62.8597 1010.82 69.8377L1015.7 61.1057C1001.49 53.1734 985.09 49.2889 966.666 49.2889V59.2889ZM1010.84 69.8485C1023.29 76.7217 1032.71 86.6358 1039.18 99.7218L1048.15 95.2896C1040.79 80.4186 1029.95 68.9768 1015.68 61.0949L1010.84 69.8485ZM1039.18 99.7218C1045.71 112.929 1049.03 127.92 1049.03 144.799H1059.03C1059.03 126.577 1055.44 110.039 1048.15 95.2896L1039.18 99.7218ZM1049.03 144.799C1049.03 161.76 1045.71 176.789 1039.18 189.994L1048.15 194.426C1055.44 179.673 1059.03 163.096 1059.03 144.799H1049.03ZM1039.19 189.984C1032.71 203.004 1023.32 212.93 1010.93 219.884L1015.83 228.604C1030 220.647 1040.79 209.217 1048.14 194.436L1039.19 189.984ZM1010.94 219.879C998.61 226.769 983.91 230.31 966.666 230.31V240.31C985.3 240.31 1001.74 236.474 1015.82 228.608L1010.94 219.879ZM966.666 216.547C984.925 216.547 998.962 208.965 1008 193.843L999.417 188.713C992.303 200.615 981.645 206.547 966.666 206.547V216.547ZM1008 193.85C1016.66 179.405 1020.94 162.967 1020.94 144.683H1010.94C1010.94 161.346 1007.06 175.97 999.421 188.705L1008 193.85ZM1020.94 144.683C1020.94 126.327 1016.67 109.916 1007.98 95.6104L999.435 100.799C1007.06 113.363 1010.94 127.937 1010.94 144.683H1020.94ZM1007.99 95.6213C998.879 80.523 984.856 72.9358 966.666 72.9358V82.9358C981.558 82.9358 992.231 88.8611 999.428 100.788L1007.99 95.6213ZM966.666 72.9358C948.408 72.9358 934.342 80.5146 925.226 95.6213L933.788 100.788C940.98 88.8696 951.686 82.9358 966.666 82.9358V72.9358ZM925.232 95.6104C916.55 109.916 912.275 126.327 912.275 144.683H922.275C922.275 127.937 926.155 113.363 933.781 100.799L925.232 95.6104ZM912.275 144.683C912.275 162.958 916.509 179.39 925.092 193.832L933.688 188.723C926.119 175.986 922.275 161.354 922.275 144.683H912.275ZM925.109 193.861C934.23 208.976 948.341 216.547 966.666 216.547V206.547C951.598 206.547 940.858 200.604 933.671 188.695L925.109 193.861ZM1129.05 231H1124.05V236H1129.05V231ZM1129.05 82.2459H1134.05V77.2459H1129.05V82.2459ZM1067.31 82.2459H1062.31V87.2459H1067.31V82.2459ZM1067.31 58.599V53.599H1062.31V58.599H1067.31ZM1226.78 58.599H1231.78V53.599H1226.78V58.599ZM1226.78 82.2459V87.2459H1231.78V82.2459H1226.78ZM1165.04 82.2459V77.2459H1160.04V82.2459H1165.04ZM1165.04 231V236H1170.04V231H1165.04ZM1134.05 231V82.2459H1124.05V231H1134.05ZM1129.05 77.2459H1067.31V87.2459H1129.05V77.2459ZM1072.31 82.2459V58.599H1062.31V82.2459H1072.31ZM1067.31 63.599H1226.78V53.599H1067.31V63.599ZM1221.78 58.599V82.2459H1231.78V58.599H1221.78ZM1226.78 77.2459H1165.04V87.2459H1226.78V77.2459ZM1160.04 82.2459V231H1170.04V82.2459H1160.04ZM1165.04 226H1129.05V236H1165.04V226Z" fill="#DCA413" mask="url(#path-17-outside-9_2031_2)"/>
</svg>
