<svg width="2292" height="647" viewBox="0 0 2292 647" fill="none" xmlns="http://www.w3.org/2000/svg">
<mask id="path-1-outside-1_0_1" maskUnits="userSpaceOnUse" x="1592" y="567" width="428" height="85" fill="black">
<rect fill="white" x="1592" y="567" width="428" height="85"/>
<path d="M1597.87 645V573.74H1649.4V582.149H1607.3V603.974H1646.73V612.335H1607.3V636.591H1651.05V645H1597.87ZM1663.98 645V573.74H1673.66L1711.08 629.688V573.74H1720.12V645H1710.45L1673.02 589.003V645H1663.98ZM1736.21 645V573.74H1787.74V582.149H1745.64V603.974H1785.07V612.335H1745.64V636.591H1789.39V645H1736.21ZM1802.56 645V573.74H1834.16C1840.51 573.74 1845.34 574.388 1848.65 575.684C1851.95 576.948 1854.59 579.2 1856.57 582.441C1858.55 585.682 1859.53 589.262 1859.53 593.183C1859.53 598.239 1857.9 602.5 1854.62 605.967C1851.35 609.435 1846.3 611.638 1839.46 612.578C1841.95 613.777 1843.85 614.96 1845.15 616.127C1847.9 618.654 1850.51 621.814 1852.97 625.605L1865.37 645H1853.51L1844.08 630.174C1841.32 625.897 1839.05 622.624 1837.27 620.356C1835.49 618.087 1833.88 616.499 1832.46 615.592C1831.07 614.685 1829.64 614.053 1828.18 613.696C1827.11 613.469 1825.36 613.356 1822.93 613.356H1811.99V645H1802.56ZM1811.99 605.19H1832.26C1836.57 605.19 1839.94 604.752 1842.37 603.877C1844.81 602.97 1846.65 601.544 1847.92 599.6C1849.18 597.623 1849.81 595.484 1849.81 593.183C1849.81 589.813 1848.58 587.043 1846.12 584.871C1843.69 582.7 1839.83 581.615 1834.55 581.615H1811.99V605.19ZM1907.7 617.05V608.69L1937.89 608.641V635.084C1933.26 638.778 1928.48 641.565 1923.55 643.445C1918.63 645.292 1913.57 646.215 1908.39 646.215C1901.39 646.215 1895.02 644.725 1889.28 641.743C1883.58 638.73 1879.27 634.387 1876.35 628.716C1873.44 623.045 1871.98 616.71 1871.98 609.71C1871.98 602.775 1873.42 596.311 1876.3 590.316C1879.22 584.288 1883.4 579.816 1888.84 576.9C1894.29 573.983 1900.56 572.525 1907.66 572.525C1912.81 572.525 1917.46 573.367 1921.61 575.052C1925.79 576.705 1929.06 579.022 1931.43 582.003C1933.79 584.985 1935.59 588.873 1936.82 593.669L1928.31 596.003C1927.25 592.373 1925.92 589.522 1924.33 587.448C1922.74 585.374 1920.47 583.721 1917.52 582.49C1914.57 581.226 1911.3 580.594 1907.7 580.594C1903.39 580.594 1899.67 581.258 1896.52 582.587C1893.38 583.883 1890.84 585.6 1888.89 587.739C1886.98 589.878 1885.49 592.227 1884.42 594.787C1882.61 599.195 1881.7 603.974 1881.7 609.127C1881.7 615.478 1882.78 620.793 1884.96 625.071C1887.16 629.348 1890.35 632.524 1894.53 634.598C1898.71 636.672 1903.15 637.709 1907.85 637.709C1911.93 637.709 1915.92 636.931 1919.81 635.376C1923.7 633.788 1926.65 632.103 1928.65 630.32V617.05H1907.7ZM1971.92 645V614.814L1944.45 573.74H1955.92L1969.97 595.225C1972.56 599.243 1974.98 603.262 1977.21 607.28C1979.35 603.553 1981.95 599.357 1984.99 594.69L1998.8 573.74H2009.78L1981.35 614.814V645H1971.92Z"/>
</mask>
<path d="M1597.87 645V573.74H1649.4V582.149H1607.3V603.974H1646.73V612.335H1607.3V636.591H1651.05V645H1597.87ZM1663.98 645V573.74H1673.66L1711.08 629.688V573.74H1720.12V645H1710.45L1673.02 589.003V645H1663.98ZM1736.21 645V573.74H1787.74V582.149H1745.64V603.974H1785.07V612.335H1745.64V636.591H1789.39V645H1736.21ZM1802.56 645V573.74H1834.16C1840.51 573.74 1845.34 574.388 1848.65 575.684C1851.95 576.948 1854.59 579.2 1856.57 582.441C1858.55 585.682 1859.53 589.262 1859.53 593.183C1859.53 598.239 1857.9 602.5 1854.62 605.967C1851.35 609.435 1846.3 611.638 1839.46 612.578C1841.95 613.777 1843.85 614.96 1845.15 616.127C1847.9 618.654 1850.51 621.814 1852.97 625.605L1865.37 645H1853.51L1844.08 630.174C1841.32 625.897 1839.05 622.624 1837.27 620.356C1835.49 618.087 1833.88 616.499 1832.46 615.592C1831.07 614.685 1829.64 614.053 1828.18 613.696C1827.11 613.469 1825.36 613.356 1822.93 613.356H1811.99V645H1802.56ZM1811.99 605.19H1832.26C1836.57 605.19 1839.94 604.752 1842.37 603.877C1844.81 602.97 1846.65 601.544 1847.92 599.6C1849.18 597.623 1849.81 595.484 1849.81 593.183C1849.81 589.813 1848.58 587.043 1846.12 584.871C1843.69 582.7 1839.83 581.615 1834.55 581.615H1811.99V605.19ZM1907.7 617.05V608.69L1937.89 608.641V635.084C1933.26 638.778 1928.48 641.565 1923.55 643.445C1918.63 645.292 1913.57 646.215 1908.39 646.215C1901.39 646.215 1895.02 644.725 1889.28 641.743C1883.58 638.73 1879.27 634.387 1876.35 628.716C1873.44 623.045 1871.98 616.71 1871.98 609.71C1871.98 602.775 1873.42 596.311 1876.3 590.316C1879.22 584.288 1883.4 579.816 1888.84 576.9C1894.29 573.983 1900.56 572.525 1907.66 572.525C1912.81 572.525 1917.46 573.367 1921.61 575.052C1925.79 576.705 1929.06 579.022 1931.43 582.003C1933.79 584.985 1935.59 588.873 1936.82 593.669L1928.31 596.003C1927.25 592.373 1925.92 589.522 1924.33 587.448C1922.74 585.374 1920.47 583.721 1917.52 582.49C1914.57 581.226 1911.3 580.594 1907.7 580.594C1903.39 580.594 1899.67 581.258 1896.52 582.587C1893.38 583.883 1890.84 585.6 1888.89 587.739C1886.98 589.878 1885.49 592.227 1884.42 594.787C1882.61 599.195 1881.7 603.974 1881.7 609.127C1881.7 615.478 1882.78 620.793 1884.96 625.071C1887.16 629.348 1890.35 632.524 1894.53 634.598C1898.71 636.672 1903.15 637.709 1907.85 637.709C1911.93 637.709 1915.92 636.931 1919.81 635.376C1923.7 633.788 1926.65 632.103 1928.65 630.32V617.05H1907.7ZM1971.92 645V614.814L1944.45 573.74H1955.92L1969.97 595.225C1972.56 599.243 1974.98 603.262 1977.21 607.28C1979.35 603.553 1981.95 599.357 1984.99 594.69L1998.8 573.74H2009.78L1981.35 614.814V645H1971.92Z" fill="#1B1B1B"/>
<path d="M1597.87 645H1592.87V650H1597.87V645ZM1597.87 573.74V568.74H1592.87V573.74H1597.87ZM1649.4 573.74H1654.4V568.74H1649.4V573.74ZM1649.4 582.149V587.149H1654.4V582.149H1649.4ZM1607.3 582.149V577.149H1602.3V582.149H1607.3ZM1607.3 603.974H1602.3V608.974H1607.3V603.974ZM1646.73 603.974H1651.73V598.974H1646.73V603.974ZM1646.73 612.335V617.335H1651.73V612.335H1646.73ZM1607.3 612.335V607.335H1602.3V612.335H1607.3ZM1607.3 636.591H1602.3V641.591H1607.3V636.591ZM1651.05 636.591H1656.05V631.591H1651.05V636.591ZM1651.05 645V650H1656.05V645H1651.05ZM1602.87 645V573.74H1592.87V645H1602.87ZM1597.87 578.74H1649.4V568.74H1597.87V578.74ZM1644.4 573.74V582.149H1654.4V573.74H1644.4ZM1649.4 577.149H1607.3V587.149H1649.4V577.149ZM1602.3 582.149V603.974H1612.3V582.149H1602.3ZM1607.3 608.974H1646.73V598.974H1607.3V608.974ZM1641.73 603.974V612.335H1651.73V603.974H1641.73ZM1646.73 607.335H1607.3V617.335H1646.73V607.335ZM1602.3 612.335V636.591H1612.3V612.335H1602.3ZM1607.3 641.591H1651.05V631.591H1607.3V641.591ZM1646.05 636.591V645H1656.05V636.591H1646.05ZM1651.05 640H1597.87V650H1651.05V640ZM1663.98 645H1658.98V650H1663.98V645ZM1663.98 573.74V568.74H1658.98V573.74H1663.98ZM1673.66 573.74L1677.81 570.96L1676.33 568.74H1673.66V573.74ZM1711.08 629.688L1706.93 632.469L1716.08 646.155V629.688H1711.08ZM1711.08 573.74V568.74H1706.08V573.74H1711.08ZM1720.12 573.74H1725.12V568.74H1720.12V573.74ZM1720.12 645V650H1725.12V645H1720.12ZM1710.45 645L1706.29 647.778L1707.78 650H1710.45V645ZM1673.02 589.003L1677.18 586.225L1668.02 572.525V589.003H1673.02ZM1673.02 645V650H1678.02V645H1673.02ZM1668.98 645V573.74H1658.98V645H1668.98ZM1663.98 578.74H1673.66V568.74H1663.98V578.74ZM1669.5 576.52L1706.93 632.469L1715.24 626.908L1677.81 570.96L1669.5 576.52ZM1716.08 629.688V573.74H1706.08V629.688H1716.08ZM1711.08 578.74H1720.12V568.74H1711.08V578.74ZM1715.12 573.74V645H1725.12V573.74H1715.12ZM1720.12 640H1710.45V650H1720.12V640ZM1714.61 642.222L1677.18 586.225L1668.87 591.782L1706.29 647.778L1714.61 642.222ZM1668.02 589.003V645H1678.02V589.003H1668.02ZM1673.02 640H1663.98V650H1673.02V640ZM1736.21 645H1731.21V650H1736.21V645ZM1736.21 573.74V568.74H1731.21V573.74H1736.21ZM1787.74 573.74H1792.74V568.74H1787.74V573.74ZM1787.74 582.149V587.149H1792.74V582.149H1787.74ZM1745.64 582.149V577.149H1740.64V582.149H1745.64ZM1745.64 603.974H1740.64V608.974H1745.64V603.974ZM1785.07 603.974H1790.07V598.974H1785.07V603.974ZM1785.07 612.335V617.335H1790.07V612.335H1785.07ZM1745.64 612.335V607.335H1740.64V612.335H1745.64ZM1745.64 636.591H1740.64V641.591H1745.64V636.591ZM1789.39 636.591H1794.39V631.591H1789.39V636.591ZM1789.39 645V650H1794.39V645H1789.39ZM1741.21 645V573.74H1731.21V645H1741.21ZM1736.21 578.74H1787.74V568.74H1736.21V578.74ZM1782.74 573.74V582.149H1792.74V573.74H1782.74ZM1787.74 577.149H1745.64V587.149H1787.74V577.149ZM1740.64 582.149V603.974H1750.64V582.149H1740.64ZM1745.64 608.974H1785.07V598.974H1745.64V608.974ZM1780.07 603.974V612.335H1790.07V603.974H1780.07ZM1785.07 607.335H1745.64V617.335H1785.07V607.335ZM1740.64 612.335V636.591H1750.64V612.335H1740.64ZM1745.64 641.591H1789.39V631.591H1745.64V641.591ZM1784.39 636.591V645H1794.39V636.591H1784.39ZM1789.39 640H1736.21V650H1789.39V640ZM1802.56 645H1797.56V650H1802.56V645ZM1802.56 573.74V568.74H1797.56V573.74H1802.56ZM1848.65 575.684L1846.82 580.339L1846.84 580.347L1846.86 580.355L1848.65 575.684ZM1839.46 612.578L1838.78 607.625L1822.31 609.887L1837.29 617.085L1839.46 612.578ZM1845.15 616.127L1848.53 612.443L1848.51 612.426L1848.49 612.41L1845.15 616.127ZM1852.97 625.605L1857.18 622.913L1857.17 622.897L1857.16 622.882L1852.97 625.605ZM1865.37 645V650H1874.5L1869.58 642.307L1865.37 645ZM1853.51 645L1849.29 647.683L1850.76 650H1853.51V645ZM1844.08 630.174L1848.3 627.491L1848.29 627.479L1848.28 627.467L1844.08 630.174ZM1832.46 615.592L1829.73 619.782L1829.75 619.796L1829.77 619.81L1832.46 615.592ZM1828.18 613.696L1829.37 608.839L1829.29 608.821L1829.22 608.805L1828.18 613.696ZM1811.99 613.356V608.356H1806.99V613.356H1811.99ZM1811.99 645V650H1816.99V645H1811.99ZM1811.99 605.19H1806.99V610.19H1811.99V605.19ZM1842.37 603.877L1844.07 608.582L1844.1 608.572L1844.12 608.561L1842.37 603.877ZM1847.92 599.6L1852.11 602.325L1852.12 602.309L1852.13 602.293L1847.92 599.6ZM1846.12 584.871L1842.79 588.6L1842.8 588.611L1842.81 588.622L1846.12 584.871ZM1811.99 581.615V576.615H1806.99V581.615H1811.99ZM1807.56 645V573.74H1797.56V645H1807.56ZM1802.56 578.74H1834.16V568.74H1802.56V578.74ZM1834.16 578.74C1840.3 578.74 1844.39 579.385 1846.82 580.339L1850.47 571.03C1846.29 569.392 1840.72 568.74 1834.16 568.74V578.74ZM1846.86 580.355C1849.05 581.194 1850.85 582.676 1852.3 585.045L1860.84 579.837C1858.33 575.725 1854.85 572.703 1850.43 571.014L1846.86 580.355ZM1852.3 585.045C1853.78 587.474 1854.53 590.149 1854.53 593.183H1864.53C1864.53 588.375 1863.31 583.889 1860.84 579.837L1852.3 585.045ZM1854.53 593.183C1854.53 597.047 1853.33 600.056 1850.99 602.535L1858.26 609.4C1862.47 604.944 1864.53 599.43 1864.53 593.183H1854.53ZM1850.99 602.535C1848.78 604.873 1844.98 606.773 1838.78 607.625L1840.14 617.532C1847.62 616.504 1853.92 613.997 1858.26 609.4L1850.99 602.535ZM1837.29 617.085C1839.58 618.184 1841 619.125 1841.8 619.843L1848.49 612.41C1846.7 610.795 1844.33 609.371 1841.62 608.071L1837.29 617.085ZM1841.77 619.811C1844.15 622.002 1846.5 624.82 1848.78 628.329L1857.16 622.882C1854.52 618.808 1851.65 615.307 1848.53 612.443L1841.77 619.811ZM1848.76 628.298L1861.15 647.693L1869.58 642.307L1857.18 622.913L1848.76 628.298ZM1865.37 640H1853.51V650H1865.37V640ZM1857.73 642.317L1848.3 627.491L1839.86 632.858L1849.29 647.683L1857.73 642.317ZM1848.28 627.467C1845.49 623.141 1843.13 619.717 1841.2 617.266L1833.34 623.445C1834.98 625.531 1837.15 628.653 1839.87 632.881L1848.28 627.467ZM1841.2 617.266C1839.28 614.822 1837.27 612.725 1835.14 611.374L1829.77 619.81C1830.5 620.274 1831.7 621.353 1833.34 623.445L1841.2 617.266ZM1835.19 611.402C1833.37 610.22 1831.43 609.343 1829.37 608.839L1826.99 618.553C1827.85 618.762 1828.76 619.149 1829.73 619.782L1835.19 611.402ZM1829.22 608.805C1827.6 608.461 1825.39 608.356 1822.93 608.356V618.356C1825.33 618.356 1826.63 618.478 1827.14 618.587L1829.22 608.805ZM1822.93 608.356H1811.99V618.356H1822.93V608.356ZM1806.99 613.356V645H1816.99V613.356H1806.99ZM1811.99 640H1802.56V650H1811.99V640ZM1811.99 610.19H1832.26V600.19H1811.99V610.19ZM1832.26 610.19C1836.82 610.19 1840.85 609.74 1844.07 608.582L1840.68 599.173C1839.04 599.765 1836.33 600.19 1832.26 600.19V610.19ZM1844.12 608.561C1847.43 607.326 1850.19 605.273 1852.11 602.325L1843.72 596.875C1843.11 597.816 1842.18 598.614 1840.63 599.193L1844.12 608.561ZM1852.13 602.293C1853.9 599.529 1854.81 596.458 1854.81 593.183H1844.81C1844.81 594.51 1844.46 595.717 1843.7 596.906L1852.13 602.293ZM1854.81 593.183C1854.81 588.421 1853 584.269 1849.42 581.121L1842.81 588.622C1844.17 589.816 1844.81 591.205 1844.81 593.183H1854.81ZM1849.45 581.143C1845.68 577.775 1840.34 576.615 1834.55 576.615V586.615C1839.32 586.615 1841.7 587.625 1842.79 588.6L1849.45 581.143ZM1834.55 576.615H1811.99V586.615H1834.55V576.615ZM1806.99 581.615V605.19H1816.99V581.615H1806.99ZM1907.7 617.05H1902.7V622.05H1907.7V617.05ZM1907.7 608.689L1907.7 603.69L1902.7 603.698V608.689H1907.7ZM1937.89 608.641H1942.89V603.633L1937.88 603.641L1937.89 608.641ZM1937.89 635.084L1941.01 638.994L1942.89 637.492V635.084H1937.89ZM1923.55 643.445L1925.31 648.126L1925.32 648.121L1925.33 648.116L1923.55 643.445ZM1889.28 641.743L1886.95 646.164L1886.96 646.172L1886.98 646.18L1889.28 641.743ZM1876.3 590.316L1871.8 588.138L1871.8 588.148L1876.3 590.316ZM1921.61 575.052L1919.72 579.685L1919.75 579.694L1919.77 579.702L1921.61 575.052ZM1936.82 593.669L1938.14 598.491L1942.89 597.19L1941.66 592.426L1936.82 593.669ZM1928.31 596.003L1923.52 597.416L1924.91 602.123L1929.64 600.825L1928.31 596.003ZM1917.52 582.49L1915.55 587.085L1915.58 587.094L1915.6 587.103L1917.52 582.49ZM1896.52 582.587L1898.43 587.209L1898.45 587.201L1898.47 587.192L1896.52 582.587ZM1888.89 587.739L1885.19 584.376L1885.18 584.391L1885.17 584.407L1888.89 587.739ZM1884.42 594.787L1879.81 592.86L1879.8 592.872L1879.8 592.884L1884.42 594.787ZM1884.96 625.071L1880.5 627.334L1880.5 627.347L1880.51 627.36L1884.96 625.071ZM1919.81 635.376L1921.67 640.018L1921.68 640.011L1921.7 640.004L1919.81 635.376ZM1928.65 630.32L1931.97 634.061L1933.65 632.569V630.32H1928.65ZM1928.65 617.05H1933.65V612.05H1928.65V617.05ZM1912.7 617.05V608.689H1902.7V617.05H1912.7ZM1907.71 613.689L1937.9 613.641L1937.88 603.641L1907.7 603.69L1907.71 613.689ZM1932.89 608.641V635.084H1942.89V608.641H1932.89ZM1934.77 631.174C1930.49 634.587 1926.16 637.098 1921.77 638.773L1925.33 648.116C1930.8 646.032 1936.02 642.97 1941.01 638.994L1934.77 631.174ZM1921.8 638.763C1917.42 640.403 1912.96 641.215 1908.39 641.215V651.215C1914.18 651.215 1919.83 650.181 1925.31 648.126L1921.8 638.763ZM1908.39 641.215C1902.12 641.215 1896.55 639.888 1891.59 637.307L1886.98 646.18C1893.48 649.561 1900.65 651.215 1908.39 651.215V641.215ZM1891.62 637.322C1886.81 634.781 1883.24 631.179 1880.8 626.429L1871.91 631.003C1875.3 637.596 1880.35 642.678 1886.95 646.164L1891.62 637.322ZM1880.8 626.429C1878.28 621.533 1876.98 615.994 1876.98 609.71H1866.98C1866.98 617.426 1868.59 624.557 1871.91 631.003L1880.8 626.429ZM1876.98 609.71C1876.98 603.493 1878.26 597.773 1880.81 592.483L1871.8 588.148C1868.57 594.848 1866.98 602.058 1866.98 609.71H1876.98ZM1880.8 592.493C1883.3 587.332 1886.77 583.682 1891.21 581.307L1886.48 572.492C1880.03 575.95 1875.14 581.244 1871.8 588.138L1880.8 592.493ZM1891.21 581.307C1895.82 578.834 1901.26 577.525 1907.66 577.525V567.525C1899.86 567.525 1892.76 569.132 1886.48 572.492L1891.21 581.307ZM1907.66 577.525C1912.26 577.525 1916.26 578.276 1919.72 579.685L1923.49 570.42C1918.66 568.458 1913.36 567.525 1907.66 567.525V577.525ZM1919.77 579.702C1923.28 581.091 1925.78 582.933 1927.51 585.111L1935.34 578.896C1932.34 575.112 1928.29 572.319 1923.44 570.403L1919.77 579.702ZM1927.51 585.111C1929.33 587.404 1930.87 590.601 1931.98 594.913L1941.66 592.426C1940.31 587.146 1938.25 582.565 1935.34 578.896L1927.51 585.111ZM1935.5 588.848L1926.99 591.181L1929.64 600.825L1938.14 598.491L1935.5 588.848ZM1933.11 594.59C1931.94 590.613 1930.39 587.135 1928.3 584.408L1920.36 590.487C1921.45 591.908 1922.55 594.133 1923.52 597.416L1933.11 594.59ZM1928.3 584.408C1926.07 581.5 1923.03 579.369 1919.45 577.876L1915.6 587.103C1917.92 588.073 1919.41 589.247 1920.36 590.487L1928.3 584.408ZM1919.49 577.894C1915.85 576.333 1911.9 575.594 1907.7 575.594V585.594C1910.71 585.594 1913.3 586.119 1915.55 587.085L1919.49 577.894ZM1907.7 575.594C1902.9 575.594 1898.48 576.334 1894.58 577.981L1898.47 587.192C1900.86 586.183 1903.89 585.594 1907.7 585.594V575.594ZM1894.62 577.964C1890.91 579.493 1887.72 581.602 1885.19 584.376L1892.59 591.103C1893.96 589.599 1895.85 588.273 1898.43 587.209L1894.62 577.964ZM1885.17 584.407C1882.89 586.947 1881.1 589.768 1879.81 592.86L1889.03 596.715C1889.88 594.687 1891.07 592.809 1892.62 591.072L1885.17 584.407ZM1879.8 592.884C1877.71 597.942 1876.7 603.375 1876.7 609.127H1886.7C1886.7 604.574 1887.5 600.447 1889.04 596.691L1879.8 592.884ZM1876.7 609.127C1876.7 616.02 1877.87 622.165 1880.5 627.334L1889.41 622.807C1887.7 619.421 1886.7 614.937 1886.7 609.127H1876.7ZM1880.51 627.36C1883.19 632.554 1887.14 636.513 1892.31 639.077L1896.75 630.119C1893.56 628.534 1891.13 626.142 1889.4 622.781L1880.51 627.36ZM1892.31 639.077C1897.19 641.496 1902.39 642.709 1907.85 642.709V632.709C1903.92 632.709 1900.24 631.848 1896.75 630.119L1892.31 639.077ZM1907.85 642.709C1912.59 642.709 1917.2 641.803 1921.67 640.018L1917.95 630.733C1914.64 632.059 1911.28 632.709 1907.85 632.709V642.709ZM1921.7 640.004C1925.85 638.31 1929.37 636.367 1931.97 634.061L1925.34 626.58C1923.92 627.838 1921.54 629.266 1917.92 630.747L1921.7 640.004ZM1933.65 630.32V617.05H1923.65V630.32H1933.65ZM1928.65 612.05H1907.7V622.05H1928.65V612.05ZM1971.92 645H1966.92V650H1971.92V645ZM1971.92 614.814H1976.92V613.297L1976.07 612.035L1971.92 614.814ZM1944.45 573.74V568.74H1935.09L1940.3 576.519L1944.45 573.74ZM1955.92 573.74L1960.11 571.004L1958.63 568.74H1955.92V573.74ZM1969.97 595.225L1974.17 592.514L1974.17 592.501L1974.16 592.489L1969.97 595.225ZM1977.21 607.28L1972.85 609.711L1977.15 617.442L1981.55 609.769L1977.21 607.28ZM1984.99 594.69L1980.82 591.939L1980.81 591.948L1980.81 591.957L1984.99 594.69ZM1998.8 573.74V568.74H1996.1L1994.62 570.989L1998.8 573.74ZM2009.78 573.74L2013.89 576.586L2019.33 568.74H2009.78V573.74ZM1981.35 614.814L1977.24 611.968L1976.35 613.252V614.814H1981.35ZM1981.35 645V650H1986.35V645H1981.35ZM1976.92 645V614.814H1966.92V645H1976.92ZM1976.07 612.035L1948.61 570.961L1940.3 576.519L1967.76 617.593L1976.07 612.035ZM1944.45 578.74H1955.92V568.74H1944.45V578.74ZM1951.74 576.476L1965.79 597.961L1974.16 592.489L1960.11 571.004L1951.74 576.476ZM1965.77 597.936C1968.31 601.866 1970.66 605.791 1972.85 609.711L1981.58 604.849C1979.29 600.732 1976.82 596.62 1974.17 592.514L1965.77 597.936ZM1981.55 609.769C1983.63 606.145 1986.17 602.032 1989.18 597.423L1980.81 591.957C1977.72 596.682 1975.08 600.962 1972.88 604.791L1981.55 609.769ZM1989.17 597.441L2002.97 576.491L1994.62 570.989L1980.82 591.939L1989.17 597.441ZM1998.8 578.74H2009.78V568.74H1998.8V578.74ZM2005.67 570.894L1977.24 611.968L1985.46 617.66L2013.89 576.586L2005.67 570.894ZM1976.35 614.814V645H1986.35V614.814H1976.35ZM1981.35 640H1971.92V650H1981.35V640Z" fill="#DCA413" mask="url(#path-1-outside-1_0_1)"/>
<mask id="path-3-outside-2_0_1" maskUnits="userSpaceOnUse" x="2083" y="568" width="203" height="82" fill="black">
<rect fill="white" x="2083" y="568" width="203" height="82"/>
<path d="M2088.29 645V573.74H2097.72V636.591H2132.82V645H2088.29ZM2154.84 645V582.149H2131.36V573.74H2187.84V582.149H2164.27V645H2154.84ZM2197.56 645V573.74H2222.11C2227.65 573.74 2231.88 574.08 2234.8 574.761C2238.88 575.701 2242.36 577.402 2245.25 579.865C2249.01 583.04 2251.81 587.107 2253.66 592.065C2255.54 596.991 2256.48 602.63 2256.48 608.981C2256.48 614.393 2255.84 619.189 2254.58 623.369C2253.32 627.55 2251.7 631.017 2249.72 633.771C2247.74 636.494 2245.57 638.648 2243.21 640.236C2240.87 641.792 2238.04 642.975 2234.7 643.785C2231.39 644.595 2227.59 645 2223.28 645H2197.56ZM2206.99 636.591H2222.21C2226.91 636.591 2230.58 636.153 2233.24 635.278C2235.93 634.403 2238.07 633.172 2239.66 631.584C2241.89 629.348 2243.63 626.351 2244.86 622.592C2246.12 618.8 2246.75 614.215 2246.75 608.835C2246.75 601.382 2245.52 595.662 2243.06 591.677C2240.63 587.658 2237.66 584.969 2234.17 583.608C2231.64 582.635 2227.57 582.149 2221.96 582.149H2206.99V636.591Z"/>
<path d="M2270.86 645V635.035H2280.83V645H2270.86Z"/>
</mask>
<path d="M2088.29 645V573.74H2097.72V636.591H2132.82V645H2088.29ZM2154.84 645V582.149H2131.36V573.74H2187.84V582.149H2164.27V645H2154.84ZM2197.56 645V573.74H2222.11C2227.65 573.74 2231.88 574.08 2234.8 574.761C2238.88 575.701 2242.36 577.402 2245.25 579.865C2249.01 583.04 2251.81 587.107 2253.66 592.065C2255.54 596.991 2256.48 602.63 2256.48 608.981C2256.48 614.393 2255.84 619.189 2254.58 623.369C2253.32 627.55 2251.7 631.017 2249.72 633.771C2247.74 636.494 2245.57 638.648 2243.21 640.236C2240.87 641.792 2238.04 642.975 2234.7 643.785C2231.39 644.595 2227.59 645 2223.28 645H2197.56ZM2206.99 636.591H2222.21C2226.91 636.591 2230.58 636.153 2233.24 635.278C2235.93 634.403 2238.07 633.172 2239.66 631.584C2241.89 629.348 2243.63 626.351 2244.86 622.592C2246.12 618.8 2246.75 614.215 2246.75 608.835C2246.75 601.382 2245.52 595.662 2243.06 591.677C2240.63 587.658 2237.66 584.969 2234.17 583.608C2231.64 582.635 2227.57 582.149 2221.96 582.149H2206.99V636.591Z" fill="#1B1B1B"/>
<path d="M2270.86 645V635.035H2280.83V645H2270.86Z" fill="black"/>
<path d="M2088.29 645H2083.29V650H2088.29V645ZM2088.29 573.74V568.74H2083.29V573.74H2088.29ZM2097.72 573.74H2102.72V568.74H2097.72V573.74ZM2097.72 636.591H2092.72V641.591H2097.72V636.591ZM2132.82 636.591H2137.82V631.591H2132.82V636.591ZM2132.82 645V650H2137.82V645H2132.82ZM2093.29 645V573.74H2083.29V645H2093.29ZM2088.29 578.74H2097.72V568.74H2088.29V578.74ZM2092.72 573.74V636.591H2102.72V573.74H2092.72ZM2097.72 641.591H2132.82V631.591H2097.72V641.591ZM2127.82 636.591V645H2137.82V636.591H2127.82ZM2132.82 640H2088.29V650H2132.82V640ZM2154.84 645H2149.84V650H2154.84V645ZM2154.84 582.149H2159.84V577.149H2154.84V582.149ZM2131.36 582.149H2126.36V587.149H2131.36V582.149ZM2131.36 573.74V568.74H2126.36V573.74H2131.36ZM2187.84 573.74H2192.84V568.74H2187.84V573.74ZM2187.84 582.149V587.149H2192.84V582.149H2187.84ZM2164.27 582.149V577.149H2159.27V582.149H2164.27ZM2164.27 645V650H2169.27V645H2164.27ZM2159.84 645V582.149H2149.84V645H2159.84ZM2154.84 577.149H2131.36V587.149H2154.84V577.149ZM2136.36 582.149V573.74H2126.36V582.149H2136.36ZM2131.36 578.74H2187.84V568.74H2131.36V578.74ZM2182.84 573.74V582.149H2192.84V573.74H2182.84ZM2187.84 577.149H2164.27V587.149H2187.84V577.149ZM2159.27 582.149V645H2169.27V582.149H2159.27ZM2164.27 640H2154.84V650H2164.27V640ZM2197.56 645H2192.56V650H2197.56V645ZM2197.56 573.74V568.74H2192.56V573.74H2197.56ZM2234.8 574.761L2233.66 579.63L2233.67 579.632L2233.68 579.633L2234.8 574.761ZM2245.25 579.865L2242 583.667L2242.01 583.676L2242.02 583.684L2245.25 579.865ZM2253.66 592.065L2248.97 593.811L2248.98 593.829L2248.99 593.848L2253.66 592.065ZM2249.72 633.771L2253.77 636.709L2253.77 636.698L2253.78 636.687L2249.72 633.771ZM2243.21 640.236L2245.98 644.397L2245.99 644.392L2245.99 644.388L2243.21 640.236ZM2234.7 643.785L2233.52 638.926L2233.51 638.929L2234.7 643.785ZM2206.99 636.591H2201.99V641.591H2206.99V636.591ZM2233.24 635.278L2231.69 630.524L2231.69 630.526L2231.68 630.529L2233.24 635.278ZM2244.86 622.592L2240.12 621.01L2240.11 621.023L2240.11 621.035L2244.86 622.592ZM2243.06 591.677L2238.78 594.264L2238.79 594.285L2238.81 594.305L2243.06 591.677ZM2234.17 583.608L2235.98 578.948L2235.97 578.944L2235.96 578.941L2234.17 583.608ZM2206.99 582.149V577.149H2201.99V582.149H2206.99ZM2202.56 645V573.74H2192.56V645H2202.56ZM2197.56 578.74H2222.11V568.74H2197.56V578.74ZM2222.11 578.74C2227.53 578.74 2231.31 579.081 2233.66 579.63L2235.93 569.892C2232.45 569.08 2227.77 568.74 2222.11 568.74V578.74ZM2233.68 579.633C2237.06 580.412 2239.79 581.78 2242 583.667L2248.49 576.062C2244.94 573.024 2240.7 570.989 2235.92 569.888L2233.68 579.633ZM2242.02 583.684C2245.07 586.264 2247.4 589.596 2248.97 593.811L2258.34 590.32C2256.22 584.619 2252.94 579.817 2248.47 576.045L2242.02 583.684ZM2248.99 593.848C2250.61 598.101 2251.48 603.117 2251.48 608.981H2261.48C2261.48 602.142 2260.46 595.881 2258.33 590.283L2248.99 593.848ZM2251.48 608.981C2251.48 614.015 2250.89 618.308 2249.79 621.922L2259.37 624.816C2260.8 620.07 2261.48 614.771 2261.48 608.981H2251.48ZM2249.79 621.922C2248.65 625.72 2247.24 628.656 2245.66 630.856L2253.78 636.687C2256.16 633.378 2257.99 629.379 2259.37 624.816L2249.79 621.922ZM2245.67 630.833C2243.98 633.164 2242.22 634.878 2240.42 636.085L2245.99 644.388C2248.93 642.419 2251.5 639.823 2253.77 636.709L2245.67 630.833ZM2240.43 636.076C2238.68 637.244 2236.41 638.224 2233.52 638.926L2235.88 648.644C2239.66 647.726 2243.06 646.34 2245.98 644.397L2240.43 636.076ZM2233.51 638.929C2230.68 639.622 2227.29 640 2223.28 640V650C2227.89 650 2232.11 649.568 2235.89 648.641L2233.51 638.929ZM2223.28 640H2197.56V650H2223.28V640ZM2206.99 641.591H2222.21V631.591H2206.99V641.591ZM2222.21 641.591C2227.13 641.591 2231.42 641.144 2234.81 640.027L2231.68 630.529C2229.75 631.163 2226.68 631.591 2222.21 631.591V641.591ZM2234.79 640.033C2238.04 638.976 2240.92 637.391 2243.19 635.12L2236.12 628.049C2235.22 628.953 2233.82 629.831 2231.69 630.524L2234.79 640.033ZM2243.19 635.12C2246.11 632.207 2248.19 628.47 2249.61 624.148L2240.11 621.035C2239.06 624.231 2237.68 626.489 2236.12 628.049L2243.19 635.12ZM2249.6 624.173C2251.08 619.729 2251.75 614.579 2251.75 608.835H2241.75C2241.75 613.851 2241.16 617.871 2240.12 621.01L2249.6 624.173ZM2251.75 608.835C2251.75 600.953 2250.47 594.162 2247.31 589.048L2238.81 594.305C2240.57 597.163 2241.75 601.812 2241.75 608.835H2251.75ZM2247.34 589.089C2244.48 584.367 2240.74 580.8 2235.98 578.948L2232.35 588.268C2234.59 589.138 2236.78 590.949 2238.78 594.264L2247.34 589.089ZM2235.96 578.941C2232.52 577.619 2227.67 577.149 2221.96 577.149V587.149C2227.47 587.149 2230.75 587.652 2232.37 588.274L2235.96 578.941ZM2221.96 577.149H2206.99V587.149H2221.96V577.149ZM2201.99 582.149V636.591H2211.99V582.149H2201.99ZM2270.86 645H2265.86V650H2270.86V645ZM2270.86 635.035V630.035H2265.86V635.035H2270.86ZM2280.83 635.035H2285.83V630.035H2280.83V635.035ZM2280.83 645V650H2285.83V645H2280.83ZM2275.86 645V635.035H2265.86V645H2275.86ZM2270.86 640.035H2280.83V630.035H2270.86V640.035ZM2275.83 635.035V645H2285.83V635.035H2275.83ZM2280.83 640H2270.86V650H2280.83V640Z" fill="#DCA413" mask="url(#path-3-outside-2_0_1)"/>
<mask id="path-5-inside-3_0_1" fill="white">
<path fill-rule="evenodd" clip-rule="evenodd" d="M487.341 501.151L695.625 259H807.909L555.028 553H542.549L542.656 553.101H407.732L192.537 351H327.461L487.341 501.151Z"/>
</mask>
<path fill-rule="evenodd" clip-rule="evenodd" d="M487.341 501.151L695.625 259H807.909L555.028 553H542.549L542.656 553.101H407.732L192.537 351H327.461L487.341 501.151Z" fill="#DCA413"/>
<path d="M695.625 259V254H693.331L691.835 255.74L695.625 259ZM487.341 501.151L483.918 504.796L487.726 508.372L491.132 504.412L487.341 501.151ZM807.909 259L811.699 262.26L818.804 254H807.909V259ZM555.028 553V558H557.322L558.818 556.26L555.028 553ZM542.549 553V548H529.923L539.126 556.644L542.549 553ZM542.656 553.101V558.101H555.283L546.08 549.456L542.656 553.101ZM407.732 553.101L404.309 556.745L405.752 558.101H407.732V553.101ZM192.537 351V346H179.909L189.114 354.645L192.537 351ZM327.461 351L330.884 347.355L329.441 346H327.461V351ZM691.835 255.74L483.551 497.891L491.132 504.412L699.416 262.26L691.835 255.74ZM807.909 254H695.625V264H807.909V254ZM558.818 556.26L811.699 262.26L804.118 255.74L551.237 549.74L558.818 556.26ZM542.549 558H555.028V548H542.549V558ZM546.08 549.456L545.972 549.356L539.126 556.644L539.233 556.745L546.08 549.456ZM407.732 558.101H542.656V548.101H407.732V558.101ZM189.114 354.645L404.309 556.745L411.155 549.456L195.96 347.355L189.114 354.645ZM327.461 346H192.537V356H327.461V346ZM490.764 497.507L330.884 347.355L324.038 354.645L483.918 504.796L490.764 497.507Z" fill="black" mask="url(#path-5-inside-3_0_1)"/>
<mask id="path-7-inside-4_0_1" fill="white">
<path fill-rule="evenodd" clip-rule="evenodd" d="M255.572 515.182L432.647 309H542.924L333.37 553H289.64H223.093H180.875L0.0805054 384H115.235L255.572 515.182Z"/>
</mask>
<path fill-rule="evenodd" clip-rule="evenodd" d="M255.572 515.182L432.647 309H542.924L333.37 553H289.64H223.093H180.875L0.0805054 384H115.235L255.572 515.182Z" fill="#1B1B1B"/>
<path d="M432.647 309V304H430.35L428.854 305.742L432.647 309ZM255.572 515.182L252.158 518.835L255.967 522.396L259.365 518.439L255.572 515.182ZM542.924 309L546.717 312.258L553.809 304H542.924V309ZM333.37 553V558H335.666L337.163 556.258L333.37 553ZM180.875 553L177.46 556.653L178.902 558H180.875V553ZM0.0805054 384V379H-12.5904L-3.33388 387.653L0.0805054 384ZM115.235 384L118.65 380.347L117.208 379H115.235V384ZM428.854 305.742L251.779 511.924L259.365 518.439L436.44 312.258L428.854 305.742ZM542.924 304H432.647V314H542.924V304ZM337.163 556.258L546.717 312.258L539.131 305.742L329.577 549.742L337.163 556.258ZM289.64 558H333.37V548H289.64V558ZM223.093 558H289.64V548H223.093V558ZM180.875 558H223.093V548H180.875V558ZM-3.33388 387.653L177.46 556.653L184.289 549.347L3.49489 380.347L-3.33388 387.653ZM115.235 379H0.0805054V389H115.235V379ZM258.986 511.529L118.65 380.347L111.821 387.653L252.158 518.835L258.986 511.529Z" fill="#DCA413" mask="url(#path-7-inside-4_0_1)"/>
<mask id="path-9-outside-5_0_1" maskUnits="userSpaceOnUse" x="1577" y="336.311" width="725" height="192" fill="black">
<rect fill="white" x="1577" y="336.311" width="725" height="192"/>
<path d="M1582.55 518.311V345.91H1641.14C1655.28 345.91 1665.72 347.502 1672.48 350.686C1679.31 353.792 1684.63 358.451 1688.44 364.664C1692.32 370.799 1694.26 377.322 1694.26 384.234C1694.26 392.932 1691.23 401.241 1685.18 409.162C1679.2 417.006 1668.44 423.374 1652.91 428.266C1665.26 431.295 1674.69 435.061 1681.21 439.565C1687.82 444.069 1692.79 449.428 1696.13 455.641C1699.54 461.853 1701.25 468.532 1701.25 475.676C1701.25 483.442 1699.23 490.703 1695.19 497.459C1691.23 504.138 1685.76 509.302 1678.77 512.952C1671.78 516.525 1661.02 518.311 1646.5 518.311H1582.55ZM1617.03 417.666H1624.83C1635.86 417.666 1644.09 414.987 1649.53 409.628C1655.04 404.192 1657.8 397.591 1657.8 389.825C1657.8 385.709 1656.99 382.137 1655.35 379.108C1653.72 376.08 1650.89 373.75 1646.85 372.119C1642.81 370.411 1635.05 369.557 1623.55 369.557H1617.03V417.666ZM1617.03 493.848H1624.02C1636.68 493.848 1645.3 493.033 1649.88 491.402C1654.46 489.771 1657.92 487.131 1660.25 483.481C1662.58 479.831 1663.74 475.793 1663.74 471.366C1663.74 462.824 1659.94 455.602 1652.33 449.7C1644.72 443.72 1635.05 440.73 1623.32 440.73H1617.03V493.848ZM1732.82 518.311V345.91H1797.35C1810.55 345.91 1820.61 347.579 1827.52 350.919C1834.43 354.18 1839.87 359.189 1843.83 365.945C1847.87 372.624 1849.89 380.196 1849.89 388.66C1849.89 398.756 1846.98 408.308 1841.15 417.316C1835.33 426.247 1827.1 433.081 1816.46 437.818L1872.84 518.311H1829.15L1786.4 447.836H1766.6V518.311H1732.82ZM1766.6 424.189H1774.87C1789.7 424.189 1799.92 420.966 1805.51 414.521C1811.1 408.075 1813.89 400.775 1813.89 392.621C1813.89 385.554 1811.6 379.963 1807.02 375.847C1802.44 371.653 1793.12 369.557 1779.06 369.557H1766.6V424.189ZM1897.53 518.311V345.91H1933.41V518.311H1897.53ZM2115.48 511.438C2107.95 514.777 2101.38 517.068 2095.79 518.311C2090.2 519.553 2083.83 520.563 2076.69 521.339C2069.62 522.194 2062.63 522.621 2055.72 522.621C2025.59 522.621 2003.11 514.117 1988.27 497.11C1973.44 480.103 1966.03 458.436 1966.03 432.11C1966.03 405.629 1973.4 383.923 1988.16 366.994C2002.99 350.064 2026.25 341.6 2057.93 341.6C2076.65 341.6 2095.29 343.813 2113.85 348.239V376.313C2104.92 373.206 2097.62 370.954 2091.95 369.557C2086.28 368.081 2080.88 366.994 2075.76 366.295C2070.71 365.596 2065.66 365.246 2060.61 365.246C2040.81 365.246 2026.44 371.614 2017.51 384.35C2008.58 397.086 2004.12 412.851 2004.12 431.644C2004.12 451.369 2009.16 467.328 2019.26 479.52C2029.43 491.713 2044.54 497.809 2064.57 497.809C2081.27 497.809 2098.24 493.538 2115.48 484.995V511.438ZM2146.81 518.311V345.91H2181.29V429.547L2247.23 345.91H2277.05L2217.29 423.257L2291.49 518.311H2246.64L2181.29 433.508V518.311H2146.81Z"/>
</mask>
<path d="M1582.55 518.311V345.91H1641.14C1655.28 345.91 1665.72 347.502 1672.48 350.686C1679.31 353.792 1684.63 358.451 1688.44 364.664C1692.32 370.799 1694.26 377.322 1694.26 384.234C1694.26 392.932 1691.23 401.241 1685.18 409.162C1679.2 417.006 1668.44 423.374 1652.91 428.266C1665.26 431.295 1674.69 435.061 1681.21 439.565C1687.82 444.069 1692.79 449.428 1696.13 455.641C1699.54 461.853 1701.25 468.532 1701.25 475.676C1701.25 483.442 1699.23 490.703 1695.19 497.459C1691.23 504.138 1685.76 509.302 1678.77 512.952C1671.78 516.525 1661.02 518.311 1646.5 518.311H1582.55ZM1617.03 417.666H1624.83C1635.86 417.666 1644.09 414.987 1649.53 409.628C1655.04 404.192 1657.8 397.591 1657.8 389.825C1657.8 385.709 1656.99 382.137 1655.35 379.108C1653.72 376.08 1650.89 373.75 1646.85 372.119C1642.81 370.411 1635.05 369.557 1623.55 369.557H1617.03V417.666ZM1617.03 493.848H1624.02C1636.68 493.848 1645.3 493.033 1649.88 491.402C1654.46 489.771 1657.92 487.131 1660.25 483.481C1662.58 479.831 1663.74 475.793 1663.74 471.366C1663.74 462.824 1659.94 455.602 1652.33 449.7C1644.72 443.72 1635.05 440.73 1623.32 440.73H1617.03V493.848ZM1732.82 518.311V345.91H1797.35C1810.55 345.91 1820.61 347.579 1827.52 350.919C1834.43 354.18 1839.87 359.189 1843.83 365.945C1847.87 372.624 1849.89 380.196 1849.89 388.66C1849.89 398.756 1846.98 408.308 1841.15 417.316C1835.33 426.247 1827.1 433.081 1816.46 437.818L1872.84 518.311H1829.15L1786.4 447.836H1766.6V518.311H1732.82ZM1766.6 424.189H1774.87C1789.7 424.189 1799.92 420.966 1805.51 414.521C1811.1 408.075 1813.89 400.775 1813.89 392.621C1813.89 385.554 1811.6 379.963 1807.02 375.847C1802.44 371.653 1793.12 369.557 1779.06 369.557H1766.6V424.189ZM1897.53 518.311V345.91H1933.41V518.311H1897.53ZM2115.48 511.438C2107.95 514.777 2101.38 517.068 2095.79 518.311C2090.2 519.553 2083.83 520.563 2076.69 521.339C2069.62 522.194 2062.63 522.621 2055.72 522.621C2025.59 522.621 2003.11 514.117 1988.27 497.11C1973.44 480.103 1966.03 458.436 1966.03 432.11C1966.03 405.629 1973.4 383.923 1988.16 366.994C2002.99 350.064 2026.25 341.6 2057.93 341.6C2076.65 341.6 2095.29 343.813 2113.85 348.239V376.313C2104.92 373.206 2097.62 370.954 2091.95 369.557C2086.28 368.081 2080.88 366.994 2075.76 366.295C2070.71 365.596 2065.66 365.246 2060.61 365.246C2040.81 365.246 2026.44 371.614 2017.51 384.35C2008.58 397.086 2004.12 412.851 2004.12 431.644C2004.12 451.369 2009.16 467.328 2019.26 479.52C2029.43 491.713 2044.54 497.809 2064.57 497.809C2081.27 497.809 2098.24 493.538 2115.48 484.995V511.438ZM2146.81 518.311V345.91H2181.29V429.547L2247.23 345.91H2277.05L2217.29 423.257L2291.49 518.311H2246.64L2181.29 433.508V518.311H2146.81Z" fill="#DCA413"/>
<path d="M1582.55 518.311H1577.55V523.311H1582.55V518.311ZM1582.55 345.91V340.91H1577.55V345.91H1582.55ZM1672.48 350.686L1670.35 355.209L1670.38 355.223L1670.41 355.237L1672.48 350.686ZM1688.44 364.664L1684.17 367.276L1684.19 367.307L1684.21 367.338L1688.44 364.664ZM1685.18 409.162L1681.2 406.125L1681.2 406.131L1685.18 409.162ZM1652.91 428.266L1651.41 423.497L1634.36 428.866L1651.72 433.122L1652.91 428.266ZM1681.21 439.565L1678.37 443.68L1678.39 443.688L1678.4 443.695L1681.21 439.565ZM1696.13 455.641L1691.72 458.008L1691.73 458.029L1691.74 458.05L1696.13 455.641ZM1695.19 497.459L1690.9 494.894L1690.9 494.902L1690.89 494.909L1695.19 497.459ZM1678.77 512.952L1681.04 517.404L1681.06 517.394L1681.08 517.384L1678.77 512.952ZM1617.03 417.666H1612.03V422.666H1617.03V417.666ZM1649.53 409.628L1653.04 413.189L1653.04 413.189L1649.53 409.628ZM1646.85 372.119L1644.9 376.724L1644.94 376.74L1644.98 376.755L1646.85 372.119ZM1617.03 369.557V364.557H1612.03V369.557H1617.03ZM1617.03 493.848H1612.03V498.848H1617.03V493.848ZM1660.25 483.481L1656.03 480.791L1660.25 483.481ZM1652.33 449.7L1649.24 453.631L1649.25 453.641L1649.26 453.651L1652.33 449.7ZM1617.03 440.73V435.73H1612.03V440.73H1617.03ZM1587.55 518.311V345.91H1577.55V518.311H1587.55ZM1582.55 350.91H1641.14V340.91H1582.55V350.91ZM1641.14 350.91C1655.08 350.91 1664.62 352.508 1670.35 355.209L1674.61 346.163C1666.83 342.495 1655.47 340.91 1641.14 340.91V350.91ZM1670.41 355.237C1676.36 357.944 1680.91 361.941 1684.17 367.276L1692.7 362.052C1688.36 354.961 1682.26 349.64 1674.55 346.134L1670.41 355.237ZM1684.21 367.338C1687.62 372.715 1689.26 378.318 1689.26 384.234H1699.26C1699.26 376.327 1697.02 368.883 1692.66 361.99L1684.21 367.338ZM1689.26 384.234C1689.26 391.677 1686.7 398.942 1681.2 406.125L1689.15 412.199C1695.77 403.54 1699.26 394.186 1699.26 384.234H1689.26ZM1681.2 406.131C1676.13 412.775 1666.54 418.731 1651.41 423.497L1654.41 433.035C1670.34 428.016 1682.26 421.237 1689.15 412.194L1681.2 406.131ZM1651.72 433.122C1663.79 436.083 1672.56 439.666 1678.37 443.68L1684.06 435.451C1676.82 430.456 1666.72 426.507 1654.1 423.41L1651.72 433.122ZM1678.4 443.695C1684.42 447.808 1688.81 452.591 1691.72 458.008L1700.53 453.273C1696.76 446.265 1691.21 440.331 1684.03 435.435L1678.4 443.695ZM1691.74 458.05C1694.75 463.519 1696.25 469.368 1696.25 475.676H1706.25C1706.25 467.696 1704.33 460.188 1700.51 453.231L1691.74 458.05ZM1696.25 475.676C1696.25 482.526 1694.48 488.902 1690.9 494.894L1699.49 500.025C1703.98 492.504 1706.25 484.358 1706.25 475.676H1696.25ZM1690.89 494.909C1687.41 500.775 1682.63 505.294 1676.45 508.52L1681.08 517.384C1688.88 513.311 1695.05 507.501 1699.49 500.01L1690.89 494.909ZM1676.49 508.5C1670.58 511.522 1660.8 513.311 1646.5 513.311V523.311C1661.25 523.311 1672.98 521.527 1681.04 517.404L1676.49 508.5ZM1646.5 513.311H1582.55V523.311H1646.5V513.311ZM1617.03 422.666H1624.83V412.666H1617.03V422.666ZM1624.83 422.666C1636.59 422.666 1646.32 419.812 1653.04 413.189L1646.02 406.067C1641.87 410.161 1635.13 412.666 1624.83 412.666V422.666ZM1653.04 413.189C1659.51 406.81 1662.8 398.925 1662.8 389.825H1652.8C1652.8 396.257 1650.58 401.574 1646.02 406.068L1653.04 413.189ZM1662.8 389.825C1662.8 385.044 1661.85 380.626 1659.76 376.738L1650.95 381.479C1652.12 383.649 1652.8 386.375 1652.8 389.825H1662.8ZM1659.76 376.738C1657.44 372.433 1653.55 369.432 1648.72 367.483L1644.98 376.755C1648.23 378.068 1650.01 379.726 1650.95 381.479L1659.76 376.738ZM1648.8 367.514C1646.11 366.378 1642.6 365.673 1638.54 365.227C1634.42 364.773 1629.41 364.557 1623.55 364.557V374.557C1629.19 374.557 1633.81 374.767 1637.45 375.167C1641.17 375.576 1643.55 376.152 1644.9 376.724L1648.8 367.514ZM1623.55 364.557H1617.03V374.557H1623.55V364.557ZM1612.03 369.557V417.666H1622.03V369.557H1612.03ZM1617.03 498.848H1624.02V488.848H1617.03V498.848ZM1624.02 498.848C1636.62 498.848 1646.06 498.07 1651.56 496.113L1648.2 486.692C1644.54 487.996 1636.74 488.848 1624.02 488.848V498.848ZM1651.56 496.113C1657.05 494.158 1661.46 490.873 1664.46 486.171L1656.03 480.791C1654.37 483.389 1651.87 485.385 1648.2 486.692L1651.56 496.113ZM1664.46 486.171C1667.32 481.699 1668.74 476.724 1668.74 471.366H1658.74C1658.74 474.862 1657.84 477.963 1656.03 480.791L1664.46 486.171ZM1668.74 471.366C1668.74 461.067 1664.04 452.46 1655.39 445.749L1649.26 453.651C1655.83 458.743 1658.74 464.581 1658.74 471.366H1668.74ZM1655.42 445.768C1646.75 438.959 1635.92 435.73 1623.32 435.73V445.73C1634.17 445.73 1642.68 448.481 1649.24 453.631L1655.42 445.768ZM1623.32 435.73H1617.03V445.73H1623.32V435.73ZM1612.03 440.73V493.848H1622.03V440.73H1612.03ZM1732.82 518.311H1727.82V523.311H1732.82V518.311ZM1732.82 345.91V340.91H1727.82V345.91H1732.82ZM1827.52 350.919L1825.35 355.421L1825.37 355.431L1825.39 355.44L1827.52 350.919ZM1843.83 365.945L1839.52 368.474L1839.53 368.503L1839.55 368.533L1843.83 365.945ZM1841.15 417.316L1845.34 420.048L1845.35 420.039L1845.35 420.031L1841.15 417.316ZM1816.46 437.818L1814.42 433.25L1808.88 435.718L1812.36 440.687L1816.46 437.818ZM1872.84 518.311V523.311H1882.44L1876.93 515.442L1872.84 518.311ZM1829.15 518.311L1824.88 520.904L1826.34 523.311H1829.15V518.311ZM1786.4 447.836L1790.68 445.243L1789.22 442.836H1786.4V447.836ZM1766.6 447.836V442.836H1761.6V447.836H1766.6ZM1766.6 518.311V523.311H1771.6V518.311H1766.6ZM1766.6 424.189H1761.6V429.189H1766.6V424.189ZM1807.02 375.847L1803.65 379.535L1803.66 379.551L1803.68 379.566L1807.02 375.847ZM1766.6 369.557V364.557H1761.6V369.557H1766.6ZM1737.82 518.311V345.91H1727.82V518.311H1737.82ZM1732.82 350.91H1797.35V340.91H1732.82V350.91ZM1797.35 350.91C1810.27 350.91 1819.44 352.565 1825.35 355.421L1829.7 346.416C1821.78 342.593 1810.84 340.91 1797.35 340.91V350.91ZM1825.39 355.44C1831.37 358.261 1836.05 362.564 1839.52 368.474L1848.14 363.417C1843.69 355.815 1837.5 350.099 1829.66 346.397L1825.39 355.44ZM1839.55 368.533C1843.08 374.365 1844.89 381.028 1844.89 388.66H1854.89C1854.89 379.364 1852.66 370.883 1848.11 363.358L1839.55 368.533ZM1844.89 388.66C1844.89 397.731 1842.29 406.349 1836.95 414.602L1845.35 420.031C1851.66 410.267 1854.89 399.78 1854.89 388.66H1844.89ZM1836.96 414.585C1831.71 422.635 1824.27 428.867 1814.42 433.25L1818.49 442.386C1829.92 437.294 1838.94 429.859 1845.34 420.048L1836.96 414.585ZM1812.36 440.687L1868.74 521.179L1876.93 515.442L1820.55 434.949L1812.36 440.687ZM1872.84 513.311H1829.15V523.311H1872.84V513.311ZM1833.43 515.717L1790.68 445.243L1782.13 450.429L1824.88 520.904L1833.43 515.717ZM1786.4 442.836H1766.6V452.836H1786.4V442.836ZM1761.6 447.836V518.311H1771.6V447.836H1761.6ZM1766.6 513.311H1732.82V523.311H1766.6V513.311ZM1766.6 429.189H1774.87V419.189H1766.6V429.189ZM1774.87 429.189C1790.14 429.189 1802.23 425.923 1809.28 417.797L1801.73 411.244C1797.6 416.01 1789.27 419.189 1774.87 419.189V429.189ZM1809.28 417.797C1815.62 410.488 1818.89 402.038 1818.89 392.621H1808.89C1808.89 399.512 1806.57 405.662 1801.73 411.244L1809.28 417.797ZM1818.89 392.621C1818.89 384.366 1816.16 377.336 1810.36 372.127L1803.68 379.566C1807.05 382.59 1808.89 386.742 1808.89 392.621H1818.89ZM1810.4 372.158C1807.21 369.239 1802.78 367.396 1797.69 366.251C1792.55 365.093 1786.31 364.557 1779.06 364.557V374.557C1785.88 374.557 1791.32 375.068 1795.5 376.007C1799.73 376.958 1802.25 378.261 1803.65 379.535L1810.4 372.158ZM1779.06 364.557H1766.6V374.557H1779.06V364.557ZM1761.6 369.557V424.189H1771.6V369.557H1761.6ZM1897.53 518.311H1892.53V523.311H1897.53V518.311ZM1897.53 345.91V340.91H1892.53V345.91H1897.53ZM1933.41 345.91H1938.41V340.91H1933.41V345.91ZM1933.41 518.311V523.311H1938.41V518.311H1933.41ZM1902.53 518.311V345.91H1892.53V518.311H1902.53ZM1897.53 350.91H1933.41V340.91H1897.53V350.91ZM1928.41 345.91V518.311H1938.41V345.91H1928.41ZM1933.41 513.311H1897.53V523.311H1933.41V513.311ZM2115.48 511.438L2117.51 516.009L2120.48 514.691V511.438H2115.48ZM2076.69 521.339L2076.15 516.369L2076.12 516.372L2076.09 516.375L2076.69 521.339ZM1988.16 366.994L1984.4 363.699L1984.39 363.709L1988.16 366.994ZM2113.85 348.239H2118.85V344.292L2115.01 343.376L2113.85 348.239ZM2113.85 376.313L2112.21 381.035L2118.85 383.346V376.313H2113.85ZM2091.95 369.557L2090.69 374.395L2090.72 374.403L2090.75 374.411L2091.95 369.557ZM2075.76 366.295L2075.07 371.248L2075.08 371.249L2075.76 366.295ZM2019.26 479.52L2015.41 482.709L2015.42 482.717L2015.42 482.724L2019.26 479.52ZM2115.48 484.995H2120.48V476.938L2113.26 480.515L2115.48 484.995ZM2113.45 506.867C2106.1 510.125 2099.87 512.283 2094.71 513.43L2096.88 523.192C2102.9 521.854 2109.79 519.429 2117.51 516.009L2113.45 506.867ZM2094.71 513.43C2089.33 514.624 2083.15 515.607 2076.15 516.369L2077.23 526.31C2084.51 525.518 2091.07 524.483 2096.88 523.192L2094.71 513.43ZM2076.09 516.375C2069.21 517.206 2062.43 517.621 2055.72 517.621V527.621C2062.84 527.621 2070.03 527.181 2077.29 526.303L2076.09 516.375ZM2055.72 517.621C2026.52 517.621 2005.64 509.408 1992.04 493.824L1984.51 500.396C2000.58 518.826 2024.66 527.621 2055.72 527.621V517.621ZM1992.04 493.824C1978.13 477.876 1971.03 457.441 1971.03 432.11H1961.03C1961.03 459.432 1968.75 482.33 1984.51 500.396L1992.04 493.824ZM1971.03 432.11C1971.03 406.608 1978.1 386.139 1991.93 370.279L1984.39 363.709C1968.7 381.707 1961.03 404.649 1961.03 432.11H1971.03ZM1991.92 370.289C2005.46 354.829 2027.08 346.6 2057.93 346.6V336.6C2025.42 336.6 2000.52 345.3 1984.4 363.699L1991.92 370.289ZM2057.93 346.6C2076.25 346.6 2094.5 348.765 2112.69 353.103L2115.01 343.376C2096.08 338.86 2077.05 336.6 2057.93 336.6V346.6ZM2108.85 348.239V376.313H2118.85V348.239H2108.85ZM2115.49 371.59C2106.49 368.46 2099.03 366.152 2093.15 364.702L2090.75 374.411C2096.21 375.756 2103.34 377.953 2112.21 381.035L2115.49 371.59ZM2093.21 364.718C2087.37 363.199 2081.78 362.07 2076.43 361.341L2075.08 371.249C2079.99 371.918 2085.19 372.963 2090.69 374.395L2093.21 364.718ZM2076.44 361.342C2071.17 360.612 2065.89 360.246 2060.61 360.246V370.246C2065.43 370.246 2070.25 370.58 2075.07 371.248L2076.44 361.342ZM2060.61 360.246C2039.68 360.246 2023.54 367.048 2013.42 381.48L2021.61 387.221C2029.35 376.18 2041.94 370.246 2060.61 370.246V360.246ZM2013.42 381.48C2003.79 395.219 1999.12 412.041 1999.12 431.644H2009.12C2009.12 413.66 2013.38 398.954 2021.61 387.221L2013.42 381.48ZM1999.12 431.644C1999.12 452.239 2004.4 469.417 2015.41 482.709L2023.11 476.332C2013.93 465.24 2009.12 450.5 2009.12 431.644H1999.12ZM2015.42 482.724C2026.78 496.343 2043.48 502.809 2064.57 502.809V492.809C2045.6 492.809 2032.08 487.083 2023.1 476.317L2015.42 482.724ZM2064.57 502.809C2082.15 502.809 2099.87 498.308 2117.7 489.475L2113.26 480.515C2096.6 488.768 2080.39 492.809 2064.57 492.809V502.809ZM2110.48 484.995V511.438H2120.48V484.995H2110.48ZM2146.81 518.311H2141.81V523.311H2146.81V518.311ZM2146.81 345.91V340.91H2141.81V345.91H2146.81ZM2181.29 345.91H2186.29V340.91H2181.29V345.91ZM2181.29 429.547H2176.29V443.967L2185.22 432.643L2181.29 429.547ZM2247.23 345.91V340.91H2244.8L2243.3 342.814L2247.23 345.91ZM2277.05 345.91L2281 348.967L2287.23 340.91H2277.05V345.91ZM2217.29 423.257L2213.33 420.2L2210.96 423.273L2213.35 426.334L2217.29 423.257ZM2291.49 518.311V523.311H2301.74L2295.43 515.234L2291.49 518.311ZM2246.64 518.311L2242.68 521.363L2244.18 523.311H2246.64V518.311ZM2181.29 433.508L2185.25 430.456L2176.29 418.828V433.508H2181.29ZM2181.29 518.311V523.311H2186.29V518.311H2181.29ZM2151.81 518.311V345.91H2141.81V518.311H2151.81ZM2146.81 350.91H2181.29V340.91H2146.81V350.91ZM2176.29 345.91V429.547H2186.29V345.91H2176.29ZM2185.22 432.643L2251.15 349.005L2243.3 342.814L2177.37 426.452L2185.22 432.643ZM2247.23 350.91H2277.05V340.91H2247.23V350.91ZM2273.09 342.853L2213.33 420.2L2221.25 426.314L2281 348.967L2273.09 342.853ZM2213.35 426.334L2287.55 521.387L2295.43 515.234L2221.23 420.18L2213.35 426.334ZM2291.49 513.311H2246.64V523.311H2291.49V513.311ZM2250.6 515.259L2185.25 430.456L2177.33 436.56L2242.68 521.363L2250.6 515.259ZM2176.29 433.508V518.311H2186.29V433.508H2176.29ZM2181.29 513.311H2146.81V523.311H2181.29V513.311Z" fill="#1B1B1B" mask="url(#path-9-outside-5_0_1)"/>
<mask id="path-11-outside-6_0_1" maskUnits="userSpaceOnUse" x="884" y="335" width="677" height="195" fill="black">
<rect fill="white" x="884" y="335" width="677" height="195"/>
<path d="M934.141 520L890.485 344.902H924.913L956.856 473.031L987.025 344.902H1017.43L1046.06 472.321L1079.66 344.902H1104.86L1058.96 520H1024.17L997.2 399.916L968.924 520H934.141ZM1129 520V344.902H1238.43V368.919H1165.44V417.78H1225.3V441.916H1165.44V495.155H1243.99V520H1129ZM1264.7 518.462V488.411C1278.19 494.09 1288.24 497.482 1294.87 498.586C1301.57 499.69 1307.72 500.242 1313.32 500.242C1323.42 500.242 1330.95 497.955 1335.92 493.38C1340.89 488.806 1343.37 483.324 1343.37 476.935C1343.37 472.045 1342.03 467.628 1339.35 463.685C1336.67 459.82 1329.89 454.811 1319 448.659L1307.29 442.152C1290.57 432.766 1279.25 424.09 1273.33 416.124C1267.34 408.158 1264.34 398.93 1264.34 388.44C1264.34 375.268 1269.31 363.989 1279.25 354.603C1289.27 345.217 1303.62 340.524 1322.31 340.524C1336.28 340.524 1352.01 342.535 1369.52 346.558V374.597C1351.7 367.893 1337.54 364.541 1327.05 364.541C1318.37 364.541 1311.75 366.473 1307.17 370.338C1302.68 374.124 1300.43 378.699 1300.43 384.062C1300.43 388.164 1301.77 391.989 1304.45 395.538C1307.05 399.088 1313.8 403.938 1324.68 410.09L1337.22 417.071C1356.39 427.876 1368.61 437.262 1373.9 445.228C1379.1 453.273 1381.71 462.304 1381.71 472.321C1381.71 486.676 1376.26 498.941 1365.38 509.116C1354.57 519.29 1337.34 524.377 1313.68 524.377C1299.64 524.377 1283.31 522.406 1264.7 518.462ZM1456.36 520V368.919H1393.66V344.902H1555.62V368.919H1492.92V520H1456.36Z"/>
</mask>
<path d="M934.141 520L890.485 344.902H924.913L956.856 473.031L987.025 344.902H1017.43L1046.06 472.321L1079.66 344.902H1104.86L1058.96 520H1024.17L997.2 399.916L968.924 520H934.141ZM1129 520V344.902H1238.43V368.919H1165.44V417.78H1225.3V441.916H1165.44V495.155H1243.99V520H1129ZM1264.7 518.462V488.411C1278.19 494.09 1288.24 497.482 1294.87 498.586C1301.57 499.69 1307.72 500.242 1313.32 500.242C1323.42 500.242 1330.95 497.955 1335.92 493.38C1340.89 488.806 1343.37 483.324 1343.37 476.935C1343.37 472.045 1342.03 467.628 1339.35 463.685C1336.67 459.82 1329.89 454.811 1319 448.659L1307.29 442.152C1290.57 432.766 1279.25 424.09 1273.33 416.124C1267.34 408.158 1264.34 398.93 1264.34 388.44C1264.34 375.268 1269.31 363.989 1279.25 354.603C1289.27 345.217 1303.62 340.524 1322.31 340.524C1336.28 340.524 1352.01 342.535 1369.52 346.558V374.597C1351.7 367.893 1337.54 364.541 1327.05 364.541C1318.37 364.541 1311.75 366.473 1307.17 370.338C1302.68 374.124 1300.43 378.699 1300.43 384.062C1300.43 388.164 1301.77 391.989 1304.45 395.538C1307.05 399.088 1313.8 403.938 1324.68 410.09L1337.22 417.071C1356.39 427.876 1368.61 437.262 1373.9 445.228C1379.1 453.273 1381.71 462.304 1381.71 472.321C1381.71 486.676 1376.26 498.941 1365.38 509.116C1354.57 519.29 1337.34 524.377 1313.68 524.377C1299.64 524.377 1283.31 522.406 1264.7 518.462ZM1456.36 520V368.919H1393.66V344.902H1555.62V368.919H1492.92V520H1456.36Z" fill="#1B1B1B"/>
<path d="M934.141 520L929.289 521.21L930.234 525H934.141V520ZM890.485 344.902V339.902H884.085L885.633 346.111L890.485 344.902ZM924.913 344.902L929.764 343.692L928.819 339.902H924.913V344.902ZM956.856 473.031L952.005 474.241L961.723 474.177L956.856 473.031ZM987.025 344.902V339.902H983.066L982.158 343.756L987.025 344.902ZM1017.43 344.902L1022.31 343.806L1021.43 339.902H1017.43V344.902ZM1046.06 472.321L1041.18 473.417L1050.9 473.596L1046.06 472.321ZM1079.66 344.902V339.902H1075.81L1074.83 343.627L1079.66 344.902ZM1104.86 344.902L1109.7 346.17L1111.34 339.902H1104.86V344.902ZM1058.96 520V525H1062.82L1063.79 521.268L1058.96 520ZM1024.17 520L1019.3 521.096L1020.17 525H1024.17V520ZM997.2 399.916L1002.08 398.82L992.333 398.77L997.2 399.916ZM968.924 520V525H972.883L973.791 521.146L968.924 520ZM938.992 518.79L895.336 343.692L885.633 346.111L929.289 521.21L938.992 518.79ZM890.485 349.902H924.913V339.902H890.485V349.902ZM920.061 346.111L952.005 474.241L961.708 471.822L929.764 343.692L920.061 346.111ZM961.723 474.177L991.892 346.048L982.158 343.756L951.989 471.885L961.723 474.177ZM987.025 349.902H1017.43V339.902H987.025V349.902ZM1012.55 345.998L1041.18 473.417L1050.94 471.225L1022.31 343.806L1012.55 345.998ZM1050.9 473.596L1084.5 346.177L1074.83 343.627L1041.23 471.046L1050.9 473.596ZM1079.66 349.902H1104.86V339.902H1079.66V349.902ZM1100.03 343.634L1054.12 518.732L1063.79 521.268L1109.7 346.17L1100.03 343.634ZM1058.96 515H1024.17V525H1058.96V515ZM1029.05 518.904L1002.08 398.82L992.321 401.012L1019.3 521.096L1029.05 518.904ZM992.333 398.77L964.057 518.854L973.791 521.146L1002.07 401.062L992.333 398.77ZM968.924 515H934.141V525H968.924V515ZM1129 520H1124V525H1129V520ZM1129 344.902V339.902H1124V344.902H1129ZM1238.43 344.902H1243.43V339.902H1238.43V344.902ZM1238.43 368.919V373.919H1243.43V368.919H1238.43ZM1165.44 368.919V363.919H1160.44V368.919H1165.44ZM1165.44 417.78H1160.44V422.78H1165.44V417.78ZM1225.3 417.78H1230.3V412.78H1225.3V417.78ZM1225.3 441.916V446.916H1230.3V441.916H1225.3ZM1165.44 441.916V436.916H1160.44V441.916H1165.44ZM1165.44 495.155H1160.44V500.155H1165.44V495.155ZM1243.99 495.155H1248.99V490.155H1243.99V495.155ZM1243.99 520V525H1248.99V520H1243.99ZM1134 520V344.902H1124V520H1134ZM1129 349.902H1238.43V339.902H1129V349.902ZM1233.43 344.902V368.919H1243.43V344.902H1233.43ZM1238.43 363.919H1165.44V373.919H1238.43V363.919ZM1160.44 368.919V417.78H1170.44V368.919H1160.44ZM1165.44 422.78H1225.3V412.78H1165.44V422.78ZM1220.3 417.78V441.916H1230.3V417.78H1220.3ZM1225.3 436.916H1165.44V446.916H1225.3V436.916ZM1160.44 441.916V495.155H1170.44V441.916H1160.44ZM1165.44 500.155H1243.99V490.155H1165.44V500.155ZM1238.99 495.155V520H1248.99V495.155H1238.99ZM1243.99 515H1129V525H1243.99V515ZM1264.7 518.462H1259.7V522.514L1263.66 523.353L1264.7 518.462ZM1264.7 488.411L1266.64 483.803L1259.7 480.881V488.411H1264.7ZM1294.87 498.586L1294.04 503.518L1294.05 503.519L1294.87 498.586ZM1339.35 463.685L1343.49 460.873L1343.47 460.854L1343.46 460.834L1339.35 463.685ZM1319 448.659L1321.46 444.306L1321.45 444.297L1321.43 444.288L1319 448.659ZM1307.29 442.152L1304.84 446.512L1304.85 446.518L1304.86 446.523L1307.29 442.152ZM1273.33 416.124L1277.35 413.143L1277.34 413.13L1277.33 413.118L1273.33 416.124ZM1279.25 354.603L1275.83 350.954L1275.82 350.961L1275.82 350.968L1279.25 354.603ZM1369.52 346.558H1374.52V342.576L1370.64 341.685L1369.52 346.558ZM1369.52 374.597L1367.76 379.277L1374.52 381.82V374.597H1369.52ZM1307.17 370.338L1310.39 374.163L1310.4 374.158L1307.17 370.338ZM1304.45 395.538L1308.48 392.581L1308.46 392.553L1308.44 392.524L1304.45 395.538ZM1324.68 410.09L1322.22 414.443L1322.23 414.451L1322.25 414.459L1324.68 410.09ZM1337.22 417.071L1339.68 412.715L1339.67 412.708L1339.65 412.702L1337.22 417.071ZM1373.9 445.228L1378.1 442.512L1378.08 442.488L1378.06 442.464L1373.9 445.228ZM1365.38 509.116L1361.97 505.463L1361.96 505.469L1361.95 505.475L1365.38 509.116ZM1269.7 518.462V488.411H1259.7V518.462H1269.7ZM1262.76 493.02C1276.29 498.715 1286.8 502.311 1294.04 503.518L1295.69 493.654C1289.68 492.653 1280.09 489.465 1266.64 483.803L1262.76 493.02ZM1294.05 503.519C1300.97 504.659 1307.4 505.242 1313.32 505.242V495.242C1308.05 495.242 1302.17 494.721 1295.68 493.652L1294.05 503.519ZM1313.32 505.242C1324.07 505.242 1333.05 502.82 1339.31 497.059L1332.53 489.702C1328.85 493.09 1322.77 495.242 1313.32 495.242V505.242ZM1339.31 497.059C1345.24 491.598 1348.37 484.809 1348.37 476.935H1338.37C1338.37 481.839 1336.54 486.013 1332.53 489.702L1339.31 497.059ZM1348.37 476.935C1348.37 471.069 1346.75 465.668 1343.49 460.873L1335.22 466.496C1337.32 469.588 1338.37 473.021 1338.37 476.935H1348.37ZM1343.46 460.834C1341.65 458.228 1338.76 455.622 1335.22 453.007C1331.61 450.34 1327.01 447.44 1321.46 444.306L1316.54 453.012C1321.88 456.031 1326.11 458.711 1329.28 461.052C1332.52 463.446 1334.37 465.277 1335.24 466.535L1343.46 460.834ZM1321.43 444.288L1309.72 437.781L1304.86 446.523L1316.57 453.03L1321.43 444.288ZM1309.74 437.792C1293.16 428.489 1282.61 420.233 1277.35 413.143L1269.32 419.105C1275.89 427.948 1287.97 437.044 1304.84 446.512L1309.74 437.792ZM1277.33 413.118C1272.02 406.065 1269.34 397.906 1269.34 388.44H1259.34C1259.34 399.954 1262.66 410.25 1269.34 419.13L1277.33 413.118ZM1269.34 388.44C1269.34 376.701 1273.7 366.72 1282.68 358.238L1275.82 350.968C1264.92 361.258 1259.34 373.835 1259.34 388.44H1269.34ZM1282.67 358.252C1291.47 350.008 1304.43 345.524 1322.31 345.524V335.524C1302.82 335.524 1287.07 340.427 1275.83 350.954L1282.67 358.252ZM1322.31 345.524C1335.81 345.524 1351.16 347.47 1368.4 351.431L1370.64 341.685C1352.86 337.601 1336.74 335.524 1322.31 335.524V345.524ZM1364.52 346.558V374.597H1374.52V346.558H1364.52ZM1371.28 369.917C1353.27 363.145 1338.44 359.541 1327.05 359.541V369.541C1336.63 369.541 1350.12 372.641 1367.76 379.277L1371.28 369.917ZM1327.05 359.541C1317.71 359.541 1309.75 361.613 1303.94 366.519L1310.4 374.158C1313.74 371.334 1319.03 369.541 1327.05 369.541V359.541ZM1303.95 366.514C1298.45 371.147 1295.43 377.071 1295.43 384.062H1305.43C1305.43 380.327 1306.9 377.102 1310.39 374.163L1303.95 366.514ZM1295.43 384.062C1295.43 389.345 1297.18 394.213 1300.46 398.552L1308.44 392.524C1306.35 389.765 1305.43 386.982 1305.43 384.062H1295.43ZM1300.42 398.495C1302.19 400.917 1305.05 403.386 1308.54 405.897C1312.11 408.467 1316.69 411.317 1322.22 414.443L1327.14 405.737C1321.79 402.711 1317.55 400.06 1314.38 397.779C1311.13 395.439 1309.31 393.708 1308.48 392.581L1300.42 398.495ZM1322.25 414.459L1334.79 421.439L1339.65 412.702L1327.11 405.721L1322.25 414.459ZM1334.77 421.426C1353.92 432.224 1365.17 441.117 1369.73 447.992L1378.06 442.464C1372.06 433.407 1358.86 423.529 1339.68 412.715L1334.77 421.426ZM1369.7 447.945C1374.36 455.143 1376.71 463.222 1376.71 472.321H1386.71C1386.71 461.387 1383.85 451.404 1378.1 442.512L1369.7 447.945ZM1376.71 472.321C1376.71 485.233 1371.88 496.193 1361.97 505.463L1368.79 512.768C1380.65 501.688 1386.71 488.119 1386.71 472.321H1376.71ZM1361.95 505.475C1352.49 514.382 1336.79 519.377 1313.68 519.377V529.377C1337.89 529.377 1356.66 524.198 1368.81 512.756L1361.95 505.475ZM1313.68 519.377C1300.09 519.377 1284.12 517.466 1265.73 513.571L1263.66 523.353C1282.51 527.346 1299.19 529.377 1313.68 529.377V519.377ZM1456.36 520H1451.36V525H1456.36V520ZM1456.36 368.919H1461.36V363.919H1456.36V368.919ZM1393.66 368.919H1388.66V373.919H1393.66V368.919ZM1393.66 344.902V339.902H1388.66V344.902H1393.66ZM1555.62 344.902H1560.62V339.902H1555.62V344.902ZM1555.62 368.919V373.919H1560.62V368.919H1555.62ZM1492.92 368.919V363.919H1487.92V368.919H1492.92ZM1492.92 520V525H1497.92V520H1492.92ZM1461.36 520V368.919H1451.36V520H1461.36ZM1456.36 363.919H1393.66V373.919H1456.36V363.919ZM1398.66 368.919V344.902H1388.66V368.919H1398.66ZM1393.66 349.902H1555.62V339.902H1393.66V349.902ZM1550.62 344.902V368.919H1560.62V344.902H1550.62ZM1555.62 363.919H1492.92V373.919H1555.62V363.919ZM1487.92 368.919V520H1497.92V368.919H1487.92ZM1492.92 515H1456.36V525H1492.92V515Z" fill="#DCA413" mask="url(#path-11-outside-6_0_1)"/>
<mask id="path-13-outside-7_0_1" maskUnits="userSpaceOnUse" x="153" y="-5" width="447" height="192" fill="black">
<rect fill="white" x="153" y="-5" width="447" height="192"/>
<path d="M239.113 177V130.988H158.62V105.127L237.715 4.59896H269.283V105.127H289.435V130.988H269.283V177H239.113ZM186.228 105.127H239.812V37.5648L186.228 105.127ZM378.548 181.31C364.725 181.31 352.804 177.466 342.786 169.778C332.768 162.09 325.08 151.062 319.722 136.695C314.363 122.329 311.684 107.03 311.684 90.7995C311.684 74.6466 314.325 59.3868 319.605 45.02C324.964 30.5756 332.691 19.5093 342.786 11.8212C352.882 4.13301 364.802 0.288933 378.548 0.288933C392.138 0.288933 403.981 4.09418 414.076 11.7047C424.172 19.3152 431.899 30.3426 437.257 44.787C442.616 59.1538 445.295 74.4913 445.295 90.7995C445.295 106.564 442.732 121.591 437.607 135.88C432.481 150.091 424.91 161.235 414.892 169.312C404.874 177.311 392.759 181.31 378.548 181.31ZM378.548 159.76C388.876 159.76 396.487 154.052 401.379 142.636C406.272 131.221 408.718 113.165 408.718 88.4697C408.718 66.2595 406.194 49.6018 401.146 38.4967C396.176 27.3916 388.643 21.8391 378.548 21.8391C368.219 21.8391 360.57 27.5469 355.6 38.9627C350.707 50.3008 348.261 68.3175 348.261 93.0127C348.261 115.223 350.785 131.919 355.833 143.102C360.881 154.207 368.452 159.76 378.548 159.76ZM543.843 177V130.988H463.351V105.127L542.445 4.59896H574.013V105.127H594.166V130.988H574.013V177H543.843ZM490.958 105.127H544.542V37.5648L490.958 105.127Z"/>
</mask>
<path d="M239.113 177V130.988H158.62V105.127L237.715 4.59896H269.283V105.127H289.435V130.988H269.283V177H239.113ZM186.228 105.127H239.812V37.5648L186.228 105.127ZM378.548 181.31C364.725 181.31 352.804 177.466 342.786 169.778C332.768 162.09 325.08 151.062 319.722 136.695C314.363 122.329 311.684 107.03 311.684 90.7995C311.684 74.6466 314.325 59.3868 319.605 45.02C324.964 30.5756 332.691 19.5093 342.786 11.8212C352.882 4.13301 364.802 0.288933 378.548 0.288933C392.138 0.288933 403.981 4.09418 414.076 11.7047C424.172 19.3152 431.899 30.3426 437.257 44.787C442.616 59.1538 445.295 74.4913 445.295 90.7995C445.295 106.564 442.732 121.591 437.607 135.88C432.481 150.091 424.91 161.235 414.892 169.312C404.874 177.311 392.759 181.31 378.548 181.31ZM378.548 159.76C388.876 159.76 396.487 154.052 401.379 142.636C406.272 131.221 408.718 113.165 408.718 88.4697C408.718 66.2595 406.194 49.6018 401.146 38.4967C396.176 27.3916 388.643 21.8391 378.548 21.8391C368.219 21.8391 360.57 27.5469 355.6 38.9627C350.707 50.3008 348.261 68.3175 348.261 93.0127C348.261 115.223 350.785 131.919 355.833 143.102C360.881 154.207 368.452 159.76 378.548 159.76ZM543.843 177V130.988H463.351V105.127L542.445 4.59896H574.013V105.127H594.166V130.988H574.013V177H543.843ZM490.958 105.127H544.542V37.5648L490.958 105.127Z" fill="#DCA413"/>
<path d="M239.113 177H234.113V182H239.113V177ZM239.113 130.988H244.113V125.988H239.113V130.988ZM158.62 130.988H153.62V135.988H158.62V130.988ZM158.62 105.127L154.691 102.036L153.62 103.396V105.127H158.62ZM237.715 4.59896V-0.401043H235.287L233.785 1.50724L237.715 4.59896ZM269.283 4.59896H274.283V-0.401043H269.283V4.59896ZM269.283 105.127H264.283V110.127H269.283V105.127ZM289.435 105.127H294.435V100.127H289.435V105.127ZM289.435 130.988V135.988H294.435V130.988H289.435ZM269.283 130.988V125.988H264.283V130.988H269.283ZM269.283 177V182H274.283V177H269.283ZM186.228 105.127L182.31 102.02L175.88 110.127H186.228V105.127ZM239.812 105.127V110.127H244.812V105.127H239.812ZM239.812 37.5648H244.812V23.2141L235.894 34.4579L239.812 37.5648ZM244.113 177V130.988H234.113V177H244.113ZM239.113 125.988H158.62V135.988H239.113V125.988ZM163.62 130.988V105.127H153.62V130.988H163.62ZM162.55 108.219L241.644 7.69068L233.785 1.50724L154.691 102.036L162.55 108.219ZM237.715 9.59896H269.283V-0.401043H237.715V9.59896ZM264.283 4.59896V105.127H274.283V4.59896H264.283ZM269.283 110.127H289.435V100.127H269.283V110.127ZM284.435 105.127V130.988H294.435V105.127H284.435ZM289.435 125.988H269.283V135.988H289.435V125.988ZM264.283 130.988V177H274.283V130.988H264.283ZM269.283 172H239.113V182H269.283V172ZM186.228 110.127H239.812V100.127H186.228V110.127ZM244.812 105.127V37.5648H234.812V105.127H244.812ZM235.894 34.4579L182.31 102.02L190.145 108.234L243.729 40.6718L235.894 34.4579ZM319.605 45.02L314.918 43.281L314.915 43.288L314.912 43.295L319.605 45.02ZM414.076 11.7047L411.067 15.6973L414.076 11.7047ZM437.257 44.787L432.57 46.5261L432.573 46.5343L437.257 44.787ZM437.607 135.88L442.31 137.576L442.313 137.568L437.607 135.88ZM414.892 169.312L418.012 173.219L418.021 173.212L418.03 173.204L414.892 169.312ZM401.146 38.4967L396.583 40.5393L396.589 40.5525L396.595 40.5657L401.146 38.4967ZM355.6 38.9627L351.016 36.9668L351.012 36.9742L351.009 36.9817L355.6 38.9627ZM355.833 143.102L351.276 145.159L351.281 145.171L355.833 143.102ZM378.548 176.31C365.715 176.31 354.891 172.765 345.83 165.811L339.742 173.744C350.717 182.167 363.734 186.31 378.548 186.31V176.31ZM345.83 165.811C336.702 158.806 329.508 148.625 324.407 134.948L315.037 138.443C320.653 153.499 328.835 165.373 339.742 173.744L345.83 165.811ZM324.407 134.948C319.269 121.172 316.684 106.469 316.684 90.7995H306.684C306.684 107.591 309.458 123.485 315.037 138.443L324.407 134.948ZM316.684 90.7995C316.684 75.2023 319.232 60.5293 324.298 46.745L314.912 43.295C309.417 58.2442 306.684 74.0909 306.684 90.7995H316.684ZM324.293 46.759C329.393 33.0117 336.621 22.8009 345.816 15.799L339.757 7.8433C328.76 16.2177 320.535 28.1395 314.918 43.281L324.293 46.759ZM345.816 15.799C354.967 8.83023 365.8 5.28893 378.548 5.28893V-4.71107C363.805 -4.71107 350.797 -0.564209 339.757 7.8433L345.816 15.799ZM378.548 5.28893C391.138 5.28893 401.905 8.79079 411.067 15.6973L417.086 7.71206C406.057 -0.602428 393.138 -4.71107 378.548 -4.71107V5.28893ZM411.067 15.6973C420.247 22.6178 427.471 32.7808 432.57 46.5261L441.945 43.048C436.327 27.9045 428.097 16.0126 417.086 7.71206L411.067 15.6973ZM432.573 46.5343C437.71 60.3074 440.295 75.0496 440.295 90.7995H450.295C450.295 73.9329 447.522 58.0002 441.942 43.0397L432.573 46.5343ZM440.295 90.7995C440.295 106.011 437.824 120.465 432.9 134.192L442.313 137.568C447.64 122.717 450.295 107.117 450.295 90.7995H440.295ZM432.903 134.184C428.034 147.685 420.943 158.011 411.754 165.419L418.03 173.204C428.877 164.46 436.929 152.498 442.31 137.576L432.903 134.184ZM411.772 165.405C402.737 172.618 391.756 176.31 378.548 176.31V186.31C393.762 186.31 407.011 182.003 418.012 173.219L411.772 165.405ZM378.548 164.76C384.696 164.76 390.256 163.039 395.002 159.479C399.69 155.963 403.287 150.879 405.975 144.606L396.784 140.667C394.58 145.809 391.924 149.287 389.002 151.479C386.138 153.627 382.729 154.76 378.548 154.76V164.76ZM405.975 144.606C411.286 132.214 413.718 113.305 413.718 88.4697H403.718C403.718 113.025 401.258 130.227 396.784 140.667L405.975 144.606ZM413.718 88.4697C413.718 66.0372 411.193 48.5164 405.698 36.4277L396.595 40.5657C401.195 50.6872 403.718 66.4818 403.718 88.4697H413.718ZM405.71 36.4542C402.976 30.3443 399.375 25.3981 394.736 21.9787C390.041 18.5181 384.574 16.8391 378.548 16.8391V26.8391C382.617 26.8391 385.965 27.9363 388.802 30.0282C391.696 32.1614 394.347 35.5441 396.583 40.5393L405.71 36.4542ZM378.548 16.8391C372.4 16.8391 366.835 18.5603 362.074 22.1127C357.371 25.622 353.745 30.6976 351.016 36.9668L360.184 40.9586C362.425 35.812 365.108 32.3258 368.055 30.1273C370.943 27.9718 374.367 26.8391 378.548 26.8391V16.8391ZM351.009 36.9817C345.692 49.3032 343.261 68.1815 343.261 93.0127H353.261C353.261 68.4534 355.723 51.2984 360.191 40.9437L351.009 36.9817ZM343.261 93.0127C343.261 115.449 345.787 133 351.276 145.159L360.39 141.045C355.783 130.838 353.261 114.997 353.261 93.0127H343.261ZM351.281 145.171C354.056 151.277 357.687 156.215 362.341 159.628C367.05 163.081 372.521 164.76 378.548 164.76V154.76C374.479 154.76 371.117 153.663 368.254 151.563C365.336 149.424 362.657 146.033 360.385 141.033L351.281 145.171ZM543.843 177H538.843V182H543.843V177ZM543.843 130.988H548.843V125.988H543.843V130.988ZM463.351 130.988H458.351V135.988H463.351V130.988ZM463.351 105.127L459.421 102.036L458.351 103.396V105.127H463.351ZM542.445 4.59896V-0.401043H540.017L538.516 1.50724L542.445 4.59896ZM574.013 4.59896H579.013V-0.401043H574.013V4.59896ZM574.013 105.127H569.013V110.127H574.013V105.127ZM594.166 105.127H599.166V100.127H594.166V105.127ZM594.166 130.988V135.988H599.166V130.988H594.166ZM574.013 130.988V125.988H569.013V130.988H574.013ZM574.013 177V182H579.013V177H574.013ZM490.958 105.127L487.041 102.02L480.611 110.127H490.958V105.127ZM544.542 105.127V110.127H549.542V105.127H544.542ZM544.542 37.5648H549.542V23.2141L540.625 34.4579L544.542 37.5648ZM548.843 177V130.988H538.843V177H548.843ZM543.843 125.988H463.351V135.988H543.843V125.988ZM468.351 130.988V105.127H458.351V130.988H468.351ZM467.28 108.219L546.375 7.69068L538.516 1.50724L459.421 102.036L467.28 108.219ZM542.445 9.59896H574.013V-0.401043H542.445V9.59896ZM569.013 4.59896V105.127H579.013V4.59896H569.013ZM574.013 110.127H594.166V100.127H574.013V110.127ZM589.166 105.127V130.988H599.166V105.127H589.166ZM594.166 125.988H574.013V135.988H594.166V125.988ZM569.013 130.988V177H579.013V130.988H569.013ZM574.013 172H543.843V182H574.013V172ZM490.958 110.127H544.542V100.127H490.958V110.127ZM549.542 105.127V37.5648H539.542V105.127H549.542ZM540.625 34.4579L487.041 102.02L494.876 108.234L548.46 40.6718L540.625 34.4579Z" fill="#1B1B1B" mask="url(#path-13-outside-7_0_1)"/>
<mask id="path-15-outside-8_0_1" maskUnits="userSpaceOnUse" x="1323" y="-5" width="860" height="192" fill="black">
<rect fill="white" x="1323" y="-5" width="860" height="192"/>
<path d="M1328.55 177V4.59896H1437V28.2459H1364.43V80.6651H1424.07V104.428H1364.43V177H1328.55ZM1542.3 181.31C1524.37 181.31 1508.76 177.621 1495.48 170.244C1482.2 162.789 1472.1 152.111 1465.19 138.21C1458.28 124.231 1454.82 108.428 1454.82 90.7995C1454.82 73.2487 1458.28 57.4841 1465.19 43.5057C1472.1 29.5272 1482.24 18.8492 1495.59 11.4717C1508.95 4.01652 1524.52 0.288933 1542.3 0.288933C1560.01 0.288933 1575.54 4.01652 1588.9 11.4717C1602.26 18.8492 1612.39 29.5272 1619.3 43.5057C1626.21 57.4841 1629.67 73.2487 1629.67 90.7995C1629.67 108.428 1626.21 124.231 1619.3 138.21C1612.39 152.111 1602.29 162.789 1589.02 170.244C1575.81 177.621 1560.24 181.31 1542.3 181.31ZM1542.3 157.547C1558.92 157.547 1571.27 150.79 1579.35 137.278C1587.5 123.688 1591.58 108.156 1591.58 90.683C1591.58 73.1323 1587.5 57.6395 1579.35 44.2046C1571.19 30.6921 1558.85 23.9358 1542.3 23.9358C1525.69 23.9358 1513.3 30.6921 1505.14 44.2046C1496.99 57.6395 1492.91 73.1323 1492.91 90.683C1492.91 108.156 1496.95 123.688 1505.03 137.278C1513.18 150.79 1525.61 157.547 1542.3 157.547ZM1660.54 4.59896H1696.42V110.253C1696.42 129.357 1699.64 142.015 1706.09 148.228C1712.61 154.44 1721.03 157.547 1731.36 157.547C1741.54 157.547 1749.61 154.479 1755.59 148.344C1761.65 142.209 1764.68 130.366 1764.68 112.816V4.59896H1795.9V110.486C1795.9 130.444 1793.37 144.772 1788.33 153.47C1783.35 162.09 1776.13 168.885 1766.66 173.855C1757.18 178.825 1745.19 181.31 1730.66 181.31C1716.37 181.31 1704.1 179.019 1693.85 174.437C1683.6 169.778 1675.49 162.905 1669.51 153.819C1663.53 144.655 1660.54 130.094 1660.54 110.136V4.59896ZM1837.6 177V4.59896H1869.17L1949.08 122.368V4.59896H1977.85V177H1945.7L1866.37 59.2315V177H1837.6ZM2020.95 177V4.59896H2095.15C2115.03 4.59896 2130.49 7.78294 2141.51 14.1509C2152.62 20.5189 2161.43 29.9155 2167.96 42.3408C2174.56 54.6885 2177.86 69.6376 2177.86 87.1884C2177.86 104.351 2174.71 119.688 2168.42 133.201C2162.21 146.713 2153.12 157.391 2141.16 165.235C2129.21 173.078 2112.82 177 2092.01 177H2020.95ZM2056.83 152.538H2083.62C2097.6 152.538 2108.28 150.363 2115.65 146.014C2123.11 141.666 2128.97 134.327 2133.24 123.998C2137.59 113.592 2139.77 102.021 2139.77 89.2851C2139.77 77.0928 2137.67 66.2983 2133.48 56.9017C2129.28 47.5051 2123.46 40.3994 2116 35.5846C2108.63 30.6921 2096.12 28.2459 2078.49 28.2459H2056.83V152.538Z"/>
</mask>
<path d="M1328.55 177V4.59896H1437V28.2459H1364.43V80.6651H1424.07V104.428H1364.43V177H1328.55ZM1542.3 181.31C1524.37 181.31 1508.76 177.621 1495.48 170.244C1482.2 162.789 1472.1 152.111 1465.19 138.21C1458.28 124.231 1454.82 108.428 1454.82 90.7995C1454.82 73.2487 1458.28 57.4841 1465.19 43.5057C1472.1 29.5272 1482.24 18.8492 1495.59 11.4717C1508.95 4.01652 1524.52 0.288933 1542.3 0.288933C1560.01 0.288933 1575.54 4.01652 1588.9 11.4717C1602.26 18.8492 1612.39 29.5272 1619.3 43.5057C1626.21 57.4841 1629.67 73.2487 1629.67 90.7995C1629.67 108.428 1626.21 124.231 1619.3 138.21C1612.39 152.111 1602.29 162.789 1589.02 170.244C1575.81 177.621 1560.24 181.31 1542.3 181.31ZM1542.3 157.547C1558.92 157.547 1571.27 150.79 1579.35 137.278C1587.5 123.688 1591.58 108.156 1591.58 90.683C1591.58 73.1323 1587.5 57.6395 1579.35 44.2046C1571.19 30.6921 1558.85 23.9358 1542.3 23.9358C1525.69 23.9358 1513.3 30.6921 1505.14 44.2046C1496.99 57.6395 1492.91 73.1323 1492.91 90.683C1492.91 108.156 1496.95 123.688 1505.03 137.278C1513.18 150.79 1525.61 157.547 1542.3 157.547ZM1660.54 4.59896H1696.42V110.253C1696.42 129.357 1699.64 142.015 1706.09 148.228C1712.61 154.44 1721.03 157.547 1731.36 157.547C1741.54 157.547 1749.61 154.479 1755.59 148.344C1761.65 142.209 1764.68 130.366 1764.68 112.816V4.59896H1795.9V110.486C1795.9 130.444 1793.37 144.772 1788.33 153.47C1783.35 162.09 1776.13 168.885 1766.66 173.855C1757.18 178.825 1745.19 181.31 1730.66 181.31C1716.37 181.31 1704.1 179.019 1693.85 174.437C1683.6 169.778 1675.49 162.905 1669.51 153.819C1663.53 144.655 1660.54 130.094 1660.54 110.136V4.59896ZM1837.6 177V4.59896H1869.17L1949.08 122.368V4.59896H1977.85V177H1945.7L1866.37 59.2315V177H1837.6ZM2020.95 177V4.59896H2095.15C2115.03 4.59896 2130.49 7.78294 2141.51 14.1509C2152.62 20.5189 2161.43 29.9155 2167.96 42.3408C2174.56 54.6885 2177.86 69.6376 2177.86 87.1884C2177.86 104.351 2174.71 119.688 2168.42 133.201C2162.21 146.713 2153.12 157.391 2141.16 165.235C2129.21 173.078 2112.82 177 2092.01 177H2020.95ZM2056.83 152.538H2083.62C2097.6 152.538 2108.28 150.363 2115.65 146.014C2123.11 141.666 2128.97 134.327 2133.24 123.998C2137.59 113.592 2139.77 102.021 2139.77 89.2851C2139.77 77.0928 2137.67 66.2983 2133.48 56.9017C2129.28 47.5051 2123.46 40.3994 2116 35.5846C2108.63 30.6921 2096.12 28.2459 2078.49 28.2459H2056.83V152.538Z" fill="#DCA413"/>
<path d="M1328.55 177H1323.55V182H1328.55V177ZM1328.55 4.59896V-0.401043H1323.55V4.59896H1328.55ZM1437 4.59896H1442V-0.401043H1437V4.59896ZM1437 28.2459V33.2459H1442V28.2459H1437ZM1364.43 28.2459V23.2459H1359.43V28.2459H1364.43ZM1364.43 80.6651H1359.43V85.6651H1364.43V80.6651ZM1424.07 80.6651H1429.07V75.6651H1424.07V80.6651ZM1424.07 104.428V109.428H1429.07V104.428H1424.07ZM1364.43 104.428V99.4285H1359.43V104.428H1364.43ZM1364.43 177V182H1369.43V177H1364.43ZM1333.55 177V4.59896H1323.55V177H1333.55ZM1328.55 9.59896H1437V-0.401043H1328.55V9.59896ZM1432 4.59896V28.2459H1442V4.59896H1432ZM1437 23.2459H1364.43V33.2459H1437V23.2459ZM1359.43 28.2459V80.6651H1369.43V28.2459H1359.43ZM1364.43 85.6651H1424.07V75.6651H1364.43V85.6651ZM1419.07 80.6651V104.428H1429.07V80.6651H1419.07ZM1424.07 99.4285H1364.43V109.428H1424.07V99.4285ZM1359.43 104.428V177H1369.43V104.428H1359.43ZM1364.43 172H1328.55V182H1364.43V172ZM1495.48 170.244L1493.03 174.604L1493.04 174.609L1493.05 174.615L1495.48 170.244ZM1465.19 138.21L1460.71 140.426L1460.71 140.436L1465.19 138.21ZM1465.19 43.5057L1460.71 41.2896L1465.19 43.5057ZM1495.59 11.4717L1498.01 15.8485L1498.02 15.8431L1498.03 15.8377L1495.59 11.4717ZM1588.9 11.4717L1586.46 15.8377L1586.47 15.8431L1586.48 15.8485L1588.9 11.4717ZM1619.3 138.21L1623.78 140.436L1623.78 140.426L1619.3 138.21ZM1589.02 170.244L1591.45 174.608L1591.46 174.604L1589.02 170.244ZM1579.35 137.278L1575.06 134.705L1575.06 134.713L1579.35 137.278ZM1579.35 44.2046L1575.07 46.7879L1575.07 46.7989L1579.35 44.2046ZM1505.14 44.2046L1509.42 46.7989L1509.43 46.7879L1505.14 44.2046ZM1505.03 137.278L1500.73 139.832L1500.74 139.847L1500.75 139.861L1505.03 137.278ZM1542.3 176.31C1525.06 176.31 1510.32 172.769 1497.9 165.873L1493.05 174.615C1507.19 182.474 1523.67 186.31 1542.3 186.31V176.31ZM1497.92 165.884C1485.54 158.93 1476.14 149.004 1469.67 135.984L1460.71 140.436C1468.06 155.217 1478.86 166.647 1493.03 174.604L1497.92 165.884ZM1469.67 135.994C1463.14 122.789 1459.82 107.76 1459.82 90.7995H1449.82C1449.82 109.096 1453.41 125.673 1460.71 140.426L1469.67 135.994ZM1459.82 90.7995C1459.82 73.9202 1463.14 58.929 1469.67 45.7218L1460.71 41.2896C1453.41 56.0393 1449.82 72.5773 1449.82 90.7995H1459.82ZM1469.67 45.7218C1476.14 32.6358 1485.57 22.7217 1498.01 15.8485L1493.18 7.09493C1478.91 14.9768 1468.06 26.4186 1460.71 41.2896L1469.67 45.7218ZM1498.03 15.8377C1510.53 8.86145 1525.23 5.28893 1542.3 5.28893V-4.71107C1523.81 -4.71107 1507.37 -0.828403 1493.16 7.10571L1498.03 15.8377ZM1542.3 5.28893C1559.29 5.28893 1573.96 8.85969 1586.46 15.8377L1591.34 7.10571C1577.12 -0.826645 1560.73 -4.71107 1542.3 -4.71107V5.28893ZM1586.48 15.8485C1598.93 22.7217 1608.35 32.6358 1614.82 45.7218L1623.78 41.2896C1616.43 26.4186 1605.59 14.9768 1591.32 7.09493L1586.48 15.8485ZM1614.82 45.7218C1621.35 58.929 1624.67 73.9202 1624.67 90.7995H1634.67C1634.67 72.5773 1631.08 56.0393 1623.78 41.2896L1614.82 45.7218ZM1624.67 90.7995C1624.67 107.76 1621.35 122.789 1614.82 135.994L1623.78 140.426C1631.08 125.673 1634.67 109.096 1634.67 90.7995H1624.67ZM1614.82 135.984C1608.35 149.004 1598.95 158.93 1586.57 165.884L1591.46 174.604C1605.64 166.647 1616.43 155.217 1623.78 140.436L1614.82 135.984ZM1586.58 165.879C1574.25 172.769 1559.55 176.31 1542.3 176.31V186.31C1560.94 186.31 1577.38 182.474 1591.45 174.608L1586.58 165.879ZM1542.3 162.547C1560.56 162.547 1574.6 154.965 1583.64 139.843L1575.06 134.713C1567.94 146.615 1557.28 152.547 1542.3 152.547V162.547ZM1583.63 139.85C1592.3 125.405 1596.58 108.967 1596.58 90.683H1586.58C1586.58 107.346 1582.7 121.97 1575.06 134.705L1583.63 139.85ZM1596.58 90.683C1596.58 72.3271 1592.3 55.9161 1583.62 41.6104L1575.07 46.7989C1582.7 59.3628 1586.58 73.9374 1586.58 90.683H1596.58ZM1583.63 41.6213C1574.52 26.523 1560.49 18.9358 1542.3 18.9358V28.9358C1557.2 28.9358 1567.87 34.8611 1575.07 46.7879L1583.63 41.6213ZM1542.3 18.9358C1524.05 18.9358 1509.98 26.5146 1500.86 41.6213L1509.43 46.7879C1516.62 34.8696 1527.32 28.9358 1542.3 28.9358V18.9358ZM1500.87 41.6104C1492.19 55.9161 1487.91 72.3271 1487.91 90.683H1497.91C1497.91 73.9374 1501.79 59.3628 1509.42 46.7989L1500.87 41.6104ZM1487.91 90.683C1487.91 108.958 1492.15 125.39 1500.73 139.832L1509.33 134.723C1501.76 121.986 1497.91 107.354 1497.91 90.683H1487.91ZM1500.75 139.861C1509.87 154.976 1523.98 162.547 1542.3 162.547V152.547C1527.24 152.547 1516.5 146.604 1509.31 134.695L1500.75 139.861ZM1660.54 4.59896V-0.401043H1655.54V4.59896H1660.54ZM1696.42 4.59896H1701.42V-0.401043H1696.42V4.59896ZM1706.09 148.228L1702.62 151.828L1702.63 151.838L1702.64 151.848L1706.09 148.228ZM1755.59 148.344L1752.03 144.831L1752.02 144.843L1752.01 144.854L1755.59 148.344ZM1764.68 4.59896V-0.401043H1759.68V4.59896H1764.68ZM1795.9 4.59896H1800.9V-0.401043H1795.9V4.59896ZM1788.33 153.47L1784 150.96L1784 150.966L1783.99 150.972L1788.33 153.47ZM1766.66 173.855L1768.98 178.283L1766.66 173.855ZM1693.85 174.437L1691.78 178.989L1691.8 178.996L1691.81 179.002L1693.85 174.437ZM1669.51 153.819L1665.32 156.551L1665.33 156.56L1665.33 156.568L1669.51 153.819ZM1660.54 9.59896H1696.42V-0.401043H1660.54V9.59896ZM1691.42 4.59896V110.253H1701.42V4.59896H1691.42ZM1691.42 110.253C1691.42 120.048 1692.24 128.437 1693.99 135.308C1695.73 142.149 1698.48 147.844 1702.62 151.828L1709.55 144.628C1707.24 142.398 1705.16 138.658 1703.68 132.841C1702.21 127.054 1701.42 119.562 1701.42 110.253H1691.42ZM1702.64 151.848C1710.23 159.077 1719.95 162.547 1731.36 162.547V152.547C1722.12 152.547 1714.99 149.804 1709.53 144.607L1702.64 151.848ZM1731.36 162.547C1742.61 162.547 1752.08 159.114 1759.17 151.834L1752.01 144.854C1747.15 149.845 1740.46 152.547 1731.36 152.547V162.547ZM1759.15 151.857C1766.71 144.196 1769.68 130.512 1769.68 112.816H1759.68C1759.68 130.22 1756.58 140.223 1752.03 144.831L1759.15 151.857ZM1769.68 112.816V4.59896H1759.68V112.816H1769.68ZM1764.68 9.59896H1795.9V-0.401043H1764.68V9.59896ZM1790.9 4.59896V110.486H1800.9V4.59896H1790.9ZM1790.9 110.486C1790.9 130.274 1788.35 143.466 1784 150.96L1792.65 155.979C1798.4 146.078 1800.9 130.614 1800.9 110.486H1790.9ZM1783.99 150.972C1779.53 158.709 1773.04 164.863 1764.34 169.427L1768.98 178.283C1779.23 172.907 1787.18 165.47 1792.66 155.967L1783.99 150.972ZM1764.34 169.427C1755.79 173.911 1744.65 176.31 1730.66 176.31V186.31C1745.72 186.31 1758.58 183.739 1768.98 178.283L1764.34 169.427ZM1730.66 176.31C1716.89 176.31 1705.35 174.101 1695.89 169.873L1691.81 179.002C1702.86 183.938 1715.86 186.31 1730.66 186.31V176.31ZM1695.92 169.885C1686.5 165.602 1679.13 159.34 1673.68 151.07L1665.33 156.568C1671.85 166.47 1680.71 173.954 1691.78 178.989L1695.92 169.885ZM1673.7 151.087C1668.53 143.166 1665.54 129.813 1665.54 110.136H1655.54C1655.54 130.376 1658.53 146.145 1665.32 156.551L1673.7 151.087ZM1665.54 110.136V4.59896H1655.54V110.136H1665.54ZM1837.6 177H1832.6V182H1837.6V177ZM1837.6 4.59896V-0.401043H1832.6V4.59896H1837.6ZM1869.17 4.59896L1873.3 1.79155L1871.82 -0.401043H1869.17V4.59896ZM1949.08 122.368L1944.94 125.175L1954.08 138.641V122.368H1949.08ZM1949.08 4.59896V-0.401043H1944.08V4.59896H1949.08ZM1977.85 4.59896H1982.85V-0.401043H1977.85V4.59896ZM1977.85 177V182H1982.85V177H1977.85ZM1945.7 177L1941.55 179.793L1943.04 182H1945.7V177ZM1866.37 59.2315L1870.52 56.4381L1861.37 42.8587V59.2315H1866.37ZM1866.37 177V182H1871.37V177H1866.37ZM1842.6 177V4.59896H1832.6V177H1842.6ZM1837.6 9.59896H1869.17V-0.401043H1837.6V9.59896ZM1865.03 7.40636L1944.94 125.175L1953.21 119.56L1873.3 1.79155L1865.03 7.40636ZM1954.08 122.368V4.59896H1944.08V122.368H1954.08ZM1949.08 9.59896H1977.85V-0.401043H1949.08V9.59896ZM1972.85 4.59896V177H1982.85V4.59896H1972.85ZM1977.85 172H1945.7V182H1977.85V172ZM1949.85 174.207L1870.52 56.4381L1862.22 62.0248L1941.55 179.793L1949.85 174.207ZM1861.37 59.2315V177H1871.37V59.2315H1861.37ZM1866.37 172H1837.6V182H1866.37V172ZM2020.95 177H2015.95V182H2020.95V177ZM2020.95 4.59896V-0.401043H2015.95V4.59896H2020.95ZM2141.51 14.1509L2139.01 18.4808L2139.02 18.4846L2139.03 18.4884L2141.51 14.1509ZM2167.96 42.3408L2163.53 44.665L2163.54 44.6816L2163.55 44.6981L2167.96 42.3408ZM2168.42 133.201L2163.89 131.091L2163.88 131.101L2163.88 131.112L2168.42 133.201ZM2056.83 152.538H2051.83V157.538H2056.83V152.538ZM2115.65 146.014L2113.13 141.696L2113.12 141.701L2113.11 141.707L2115.65 146.014ZM2133.24 123.998L2128.63 122.07L2128.63 122.079L2128.62 122.088L2133.24 123.998ZM2133.48 56.9017L2128.91 58.9394L2133.48 56.9017ZM2116 35.5845L2113.24 39.7515L2113.27 39.7683L2113.29 39.7847L2116 35.5845ZM2056.83 28.2459V23.2459H2051.83V28.2459H2056.83ZM2025.95 177V4.59896H2015.95V177H2025.95ZM2020.95 9.59896H2095.15V-0.401043H2020.95V9.59896ZM2095.15 9.59896C2114.6 9.59896 2129.06 12.732 2139.01 18.4808L2144.01 9.821C2131.91 2.83387 2115.46 -0.401043 2095.15 -0.401043V9.59896ZM2139.03 18.4884C2149.23 24.3382 2157.4 32.9975 2163.53 44.665L2172.38 40.0166C2165.46 26.8335 2156.01 16.6995 2144 9.81343L2139.03 18.4884ZM2163.55 44.6981C2169.67 56.1593 2172.86 70.2555 2172.86 87.1884H2182.86C2182.86 69.0198 2179.44 53.2176 2172.37 39.9836L2163.55 44.6981ZM2172.86 87.1884C2172.86 103.732 2169.83 118.332 2163.89 131.091L2172.96 135.311C2179.6 121.044 2182.86 104.97 2182.86 87.1884H2172.86ZM2163.88 131.112C2158.04 143.808 2149.57 153.746 2138.42 161.054L2143.91 169.416C2156.68 161.037 2166.38 149.619 2172.97 135.289L2163.88 131.112ZM2138.42 161.054C2127.57 168.171 2112.27 172 2092.01 172V182C2113.37 182 2130.84 177.985 2143.91 169.416L2138.42 161.054ZM2092.01 172H2020.95V182H2092.01V172ZM2056.83 157.538H2083.62V147.538H2056.83V157.538ZM2083.62 157.538C2097.99 157.538 2109.7 155.326 2118.19 150.322L2113.11 141.707C2106.85 145.401 2097.21 147.538 2083.62 147.538V157.538ZM2118.17 150.333C2126.82 145.29 2133.3 136.949 2137.86 125.909L2128.62 122.088C2124.65 131.705 2119.4 138.042 2113.13 141.696L2118.17 150.333ZM2137.86 125.926C2142.49 114.835 2144.77 102.598 2144.77 89.2851H2134.77C2134.77 101.444 2132.69 112.349 2128.63 122.07L2137.86 125.926ZM2144.77 89.2851C2144.77 76.5187 2142.57 65.0093 2138.04 54.864L2128.91 58.9394C2132.77 67.5874 2134.77 77.667 2134.77 89.2851H2144.77ZM2138.04 54.864C2133.52 44.7266 2127.11 36.8048 2118.72 31.3844L2113.29 39.7847C2119.81 43.9939 2125.05 50.2836 2128.91 58.9394L2138.04 54.864ZM2118.77 31.4176C2110.09 25.6625 2096.3 23.2459 2078.49 23.2459V33.2459C2095.95 33.2459 2107.16 35.7217 2113.24 39.7515L2118.77 31.4176ZM2078.49 23.2459H2056.83V33.2459H2078.49V23.2459ZM2051.83 28.2459V152.538H2061.83V28.2459H2051.83Z" fill="#1B1B1B" mask="url(#path-15-outside-8_0_1)"/>
<mask id="path-17-outside-9_0_1" maskUnits="userSpaceOnUse" x="701" y="-5" width="531" height="192" fill="black">
<rect fill="white" x="701" y="-5" width="531" height="192"/>
<path d="M706.55 177V4.59896H738.118L818.028 122.368V4.59896H846.801V177H814.65L735.322 59.2315V177H706.55ZM966.666 181.31C948.727 181.31 933.118 177.621 919.838 170.244C906.559 162.789 896.463 152.111 889.551 138.21C882.64 124.231 879.184 108.428 879.184 90.7995C879.184 73.2487 882.64 57.4841 889.551 43.5057C896.463 29.5272 906.597 18.8492 919.955 11.4717C933.312 4.01652 948.882 0.288933 966.666 0.288933C984.372 0.288933 999.904 4.01652 1013.26 11.4717C1026.62 18.8492 1036.75 29.5272 1043.66 43.5057C1050.58 57.4841 1054.03 73.2487 1054.03 90.7995C1054.03 108.428 1050.58 124.231 1043.66 138.21C1036.75 152.111 1026.66 162.789 1013.38 170.244C1000.18 177.621 984.605 181.31 966.666 181.31ZM966.666 157.547C983.285 157.547 995.632 150.79 1003.71 137.278C1011.86 123.688 1015.94 108.156 1015.94 90.683C1015.94 73.1323 1011.86 57.6395 1003.71 44.2046C995.555 30.6921 983.207 23.9358 966.666 23.9358C950.047 23.9358 937.661 30.6921 929.507 44.2046C921.353 57.6395 917.275 73.1323 917.275 90.683C917.275 108.156 921.314 123.688 929.39 137.278C937.544 150.79 949.97 157.547 966.666 157.547ZM1129.05 177V28.2459H1067.31V4.59896H1226.78V28.2459H1165.04V177H1129.05Z"/>
</mask>
<path d="M706.55 177V4.59896H738.118L818.028 122.368V4.59896H846.801V177H814.65L735.322 59.2315V177H706.55ZM966.666 181.31C948.727 181.31 933.118 177.621 919.838 170.244C906.559 162.789 896.463 152.111 889.551 138.21C882.64 124.231 879.184 108.428 879.184 90.7995C879.184 73.2487 882.64 57.4841 889.551 43.5057C896.463 29.5272 906.597 18.8492 919.955 11.4717C933.312 4.01652 948.882 0.288933 966.666 0.288933C984.372 0.288933 999.904 4.01652 1013.26 11.4717C1026.62 18.8492 1036.75 29.5272 1043.66 43.5057C1050.58 57.4841 1054.03 73.2487 1054.03 90.7995C1054.03 108.428 1050.58 124.231 1043.66 138.21C1036.75 152.111 1026.66 162.789 1013.38 170.244C1000.18 177.621 984.605 181.31 966.666 181.31ZM966.666 157.547C983.285 157.547 995.632 150.79 1003.71 137.278C1011.86 123.688 1015.94 108.156 1015.94 90.683C1015.94 73.1323 1011.86 57.6395 1003.71 44.2046C995.555 30.6921 983.207 23.9358 966.666 23.9358C950.047 23.9358 937.661 30.6921 929.507 44.2046C921.353 57.6395 917.275 73.1323 917.275 90.683C917.275 108.156 921.314 123.688 929.39 137.278C937.544 150.79 949.97 157.547 966.666 157.547ZM1129.05 177V28.2459H1067.31V4.59896H1226.78V28.2459H1165.04V177H1129.05Z" fill="#1B1B1B"/>
<path d="M706.55 177H701.55V182H706.55V177ZM706.55 4.59896V-0.401043H701.55V4.59896H706.55ZM738.118 4.59896L742.256 1.79155L740.768 -0.401043H738.118V4.59896ZM818.028 122.368L813.891 125.175L823.028 138.641V122.368H818.028ZM818.028 4.59896V-0.401043H813.028V4.59896H818.028ZM846.801 4.59896H851.801V-0.401043H846.801V4.59896ZM846.801 177V182H851.801V177H846.801ZM814.65 177L810.503 179.793L811.99 182H814.65V177ZM735.322 59.2315L739.469 56.4381L730.322 42.8587V59.2315H735.322ZM735.322 177V182H740.322V177H735.322ZM711.55 177V4.59896H701.55V177H711.55ZM706.55 9.59896H738.118V-0.401043H706.55V9.59896ZM733.981 7.40636L813.891 125.175L822.166 119.56L742.256 1.79155L733.981 7.40636ZM823.028 122.368V4.59896H813.028V122.368H823.028ZM818.028 9.59896H846.801V-0.401043H818.028V9.59896ZM841.801 4.59896V177H851.801V4.59896H841.801ZM846.801 172H814.65V182H846.801V172ZM818.797 174.207L739.469 56.4381L731.176 62.0248L810.503 179.793L818.797 174.207ZM730.322 59.2315V177H740.322V59.2315H730.322ZM735.322 172H706.55V182H735.322V172ZM919.838 170.244L917.39 174.604L917.4 174.609L917.41 174.615L919.838 170.244ZM889.551 138.21L885.069 140.426L885.074 140.436L889.551 138.21ZM889.551 43.5057L885.069 41.2896L889.551 43.5057ZM919.955 11.4717L922.372 15.8485L922.382 15.8431L922.391 15.8377L919.955 11.4717ZM1013.26 11.4717L1010.82 15.8377L1010.83 15.8431L1010.84 15.8485L1013.26 11.4717ZM1043.66 138.21L1048.14 140.436L1048.15 140.426L1043.66 138.21ZM1013.38 170.244L1015.82 174.608L1015.83 174.604L1013.38 170.244ZM1003.71 137.278L999.421 134.705L999.417 134.713L1003.71 137.278ZM1003.71 44.2046L999.428 46.7879L999.435 46.7989L1003.71 44.2046ZM929.507 44.2046L933.781 46.7989L933.788 46.7879L929.507 44.2046ZM929.39 137.278L925.092 139.832L925.1 139.847L925.109 139.861L929.39 137.278ZM966.666 176.31C949.423 176.31 934.679 172.769 922.266 165.873L917.41 174.615C931.556 182.474 948.031 186.31 966.666 186.31V176.31ZM922.286 165.884C909.9 158.93 900.502 149.004 894.029 135.984L885.074 140.436C892.424 155.217 903.218 166.647 917.39 174.604L922.286 165.884ZM894.034 135.994C887.505 122.789 884.184 107.76 884.184 90.7995H874.184C874.184 109.096 877.775 125.673 885.069 140.426L894.034 135.994ZM884.184 90.7995C884.184 73.9202 887.503 58.929 894.034 45.7218L885.069 41.2896C877.777 56.0393 874.184 72.5773 874.184 90.7995H884.184ZM894.034 45.7218C900.504 32.6358 909.928 22.7217 922.372 15.8485L917.537 7.09493C903.267 14.9768 892.422 26.4186 885.069 41.2896L894.034 45.7218ZM922.391 15.8377C934.891 8.86145 949.596 5.28893 966.666 5.28893V-4.71107C948.169 -4.71107 931.733 -0.828403 917.518 7.10571L922.391 15.8377ZM966.666 5.28893C983.655 5.28893 998.322 8.85969 1010.82 15.8377L1015.7 7.10571C1001.49 -0.826645 985.09 -4.71107 966.666 -4.71107V5.28893ZM1010.84 15.8485C1023.29 22.7217 1032.71 32.6358 1039.18 45.7218L1048.15 41.2896C1040.79 26.4186 1029.95 14.9768 1015.68 7.09493L1010.84 15.8485ZM1039.18 45.7218C1045.71 58.929 1049.03 73.9202 1049.03 90.7995H1059.03C1059.03 72.5773 1055.44 56.0393 1048.15 41.2896L1039.18 45.7218ZM1049.03 90.7995C1049.03 107.76 1045.71 122.789 1039.18 135.994L1048.15 140.426C1055.44 125.673 1059.03 109.096 1059.03 90.7995H1049.03ZM1039.19 135.984C1032.71 149.004 1023.32 158.93 1010.93 165.884L1015.83 174.604C1030 166.647 1040.79 155.217 1048.14 140.436L1039.19 135.984ZM1010.94 165.879C998.61 172.769 983.91 176.31 966.666 176.31V186.31C985.3 186.31 1001.74 182.474 1015.82 174.608L1010.94 165.879ZM966.666 162.547C984.925 162.547 998.962 154.965 1008 139.843L999.417 134.713C992.303 146.615 981.645 152.547 966.666 152.547V162.547ZM1008 139.85C1016.66 125.405 1020.94 108.967 1020.94 90.683H1010.94C1010.94 107.346 1007.06 121.97 999.421 134.705L1008 139.85ZM1020.94 90.683C1020.94 72.3271 1016.67 55.9161 1007.98 41.6104L999.435 46.7989C1007.06 59.3628 1010.94 73.9374 1010.94 90.683H1020.94ZM1007.99 41.6213C998.879 26.523 984.856 18.9358 966.666 18.9358V28.9358C981.558 28.9358 992.231 34.8611 999.428 46.7879L1007.99 41.6213ZM966.666 18.9358C948.408 18.9358 934.342 26.5146 925.226 41.6213L933.788 46.7879C940.98 34.8696 951.686 28.9358 966.666 28.9358V18.9358ZM925.232 41.6104C916.55 55.9161 912.275 72.3271 912.275 90.683H922.275C922.275 73.9374 926.155 59.3628 933.781 46.7989L925.232 41.6104ZM912.275 90.683C912.275 108.958 916.509 125.39 925.092 139.832L933.688 134.723C926.119 121.986 922.275 107.354 922.275 90.683H912.275ZM925.109 139.861C934.23 154.976 948.341 162.547 966.666 162.547V152.547C951.598 152.547 940.858 146.604 933.671 134.695L925.109 139.861ZM1129.05 177H1124.05V182H1129.05V177ZM1129.05 28.2459H1134.05V23.2459H1129.05V28.2459ZM1067.31 28.2459H1062.31V33.2459H1067.31V28.2459ZM1067.31 4.59896V-0.401043H1062.31V4.59896H1067.31ZM1226.78 4.59896H1231.78V-0.401043H1226.78V4.59896ZM1226.78 28.2459V33.2459H1231.78V28.2459H1226.78ZM1165.04 28.2459V23.2459H1160.04V28.2459H1165.04ZM1165.04 177V182H1170.04V177H1165.04ZM1134.05 177V28.2459H1124.05V177H1134.05ZM1129.05 23.2459H1067.31V33.2459H1129.05V23.2459ZM1072.31 28.2459V4.59896H1062.31V28.2459H1072.31ZM1067.31 9.59896H1226.78V-0.401043H1067.31V9.59896ZM1221.78 4.59896V28.2459H1231.78V4.59896H1221.78ZM1226.78 23.2459H1165.04V33.2459H1226.78V23.2459ZM1160.04 28.2459V177H1170.04V28.2459H1160.04ZM1165.04 172H1129.05V182H1165.04V172Z" fill="#DCA413" mask="url(#path-17-outside-9_0_1)"/>
</svg>
