<svg width="550" height="960" viewBox="0 0 550 960" fill="none" xmlns="http://www.w3.org/2000/svg">
<path d="M375 697C403.71 697 432.42 697 462 697C462.083 706.199 462.165 715.398 462.25 724.875C462.286 727.76 462.323 730.645 462.36 733.617C462.372 735.929 462.382 738.242 462.391 740.555C462.411 741.734 462.432 742.914 462.453 744.129C462.457 753.939 460.519 762.3 453.621 769.594C448.832 773.748 443.612 774.578 437.488 774.336C432.208 773.623 428.543 771.916 425.172 767.73C423.688 765.529 422.304 763.312 421 761C420.769 761.592 420.539 762.183 420.301 762.793C417.474 769.641 413.997 774.89 407 778C400.141 779.567 394.301 779.209 388 776C380.953 771.516 377.649 765.208 375.43 757.306C374.469 752.15 374.761 746.854 374.805 741.629C374.808 739.929 374.808 739.929 374.811 738.195C374.821 733.984 374.849 729.773 374.875 725.562C374.916 716.137 374.958 706.711 375 697ZM393 720C392.919 724.355 392.859 728.708 392.813 733.062C392.787 734.292 392.762 735.521 392.736 736.787C392.684 743.273 392.67 748.339 396 754C398.548 756.108 399.744 756.016 403.063 755.812C406.18 754.95 407.231 754.654 409 752C411.505 745.427 411.228 739.025 411.125 732.062C411.116 730.902 411.107 729.741 411.098 728.545C411.074 725.697 411.038 722.848 411 720C405.06 720 399.12 720 393 720ZM428 720C427.919 723.688 427.859 727.374 427.813 731.062C427.787 732.101 427.762 733.139 427.736 734.209C427.679 740.259 427.966 744.703 431 750C434.05 751.525 436.642 751.236 440 751C442.616 749.169 442.97 748.09 444 745C444.083 743.081 444.107 741.159 444.098 739.238C444.093 737.561 444.093 737.561 444.088 735.85C444.08 734.682 444.071 733.515 444.063 732.312C444.058 731.134 444.053 729.955 444.049 728.74C444.037 725.827 444.019 722.913 444 720C438.72 720 433.44 720 428 720Z" fill="#E4A413"/>
<path d="M375 473C403.71 473 432.42 473 462 473C462 482.57 462 492.14 462 502C452.68 509.581 452.68 509.581 448.141 511.309C441.691 514.004 435.941 517.563 430.067 521.302C427.381 523.006 424.67 524.669 421.961 526.336C421.051 526.898 420.142 527.461 419.205 528.041C414.82 530.722 410.407 533.356 406 536C424.48 536.33 442.96 536.66 462 537C462 543.93 462 550.86 462 558C433.29 558 404.58 558 375 558C375 548.76 375 539.52 375 530C386.52 521.063 386.52 521.063 391.672 518.895C397.507 516.29 402.735 513.197 408.062 509.688C409.469 508.793 410.876 507.901 412.285 507.012C418.532 503.021 424.765 499.008 431 495C412.52 494.67 394.04 494.34 375 494C375 487.07 375 480.14 375 473Z" fill="#E5A412"/>
<path d="M375 20C403.71 20 432.42 20 462 20C462.083 29.3431 462.165 38.6862 462.25 48.3125C462.286 51.2404 462.323 54.1682 462.36 57.1848C462.372 59.536 462.382 61.8871 462.391 64.2383C462.411 65.4343 462.432 66.6304 462.453 67.8627C462.457 78.4336 460.435 87.6099 452.91 95.4062C447.733 99.726 442.057 100.537 435.449 100.273C428.122 99.4554 424.104 96.7897 419.477 91.0742C417.622 88.469 416.25 85.9402 415 83C414.505 84.0519 414.01 85.1037 413.5 86.1875C408.843 94.2215 399.731 96.3231 391.312 98.6875C389.287 99.2729 387.262 99.8601 385.238 100.449C384.352 100.7 383.465 100.951 382.552 101.21C379.988 102.004 377.492 103.003 375 104C375 95.75 375 87.5 375 79C382.851 75.6354 382.851 75.6354 385.973 74.9727C386.981 74.7435 386.981 74.7435 388.01 74.5098C389.381 74.211 390.754 73.9167 392.127 73.627C397.227 72.4559 402.197 70.8627 405.138 66.1926C406.146 63.6273 406.318 61.5494 406.414 58.7969C406.45 57.9135 406.485 57.0302 406.522 56.1201C406.556 55.008 406.59 53.8958 406.625 52.75C406.811 47.4288 406.811 47.4288 407 42C396.44 42 385.88 42 375 42C375 34.74 375 27.48 375 20ZM425 42C424.919 46.0212 424.859 50.0408 424.812 54.0625C424.787 55.1962 424.762 56.33 424.736 57.498C424.681 63.7807 424.817 68.5099 428 74C430.878 76.4894 432.255 77.0152 436.062 76.9375C439.416 75.8673 440.827 74.7369 443 72C444.099 68.7027 444.114 66.2704 444.098 62.8008C444.094 61.5923 444.091 60.3838 444.088 59.1387C444.08 57.876 444.071 56.6134 444.062 55.3125C444.058 54.0383 444.053 52.764 444.049 51.4512C444.037 48.3008 444.019 45.1504 444 42C437.73 42 431.46 42 425 42Z" fill="#E4A412"/>
<path d="M449.188 380.25C459.085 389.927 463.729 402.645 464.312 416.313C463.899 429.904 459.266 442.251 449.973 452.219C439.366 461.796 427.419 463.772 413.633 463.34C402.724 462.719 394.023 458.34 386 451C375.185 438.697 373.209 425.121 373.825 409.356C374.716 397.344 380.732 387.897 389.188 379.688C406.815 364.751 431.416 367.705 449.188 380.25ZM396.309 403.867C392.386 410.26 392.534 416.789 394 424C396.323 430.155 400.098 434.217 405.875 437.313C413.364 440.398 422.977 440.377 430.625 437.75C437.151 434.366 440.58 430.925 443 424C444.842 416.219 443.861 409.907 439.848 403.023C435.814 397.529 430.515 395.47 424 394C413.339 392.541 403.039 395.119 396.309 403.867Z" fill="#E3A313"/>
<path d="M388 567C392.672 568.531 396.022 571.108 399.812 574.125C400.41 574.593 401.007 575.061 401.623 575.543C403.086 576.69 404.544 577.844 406 579C404.656 581.913 403.098 584.217 401.062 586.688C394.077 595.819 393.466 606.883 394 618C394.489 621.641 395.29 624.216 397.812 627C399.997 628.191 399.997 628.191 402.625 627.938C405.081 627.233 405.081 627.233 406.102 625.309C407.179 622.541 407.471 620.083 407.746 617.125C407.861 615.974 407.977 614.823 408.096 613.637C408.321 611.244 408.545 608.85 408.768 606.457C410.081 593.381 411.649 582.813 421.562 573.625C428.048 569.302 434.407 569.29 442 570C449.117 571.767 453.883 577.19 458 583C466.367 598.125 465.512 617.899 460.895 634.051C459.022 640.104 457.277 645.186 453 650C448.643 648.529 445.281 646.169 441.688 643.375C441.138 642.955 440.588 642.535 440.021 642.102C438.677 641.073 437.338 640.037 436 639C436.973 636.546 437.957 634.101 439 631.676C443.468 621.117 445.083 611.45 443 600C441.211 596.323 441.211 596.323 438.062 593.938C435.843 593.805 435.843 593.805 433.941 595.566C431.407 598.743 431.266 600.976 430.875 605.004C430.801 605.682 430.728 606.361 430.652 607.06C430.418 609.226 430.207 611.394 430 613.562C427.45 639.86 427.45 639.86 419 648C412.97 651.936 407.196 653.472 400 653C391.775 651.255 384.901 647.25 380.187 640.188C371.846 625.526 371.577 605.232 375.625 589.188C378.117 580.695 381.493 573.115 388 567Z" fill="#E3A313"/>
<path d="M387 195C392.124 195.46 395.328 198.079 399.312 201.062C399.958 201.535 400.603 202.007 401.268 202.494C402.851 203.655 404.426 204.827 406 206C404.638 208.912 403.035 211.359 401.125 213.938C394.65 223.65 392.787 234.488 394 246C395.198 250.9 395.198 250.9 398 255C400.671 255.141 403.324 255.042 406 255C407.562 248.058 408.383 241.277 408.875 234.188C409.801 222.832 411.123 211.814 419 203C424.766 198.259 430.681 196.665 438 197.125C445.248 198.124 450.038 200.462 454.75 206.125C465.016 220.436 465.346 237.722 462.691 254.539C460.942 263.295 458.079 270.664 453 278C448.643 276.529 445.281 274.169 441.687 271.375C441.138 270.955 440.588 270.535 440.021 270.102C438.677 269.073 437.338 268.037 436 267C436.973 264.546 437.957 262.101 439 259.676C443.481 249.086 445.027 239.481 443 228C441.553 224.675 441.553 224.675 440 222C437.084 221.75 437.084 221.75 434 222C431.648 225.528 431.513 227.676 431.07 231.871C430.913 233.265 430.755 234.659 430.598 236.053C430.361 238.231 430.128 240.409 429.901 242.588C427.18 268.321 427.18 268.321 417 277C410.648 281.148 403.38 280.752 396 280C389.775 278.324 384.846 274.075 381 269C372.259 253.715 371.407 234.074 375.687 217.188C378.091 208.95 381.205 201.439 387 195Z" fill="#E3A313"/>
<path d="M375 111C403.71 111 432.42 111 462 111C462 136.08 462 161.16 462 187C455.73 187 449.46 187 443 187C442.67 169.51 442.34 152.02 442 134C437.71 134 433.42 134 429 134C428.67 148.19 428.34 162.38 428 177C421.73 177 415.46 177 409 177C409 162.48 409 147.96 409 133C404.38 133.33 399.76 133.66 395 134C394.67 151.49 394.34 168.98 394 187C387.73 187 381.46 187 375 187C375 161.92 375 136.84 375 111Z" fill="#E5A412"/>
<path d="M375 866C403.71 866 432.42 866 462 866C462 890.75 462 915.5 462 941C455.73 941 449.46 941 443 941C443 923.84 443 906.68 443 889C438.05 889 433.1 889 428 889C428 903.19 428 917.38 428 932C421.73 932 415.46 932 409 932C409 917.81 409 903.62 409 889C404.05 889 399.1 889 394 889C394 906.16 394 923.32 394 941C387.73 941 381.46 941 375 941C375 916.25 375 891.5 375 866Z" fill="#E4A413"/>
<path d="M181 96C181 103.92 181 111.84 181 120C174.265 123.367 174.265 123.367 170.617 124.281C169.842 124.484 169.068 124.686 168.27 124.895C166.666 125.3 165.062 125.704 163.457 126.105C157.722 127.557 157.722 127.557 153 131C152.048 133.855 151.81 135.909 151.684 138.887C151.645 139.732 151.607 140.577 151.568 141.448C151.525 142.517 151.482 143.586 151.438 144.688C151.293 148.091 151.149 151.494 151 155C160.9 155 170.8 155 181 155C181 161.93 181 168.86 181 176C153.94 176 126.88 176 99 176C98.9381 167.111 98.8763 158.221 98.8125 149.062C98.7852 146.273 98.7579 143.484 98.7297 140.61C98.721 138.376 98.7133 136.143 98.707 133.91C98.6917 132.769 98.6763 131.627 98.6605 130.451C98.6576 121.528 99.5952 113.819 105.875 107.062C106.532 106.332 107.19 105.601 107.867 104.848C112.961 100.435 118.296 100.567 124.77 100.691C130.089 101.2 133.874 102.699 137.523 106.648C139.957 109.87 141.718 113.154 143 117C143.495 115.948 143.99 114.896 144.5 113.812C148.407 107.045 155.355 104.61 162.568 102.574C163.865 102.228 163.865 102.228 165.188 101.875C169.555 100.686 177.098 96 181 96ZM118 125C115.798 128.34 115.766 131.136 115.805 135.078C115.811 136.238 115.818 137.398 115.824 138.594C115.841 139.8 115.858 141.007 115.875 142.25C115.884 143.472 115.893 144.694 115.902 145.953C115.926 148.969 115.962 151.984 116 155C121.94 155 127.88 155 134 155C134.081 151.125 134.141 147.251 134.188 143.375C134.213 142.281 134.238 141.186 134.264 140.059C134.365 132.1 134.365 132.1 131 125C125.966 121.224 123.071 121.36 118 125Z" fill="#C9C9C9"/>
<path d="M99 20C104.94 20 110.88 20 117 20C117 36.17 117 52.34 117 69C121.62 69 126.24 69 131 69C131 55.47 131 41.94 131 28C136.94 28 142.88 28 149 28C149 41.53 149 55.06 149 69C153.29 69 157.58 69 162 69C162 52.83 162 36.66 162 20C168.27 20 174.54 20 181 20C181 43.1 181 66.2 181 90C153.94 90 126.88 90 99 90C99 66.9 99 43.8 99 20Z" fill="#CACACA"/>
<path d="M375 288C403.71 288 432.42 288 462 288C462.062 296.539 462.124 305.078 462.188 313.875C462.228 317.889 462.228 317.889 462.27 321.984C462.279 324.132 462.287 326.281 462.293 328.43C462.316 330.069 462.316 330.069 462.339 331.742C462.343 342.34 460.47 351.148 453 359C444.698 365.572 436.227 365.683 426 365C419.395 363.852 414.369 359.967 410 355C403.121 344.777 402.686 333.282 402.875 321.312C402.937 315.713 402.937 315.713 403 310C393.76 310 384.52 310 375 310C375 302.74 375 295.48 375 288ZM421 311C420.719 314.179 420.768 317.373 420.75 320.562C420.729 321.445 420.709 322.327 420.688 323.236C420.652 329.196 421.471 333.582 424 339C427.367 342.079 430.646 342.54 435.07 342.348C438.286 341.768 439.853 340.399 442 338C444.606 332.355 444.227 326.705 444.125 320.625C444.116 319.603 444.107 318.581 444.098 317.527C444.074 315.018 444.041 312.509 444 310C440.354 309.971 436.708 309.953 433.062 309.938C432.022 309.929 430.981 309.921 429.908 309.912C428.919 309.909 427.929 309.906 426.91 309.902C425.994 309.897 425.077 309.892 424.133 309.886C422.016 309.761 422.016 309.761 421 311Z" fill="#E4A412"/>
<path d="M99 188C106.276 187.932 113.553 187.877 120.829 187.845C124.209 187.829 127.588 187.808 130.968 187.774C134.863 187.737 138.757 187.72 142.652 187.707C144.453 187.684 144.453 187.684 146.29 187.66C155.745 187.658 163.444 188.989 171 195C180.241 204.681 182.372 215.478 182.3 228.551C182.003 240.74 178.783 249.948 170.312 258.812C161.475 264.648 152.842 265.571 142.457 265.391C140.583 265.382 140.583 265.382 138.67 265.373C135.387 265.355 132.105 265.319 128.822 265.275C125.456 265.233 122.09 265.215 118.725 265.195C112.149 265.151 105.575 265.082 99 265C99 258.07 99 251.14 99 244C100.539 243.985 102.077 243.971 103.662 243.956C109.386 243.898 115.109 243.82 120.832 243.738C123.306 243.704 125.781 243.676 128.255 243.654C131.818 243.62 135.379 243.568 138.941 243.512C140.593 243.502 140.593 243.502 142.279 243.492C149.13 243.362 154.001 242.62 159.812 238.812C163.354 233.406 163.291 227.439 162.477 221.266C161.64 217.288 160.038 214.938 157.062 212.25C153.42 210.043 149.973 209.866 145.772 209.795C144.732 209.775 143.691 209.755 142.619 209.734C141.502 209.718 140.385 209.701 139.234 209.684C138.086 209.663 136.937 209.642 135.754 209.621C132.086 209.555 128.418 209.496 124.75 209.437C122.263 209.394 119.776 209.351 117.289 209.307C111.193 209.2 105.096 209.098 99 209C99 202.07 99 195.14 99 188Z" fill="#C9C9C9"/>
<path d="M99 358C106.668 357.909 114.335 357.836 122.003 357.793C125.564 357.772 129.125 357.744 132.686 357.698C136.79 357.646 140.892 357.627 144.996 357.609C146.262 357.589 147.528 357.568 148.832 357.547C157.864 357.545 165.658 359.025 172.59 365.262C179.529 373.815 182.4 384.443 182.312 395.25C182.307 395.988 182.301 396.726 182.295 397.486C182.043 408.979 179.28 418.277 171.336 426.781C163.303 434.264 154.818 434.423 144.312 434.293C143.014 434.289 141.716 434.284 140.378 434.28C136.952 434.269 133.527 434.239 130.101 434.206C126.594 434.175 123.088 434.162 119.582 434.146C112.721 434.114 105.861 434.062 99 434C99 427.07 99 420.14 99 413C100.528 412.985 102.056 412.971 103.631 412.956C109.328 412.898 115.025 412.82 120.722 412.738C123.183 412.704 125.644 412.676 128.104 412.654C131.652 412.62 135.199 412.568 138.746 412.512C139.837 412.505 140.928 412.499 142.052 412.492C148.35 412.373 154.303 411.922 160 409C163.521 403.736 163.489 396.343 162.566 390.227C161.685 386.762 160.427 384.618 158 382C151.773 378.497 145.977 378.529 138.941 378.488C137.797 378.47 136.653 378.452 135.474 378.434C131.837 378.38 128.2 378.346 124.562 378.313C122.089 378.279 119.616 378.245 117.143 378.209C111.095 378.124 105.048 378.057 99 378C99 371.4 99 364.8 99 358Z" fill="#C9C9C9"/>
<path d="M99 440C104.94 440 110.88 440 117 440C117 455.84 117 471.68 117 488C122.61 488 128.22 488 134 488C134 474.47 134 460.94 134 447C139.94 447 145.88 447 152 447C152.495 466.8 152.495 466.8 153 487C166.86 487.495 166.86 487.495 181 488C181 494.93 181 501.86 181 509C153.94 509 126.88 509 99 509C99 486.23 99 463.46 99 440Z" fill="#C9C9C9"/>
<path d="M375 787C403.71 787 432.42 787 462 787C462 794.59 462 802.18 462 810C439.56 810 417.12 810 394 810C394 826.83 394 843.66 394 861C387.73 861 381.46 861 375 861C375 836.58 375 812.16 375 787Z" fill="#E3A413"/>
<path d="M300 450C322.11 450 344.22 450 367 450C367 469.47 367 488.94 367 509C362.05 509 357.1 509 352 509C352 495.47 352 481.94 352 468C348.37 468 344.74 468 341 468C341 478.89 341 489.78 341 501C336.05 501 331.1 501 326 501C326 490.11 326 479.22 326 468C322.37 468 318.74 468 315 468C315 481.53 315 495.06 315 509C310.05 509 305.1 509 300 509C300 489.53 300 470.06 300 450Z" fill="#CACACA"/>
<path d="M300 381C322.11 381 344.22 381 367 381C367.083 388.054 367.165 395.108 367.25 402.375C367.286 404.581 367.323 406.787 367.36 409.06C367.372 410.84 367.382 412.619 367.391 414.398C367.411 415.297 367.432 416.196 367.453 417.122C367.457 424.313 366.192 431.506 361.191 436.98C356.263 441.428 352.134 442.363 345.57 442.277C341.415 441.829 339.343 440.541 336 438C333.67 434.995 332.199 432.597 331 429C330.227 430.361 330.227 430.361 329.438 431.75C326.233 437.391 319.366 439.406 313.488 441.08C312.75 441.281 312.011 441.481 311.25 441.688C309.755 442.108 308.26 442.528 306.766 442.949C305.523 443.296 304.28 443.643 303 444C301.515 444.495 301.515 444.495 300 445C300 438.73 300 432.46 300 426C305.666 423.572 310.314 422.149 316.23 420.941C319.461 419.843 320.896 418.665 323 416C324.409 412.459 324.318 408.52 324.562 404.75C324.707 402.523 324.851 400.295 325 398C316.75 398 308.5 398 300 398C300 392.39 300 386.78 300 381ZM338 398C337.946 400.688 337.906 403.374 337.875 406.062C337.858 406.815 337.841 407.567 337.824 408.342C337.781 413.284 338.217 417.365 340 422C343.469 424.313 344.922 424.425 349 424C351.559 422.147 351.979 421.062 353 418C353.081 416.446 353.108 414.888 353.098 413.332C353.094 412.439 353.091 411.547 353.088 410.627C353.08 409.698 353.071 408.769 353.062 407.812C353.058 406.872 353.053 405.932 353.049 404.963C353.037 402.642 353.019 400.321 353 398C348.05 398 343.1 398 338 398Z" fill="#C9C9C9"/>
<path d="M99 272C105.27 272 111.54 272 118 272C118 281.24 118 290.48 118 300C138.79 300 159.58 300 181 300C181 307.26 181 314.52 181 322C160.21 322 139.42 322 118 322C118 331.24 118 340.48 118 350C117.67 350.33 117.34 350.66 117 351C111.06 351 105.12 351 99 351C99 324.93 99 298.86 99 272Z" fill="#C9C9C9"/>
<path d="M302.25 680.188C310.494 687.906 312.881 697.334 313.375 708.313C313.113 719.867 308.87 729.288 300.688 737.25C292.236 742.753 283.913 745.019 273.875 743.313C264.892 741.176 257.821 736.94 252.746 729.051C247.532 719.257 246.474 708.202 248.5 697.313C251.216 688.424 256.375 681.314 264 676C266.607 674.665 269.173 673.75 272 673C273.392 672.629 273.392 672.629 274.813 672.25C285.318 671.426 294.009 673.549 302.25 680.188ZM267.625 694.188C265.664 698.535 265.61 702.869 265.563 707.563C265.552 708.283 265.542 709.003 265.532 709.745C265.637 716.224 267.162 720.938 271.563 725.875C275.033 728.9 277.198 729.371 281.84 729.262C285.582 728.808 288.333 727.586 291 725C295.977 717.615 296.067 708.573 295 700C293.486 695.11 291.477 691.395 287.75 687.875C279.199 685.154 273.072 686.877 267.625 694.188Z" fill="#C8C8C8"/>
<path d="M355.996 54.2695C362.686 60.0462 366.257 67.3953 368 76C368.781 87.9265 367.575 98.4137 360 108C356.55 111.58 352.608 114.137 348 116C346.35 116 344.7 116 343 116C342.01 110.06 341.02 104.12 340 98C341.423 97.2987 342.846 96.5975 344.312 95.875C348.542 93.4944 350.609 91.8227 352 87C352.748 81.756 352.491 77.0124 349.516 72.5078C345.154 68.1684 338.913 66.7889 332.937 66.5C327.755 66.7612 323.238 67.9274 319 71C316.026 74.6227 314.794 78.4753 314.562 83.125C315.028 87.245 315.67 89.5823 318 93C321.276 95.5787 323.961 97.1189 328 98C328.107 104.441 327.962 110.626 327 117C318.823 116.554 312.319 113.85 306.687 107.75C299.206 98.232 298.306 87.7447 299 76C300.465 67.0356 304.772 59.2632 311.937 53.625C325.454 44.3305 342.674 44.6179 355.996 54.2695Z" fill="#C9C9C9"/>
<path d="M234.066 678.387C237.882 681.422 240.536 684.263 242 689C242.69 695.6 243.046 702.349 239.484 708.18C231.896 717.486 220.564 721.954 210 727C226.335 727.495 226.335 727.495 243 728C243 732.95 243 737.9 243 743C237.358 743.124 231.718 743.214 226.075 743.275C224.155 743.3 222.236 743.334 220.316 743.377C217.558 743.438 214.801 743.466 212.043 743.488C211.183 743.514 210.324 743.54 209.439 743.567C207.184 743.568 205.193 743.527 203 743C200.368 739.899 199.401 736.576 198.312 732.688C198.061 731.805 197.81 730.922 197.551 730.012C197.278 729.016 197.278 729.016 197 728C196.455 728.975 196.455 728.975 195.898 729.969C194.389 732.477 192.91 734.779 191 737C187.591 737.656 186.067 737.534 183 736C183.526 730.209 186.59 726.028 190.922 722.383C193.558 720.483 196.252 718.734 199 717C200.082 716.317 200.082 716.317 201.186 715.62C203.618 714.091 206.057 712.574 208.5 711.063C209.302 710.565 210.104 710.068 210.93 709.556C211.686 709.095 212.441 708.635 213.219 708.16C213.899 707.744 214.579 707.328 215.279 706.899C217 706 217 706 219 706C219 705.34 219 704.68 219 704C219.978 702.979 220.98 701.979 222 701C223.525 697.95 223.236 695.358 223 692C221.169 689.384 220.09 689.03 217 688C212.363 687.461 208.795 687.679 204.437 689.438C201.771 692.241 201.604 692.769 201.5 696.438C201.648 699.984 202.581 702.756 204 706C201.061 706.135 198.128 706.234 195.187 706.313C193.937 706.375 193.937 706.375 192.662 706.439C190.346 706.486 188.271 706.46 186 706C182.316 702.062 182.493 697.929 182.652 692.785C183.369 687.047 185.681 683.381 189.625 679.25C202.342 669.696 220.994 669.614 234.066 678.387Z" fill="#C8C8C8"/>
<path d="M329.695 122.512C330.769 122.519 331.842 122.526 332.948 122.533C336.341 122.561 339.733 122.624 343.125 122.688C345.44 122.713 347.755 122.735 350.07 122.756C355.714 122.811 361.357 122.897 367 123C367 128.61 367 134.22 367 140C365.101 140.03 365.101 140.03 363.164 140.06C358.447 140.136 353.73 140.225 349.013 140.317C346.975 140.356 344.937 140.39 342.9 140.422C339.963 140.468 337.026 140.526 334.09 140.586C332.733 140.603 332.733 140.603 331.349 140.621C326.228 140.739 321.808 141.163 317 143C314.261 147.764 314.425 153.633 315 159C316.542 163.113 317.337 164.558 321 167C325.707 168.359 330.594 168.223 335.457 168.316C336.811 168.348 336.811 168.348 338.193 168.379C341.066 168.445 343.939 168.504 346.813 168.563C348.765 168.606 350.717 168.649 352.67 168.693C357.447 168.8 362.223 168.902 367 169C367 174.28 367 179.56 367 185C360.026 185.099 353.052 185.172 346.077 185.22C343.707 185.24 341.336 185.267 338.966 185.302C335.55 185.351 332.135 185.373 328.719 185.391C327.14 185.422 327.14 185.422 325.53 185.453C318.078 185.455 312.859 184.252 307.012 179.324C299.007 169.431 297.875 158.446 299 146C300.442 138.971 302.589 132.823 308 128C315.195 123.359 321.248 122.298 329.695 122.512Z" fill="#C9C9C9"/>
<path d="M330.965 307.805C331.998 307.808 333.031 307.81 334.096 307.813C337.377 307.824 340.657 307.85 343.938 307.875C346.17 307.885 348.402 307.894 350.635 307.902C356.09 307.924 361.545 307.959 367 308C367 313.61 367 319.22 367 325C365.795 325.02 364.589 325.04 363.347 325.06C358.854 325.136 354.361 325.225 349.867 325.317C347.927 325.356 345.986 325.39 344.045 325.422C341.247 325.468 338.45 325.526 335.652 325.586C334.361 325.603 334.361 325.603 333.044 325.621C324.345 325.728 324.345 325.728 317.125 329.938C314.607 334.554 314.526 338.869 315 344C316.261 347.784 317.154 349.446 320.493 351.632C325.084 353.423 329.106 353.477 333.992 353.512C335.411 353.539 335.411 353.539 336.859 353.566C339.864 353.62 342.869 353.654 345.875 353.688C347.919 353.721 349.964 353.755 352.008 353.791C357.005 353.876 362.002 353.943 367 354C367 359.28 367 364.56 367 370C360.026 370.099 353.052 370.172 346.077 370.22C343.707 370.24 341.336 370.267 338.966 370.302C335.55 370.351 332.135 370.373 328.719 370.391C327.14 370.422 327.14 370.422 325.53 370.453C318.078 370.455 312.859 369.252 307.012 364.324C299.077 354.517 298.293 344.292 299 332C300.551 323.267 304.385 317.189 310.926 311.297C317.126 307.421 323.905 307.731 330.965 307.805Z" fill="#C9C9C9"/>
<path d="M283 744C288.28 744 293.56 744 299 744C299 760.17 299 776.34 299 793C301.97 793 304.94 793 308 793C309 794 309 794 309.098 797.16C309.086 798.448 309.074 799.736 309.062 801.062C309.053 802.353 309.044 803.643 309.035 804.973C309.024 805.972 309.012 806.971 309 808C305.7 808 302.4 808 299 808C299 812.95 299 817.9 299 823C293.426 822.071 291.503 821.427 287.125 818.312C285.675 817.317 285.675 817.317 284.195 816.301C282 814 282 814 281.68 810.73C281.785 809.829 281.891 808.928 282 808C280.877 808.035 279.754 808.07 278.598 808.105C260.142 808.518 260.142 808.518 253.875 803.195C251.92 801.171 250.307 799.496 249 797C249.187 792.914 250.743 790.649 253.312 787.562C256.115 784.164 258.589 780.688 261 777C261.899 775.644 262.798 774.288 263.699 772.934C264.182 772.207 264.665 771.48 265.163 770.73C270.149 763.232 275.188 755.78 280.355 748.406C281.993 746.127 281.993 746.127 283 744ZM281 772C279.355 774.355 277.76 776.723 276.188 779.125C275.749 779.79 275.31 780.455 274.857 781.141C274.022 782.407 273.188 783.674 272.356 784.942C270.582 787.635 268.789 790.316 267 793C271.95 793 276.9 793 282 793C282 786.07 282 779.14 282 772C281.67 772 281.34 772 281 772Z" fill="#C9C9C9"/>
<path d="M247 48C261.19 48 275.38 48 290 48C290 60.21 290 72.42 290 85C287.03 85 284.06 85 281 85C281 76.42 281 67.84 281 59C278.36 59 275.72 59 273 59C273 66.26 273 73.52 273 81C270.03 81 267.06 81 264 81C264 73.74 264 66.48 264 59C261.69 59 259.38 59 257 59C257 67.91 257 76.82 257 86C254.36 86.33 251.72 86.66 249 87C251.77 88.959 254.541 90.9171 257.313 92.875C258.098 93.4306 258.884 93.9862 259.693 94.5586C260.451 95.0936 261.208 95.6285 261.988 96.1797C262.685 96.6719 263.381 97.1642 264.099 97.6714C267.207 100.213 267.207 100.213 270.947 100.781C273.188 99.9284 274.899 98.8823 276.855 97.4961C277.912 96.7565 277.912 96.7565 278.99 96.002C279.715 95.4857 280.44 94.9694 281.188 94.4375C282.638 93.4134 284.09 92.3912 285.543 91.3711C286.183 90.9166 286.822 90.4621 287.481 89.9939C289 89 289 89 290 89C290.53 93.7742 290.797 98.2476 290 103C287.442 105.997 284.667 107.61 281 109C280.34 109 279.68 109 279 109C279 109.66 279 110.32 279 111C279.701 111.248 280.403 111.495 281.125 111.75C282.074 112.162 283.023 112.575 284 113C285.093 113.433 286.186 113.866 287.313 114.312C290 117 290 117 290.379 120.152C290.375 123.455 290.257 126.708 290 130C284.009 126.86 278.657 123.376 273.359 119.16C271.047 117.687 271.047 117.687 268.627 118.738C266.048 119.977 263.906 121.339 261.609 123.039C260.818 123.619 260.026 124.199 259.211 124.797C258.399 125.4 257.587 126.003 256.75 126.625C255.121 127.828 253.491 129.028 251.859 130.227C251.142 130.758 250.425 131.29 249.687 131.838C248 133 248 133 247 133C246.119 128.086 245.781 123.872 247 119C250.721 114.812 256.027 112.398 261 110C259.23 108.708 257.459 107.416 255.688 106.125C254.701 105.406 253.715 104.686 252.699 103.945C250.825 102.594 248.922 101.282 247 100C246.639 97.7854 246.639 97.7854 246.659 94.9995C246.66 93.9586 246.66 92.9177 246.66 91.8452C246.676 90.7181 246.691 89.591 246.707 88.4297C246.713 86.7026 246.713 86.7026 246.72 84.9407C246.737 81.2519 246.774 77.5636 246.813 73.875C246.828 71.3789 246.841 68.8828 246.854 66.3867C246.884 60.2574 246.943 54.1293 247 48Z" fill="#C9C9C9"/>
<path d="M188 158C203.84 158 219.68 158 236 158C236 164.93 236 171.86 236 179C232.314 180.152 228.627 181.297 224.938 182.438C223.899 182.763 222.861 183.088 221.791 183.424C216.522 185.046 211.491 186.447 206 187C206 187.66 206 188.32 206 189C207.268 189.267 208.537 189.534 209.844 189.809C215.139 190.986 220.311 192.49 225.5 194.062C226.857 194.466 226.857 194.466 228.242 194.877C229.101 195.135 229.959 195.394 230.844 195.66C231.619 195.894 232.394 196.127 233.193 196.367C235 197 235 197 236 198C236 204.27 236 210.54 236 217C220.16 217 204.32 217 188 217C188 212.71 188 208.42 188 204C196.91 203.67 205.82 203.34 215 203C206.09 200.03 197.18 197.06 188 194C188 189.71 188 185.42 188 181C202.355 176.545 202.355 176.545 217 172C207.43 171.67 197.86 171.34 188 171C188 166.71 188 162.42 188 158Z" fill="#C9C9C9"/>
<path d="M188 225C203.84 225 219.68 225 236 225C236 231.6 236 238.2 236 245C227 248.375 227 248.375 222.625 249.605C221.703 249.867 220.782 250.128 219.832 250.396C218.43 250.788 218.43 250.788 217 251.188C216.034 251.46 215.069 251.733 214.074 252.014C211.717 252.679 209.359 253.341 207 254C213 256.735 219.147 258.727 225.438 260.688C226.455 261.008 227.473 261.328 228.521 261.658C231.013 262.442 233.507 263.221 236 264C236 270.27 236 276.54 236 283C220.16 283 204.32 283 188 283C188 278.71 188 274.42 188 270C196.58 269.67 205.16 269.34 214 269C212.207 268.434 210.414 267.868 208.566 267.285C206.232 266.544 203.897 265.804 201.562 265.062C200.378 264.689 199.194 264.316 197.975 263.932C196.85 263.574 195.725 263.216 194.566 262.848C193.003 262.353 193.003 262.353 191.408 261.848C189 261 189 261 188 260C188 255.71 188 251.42 188 247C197.9 244.03 207.8 241.06 218 238C203.15 237.505 203.15 237.505 188 237C188 233.04 188 229.08 188 225Z" fill="#C9C9C9"/>
<path d="M375 660C403.71 660 432.42 660 462 660C462 667.59 462 675.18 462 683C433.29 683 404.58 683 375 683C375 675.41 375 667.82 375 660Z" fill="#E3A313"/>
<path d="M198 519C206.384 518.876 206.384 518.876 214.938 518.75C216.683 518.714 218.428 518.677 220.226 518.64C229.692 518.522 236.98 518.854 244.559 525.113C251.044 532.705 252.488 538.765 252.316 548.707C251.708 555.035 249.661 559.989 245.625 564.875C238.141 570.933 232.015 573.273 222.316 573.195C220.394 573.188 220.394 573.188 218.432 573.18C216.825 573.162 215.218 573.144 213.562 573.125C208.427 573.084 203.291 573.042 198 573C198 555.18 198 537.36 198 519ZM212 530C211.975 534.397 211.957 538.793 211.945 543.19C211.94 544.686 211.933 546.183 211.925 547.68C211.912 549.827 211.907 551.974 211.902 554.121C211.897 555.415 211.892 556.708 211.886 558.041C211.66 560.887 211.66 560.887 213 562C220.354 562.706 228.144 562.32 234 557.562C238.226 552.148 237.574 545.577 237 539C234.696 533.86 232.131 532.092 227 530C224.281 529.794 221.824 529.711 219.125 529.812C218.092 529.833 218.092 529.833 217.039 529.854C215.359 529.889 213.679 529.942 212 530Z" fill="#C9C9C9"/>
<path d="M85 519C100.84 519 116.68 519 133 519C133 522.96 133 526.92 133 531C122.11 531 111.22 531 100 531C100 533.97 100 536.94 100 540C108.91 540 117.82 540 127 540C127 543.96 127 547.92 127 552C118.09 552 109.18 552 100 552C100 554.97 100 557.94 100 561C110.89 561 121.78 561 133 561C133 564.96 133 568.92 133 573C117.16 573 101.32 573 85 573C85 555.18 85 537.36 85 519Z" fill="#C9C9C9"/>
<path d="M314 519C320.105 518.918 326.21 518.835 332.5 518.75C334.411 518.714 336.322 518.677 338.291 518.64C339.829 518.628 341.368 518.618 342.906 518.609C343.686 518.589 344.465 518.568 345.269 518.547C350.98 518.544 355.198 519.872 360 523C362.756 525.973 363.891 529.317 364.152 533.344C363.83 538.309 362.76 541.545 359 545C355.75 546.813 355.75 546.813 353 548C354.361 548.65 354.361 548.65 355.75 549.313C360.511 552.483 361.453 557.768 363 563C363.3 563.971 363.601 564.941 363.91 565.941C364.628 568.288 365.317 570.643 366 573C360.72 573 355.44 573 350 573C349.685 571.796 349.371 570.592 349.047 569.352C348.615 567.776 348.183 566.2 347.75 564.625C347.545 563.831 347.34 563.037 347.129 562.219C346.916 561.458 346.704 560.698 346.484 559.914C346.296 559.212 346.107 558.511 345.913 557.788C344.693 555.398 343.482 554.919 341 554C338.759 553.713 336.506 553.51 334.25 553.375C332.188 553.251 330.125 553.128 328 553C328 559.6 328 566.2 328 573C323.38 573 318.76 573 314 573C314 555.18 314 537.36 314 519ZM328 530C328 533.96 328 537.92 328 542C330.584 542.054 333.166 542.094 335.75 542.125C336.48 542.142 337.209 542.159 337.961 542.176C343.323 542.28 343.323 542.28 348 540C349.171 537.14 349.171 537.14 349 534C347.613 531.64 347.613 531.64 345 530C342.067 529.515 339.213 529.622 336.25 529.75C335.457 529.768 334.664 529.786 333.848 529.805C331.898 529.852 329.949 529.923 328 530Z" fill="#C9C9C9"/>
<path d="M258 519C273.51 519 289.02 519 305 519C305 522.96 305 526.92 305 531C294.11 531 283.22 531 272 531C272 533.97 272 536.94 272 540C280.91 540 289.82 540 299 540C299 543.96 299 547.92 299 552C290.09 552 281.18 552 272 552C272 554.97 272 557.94 272 561C282.89 561 293.78 561 305 561C305 564.96 305 568.92 305 573C289.49 573 273.98 573 258 573C258 555.18 258 537.36 258 519Z" fill="#CACACA"/>
<path d="M352 238C356.95 238 361.9 238 367 238C367 259.45 367 280.9 367 303C362.05 303 357.1 303 352 303C351.67 295.41 351.34 287.82 351 280C334.17 279.67 317.34 279.34 300 279C300 273.39 300 267.78 300 262C325.245 261.505 325.245 261.505 351 261C351.33 253.41 351.66 245.82 352 238Z" fill="#C9C9C9"/>
<path d="M300 195C322.11 195 344.22 195 367 195C367 200.94 367 206.88 367 213C349.84 213 332.68 213 315 213C315 225.87 315 238.74 315 252C310.05 252 305.1 252 300 252C300 233.19 300 214.38 300 195Z" fill="#CACACA"/>
<path d="M155 519C161.6 519 168.2 519 175 519C179.211 528.86 183.027 538.846 186.786 548.885C187.824 551.656 188.868 554.423 189.912 557.191C190.573 558.953 191.234 560.715 191.895 562.477C192.363 563.717 192.363 563.717 192.841 564.983C195 570.771 195 570.771 195 573C189.72 573 184.44 573 179 573C177.68 570.03 176.36 567.06 175 564C168.07 563.67 161.14 563.34 154 563C153.34 565.97 152.68 568.94 152 572C151 573 151 573 147.621 573.098C146.227 573.091 144.832 573.079 143.438 573.062C142.371 573.056 142.371 573.056 141.283 573.049C139.522 573.037 137.761 573.019 136 573C137.881 565.671 140.116 558.594 142.793 551.52C143.144 550.581 143.495 549.642 143.856 548.674C144.962 545.719 146.075 542.766 147.188 539.812C147.945 537.791 148.702 535.77 149.459 533.748C151.3 528.83 153.15 523.915 155 519ZM164 532C162.995 534.957 161.997 537.916 161 540.875C160.714 541.717 160.428 542.559 160.133 543.426C159.862 544.231 159.591 545.037 159.312 545.867C158.935 546.983 158.935 546.983 158.551 548.121C157.906 549.993 157.906 549.993 158 552C162.29 552 166.58 552 171 552C170.4 545.402 168.554 539.111 166 533C165.34 532.67 164.68 532.34 164 532Z" fill="#C9C9C9"/>
<path d="M36 351C52.17 351 68.34 351 85 351C85 366 85 366 81.7383 369.59C79.613 370.825 79.613 370.825 77.3125 371.938C76.165 372.58 76.165 372.58 74.9944 373.236C73.4363 374.107 71.866 374.956 70.2842 375.783C67.5416 377.244 64.9204 378.856 62.2954 380.517C59.8806 382.038 57.4376 383.515 55 385C69.85 385.495 69.85 385.495 85 386C85 389.96 85 393.92 85 398C68.83 398 52.66 398 36 398C36 382 36 382 39.8047 378.023C42.2656 376.621 42.2656 376.621 44.875 375.375C45.6974 374.925 46.5198 374.475 47.3672 374.012C49.8907 372.636 52.4457 371.318 55 370C58.3 368.02 61.6 366.04 65 364C55.43 363.67 45.86 363.34 36 363C36 359.04 36 355.08 36 351Z" fill="#C9C9C9"/>
<path d="M511 229C516.421 233.23 520.266 238.142 521.316 245.089C521.474 247.34 521.519 249.556 521.5 251.813C521.495 252.604 521.49 253.395 521.485 254.209C521.293 260.656 520.122 265.861 516 271C512.157 274.352 509.053 275.519 504 276C503.661 274.585 503.329 273.168 503 271.75C502.814 270.961 502.629 270.172 502.438 269.359C502 267 502 267 502 263C503.973 261.627 505.975 260.296 508 259C510.586 255.591 510.365 252.161 510 248C508.6 244.579 507.381 243.257 504.313 241.188C499.016 239.289 494.984 239.289 489.688 241.188C486.59 243.277 485.387 244.532 484 248C483.479 252.686 483.37 255.541 486 259.5C486.66 260.325 487.32 261.15 488 262C488.33 258.04 488.66 254.08 489 250C491.97 250 494.94 250 498 250C498 258.91 498 267.82 498 277C489.75 277 481.5 277 473 277C473 273.7 473 270.4 473 267C474.65 266.34 476.3 265.68 478 265C477.381 264.319 476.763 263.639 476.125 262.938C472.343 257.709 471.452 252.358 472 246C473.385 239.461 475.983 234.47 481 230C489.703 224.778 502.062 223.549 511 229Z" fill="#C9C9C9"/>
<path d="M72.0625 21.5625C77.9076 24.7217 81.5922 29.0382 83.6523 35.3594C85.5199 41.9127 85.3275 48.3645 85.1875 55.125C85.1256 59.3738 85.0637 63.6225 85 68C68.83 68 52.66 68 36 68C35.9175 62.885 35.835 57.77 35.75 52.5C35.7136 50.9022 35.6772 49.3044 35.6396 47.6582C35.5721 39.0059 35.8468 32.8129 41.7461 25.9766C42.3043 25.5306 42.8624 25.0845 43.4375 24.625C43.9931 24.1635 44.5487 23.702 45.1211 23.2266C52.6017 18.3432 63.8472 18.3016 72.0625 21.5625ZM49 36C44.278 41.9811 46 46.7056 46 55C55.24 55 64.48 55 74 55C74.861 44.3434 74.861 44.3434 71 36C64.6229 31.3338 55.3771 31.3338 49 36Z" fill="#C9C9C9"/>
<path d="M71 226.125C78.3929 230.746 82.4545 234.658 84.5642 243.315C85.0624 246.385 85.1124 249.285 85.0977 252.395C85.0952 253.478 85.0927 254.562 85.0901 255.679C85.081 257.043 85.0719 258.407 85.0625 259.812C85.0419 264.164 85.0213 268.516 85 273C68.83 273 52.66 273 36 273C35.9175 267.885 35.835 262.77 35.75 257.5C35.7136 255.902 35.6772 254.304 35.6396 252.658C35.5721 244.006 35.8468 237.813 41.7461 230.977C42.3043 230.531 42.8624 230.085 43.4375 229.625C43.9931 229.164 44.5487 228.702 45.1211 228.227C52.0494 223.704 63.2313 223.127 71 226.125ZM48 242C45.1953 248.114 45.1953 248.114 46 260C55.24 260 64.48 260 74 260C74.9867 247.425 74.9867 247.425 72.25 242.25C68.4395 238.439 65.4818 237.693 60.125 237.625C54.9624 237.719 51.828 238.273 48 242Z" fill="#C9C9C9"/>
<path d="M188 458C203.84 458 219.68 458 236 458C236.082 463.115 236.165 468.23 236.25 473.5C236.286 475.098 236.323 476.696 236.36 478.342C236.432 487.571 235.788 493.514 229.625 500.812C223.804 505.664 217.836 507.426 210.309 507.27C202.307 506.335 196.456 503.375 191.34 497.195C188.263 492.154 187.757 487.457 187.805 481.633C187.812 479.767 187.812 479.767 187.82 477.864C187.838 476.3 187.856 474.736 187.875 473.125C187.916 468.134 187.957 463.142 188 458ZM198 471C197.013 483.575 197.013 483.575 199.75 488.75C203.598 492.598 206.53 493.292 211.937 493.312C212.957 493.329 213.977 493.346 215.027 493.363C218.491 492.94 220.25 492.136 223 490C227.2 483.971 227.2 483.971 226 471C216.76 471 207.52 471 198 471Z" fill="#C9C9C9"/>
<path d="M226.875 104.379C232.286 108.507 235.219 113.485 237 120C237.821 128.146 237.93 136.151 233 143C227.786 148.709 223.123 152.544 215.281 153.242C206.772 153.608 200.599 152.13 194.125 146.5C193.424 145.675 192.723 144.85 192 144C191.165 143.041 191.165 143.041 190.313 142.063C185.763 134.914 185.923 125.657 187.465 117.559C189.632 111.006 193.896 105.796 200 102.563C208.799 99.1497 218.717 99.6427 226.875 104.379ZM203 116C199.022 120.188 197.614 123.07 197.73 128.902C198.193 132.503 199.554 134.371 202 137C207.365 140.252 212.005 140.45 218 139C221.048 137.363 223.237 135.971 225.375 133.25C226.784 128.177 226.635 124.401 224.5 119.688C221.381 116.334 218.435 114.987 214 114C209.794 114 206.93 114.526 203 116Z" fill="#C9C9C9"/>
<path d="M85 122C85 126.62 85 131.24 85 136C83.845 136.433 82.69 136.866 81.5 137.312C80.7768 137.584 80.0537 137.856 79.3086 138.137C77.7821 138.708 76.2534 139.273 74.7227 139.832C71.0864 140.942 71.0864 140.942 68 143C67.7647 145.35 67.5861 147.706 67.4375 150.062C67.2931 152.352 67.1488 154.641 67 157C72.94 157 78.88 157 85 157C85 160.96 85 164.92 85 169C68.83 169 52.66 169 36 169C35.9381 163.514 35.8763 158.028 35.8125 152.375C35.7852 150.655 35.7579 148.934 35.7297 147.162C35.721 145.782 35.7133 144.403 35.707 143.023C35.6917 142.32 35.6763 141.617 35.6605 140.892C35.6574 134.965 37.1195 130.988 41.1875 126.688C44.7959 124.522 47.7981 123.786 52 124C56.1568 125.49 58.8138 127.113 61 131C61 131.99 61 132.98 61 134C61.66 134 62.32 134 63 134C63.2063 133.423 63.4125 132.845 63.625 132.25C67.4167 126.045 77.9293 122 85 122ZM50 137C47.8437 138.484 47.8437 138.484 46 141C45.7094 143.894 45.6181 146.379 45.75 149.25C45.7681 149.995 45.7861 150.74 45.8047 151.508C45.8516 153.339 45.9234 155.17 46 157C47.6458 157.027 49.2916 157.046 50.9375 157.062C52.3123 157.08 52.3123 157.08 53.7148 157.098C55.9659 157.259 55.9659 157.259 57 156C57.1262 154.086 57.1758 152.168 57.1875 150.25C57.2088 148.68 57.2088 148.68 57.2305 147.078C56.9949 143.932 56.4645 141.785 55 139C52.4763 137.639 52.4763 137.639 50 137Z" fill="#C9C9C9"/>
<path d="M74 75C77.63 75 81.26 75 85 75C85 89.19 85 103.38 85 118C68.83 118 52.66 118 36 118C36 104.14 36 90.28 36 76C39.63 76 43.26 76 47 76C47 85.9 47 95.8 47 106C50.465 105.505 50.465 105.505 54 105C54.33 97.08 54.66 89.16 55 81C58.63 81 62.26 81 66 81C66 89.25 66 97.5 66 106C68.31 105.67 70.62 105.34 73 105C73.33 95.1 73.66 85.2 74 75Z" fill="#C9C9C9"/>
<path d="M72 405.563C77.6689 408.555 82.2463 413.689 84.5273 419.727C86.2223 427.879 86.1768 436.768 82.1992 444.207C78.8853 449.162 73.9394 453.74 68.168 455.586C60.242 457.1 53.2516 456.556 46.1953 452.562C41.5712 449.271 38.2751 445.189 36 440C34.7798 431.449 34.1515 419.984 39.3008 412.695C48.0679 403.948 60.1923 400.847 72 405.563ZM47 423C45.4281 427.716 45.4974 431.548 47.125 436.25C49.5187 439.761 50.9404 440.695 55 442C60.413 442.652 64.6185 442.679 69.5625 440.25C72.3909 437.639 73.7144 435.654 74.3711 431.852C74.4934 427.751 74.3993 424.873 71.8125 421.563C67.3717 417.516 64.0491 416.582 57.9922 416.742C53.5744 417.314 49.7537 419.522 47 423Z" fill="#C9C9C9"/>
<path d="M36 177C39.63 177 43.26 177 47 177C47 186.9 47 196.8 47 207C50.465 206.505 50.465 206.505 54 206C54.33 198.08 54.66 190.16 55 182C58.63 182 62.26 182 66 182C66 190.25 66 198.5 66 207C68.31 206.67 70.62 206.34 73 206C73.33 196.43 73.66 186.86 74 177C77.63 177 81.26 177 85 177C85 190.86 85 204.72 85 219C68.83 219 52.66 219 36 219C36 205.14 36 191.28 36 177Z" fill="#C9C9C9"/>
<path d="M74 298C79.453 300.525 81.4775 303.768 84 309C86.8889 318.648 85.9287 330.726 82.168 339.934C80.9519 342.085 80.0175 343.559 78 345C74.8225 344.752 72.7556 343.317 70.25 341.437C69.6364 340.982 69.0228 340.527 68.3906 340.059C67.9317 339.709 67.4728 339.36 67 339C67.3377 338.527 67.6755 338.054 68.0234 337.566C73.7209 329.119 74.5405 321.972 73 312C71.35 312 69.7 312 68 312C66.7291 314.542 66.6637 316.967 66.4053 319.765C64.8252 336.436 64.8252 336.436 58.25 342.562C53.9826 344.45 51.6492 344.517 47 344C42.4132 342.08 39.9228 338.897 37 335C35.4023 330.207 35.7323 325.333 35.6875 320.312C35.6585 319.248 35.6295 318.184 35.5996 317.088C35.5445 310.225 36.4008 305.871 40 300C44.1364 300 44.698 300.152 47.75 302.5C48.3636 302.964 48.9772 303.428 49.6094 303.906C50.0683 304.267 50.5272 304.628 51 305C50.7229 305.545 50.4457 306.091 50.1602 306.652C46.9316 313.374 44.8716 319.676 46.9375 327.062C47.2881 328.032 47.6388 329.001 48 330C49.32 329.67 50.64 329.34 52 329C52.1818 327.721 52.3635 326.442 52.5508 325.125C52.8042 323.417 53.0582 321.708 53.3125 320C53.4305 319.161 53.5484 318.322 53.6699 317.457C55.6616 304.281 55.6616 304.281 60.5625 299.5C65.1862 297.482 69.031 297.215 74 298Z" fill="#C9C9C9"/>
<path d="M326 705C339.2 705 352.4 705 366 705C366 710.61 366 716.22 366 722C363.504 722.784 361.009 723.567 358.438 724.375C357.666 724.618 356.894 724.861 356.099 725.111C351.75 726.473 347.388 727.766 343 729C345.657 730.771 347.428 731.568 350.414 732.473C351.257 732.732 352.1 732.992 352.969 733.26C353.845 733.525 354.722 733.79 355.625 734.062C357.368 734.592 359.11 735.125 360.852 735.66C361.623 735.894 362.395 736.127 363.19 736.367C365 737 365 737 366 738C366 742.95 366 747.9 366 753C352.8 753 339.6 753 326 753C326 749.37 326 745.74 326 742C336.395 741.505 336.395 741.505 347 741C340.464 739.067 340.464 739.067 333.926 737.141C332.712 736.779 332.712 736.779 331.473 736.41C330.64 736.164 329.807 735.918 328.949 735.664C327 735 327 735 326 734C325.928 732.314 325.916 730.625 325.938 728.938C325.947 728.018 325.956 727.099 325.965 726.152C325.976 725.442 325.988 724.732 326 724C333.193 721.123 340.543 719.079 348 717C340.74 716.67 333.48 716.34 326 716C326 712.37 326 708.74 326 705Z" fill="#C9C9C9"/>
<path d="M513.25 126.063C518.78 131.314 521.201 137.43 521.543 145.011C521.616 153.06 520.806 159.019 515.129 164.957C508.237 171.354 502.794 172.48 493.445 172.305C486.723 171.71 482.834 169.138 478.188 164.375C473.79 158.983 472.343 153.255 471.625 146.438C472.433 139.029 474.884 131.695 480.566 126.594C490.75 118.756 502.742 119.394 513.25 126.063ZM485.062 138.75C482.862 143.409 482.633 146.84 484.188 151.75C486.574 156.03 488.414 157.472 493 159C498.624 159.369 502.135 159.168 507 156C510.338 152.777 510.845 149.566 511 145C509.839 141.131 508.894 138.767 505.812 136.125C498.363 133.145 491.216 133.192 485.062 138.75Z" fill="#C9C9C9"/>
<path d="M188 408C203.84 408 219.68 408 236 408C236 421.86 236 435.72 236 450C232.7 450 229.4 450 226 450C226 440.43 226 430.86 226 421C223.03 421 220.06 421 217 421C217 428.92 217 436.84 217 445C213.7 445 210.4 445 207 445C207 437.08 207 429.16 207 421C204.03 421 201.06 421 198 421C198 430.9 198 440.8 198 451C194.7 451 191.4 451 188 451C188 436.81 188 422.62 188 408Z" fill="#CACACA"/>
<path d="M366 755C366 758.63 366 762.26 366 766C349.292 770.223 349.292 770.223 341 772C346.606 774.172 352.222 776.03 358 777.688C359.162 778.025 359.162 778.025 360.348 778.369C362.231 778.916 364.115 779.458 366 780C366 783.96 366 787.92 366 792C358.74 794.31 351.48 796.62 344 799C351.26 800.65 358.52 802.3 366 804C366 807.3 366 810.6 366 814C357.552 813.42 349.687 811.615 341.5 809.5C339.59 809.019 339.59 809.019 337.641 808.527C328.31 806.155 328.31 806.155 326 805C326 801.37 326 797.74 326 794C331.606 791.828 337.222 789.97 343 788.312C343.775 788.088 344.549 787.863 345.348 787.631C347.231 787.084 349.115 786.542 351 786C347.584 785.02 344.167 784.041 340.75 783.062C339.782 782.785 338.814 782.507 337.816 782.221C336.882 781.953 335.947 781.686 334.984 781.41C334.126 781.164 333.267 780.918 332.382 780.664C330.264 780.074 328.133 779.533 326 779C326 774.38 326 769.76 326 765C335.634 762.266 345.286 759.627 355 757.188C355.866 756.969 356.732 756.75 357.624 756.525C358.831 756.224 358.831 756.224 360.062 755.918C360.775 755.74 361.488 755.563 362.223 755.38C364 755 364 755 366 755Z" fill="#C9C9C9"/>
<path d="M473 283C488.84 283 504.68 283 521 283C521 287.29 521 291.58 521 296C515.06 296 509.12 296 503 296C503 302.93 503 309.86 503 317C508.94 317 514.88 317 521 317C521 320.96 521 324.92 521 329C505.16 329 489.32 329 473 329C473 325.04 473 321.08 473 317C479.27 317 485.54 317 492 317C492 310.07 492 303.14 492 296C485.73 296 479.46 296 473 296C473 291.71 473 287.42 473 283Z" fill="#C9C9C9"/>
<path d="M224.625 49.5625C229.798 52.8059 234.346 57.9874 236.531 63.7226C238.266 72.1504 238.102 81.3617 234 89C231.563 91.8125 231.563 91.8125 229 94C228.041 94.8662 228.041 94.8662 227.063 95.75C224.427 97.347 222.036 97.655 219 98C218.662 96.4177 218.33 94.8341 218 93.25C217.814 92.3683 217.629 91.4865 217.438 90.5781C217 88 217 88 217 84C217.949 83.5669 218.898 83.1337 219.875 82.6875C223.2 81.207 223.2 81.207 225 78C225.316 75.8521 225.316 75.8521 225.25 73.5625C225.255 72.8006 225.26 72.0388 225.266 71.2539C224.966 68.7144 224.387 67.1445 223 65C217.414 61.8719 212.265 60.8459 206.008 62.539C203.342 63.5457 201.391 64.3867 199.832 66.832C198.406 70.5489 198.309 74.0927 199 78C201.764 81.6085 203.911 82.9556 208 85C207.67 89.29 207.34 93.58 207 98C199.912 97.4329 196.129 95.2261 191.25 90.125C185.963 82.782 186.281 74.731 187 66C188.625 58.8105 192.963 54.0586 199 50C205.882 46.4523 217.562 46.3672 224.625 49.5625Z" fill="#C9C9C9"/>
<path d="M65 458C72.0127 459.353 77.0652 461.228 81.5469 466.988C86.0444 474.505 86.0607 482.557 85 491C82.787 498.38 78.9904 503.241 72.2617 506.961C65.1079 510.19 56.5761 510.321 49.25 507.562C43.423 504.606 38.0769 499.231 36 493C35.7216 489.776 35.7225 486.547 35.6875 483.312C35.644 482.002 35.644 482.002 35.5996 480.666C35.5406 474.594 36.5382 470.059 40 465C44.1308 461.076 47.2787 459 53 459C53.66 463.29 54.32 467.58 55 472C53.2096 473.204 51.4193 474.409 49.6289 475.613C47.7114 477.003 47.7114 477.003 47 480C46.5718 485.885 46.5718 485.885 49 491C54.183 494.721 59.8542 494.848 66 494C69.1505 492.694 71.4369 491.126 73 488C73.236 485.696 73.236 485.696 73.25 483.125C73.2887 481.829 73.2887 481.829 73.3281 480.508C72.9325 477.484 72.0954 476.188 70 474C66.9122 472.72 66.9122 472.72 64 472C63.9167 467.167 64.0474 462.763 65 458Z" fill="#C9C9C9"/>
<path d="M473 70C488.84 70 504.68 70 521 70C521 73.96 521 77.92 521 82C515.06 82 509.12 82 503 82C503 89.26 503 96.52 503 104C508.94 104 514.88 104 521 104C521 107.96 521 111.92 521 116C505.16 116 489.32 116 473 116C473 112.04 473 108.08 473 104C479.27 104 485.54 104 492 104C492 96.74 492 89.48 492 82C485.73 82 479.46 82 473 82C473 78.04 473 74.08 473 70Z" fill="#CACACA"/>
<path d="M521 562C521 566.62 521 571.24 521 576C517.712 576.944 514.424 577.888 511.137 578.832C507.428 580.152 507.428 580.152 505 583C504.421 585.962 504.421 585.962 504.312 589.188C504.209 591.106 504.106 593.024 504 595C509.61 595 515.22 595 521 595C521 598.96 521 602.92 521 607C505.82 607 490.64 607 475 607C474.917 601.885 474.835 596.77 474.75 591.5C474.714 589.902 474.677 588.304 474.64 586.658C474.581 579.179 474.588 573.338 479 567C482.393 564.455 484.916 563.766 489.062 564.062C492.916 564.733 495.209 566.209 498 569C498.99 570.485 498.99 570.485 500 572C500.742 571.257 501.485 570.515 502.25 569.75C506.137 566.461 510.583 565.256 515.391 563.797C517.159 563.257 519.174 562 521 562ZM485.352 579.133C483.797 582.432 483.661 584.624 483.75 588.25C483.765 589.307 483.781 590.364 483.797 591.453C483.718 593.934 483.718 593.934 485 595C486.497 595.098 487.999 595.13 489.5 595.125C490.315 595.128 491.129 595.13 491.969 595.133C493.995 595.225 493.995 595.225 495 594C495.126 592.253 495.176 590.501 495.187 588.75C495.209 587.319 495.209 587.319 495.23 585.859C494.969 582.615 494.384 579.384 492 577C488.61 576.465 487.511 576.339 485.352 579.133Z" fill="#C9C9C9"/>
<path d="M512 706C516.903 709.087 519.4 712.497 521 718C521.461 721.447 521.523 724.838 521.5 728.313C521.497 729.243 521.494 730.173 521.491 731.132C521.332 737.869 520.488 743.678 516 749C515.01 749.66 514.02 750.32 513 751C510.36 749.02 507.72 747.04 505 745C506.039 742.283 507.122 739.784 508.562 737.25C510.927 731.904 511.555 727.109 510.062 721.438C509.712 720.633 509.361 719.829 509 719C507.015 719.267 507.015 719.267 505 720C504.033 722.9 503.731 725.52 503.456 728.548C502.168 741.946 502.168 741.946 497 747C493.148 749.349 489.418 749.674 485 749C479.574 746.391 477.529 743.246 475 738C472.205 729.3 473.576 719.298 477 711C478.687 707.875 478.687 707.875 480 706C482.97 707.98 485.94 709.96 489 712C487.966 714.586 486.93 717.172 485.875 719.75C484.491 724.889 484.31 729.931 486 735C487.65 735.33 489.3 735.66 491 736C491.164 734.064 491.164 734.064 491.332 732.09C491.492 730.372 491.652 728.655 491.812 726.938C491.883 726.09 491.953 725.242 492.025 724.369C492.644 717.955 493.74 712.683 498 707.625C502.321 704.114 506.876 704.739 512 706Z" fill="#C9C9C9"/>
<path d="M511 754C514.3 754 517.6 754 521 754C521 767.53 521 781.06 521 795C505.82 795 490.64 795 475 795C475 781.8 475 768.6 475 755C478.3 755 481.6 755 485 755C485.33 763.91 485.66 772.82 486 782C487.98 782 489.96 782 492 782C492.33 774.74 492.66 767.48 493 760C496.3 760 499.6 760 503 760C503 767.59 503 775.18 503 783C506.465 782.505 506.465 782.505 510 782C510.33 772.76 510.66 763.52 511 754Z" fill="#C9C9C9"/>
<path d="M475 898C489.85 898 504.7 898 520 898C520 902.95 520 907.9 520 913C516.487 916.4 514.231 917.822 510 920C507.678 921.394 505.38 922.823 503.083 924.259C499.408 926.537 495.701 928.763 492 931C505.86 931.495 505.86 931.495 520 932C520 934.97 520 937.94 520 941C505.15 941 490.3 941 475 941C475 936.71 475 932.42 475 928C478.704 924.626 481.329 922.71 485.625 920.438C486.624 919.862 487.623 919.286 488.652 918.693C490.522 917.617 492.403 916.561 494.299 915.533C497.288 913.836 500.14 911.906 503 910C489.14 909.505 489.14 909.505 475 909C475 905.37 475 901.74 475 898Z" fill="#C9C9C9"/>
<path d="M511 659C515.94 661.195 517.911 663.972 520.162 668.659C521.662 672.849 521.634 676.965 521.563 681.375C521.555 682.301 521.548 683.227 521.54 684.181C521.348 690.883 520.461 696.709 516 702C515.01 702.66 514.02 703.32 513 704C510.36 702.02 507.72 700.04 505 698C506.121 695.757 507.28 693.53 508.563 691.375C511.219 685.139 511.563 678.599 510 672C508.35 672.33 506.7 672.66 505 673C503.598 677.207 503.339 681.535 502.926 685.932C502.296 691.633 500.773 695.959 496.938 700.375C492.599 702.775 488.84 702.974 484 702C479.526 699.792 476.894 696.533 475.063 691.937C472.58 682.777 473.113 672.686 477 664C477.96 662.638 478.951 661.295 480 660C483.112 661.498 486.053 663.199 489 665C488.567 666.021 488.567 666.021 488.125 667.062C485.586 673.692 483.232 680.579 486 687.5C486.33 687.995 486.66 688.49 487 689C487.99 689 488.98 689 490 689C491.859 685.282 491.71 680.681 492.074 676.561C492.708 670.436 493.989 665.377 498.063 660.562C502.39 658.26 506.202 658.261 511 659Z" fill="#C9C9C9"/>
<path d="M247 376C261.19 376 275.38 376 290 376C290 380.95 290 385.9 290 391C285.823 394.799 282.977 396.874 278.125 399.375C276.997 400.014 275.869 400.654 274.707 401.312C271.181 403.297 267.619 405.19 264 407C276.87 407.495 276.87 407.495 290 408C290 411.63 290 415.26 290 419C275.81 419 261.62 419 247 419C247 414.38 247 409.76 247 405C250.503 401.664 252.814 400.159 257 398C259.203 396.713 261.388 395.4 263.573 394.083C267.03 392.023 270.518 390.017 274 388C265.09 387.67 256.18 387.34 247 387C247 383.37 247 379.74 247 376Z" fill="#C9C9C9"/>
<path d="M511 850C514.3 850 517.6 850 521 850C521.03 854.208 521.047 858.417 521.062 862.625C521.071 863.795 521.079 864.966 521.088 866.172C521.091 867.345 521.094 868.518 521.098 869.727C521.103 870.784 521.108 871.842 521.114 872.932C520.945 878.964 520.43 884.981 520 891C505.15 891 490.3 891 475 891C475 877.8 475 864.6 475 851C478.3 851 481.6 851 485 851C485 860.24 485 869.48 485 879C487.64 879 490.28 879 493 879C493 871.41 493 863.82 493 856C496.3 856 499.6 856 503 856C503 863.59 503 871.18 503 879C505.64 879 508.28 879 511 879C511 869.43 511 859.86 511 850Z" fill="#C9C9C9"/>
<path d="M493.461 424.707C494.251 424.711 495.042 424.716 495.857 424.72C498.363 424.737 500.869 424.774 503.375 424.812C505.082 424.828 506.789 424.841 508.496 424.854C512.664 424.886 516.832 424.938 521 425C521 428.96 521 432.92 521 437C520.052 437.015 519.103 437.029 518.126 437.044C514.6 437.105 511.074 437.179 507.548 437.262C506.023 437.296 504.498 437.324 502.974 437.346C500.779 437.38 498.585 437.432 496.391 437.488C495.071 437.514 493.751 437.541 492.392 437.568C488.87 438.017 487.4 438.423 485 441C483.871 446.001 483.424 449.39 486 454C488.83 456.83 491.62 456.352 495.414 456.414C496.144 456.433 496.873 456.453 497.625 456.473C499.958 456.533 502.292 456.579 504.625 456.625C506.206 456.663 507.786 456.702 509.367 456.742C513.245 456.838 517.122 456.922 521 457C521 460.96 521 464.92 521 469C515.841 469.099 510.682 469.172 505.521 469.22C503.768 469.24 502.014 469.267 500.261 469.302C497.734 469.351 495.207 469.373 492.68 469.391C491.901 469.411 491.123 469.432 490.321 469.453C485.078 469.455 482.171 468.447 478 465C473.215 459.152 471.524 452.661 471.746 445.145C472.502 438.757 474.225 432.502 479 428C483.981 424.924 487.798 424.591 493.461 424.707Z" fill="#C9C9C9"/>
<path d="M493.461 176.707C494.252 176.711 495.042 176.716 495.857 176.72C498.363 176.737 500.869 176.774 503.375 176.812C505.082 176.828 506.789 176.841 508.496 176.854C512.664 176.886 516.832 176.938 521 177C521 180.96 521 184.92 521 189C520.052 189.015 519.103 189.029 518.126 189.044C514.6 189.105 511.074 189.179 507.548 189.262C506.023 189.296 504.498 189.324 502.974 189.346C500.779 189.38 498.585 189.432 496.391 189.488C495.071 189.514 493.751 189.541 492.392 189.568C488.87 190.017 487.4 190.423 485 193C483.886 197.933 483.344 201.485 486 206C489.556 208.371 492.18 208.345 496.293 208.414C496.999 208.433 497.705 208.453 498.432 208.473C500.684 208.532 502.936 208.579 505.188 208.625C506.716 208.663 508.244 208.702 509.771 208.742C513.514 208.838 517.257 208.922 521 209C521 212.96 521 216.92 521 221C516.02 221.124 511.04 221.215 506.059 221.275C504.367 221.3 502.676 221.334 500.984 221.377C484.048 221.802 484.048 221.802 478.338 217.473C473.193 211.807 471.668 204.732 471.781 197.25C472.405 190.839 474.23 184.498 479 180C483.981 176.924 487.798 176.591 493.461 176.707Z" fill="#C9C9C9"/>
<path d="M521 609C521 613.62 521 618.24 521 623C518.03 623.99 515.06 624.98 512 626C512.495 634.415 512.495 634.415 513 643C515.64 644.32 518.28 645.64 521 647C521 650.96 521 654.92 521 659C515.731 658.344 511.109 656.728 506.172 654.875C505.342 654.568 504.511 654.261 503.656 653.945C501.019 652.968 498.384 651.984 495.75 651C493.964 650.338 492.177 649.677 490.391 649.016C477.38 644.19 477.38 644.19 475 643C475 637.39 475 631.78 475 626C476.155 625.556 477.31 625.112 478.501 624.655C482.797 623.004 487.092 621.353 491.388 619.701C493.245 618.987 495.103 618.273 496.96 617.56C499.634 616.532 502.307 615.504 504.98 614.477C505.808 614.159 506.635 613.841 507.487 613.514C508.658 613.063 508.658 613.063 509.852 612.604C510.577 612.326 511.301 612.048 512.047 611.761C513.686 611.122 515.314 610.456 516.939 609.783C519 609 519 609 521 609ZM494.438 631.5C493.371 631.858 493.371 631.858 492.283 632.223C490.522 632.814 488.761 633.407 487 634C487 634.66 487 635.32 487 636C488.914 636.674 490.831 637.339 492.75 638C493.817 638.371 494.885 638.743 495.984 639.125C499.117 640.186 499.117 640.186 503 640C503 636.37 503 632.74 503 629C500.202 629 497.107 630.6 494.438 631.5Z" fill="#C9C9C9"/>
<path d="M503 799C514.649 802.35 514.649 802.35 518.069 807.659C520.861 812.858 521.676 817.13 521.562 823C521.548 824.189 521.548 824.189 521.534 825.401C521.32 831.377 520.369 835.677 516 840C515.519 840.496 515.038 840.993 514.543 841.504C508.725 846.892 502.653 847.469 495.035 847.309C488.695 846.664 483.94 844.383 479.625 839.688C474.149 832.478 473.148 825.872 474 817C475.356 810.334 479.203 804.542 484.879 800.742C487 800 487 800 492 801C492.33 804.96 492.66 808.92 493 813C492.051 813.392 491.102 813.784 490.125 814.188C486.939 815.716 486.939 815.716 485.562 818.25C484.638 822.768 485.56 826.681 487 831C492.073 833.471 497.471 833.609 503 833C506.686 831.387 507.754 830.37 510 827C510.679 822.714 510.821 819.144 508.25 815.562C506.216 814.15 504.221 813.078 502 812C501.973 810.208 501.954 808.417 501.937 806.625C501.926 805.627 501.914 804.63 501.902 803.602C502 801 502 801 503 799Z" fill="#C9C9C9"/>
<path d="M281 328C285.764 331.917 289.819 336.835 291 343C291.711 350.398 291.218 356.726 287 363C281.669 369.048 276.635 371.579 268.562 372.312C261.933 371.731 256.476 369.46 251.543 364.934C247.747 360.177 246.28 354.319 245.562 348.375C246.58 340.522 248.997 334.349 255 329C263.522 323.887 272.018 323.771 281 328ZM259 340C256.414 342.909 256.04 344.625 255.625 348.5C256.04 352.374 256.414 354.091 259 357C262.873 359.297 266.691 360.29 271.188 360C275.551 358.855 277.203 357.476 280 354C281.532 350.936 281.229 348.383 281 345C279.349 341.461 278.284 340.189 275 338C268.961 336.669 264.416 336.788 259 340Z" fill="#C9C9C9"/>
<path d="M247 179C261.19 179 275.38 179 290 179C290 191.54 290 204.08 290 217C287.03 217 284.06 217 281 217C280.505 204.13 280.505 204.13 280 191C278.02 191 276.04 191 274 191C273.67 197.93 273.34 204.86 273 212C270.03 212 267.06 212 264 212C263.67 205.07 263.34 198.14 263 191C260.03 190.505 260.03 190.505 257 190C257 198.91 257 207.82 257 217C253.7 217 250.4 217 247 217C247 204.46 247 191.92 247 179Z" fill="#C9C9C9"/>
<path d="M473 381C488.84 381 504.68 381 521 381C521 394.53 521 408.06 521 422C517.37 422 513.74 422 510 422C510 412.76 510 403.52 510 394C506.7 394 503.4 394 500 394C500 401.92 500 409.84 500 418C496.7 418 493.4 418 490 418C490 410.08 490 402.16 490 394C484.39 394 478.78 394 473 394C473 389.71 473 385.42 473 381Z" fill="#C9C9C9"/>
<path d="M36 519C40.62 519 45.24 519 50 519C50 532.86 50 546.72 50 561C60.56 561 71.12 561 82 561C82 564.96 82 568.92 82 573C67.15 573 52.3 573 37 573C35.7472 570.495 35.8797 568.803 35.8865 566C35.8865 564.959 35.8866 563.918 35.8867 562.845C35.8919 561.718 35.897 560.591 35.9023 559.43C35.9038 558.278 35.9052 557.127 35.9066 555.941C35.9122 552.252 35.9248 548.564 35.9375 544.875C35.9425 542.379 35.9471 539.883 35.9512 537.387C35.9622 531.258 35.9795 525.129 36 519Z" fill="#C9C9C9"/>
<path d="M247 421C256.521 423.378 265.536 426.695 274.688 430.188C276.179 430.752 277.67 431.317 279.162 431.881C282.777 433.248 286.388 434.624 290 436C290 441.28 290 446.56 290 452C281.963 455.793 273.809 459.048 265.463 462.077C263.407 462.824 261.355 463.578 259.303 464.334C257.992 464.813 256.682 465.292 255.371 465.77C254.195 466.199 253.018 466.628 251.806 467.07C249 468 249 468 247 468C247 463.71 247 459.42 247 455C249.31 454.01 251.62 453.02 254 452C254 446.72 254 441.44 254 436C251.69 435.01 249.38 434.02 247 433C247 429.04 247 425.08 247 421ZM264 439C264 442.3 264 445.6 264 449C269.126 447.913 274.059 446.774 279 445C279 444.34 279 443.68 279 443C276.876 442.33 274.751 441.664 272.625 441C271.442 440.629 270.258 440.257 269.039 439.875C266.207 438.908 266.207 438.908 264 439Z" fill="#C9C9C9"/>
<path d="M281 133C286.49 136.66 289.278 140.588 291 147C291.996 154.631 291.376 161.525 287 168C283.585 171.836 280.318 174.678 275 175C274.661 173.585 274.329 172.168 274 170.75C273.814 169.961 273.629 169.172 273.438 168.359C273 166 273 166 273 162C273.969 161.546 274.939 161.093 275.938 160.625C279.071 159.342 279.071 159.342 280 157C280.668 151.037 280.668 151.037 277.688 146.063C273.47 142.826 270.217 142.646 265 143C260.76 144.568 260.76 144.568 257.828 147.824C256.397 151.584 256.858 155.191 258 159C260.302 161.1 260.302 161.1 263 162C263.66 162.33 264.32 162.66 265 163C265 166.63 265 170.26 265 174C260.253 175.187 259.06 174.582 254.965 172.363C249.614 168.651 247.212 163.281 246 157C245.38 149.308 246.946 143.201 251.125 136.688C259.488 128.87 270.919 127.268 281 133Z" fill="#C9C9C9"/>
<path d="M326 861C339.2 861 352.4 861 366 861C366.062 865.146 366.124 869.291 366.188 873.562C366.228 875.503 366.228 875.503 366.27 877.483C366.323 884.805 365.757 889.647 361.812 895.875C358.74 897.782 355.541 898.234 352 898C348.204 896.032 346.371 894.557 344 891C343.199 891.922 343.199 891.922 342.383 892.863C339.623 895.338 337.407 896.124 333.875 897.188C329.85 898.375 329.85 898.375 326 900C326 896.04 326 892.08 326 888C327.403 887.546 328.805 887.093 330.25 886.625C331.842 886.11 333.426 885.568 335 885C335.732 884.752 336.464 884.505 337.219 884.25C339.262 883.084 339.262 883.084 339.828 880.398C339.967 879.401 340.107 878.403 340.25 877.375C340.498 875.601 340.745 873.827 341 872C336.05 872 331.1 872 326 872C326 868.37 326 864.74 326 861ZM349 872C348.946 873.937 348.907 875.875 348.875 877.812C348.852 878.891 348.829 879.97 348.805 881.082C348.77 884.194 348.77 884.194 351 887C353.437 886.73 353.437 886.73 356 886C358.281 882.579 358.219 881.318 358.125 877.312C358.098 875.822 358.098 875.822 358.07 874.301C358.047 873.542 358.024 872.782 358 872C355.03 872 352.06 872 349 872Z" fill="#C9C9C9"/>
<path d="M360 819C364.623 823.623 366.688 829.085 367.375 835.5C366.566 843.05 363.707 848.912 358 854C352.505 857.276 347.25 857.863 341 857C334.826 855.164 330.448 851.387 327 846C324.297 839.12 324.115 832.792 326.969 825.988C329.646 820.827 332.751 817.147 338.25 815C346.271 812.826 353.327 814.195 360 819ZM337 828C334.711 831.219 334 833.119 334 837.063C335.434 841.274 338.014 844.007 342 846C348.104 846.509 351.108 846.057 356 842C357.744 838.511 357.565 834.807 357 831C355.012 828.018 353.562 826.523 350.133 825.375C345.085 824.432 341.444 825.299 337 828Z" fill="#C9C9C9"/>
<path d="M326 623C339.2 623 352.4 623 366 623C366 634.22 366 645.44 366 657C363.03 657 360.06 657 357 657C357 649.08 357 641.16 357 633C355.02 633.33 353.04 633.66 351 634C350.67 640.27 350.34 646.54 350 653C347.03 653 344.06 653 341 653C341 646.4 341 639.8 341 633C339.02 633 337.04 633 335 633C335 641.25 335 649.5 335 658C332.03 658 329.06 658 326 658C326 646.45 326 634.9 326 623Z" fill="#C9C9C9"/>
<path d="M247 224C261.19 224 275.38 224 290 224C290.083 228.476 290.165 232.951 290.25 237.562C290.286 238.961 290.323 240.359 290.36 241.799C290.422 248.741 290.337 253.441 286 259C282.346 262.237 278.918 262.469 274.211 262.281C270.897 261.86 268.737 260.909 266 259C261.672 253.385 260.854 249.227 260.938 242.312C260.942 241.611 260.947 240.909 260.951 240.186C260.963 238.457 260.981 236.728 261 235C256.38 235 251.76 235 247 235C247 231.37 247 227.74 247 224ZM270 235C269.919 236.937 269.861 238.875 269.812 240.812C269.778 241.891 269.743 242.97 269.707 244.082C269.755 246.98 269.755 246.98 271.32 248.863C273.923 250.624 275.953 250.389 279 250C281.351 246.473 281.214 244.971 281.125 240.812C281.107 239.726 281.089 238.639 281.07 237.52C281.047 236.688 281.024 235.857 281 235C277.37 235 273.74 235 270 235Z" fill="#C9C9C9"/>
<path d="M287.143 580.886C288.534 580.887 289.925 580.892 291.316 580.902C292.047 580.904 292.779 580.905 293.532 580.907C295.875 580.912 298.219 580.925 300.562 580.938C302.148 580.943 303.733 580.947 305.318 580.951C309.212 580.962 313.106 580.979 317 581C317 583.97 317 586.94 317 590C309.08 590 301.16 590 293 590C293 591.98 293 593.96 293 596C299.6 596 306.2 596 313 596C313 598.97 313 601.94 313 605C306.4 605 299.8 605 293 605C293 606.98 293 608.96 293 611C300.92 611 308.84 611 317 611C317 613.97 317 616.94 317 620C305.78 620 294.56 620 283 620C282.977 614.606 282.957 609.213 282.945 603.82C282.94 601.983 282.933 600.147 282.925 598.311C282.912 595.677 282.907 593.044 282.902 590.41C282.897 589.584 282.892 588.758 282.887 587.907C282.886 585.938 282.938 583.968 283 582C284 581 284 581 287.143 580.886Z" fill="#C9C9C9"/>
<path d="M225 356C228.63 356 232.26 356 236 356C236 371.51 236 387.02 236 403C232.37 403 228.74 403 225 403C225 397.39 225 391.78 225 386C212.79 386 200.58 386 188 386C188 381.71 188 377.42 188 373C200.21 373 212.42 373 225 373C225 367.39 225 361.78 225 356Z" fill="#C9C9C9"/>
<path d="M225 308C228.63 308 232.26 308 236 308C236 323.51 236 339.02 236 355C232.37 355 228.74 355 225 355C225 349.39 225 343.78 225 338C212.79 338 200.58 338 188 338C188 333.71 188 329.42 188 325C200.21 325 212.42 325 225 325C225 319.39 225 313.78 225 308Z" fill="#CACACA"/>
<path d="M510 334C513.63 334 517.26 334 521 334C521 349.18 521 364.36 521 380C517.37 380 513.74 380 510 380C510 374.39 510 368.78 510 363C497.79 363 485.58 363 473 363C473 358.71 473 354.42 473 350C485.21 350 497.42 350 510 350C510 344.72 510 339.44 510 334Z" fill="#C9C9C9"/>
<path d="M510 20C513.63 20 517.26 20 521 20C521 35.18 521 50.36 521 66C517.37 66 513.74 66 510 66C510 60.39 510 54.78 510 49C497.79 49 485.58 49 473 49C473 44.71 473 40.42 473 36C485.21 36 497.42 36 510 36C510 30.72 510 25.44 510 20Z" fill="#C9C9C9"/>
<path d="M243 581C246.981 580.938 250.961 580.876 255.062 580.813C256.925 580.772 256.925 580.772 258.824 580.73C265.897 580.677 271.328 580.921 276.938 585.625C278.613 589.37 278.679 592.975 278 597C276.188 599.563 276.188 599.563 274 601C273.01 601 272.02 601 271 601C271 601.66 271 602.32 271 603C271.598 603.186 272.196 603.371 272.812 603.563C277.847 606.871 278.736 614.457 280 620C276.37 620 272.74 620 269 620C267 615 267 615 265.938 611.25C265.333 608.172 265.333 608.172 264 607C262.151 606.766 260.295 606.587 258.438 606.438C256.643 606.293 254.849 606.149 253 606C253 610.62 253 615.24 253 620C249.7 620 246.4 620 243 620C243 607.13 243 594.26 243 581ZM253 589C253 591.97 253 594.94 253 598C254.937 598.054 256.875 598.093 258.812 598.125C259.891 598.148 260.97 598.171 262.082 598.195C265.194 598.23 265.194 598.23 268 596C268.25 593.416 268.25 593.416 268 591C264.651 588.974 262.13 588.783 258.25 588.875C257.265 588.893 256.28 588.911 255.266 588.93C254.518 588.953 253.77 588.976 253 589Z" fill="#C9C9C9"/>
<path d="M326 659C330.09 660.491 334.179 661.985 338.268 663.48C339.655 663.987 341.041 664.493 342.428 664.999C350.335 667.881 358.206 670.822 366 674C366 678.62 366 683.24 366 688C358.797 691.314 351.455 694.199 344.041 697.001C342.04 697.758 340.043 698.522 338.045 699.285C336.771 699.769 335.497 700.252 334.223 700.734C333.075 701.17 331.928 701.605 330.746 702.054C328 703 328 703 326 703C326 699.04 326 695.08 326 691C328.31 690.34 330.62 689.68 333 689C333 683.72 333 678.44 333 673C330.69 672.34 328.38 671.68 326 671C326 667.04 326 663.08 326 659ZM342 676C342 679.3 342 682.6 342 686C346.29 684.68 350.58 683.36 355 682C355 681.34 355 680.68 355 680C350.71 678.68 346.42 677.36 342 676Z" fill="#C9C9C9"/>
<path d="M473 476C488.84 476 504.68 476 521 476C521 480.29 521 484.58 521 489C508.79 489 496.58 489 484 489C484 498.24 484 507.48 484 517C480.7 517 477.4 517 474 517C473 516 473 516 472.886 512.215C472.887 510.527 472.892 508.84 472.902 507.152C472.903 506.367 472.904 505.582 472.905 504.773C472.911 501.828 472.925 498.883 472.938 495.938C472.958 489.358 472.979 482.779 473 476Z" fill="#C9C9C9"/>
<path d="M326 903C339.2 903 352.4 903 366 903C366 906.3 366 909.6 366 913C361.38 913.33 356.76 913.66 352 914C353.011 914.871 354.021 915.743 355.063 916.641C365.498 926.056 365.498 926.056 366.93 931.602C366.881 934.523 366.656 937.156 366 940C363.068 938.679 361.013 937.254 358.766 934.961C358.192 934.381 357.618 933.801 357.027 933.203C356.441 932.6 355.854 931.997 355.25 931.375C354.648 930.764 354.046 930.153 353.426 929.523C351.946 928.02 350.472 926.511 349 925C343.214 929.197 337.767 933.684 332.394 938.392C328.216 942 328.216 942 326 942C325.078 937.398 324.824 933.571 326 929C329.046 925.349 333.009 922.852 336.938 920.242C338.453 919.132 338.453 919.132 340 918C340 917.01 340 916.02 340 915C338.122 913.122 334.961 913.609 332.438 913.438C331.24 913.354 330.042 913.27 328.809 913.184C327.882 913.123 326.955 913.062 326 913C326 909.7 326 906.4 326 903Z" fill="#C9C9C9"/>
<path d="M475 520C478.499 521.315 481.63 522.855 484.828 524.785C485.71 525.316 486.592 525.846 487.5 526.393C488.407 526.944 489.315 527.495 490.25 528.062C491.173 528.617 492.096 529.172 493.047 529.744C499.853 533.853 499.853 533.853 501 535C502.486 535.157 503.979 535.251 505.473 535.316C506.821 535.379 506.821 535.379 508.197 535.443C509.616 535.502 509.616 535.502 511.062 535.562C512.012 535.606 512.961 535.649 513.939 535.693C516.293 535.8 518.646 535.9 521 536C521 539.96 521 543.92 521 548C519.991 547.898 518.981 547.796 517.941 547.691C502.891 546.983 492.491 554.359 480.35 562.525C478 564 478 564 475 565C475 560.38 475 555.76 475 551C479.95 548.36 484.9 545.72 490 543C486.935 539.935 484.69 538.913 480.812 537.125C477.566 535.316 477.566 535.316 475 533C473.947 528.51 474.265 524.526 475 520Z" fill="#C9C9C9"/>
<path d="M97.0664 580.902C98.302 580.92 98.302 580.92 99.5625 580.938C100.389 580.947 101.215 580.956 102.066 580.965C102.704 580.976 103.343 580.988 104 581C104.02 581.701 104.04 582.402 104.06 583.124C104.156 586.312 104.265 589.5 104.375 592.688C104.406 593.79 104.437 594.893 104.469 596.029C104.507 597.096 104.546 598.163 104.586 599.262C104.617 600.241 104.649 601.22 104.681 602.229C105.014 605.124 105.798 607.358 107 610C111.316 610.762 114.744 611.161 119 610C119.809 606.391 120.178 602.955 120.316 599.262C120.358 598.195 120.4 597.128 120.443 596.029C120.483 594.927 120.522 593.824 120.562 592.688C120.606 591.565 120.649 590.443 120.693 589.287C120.799 586.525 120.901 583.763 121 581C123.97 581 126.94 581 130 581C130.099 585.163 130.172 589.324 130.22 593.488C130.24 594.902 130.267 596.316 130.302 597.73C130.351 599.771 130.373 601.81 130.391 603.852C130.412 605.077 130.433 606.302 130.454 607.565C129.909 611.686 128.6 613.794 126 617C119.631 620.848 113.216 622.133 105.879 620.539C100.638 618.855 98.1052 616.517 95 612C93.9072 608.722 93.8707 606.286 93.8672 602.836C93.8659 601.632 93.8646 600.428 93.8633 599.188C93.8671 597.929 93.871 596.671 93.875 595.375C93.8711 594.109 93.8673 592.843 93.8633 591.539C93.8646 590.338 93.8659 589.136 93.8672 587.898C93.8683 586.792 93.8694 585.685 93.8706 584.544C94.0486 581.045 94.0486 581.045 97.0664 580.902Z" fill="#C9C9C9"/>
<path d="M204.066 580.902C205.302 580.92 205.302 580.92 206.562 580.938C207.389 580.947 208.215 580.956 209.066 580.965C209.704 580.976 210.343 580.988 211 581C211.02 581.772 211.04 582.544 211.06 583.339C211.155 586.831 211.265 590.321 211.375 593.812C211.406 595.027 211.437 596.242 211.469 597.494C211.507 598.658 211.546 599.821 211.586 601.02C211.617 602.093 211.649 603.167 211.681 604.273C211.816 607.216 211.816 607.216 214 610C218.297 610.973 221.744 611.161 226 610C226.809 606.391 227.178 602.955 227.316 599.262C227.358 598.195 227.4 597.128 227.443 596.029C227.483 594.927 227.522 593.824 227.562 592.688C227.606 591.565 227.649 590.443 227.693 589.287C227.799 586.525 227.901 583.763 228 581C230.97 581 233.94 581 237 581C237.075 585.02 237.129 589.04 237.165 593.061C237.18 594.426 237.2 595.792 237.226 597.157C237.263 599.128 237.278 601.099 237.293 603.07C237.309 604.254 237.324 605.437 237.341 606.657C236.902 610.96 235.686 614.572 232.316 617.426C225.154 621.047 218.625 622.386 210.812 619.875C206.586 618.128 204.572 615.741 202 612C200.907 608.722 200.871 606.286 200.867 602.836C200.866 601.632 200.865 600.428 200.863 599.188C200.867 597.929 200.871 596.671 200.875 595.375C200.871 594.109 200.867 592.843 200.863 591.539C200.865 590.338 200.866 589.136 200.867 587.898C200.868 586.792 200.869 585.685 200.871 584.544C201.049 581.045 201.049 581.045 204.066 580.902Z" fill="#C9C9C9"/>
<path d="M280 264C283.3 264 286.6 264 290 264C290 277.53 290 291.06 290 305C286.7 305 283.4 305 280 305C280 300.05 280 295.1 280 290C269.11 290 258.22 290 247 290C247 286.37 247 282.74 247 279C257.89 279 268.78 279 280 279C280 274.05 280 269.1 280 264Z" fill="#C9C9C9"/>
<path d="M247 470C261.19 470 275.38 470 290 470C290 473.96 290 477.92 290 482C279.11 482 268.22 482 257 482C257 490.25 257 498.5 257 507C253.7 507 250.4 507 247 507C247 494.79 247 482.58 247 470Z" fill="#CACACA"/>
<path d="M82.625 582.625C87.5269 585.585 89.6325 589.53 91 595C87.37 595.66 83.74 596.32 80 597C79.4844 596.031 78.9688 595.061 78.4375 594.062C76.2498 590.723 76.2498 590.723 72.5625 589.937C68.4765 590.009 66.9377 590.146 64 593C62.4122 596.64 61.5989 600.148 62.4492 604.074C63.7968 607.475 64.9302 608.953 68 611C70.9582 611.25 70.9582 611.25 74 611C74.7425 610.959 75.485 610.917 76.25 610.875C78.3699 610.055 78.3699 610.055 79.25 606.937C79.4975 605.968 79.745 604.999 80 604C83.63 604 87.26 604 91 604C90.6029 609.427 88.9502 613.292 85 617C80.936 619.336 77.0896 621.129 72.3438 620.836C69.4217 619.794 68.8952 618.846 67.5 616.125C63.6704 609.494 58.0107 608.154 51 606C50.4859 599.146 50.1319 593.368 54.4102 587.691C61.8109 579.818 72.6038 578.177 82.625 582.625Z" fill="#C9C9C9"/>
<path d="M161 581C173.21 581 185.42 581 198 581C198 583.97 198 586.94 198 590C193.71 590 189.42 590 185 590C185 599.9 185 609.8 185 620C181.37 620 177.74 620 174 620C174 610.1 174 600.2 174 590C169.71 590 165.42 590 161 590C161 587.03 161 584.06 161 581Z" fill="#C9C9C9"/>
<path d="M357 581C359.97 581 362.94 581 366 581C366 593.54 366 606.08 366 619C363.03 619 360.06 619 357 619C356.505 612.565 356.505 612.565 356 606C341.15 605.505 341.15 605.505 326 605C326 601.7 326 598.4 326 595C340.85 594.505 340.85 594.505 356 594C356.33 589.71 356.66 585.42 357 581Z" fill="#C9C9C9"/>
<path d="M188 291C203.84 291 219.68 291 236 291C236 295.29 236 299.58 236 304C220.16 304 204.32 304 188 304C188 299.71 188 295.42 188 291Z" fill="#CACACA"/>
<path d="M215.438 631.312C220.685 634.768 220.685 634.768 221.688 638.687C221.791 639.451 221.894 640.214 222 641C216.712 642.058 216.712 642.058 214 642C212.626 640.709 211.291 639.374 210 638C206.299 637.481 204.093 637.214 201 639.437C199.501 643.278 199.801 647.068 201 651C204.469 653.313 205.922 653.425 210 653C211.879 651.625 211.879 651.625 213 650C210.69 650 208.38 650 206 650C206 648.35 206 646.7 206 645C211.28 645 216.56 645 222 645C222 649.95 222 654.9 222 660C220.02 660 218.04 660 216 660C216 659.01 216 658.02 216 657C215.402 657.495 214.804 657.99 214.188 658.5C209.475 660.718 205.123 660.669 200 660C196.18 658.227 194.517 656.74 192.125 653.312C190.26 647.822 190.228 643.153 192.188 637.687C197.69 629.529 206.509 627.903 215.438 631.312Z" fill="#C9C9C9"/>
<path d="M136 581C139.3 581 142.6 581 146 581C146 590.9 146 600.8 146 611C153.59 611 161.18 611 169 611C169 613.97 169 616.94 169 620C158.11 620 147.22 620 136 620C136 607.13 136 594.26 136 581Z" fill="#C9C9C9"/>
<path d="M36 281C52.17 281 68.34 281 85 281C85 284.96 85 288.92 85 293C68.83 293 52.66 293 36 293C36 289.04 36 285.08 36 281Z" fill="#CACACA"/>
<path d="M257 631C260.3 631 263.6 631 267 631C269.543 633.989 270.965 636.077 272.625 639.5C273.273 640.716 273.273 640.716 273.934 641.957C274.99 643.953 276 645.975 277 648C277.33 642.39 277.66 636.78 278 631C280.31 631 282.62 631 285 631C285 640.57 285 650.14 285 660C276 660 276 660 273.969 658.439C273.555 657.727 273.141 657.015 272.715 656.281C272.248 655.514 271.78 654.747 271.299 653.957C270.85 653.146 270.4 652.335 269.938 651.5C269.453 650.689 268.969 649.878 268.471 649.043C267.284 647.046 266.138 645.025 265 643C264.67 648.61 264.34 654.22 264 660C261.69 660 259.38 660 257 660C257 650.43 257 640.86 257 631Z" fill="#C9C9C9"/>
<path d="M226 631C234.58 631 243.16 631 252 631C252 632.98 252 634.96 252 637C246.06 637 240.12 637 234 637C234 638.65 234 640.3 234 642C238.95 642 243.9 642 249 642C249 643.98 249 645.96 249 648C244.05 648 239.1 648 234 648C234 649.65 234 651.3 234 653C239.94 653 245.88 653 252 653C252 655.31 252 657.62 252 660C243.42 660 234.84 660 226 660C226 650.43 226 640.86 226 631Z" fill="#CACACA"/>
<path d="M212 751C220.415 750.451 228.408 752.607 235 758C241.008 764.177 242.276 768.325 242.234 776.969C241.928 780.933 240.891 783.534 239 787C235.597 785.941 232.986 784.991 230 783C229.876 781.866 229.752 780.731 229.625 779.562C229.419 778.387 229.213 777.211 229 776C226.608 774.265 226.608 774.265 224 773C223.333 771.667 222.667 770.333 222 769C221.175 768.608 220.35 768.216 219.5 767.812C216.116 765.359 216.145 763.279 215.469 759.297C214.843 756.231 213.529 753.711 212 751Z" fill="#C8C8C8"/>
<path d="M247 309C261.19 309 275.38 309 290 309C290 312.96 290 316.92 290 321C275.81 321 261.62 321 247 321C247 317.04 247 313.08 247 309Z" fill="#CACACA"/>
<path d="M109 631C112.209 630.892 115.415 630.813 118.625 630.75C119.98 630.7 119.98 630.7 121.363 630.648C127.282 630.562 130.468 631.114 135 635C138.406 638.86 138.461 642.62 138.277 647.566C137.882 651.038 137.081 653.181 135 656C129.222 660.574 124.187 660.468 117 660C113.958 654.772 112.494 651.073 113 645C111.68 645 110.36 645 109 645C109 640.38 109 635.76 109 631ZM117 637C117 642.61 117 648.22 117 654C118.588 653.918 120.176 653.835 121.812 653.75C122.706 653.704 123.599 653.657 124.52 653.609C127.11 653.2 127.11 653.2 128.797 651.203C130.675 647.764 130.672 644.814 130 641C128.731 638.314 128.731 638.314 126 637C122.918 636.682 120.115 636.817 117 637Z" fill="#C9C9C9"/>
<path d="M288 631C297.24 631 306.48 631 316 631C316 632.98 316 634.96 316 637C312.7 637 309.4 637 306 637C306 644.59 306 652.18 306 660C303.36 660 300.72 660 298 660C298 652.41 298 644.82 298 637C294.7 637 291.4 637 288 637C288 635.02 288 633.04 288 631Z" fill="#CACACA"/>
<path d="M154 631C156.31 631 158.62 631 161 631C161 638.26 161 645.52 161 653C166.61 653 172.22 653 178 653C178 655.31 178 657.62 178 660C170.08 660 162.16 660 154 660C154 650.43 154 640.86 154 631Z" fill="#CACACA"/>
<path d="M195 20C197.64 20 200.28 20 203 20C204.98 23.63 206.96 27.26 209 31C209.33 27.37 209.66 23.74 210 20C211.65 20 213.3 20 215 20C215 26.27 215 32.54 215 39C212.69 39 210.38 39 208 39C205.785 36.5938 205.785 36.5938 204.062 33.5C203.476 32.4791 202.889 31.4581 202.285 30.4062C201.861 29.6122 201.437 28.8181 201 28C200.67 31.63 200.34 35.26 200 39C198.35 39 196.7 39 195 39C195 32.73 195 26.46 195 20Z" fill="#C9C9C9"/>
<path d="M218 20C225 20 225 20 226.996 21.9688C227.472 22.8041 227.947 23.6394 228.438 24.5C228.931 25.3353 229.425 26.1706 229.934 27.0312C230.286 27.6809 230.637 28.3306 231 29C231.33 26.03 231.66 23.06 232 20C233.65 20 235.3 20 237 20C237 26.27 237 32.54 237 39C234.69 39 232.38 39 230 39C228.004 36.8125 228.004 36.8125 226.562 34C226.069 33.0719 225.575 32.1438 225.066 31.1875C224.714 30.4656 224.363 29.7437 224 29C223.67 32.3 223.34 35.6 223 39C221.35 39 219.7 39 218 39C218 32.73 218 26.46 218 20Z" fill="#C9C9C9"/>
<path d="M253.125 19.4336C256.62 20.1222 257.791 21.2645 260 24C261.575 27.1491 261.348 29.5201 261 33C259.11 36.19 257.675 38.3843 254.098 39.6992C249.292 40.5571 246.128 39.7522 242 37C239.29 32.9348 239.382 29.7654 240 25C242.529 18.803 247.184 19.441 253.125 19.4336ZM247 24C244.845 27.2325 244.531 28.2515 245 32C246 34 246 34 248 35C251.833 34.8591 251.833 34.8591 255 33C255.25 29.5418 255.25 29.5418 255 26C253.113 23.6934 253.113 23.6934 250 23.6875C249.01 23.7906 248.02 23.8937 247 24Z" fill="#C8C9C9"/>
<path d="M349 20C354.61 20 360.22 20 366 20C366 21.32 366 22.64 366 24C362.04 24 358.08 24 354 24C354 24.99 354 25.98 354 27C357.3 27 360.6 27 364 27C364 28.65 364 30.3 364 32C360.7 32 357.4 32 354 32C354 32.99 354 33.98 354 35C357.96 35 361.92 35 366 35C366 36.32 366 37.64 366 39C360.39 39 354.78 39 349 39C349 32.73 349 26.46 349 20Z" fill="#C9C9C9"/>
<path d="M286 20C288.64 20 291.28 20 294 20C296.948 26.1948 299.178 32.3876 301 39C299.02 39 297.04 39 295 39C294.67 38.34 294.34 37.68 294 37C292.105 36.5348 292.105 36.5348 289.938 36.375C288.638 36.2512 287.339 36.1275 286 36C285.67 36.99 285.34 37.98 285 39C283.35 39 281.7 39 280 39C280.609 34.3958 281.847 30.4352 283.562 26.125C284.245 24.3964 284.245 24.3964 284.941 22.6328C285.291 21.764 285.64 20.8952 286 20ZM290 25C289.34 26.98 288.68 28.96 288 31C289.32 31 290.64 31 292 31C291.67 29.02 291.34 27.04 291 25C290.67 25 290.34 25 290 25Z" fill="#C9C9C9"/>
<path d="M180 631C182.64 631 185.28 631 188 631C188 640.57 188 650.14 188 660C185.36 660 182.72 660 180 660C180 650.43 180 640.86 180 631Z" fill="#CACACA"/>
<path d="M141 631C143.64 631 146.28 631 149 631C149 640.57 149 650.14 149 660C146.36 660 143.72 660 141 660C141 650.43 141 640.86 141 631Z" fill="#CACACA"/>
<path d="M261 20C262.98 20 264.96 20 267 20C268.32 23.96 269.64 27.92 271 32C272.65 28.04 274.3 24.08 276 20C277.98 20 279.96 20 282 20C281.022 22.7922 280.043 25.5838 279.062 28.375C278.785 29.1691 278.507 29.9631 278.221 30.7812C277.953 31.5418 277.686 32.3023 277.41 33.0859C277.164 33.7877 276.918 34.4894 276.664 35.2124C276 37 276 37 275 39C272.36 39 269.72 39 267 39C265.996 36.2096 264.997 33.4179 264 30.625C263.571 29.4339 263.571 29.4339 263.133 28.2188C262.862 27.4582 262.591 26.6977 262.312 25.9141C262.061 25.2123 261.81 24.5106 261.551 23.7876C261 22 261 22 261 20Z" fill="#C9C9C9"/>
<path d="M327 20C328.65 20 330.3 20 332 20C332.673 21.6015 333.338 23.2063 334 24.8125C334.371 25.7058 334.743 26.5991 335.125 27.5195C336 30 336 30 336 33C336.66 33 337.32 33 338 33C338.121 32.3967 338.242 31.7934 338.367 31.1719C338.535 30.3727 338.702 29.5734 338.875 28.75C339.037 27.9611 339.2 27.1722 339.367 26.3594C339.992 24.0317 340.848 22.1097 342 20C343.65 20 345.3 20 347 20C346.391 24.6042 345.153 28.5648 343.438 32.875C342.982 34.0274 342.527 35.1798 342.059 36.3672C341.709 37.236 341.36 38.1048 341 39C338.36 39 335.72 39 333 39C331.994 36.398 330.995 33.7937 330 31.1875C329.571 30.0805 329.571 30.0805 329.133 28.9512C328.862 28.239 328.591 27.5268 328.312 26.793C328.061 26.1384 327.81 25.4838 327.551 24.8093C327 23 327 23 327 20Z" fill="#C9C9C9"/>
<path d="M299 20C305.27 20 311.54 20 318 20C318 21.32 318 22.64 318 24C315.69 24 313.38 24 311 24C311 28.95 311 33.9 311 39C309.35 39 307.7 39 306 39C306 34.05 306 29.1 306 24C303.69 24 301.38 24 299 24C299 22.68 299 21.36 299 20Z" fill="#CACACA"/>
<path d="M320 20C321.65 20 323.3 20 325 20C325 26.27 325 32.54 325 39C323.35 39 321.7 39 320 39C320 32.73 320 26.46 320 20Z" fill="#CACACA"/>
<path d="M187 20C188.65 20 190.3 20 192 20C192 26.27 192 32.54 192 39C190.35 39 188.7 39 187 39C187 32.73 187 26.46 187 20Z" fill="#CACACA"/>
</svg>
