<svg width="21" height="21" viewBox="0 0 21 21" fill="none" xmlns="http://www.w3.org/2000/svg">
<path fill-rule="evenodd" clip-rule="evenodd" d="M18.901 4.20028C15.7467 7.05488 13.3548 10.7362 12.0668 14.9024C11.8489 15.0957 11.4028 15.4135 10.7717 15.3909C10.2021 15.3706 9.80655 15.0819 9.62904 14.9334C9.4343 14.7706 9.28282 14.5883 9.1972 14.4825C9.12132 14.3887 9.09187 14.3503 9.06889 14.3202L9.06882 14.3201C9.04765 14.2925 9.03194 14.272 8.99045 14.222C8.73642 14.0321 8.53748 13.8217 8.42492 13.7026L8.4248 13.7025L8.40301 13.6795C8.33 13.6025 8.28788 13.5586 8.24884 13.5215C8.21597 13.4903 8.20152 13.4798 8.20071 13.4792L8.20081 13.4793C8.01131 13.3486 7.82236 13.2071 7.66257 13.0874L7.66247 13.0874L7.55888 13.0099C7.36573 12.866 7.21182 12.7555 7.06661 12.6656C6.78493 12.4914 6.62955 12.4552 6.50961 12.4552C5.68118 12.4552 5.00961 11.7836 5.00961 10.9552C5.00961 10.1267 5.68118 9.45515 6.50961 9.45515C7.40025 9.45515 8.11068 9.78387 8.64495 10.1144C8.90772 10.277 9.14933 10.4538 9.35109 10.6041L9.48151 10.7015L9.4816 10.7016L9.4819 10.7018C9.63725 10.818 9.76738 10.9154 9.904 11.0096C10.1927 11.2087 10.4202 11.4465 10.5478 11.5813C10.6507 11.3125 10.7486 11.0381 10.8401 10.7802L10.8692 10.6981C10.9695 10.4148 11.0884 10.079 11.1863 9.8704C11.5738 9.04444 12.0817 8.36276 12.5737 7.77634C12.8113 7.49314 13.056 7.21971 13.2831 6.966L13.2833 6.96578L13.3039 6.94284C13.5423 6.67647 13.7622 6.43026 13.9715 6.17958C15.0661 4.86851 16.479 3.86701 17.8996 3.05046C16.0015 1.16498 13.3868 0 10.5 0C4.70101 0 0 4.70101 0 10.5C0 16.299 4.70101 21 10.5 21C16.299 21 21 16.299 21 10.5C21 8.13635 20.219 5.95512 18.901 4.20028ZM8.95961 14.1866C8.95958 14.1865 8.96165 14.1885 8.96591 14.1933C8.96178 14.1891 8.95965 14.1867 8.95961 14.1866Z" fill="#DCA413"/>
</svg>
