<svg width="79" height="79" viewBox="0 0 79 79" fill="none" xmlns="http://www.w3.org/2000/svg">
<path fill-rule="evenodd" clip-rule="evenodd" d="M39.5 79C61.3152 79 79 61.3152 79 39.5C79 31.4683 76.6029 23.9965 72.485 17.761C59.0149 29.445 48.4796 44.4233 42.133 61.4424C36.2961 51.4603 27.3753 44.1942 17 41.5713C18.3203 39.4284 20.6883 38 23.3899 38C23.6396 38 24.0576 37.9893 24.5692 37.9762H24.5693H24.5694H24.5695H24.5696H24.5697L24.5699 37.9762C25.6298 37.9491 27.0915 37.9118 28.2938 37.9377L31.9856 39.3422C32.0185 39.3547 32.0515 39.3667 32.0845 39.3781L36 43C37.2163 44.1251 39.1143 44.0511 40.2394 42.8348C40.2812 42.7897 40.3213 42.7436 40.3597 42.6967C40.4289 42.7654 40.4969 42.8342 40.5637 42.903C40.8001 42.3784 41.0567 41.8564 41.3337 41.3577C41.8911 40.3543 42.4092 39.3293 43.006 38.1485L43.006 38.1485L43.1833 37.7977L55.9236 22.621C56.7166 22.156 57.7178 21.4123 59.0713 20.2938C59.5083 19.9327 60.0639 19.4615 60.6694 18.9479L60.67 18.9475L60.6701 18.9473C61.6858 18.0859 62.8416 17.1056 63.8127 16.3269C65.1108 15.2859 66.7583 14.0178 68.6929 12.8909C61.4691 4.97011 51.065 0 39.5 0C17.6848 0 0 17.6848 0 39.5C0 61.3152 17.6848 79 39.5 79Z" fill="#DCA413"/>
</svg>
