<svg width="530" height="530" viewBox="0 0 530 530" fill="none" xmlns="http://www.w3.org/2000/svg">
<path fill-rule="evenodd" clip-rule="evenodd" d="M265 530C411.355 530 530 411.355 530 265C530 118.645 411.355 0 265 0C118.645 0 0 118.645 0 265C0 411.355 118.645 530 265 530ZM265.5 518C405.504 518 519 404.504 519 264.5C519 124.496 405.504 11 265.5 11C125.496 11 12 124.496 12 264.5C12 404.504 125.496 518 265.5 518Z" fill="#DCA413"/>
<path fill-rule="evenodd" clip-rule="evenodd" d="M265.5 242.494C311.616 242.494 349 267.947 349 299.345H182C182 267.947 219.384 242.494 265.5 242.494ZM266.5 249C304.694 249 335.656 270.081 335.656 296.085H197.344C197.344 270.081 228.306 249 266.5 249Z" fill="#DCA413"/>
<path fill-rule="evenodd" clip-rule="evenodd" d="M266 237C293.062 237 315 216.181 315 190.5C315 164.819 293.062 144 266 144C238.938 144 217 164.819 217 190.5C217 216.181 238.938 237 266 237ZM266 230C289.196 230 308 212.315 308 190.5C308 168.685 289.196 151 266 151C242.804 151 224 168.685 224 190.5C224 212.315 242.804 230 266 230Z" fill="#DCA413"/>
<path fill-rule="evenodd" clip-rule="evenodd" d="M98.5 272.494C144.616 272.494 182 297.947 182 329.345H15C15 297.947 52.3842 272.494 98.5 272.494ZM99.5 279C137.694 279 168.656 300.081 168.656 326.085H30.3438C30.3438 300.081 61.3061 279 99.5 279Z" fill="#DCA413"/>
<path fill-rule="evenodd" clip-rule="evenodd" d="M99 267C126.062 267 148 246.181 148 220.5C148 194.819 126.062 174 99 174C71.938 174 50 194.819 50 220.5C50 246.181 71.938 267 99 267ZM99 260C122.196 260 141 242.315 141 220.5C141 198.685 122.196 181 99 181C75.804 181 57 198.685 57 220.5C57 242.315 75.804 260 99 260Z" fill="#DCA413"/>
<path fill-rule="evenodd" clip-rule="evenodd" d="M432.5 272.494C478.616 272.494 516 297.947 516 329.345H349C349 297.947 386.384 272.494 432.5 272.494ZM433.5 279C471.694 279 502.656 300.081 502.656 326.085H364.344C364.344 300.081 395.306 279 433.5 279Z" fill="#DCA413"/>
<path fill-rule="evenodd" clip-rule="evenodd" d="M433 267C460.062 267 482 246.181 482 220.5C482 194.819 460.062 174 433 174C405.938 174 384 194.819 384 220.5C384 246.181 405.938 267 433 267ZM433 260C456.196 260 475 242.315 475 220.5C475 198.685 456.196 181 433 181C409.804 181 391 198.685 391 220.5C391 242.315 409.804 260 433 260Z" fill="#DCA413"/>
</svg>
