<svg width="530" height="530" viewBox="0 0 530 530" fill="none" xmlns="http://www.w3.org/2000/svg">
<path fill-rule="evenodd" clip-rule="evenodd" d="M265 530C411.355 530 530 411.355 530 265C530 118.645 411.355 0 265 0C118.645 0 0 118.645 0 265C0 411.355 118.645 530 265 530ZM265.5 518C405.504 518 519 404.504 519 264.5C519 124.496 405.504 11 265.5 11C125.496 11 12 124.496 12 264.5C12 404.504 125.496 518 265.5 518Z" fill="#DCA413"/>
<path d="M329.003 373C330.659 372.999 332.001 371.654 332 369.997C331.999 368.341 330.654 366.999 328.998 367L329.003 373ZM29.0025 373.25L329.003 373L328.998 367L28.9975 367.25L29.0025 373.25Z" fill="#DCA413"/>
<path d="M501 373C502.657 373 504 371.657 504 370C504 368.343 502.657 367 501 367V373ZM366 373L501 373V367L366 367V373Z" fill="#DCA413"/>
<path fill-rule="evenodd" clip-rule="evenodd" d="M177 254C207.376 254 232 229.376 232 199C232 168.624 207.376 144 177 144C146.624 144 122 168.624 122 199C122 229.376 146.624 254 177 254ZM177.5 244C202.077 244 222 224.077 222 199.5C222 174.923 202.077 155 177.5 155C152.923 155 133 174.923 133 199.5C133 224.077 152.923 244 177.5 244Z" fill="#DCA413"/>
<path d="M244.146 136.121C245.318 134.95 245.318 133.05 244.146 131.879C242.975 130.707 241.075 130.707 239.904 131.879L244.146 136.121ZM224.121 156.146L244.146 136.121L239.904 131.879L219.879 151.904L224.121 156.146Z" fill="#DCA413"/>
<path d="M134.146 246.121C135.318 244.95 135.318 243.05 134.146 241.879C132.975 240.707 131.075 240.707 129.904 241.879L134.146 246.121ZM114.121 266.146L134.146 246.121L129.904 241.879L109.879 261.904L114.121 266.146Z" fill="#DCA413"/>
<path d="M239.904 266.146C241.075 267.318 242.975 267.318 244.146 266.146C245.318 264.975 245.318 263.075 244.146 261.904L239.904 266.146ZM219.879 246.121L239.904 266.146L244.146 261.904L224.121 241.879L219.879 246.121Z" fill="#DCA413"/>
<path d="M270.32 202C271.976 202 273.32 200.657 273.32 199C273.32 197.343 271.976 196 270.32 196V202ZM242 202H270.32V196H242V202Z" fill="#DCA413"/>
<path d="M112.32 202C113.976 202 115.32 200.657 115.32 199C115.32 197.343 113.976 196 112.32 196V202ZM84 202H112.32V196H84V202Z" fill="#DCA413"/>
<path d="M180 106C180 104.343 178.657 103 177 103C175.343 103 174 104.343 174 106H180ZM180 134.32V106H174V134.32H180Z" fill="#DCA413"/>
<path d="M180 264C180 262.343 178.657 261 177 261C175.343 261 174 262.343 174 264H180ZM180 292.32V264H174V292.32H180Z" fill="#DCA413"/>
<path d="M129.904 156.146C131.075 157.318 132.975 157.318 134.146 156.146C135.318 154.975 135.318 153.075 134.146 151.904L129.904 156.146ZM109.879 136.121L129.904 156.146L134.146 151.904L114.121 131.879L109.879 136.121Z" fill="#DCA413"/>
<path d="M431 185C431 183.343 429.657 182 428 182C426.343 182 425 183.343 425 185H431ZM431 213.32V185H425V213.32H431Z" fill="#DCA413"/>
<path d="M398 185C398 183.343 396.657 182 395 182C393.343 182 392 183.343 392 185H398ZM398 213.32V185H392V213.32H398Z" fill="#DCA413"/>
<path d="M364 185C364 183.343 362.657 182 361 182C359.343 182 358 183.343 358 185H364ZM364 213.32V185H358V213.32H364Z" fill="#DCA413"/>
<path d="M332 185C332 183.343 330.657 182 329 182C327.343 182 326 183.343 326 185H332ZM332 213.32V185H326V213.32H332Z" fill="#DCA413"/>
<path d="M299 185C299 183.343 297.657 182 296 182C294.343 182 293 183.343 293 185H299ZM299 213.32V185H293V213.32H299Z" fill="#DCA413"/>
<path fill-rule="evenodd" clip-rule="evenodd" d="M436.218 135.299C435.495 117.369 418.851 103.03 398.424 103.03C396.809 103.03 395.217 103.12 393.655 103.294C386.726 96.3668 376.606 92 365.333 92C353.707 92 343.307 96.6449 336.369 103.953C333.529 103.35 330.564 103.03 327.515 103.03C307.962 103.03 291.875 116.169 289.901 133.02C278.052 138.674 270 149.762 270 162.515C270 165.088 270.328 167.593 270.948 170H451.052C451.672 167.593 452 165.088 452 162.515C452 151.302 445.775 141.376 436.218 135.299ZM427.134 134.423C426.503 118.769 411.971 106.25 394.137 106.25C392.726 106.25 391.337 106.328 389.973 106.48C383.924 100.432 375.087 96.6193 365.245 96.6193C355.095 96.6193 346.014 100.675 339.957 107.055C337.477 106.529 334.889 106.25 332.226 106.25C315.155 106.25 301.109 117.721 299.385 132.433C289.04 137.37 282.01 147.051 282.01 158.186C282.01 160.432 282.296 162.62 282.838 164.721H440.086C440.628 162.62 440.914 160.432 440.914 158.186C440.914 148.396 435.479 139.729 427.134 134.423Z" fill="#DCA413"/>
<path fill-rule="evenodd" clip-rule="evenodd" d="M349 219C364.585 219 377.791 229.186 382.323 243.264C397.777 245.168 410.113 257.146 412.559 272.426C420.741 278.832 426 288.802 426 300C426 319.33 410.33 335 391 335C386.426 335 382.056 334.122 378.051 332.527C374.97 337.101 370.838 340.908 366 343.601V396H363.692V340.627C367.91 338.279 371.513 334.96 374.198 330.972C377.69 332.363 381.499 333.128 385.487 333.128C402.339 333.128 416 319.467 416 302.615C416 292.853 411.415 284.162 404.282 278.576C402.15 265.255 391.396 254.813 377.922 253.154C373.971 240.88 362.459 232 348.872 232C338.116 232 328.66 237.565 323.226 245.973C307.063 246.617 294.133 259.834 293.951 276.113C285.555 281.549 280 290.997 280 301.744C280 318.595 293.661 332.256 310.513 332.256C314.86 332.256 318.996 331.347 322.739 329.708C325.316 333.973 328.908 337.556 333.179 340.122V396H331V343.023C326.1 340.079 321.98 335.969 319.024 331.077C314.73 332.957 309.987 334 305 334C285.67 334 270 318.33 270 299C270 286.673 276.372 275.835 286.002 269.6C286.211 250.928 301.042 235.766 319.583 235.028C325.816 225.384 336.662 219 349 219Z" fill="#DCA413"/>
</svg>
