<svg width="530" height="530" viewBox="0 0 530 530" fill="none" xmlns="http://www.w3.org/2000/svg">
<path fill-rule="evenodd" clip-rule="evenodd" d="M265 530C411.355 530 530 411.355 530 265C530 118.645 411.355 0 265 0C118.645 0 0 118.645 0 265C0 411.355 118.645 530 265 530ZM265.5 518C405.504 518 519 404.504 519 264.5C519 124.496 405.504 11 265.5 11C125.496 11 12 124.496 12 264.5C12 404.504 125.496 518 265.5 518Z" fill="#DCA413"/>
<path d="M265.5 80L427.88 155.75H103.12L265.5 80Z" fill="#DCA413"/>
<rect x="100" y="158" width="331" height="23" fill="#DCA413"/>
<rect x="116" y="181" width="299" height="24" fill="#DCA413"/>
<rect x="116" y="353" width="299" height="24" fill="#DCA413"/>
<rect x="100" y="377" width="331" height="24" fill="#DCA413"/>
<rect x="237" y="210" width="57" height="19" fill="#DCA413"/>
<rect x="237" y="329" width="57" height="19" fill="#DCA413"/>
<rect x="246" y="229" width="39" height="100" fill="#DCA413"/>
<rect x="351" y="210" width="57" height="19" fill="#DCA413"/>
<rect x="351" y="329" width="57" height="19" fill="#DCA413"/>
<rect x="360" y="229" width="39" height="100" fill="#DCA413"/>
<rect x="123" y="210" width="57" height="19" fill="#DCA413"/>
<rect x="123" y="329" width="57" height="19" fill="#DCA413"/>
<rect x="132" y="229" width="39" height="100" fill="#DCA413"/>
</svg>
