<svg width="2757" height="237" viewBox="0 0 2757 237" fill="none" xmlns="http://www.w3.org/2000/svg">
<path fill-rule="evenodd" clip-rule="evenodd" d="M148.5 67C167.002 67 182 52.0015 182 33.5C182 14.9985 167.002 0 148.5 0C129.998 0 115 14.9985 115 33.5C115 52.0015 129.998 67 148.5 67ZM148.5 58.0667C162.068 58.0667 173.067 47.0678 173.067 33.5C173.067 19.9322 162.068 8.93334 148.5 8.93334C134.932 8.93334 123.933 19.9322 123.933 33.5C123.933 47.0678 134.932 58.0667 148.5 58.0667ZM90 42.5C90 59.3447 76.3447 73 59.5 73C42.6553 73 29 59.3447 29 42.5C29 25.6553 42.6553 12 59.5 12C76.3447 12 90 25.6553 90 42.5ZM81.8667 42.5C81.8667 54.8528 71.8528 64.8667 59.5 64.8667C47.1472 64.8667 37.1333 54.8528 37.1333 42.5C37.1333 30.1472 47.1472 20.1333 59.5 20.1333C71.8528 20.1333 81.8667 30.1472 81.8667 42.5ZM268 42.5C268 59.3447 254.345 73 237.5 73C220.655 73 207 59.3447 207 42.5C207 25.6553 220.655 12 237.5 12C254.345 12 268 25.6553 268 42.5ZM259.867 42.5C259.867 54.8528 249.853 64.8667 237.5 64.8667C225.147 64.8667 215.133 54.8528 215.133 42.5C215.133 30.1472 225.147 20.1333 237.5 20.1333C249.853 20.1333 259.867 30.1472 259.867 42.5ZM192.997 104.413L192.937 103.875L190.661 104.133C190.331 102.271 189.767 100.49 189 98.8221V97H188.057C184.253 90.4242 177.143 86 169 86C163.604 86 158.663 87.9424 154.835 91.166C154.956 91.343 155.074 91.5213 155.19 91.701C153.559 92.7503 152.138 94.0678 151 95.5859C148.862 92.7332 145.724 90.5888 142.066 89.6012C138.602 87.3245 134.456 86 130 86C121.857 86 114.747 90.4242 110.943 97H110V98.8221C108.716 101.616 108 104.724 108 108C108 108.763 108.039 109.516 108.115 110.259C105.554 112.99 104 116.574 104 120.5C104 122.155 104.276 123.749 104.787 125.245L101.961 141.849L110.877 142.55C113.63 142.766 115.686 145.173 115.47 147.926C115.445 148.249 115.389 148.563 115.306 148.864C115.383 149.126 115.439 149.397 115.473 149.677L123.714 218H173.254L181.605 148.766C181.605 148.766 181.605 148.766 181.605 148.766C181.635 148.522 181.682 148.283 181.744 148.052C181.753 148.019 181.763 147.986 181.772 147.953C181.689 147.652 181.634 147.339 181.608 147.015C181.392 144.262 183.448 141.855 186.201 141.639L195.117 140.939L194.228 135.712L189.839 109.929C189.431 107.531 190.803 105.241 192.997 104.413ZM175.587 228C175.624 228.017 175.662 228.033 175.7 228.049C176.117 228.224 176.565 228.344 177.036 228.401C177.207 228.422 177.378 228.434 177.547 228.437C180.08 228.485 182.289 226.606 182.599 224.036L191.377 151.263L198.805 150.68C198.921 150.739 199.04 150.795 199.161 150.845C200.006 151.2 200.959 151.326 201.929 151.161C203.06 150.968 204.037 150.41 204.76 149.628C206.27 148.667 207.213 146.924 207.063 145.015C207.056 144.931 207.047 144.847 207.037 144.764C206.898 143.686 206.42 142.725 205.721 141.982C205.614 141.868 205.501 141.759 205.383 141.655L199.697 108.251C199.578 107.553 199.32 106.913 198.956 106.356C198.102 90.5519 185.017 78 169 78C161.555 78 154.744 80.7117 149.5 85.2012C144.256 80.7117 137.445 78 130 78C114.268 78 101.365 90.1089 100.102 105.515C98.7128 106.2 97.6609 107.519 97.3812 109.162L91.6954 142.566C90.754 143.395 90.1217 144.577 90.0156 145.926C89.8657 147.835 90.8083 149.577 92.3183 150.539C93.0411 151.321 94.0183 151.879 95.1493 152.072C96.2584 152.26 97.3444 152.068 98.2732 151.59L105.702 152.174L114.48 224.947C114.81 227.688 117.301 229.643 120.042 229.312C121.139 229.18 122.11 228.702 122.859 228H175.587ZM87.7073 188.084L83.2544 225H33.7142L25.4729 156.677C25.4392 156.397 25.383 156.126 25.3063 155.864C25.3891 155.563 25.4446 155.249 25.47 154.926C25.6863 152.173 23.63 149.766 20.877 149.55L11.9612 148.849L14.7875 132.245C14.2761 130.749 14 129.155 14 127.5C14 123.574 15.5535 119.99 18.1145 117.259C18.0388 116.516 18 115.763 18 115C18 111.724 18.716 108.616 20 105.822V104H20.9432C24.7471 97.4242 31.8569 93 40 93C44.4555 93 48.6016 94.3245 52.0662 96.6012C55.7244 97.5888 58.8615 99.7332 61 102.586C62.138 101.068 63.5588 99.7503 65.1904 98.701C65.0739 98.5213 64.9555 98.343 64.8353 98.166C68.6625 94.9424 73.6044 93 79 93C82.1268 93 85.1013 93.6523 87.7948 94.8283C89.9239 92.6917 92.2067 90.8607 94.6138 89.3784C90.0654 86.6006 84.7196 85 79 85C71.5554 85 64.7441 87.7117 59.5 92.2012C54.2559 87.7117 47.4446 85 40 85C24.2683 85 11.3648 97.1089 10.1015 112.515C8.71277 113.2 7.66088 114.519 7.38117 116.162L1.69541 149.566C0.753984 150.395 0.121637 151.577 0.0156151 152.926C-0.134371 154.835 0.808321 156.577 2.31828 157.539C3.04102 158.321 4.01824 158.879 5.14927 159.072C6.25842 159.26 7.34436 159.068 8.27322 158.59L15.7016 159.174L24.4796 231.947C24.8103 234.688 27.3008 236.643 30.0424 236.312C31.1393 236.18 32.1102 235.702 32.8591 235H85.5868C86.0356 235.201 86.5219 235.339 87.036 235.401C89.7775 235.732 92.2681 233.778 92.5988 231.036L96.9537 194.932C93.6442 193.259 90.539 190.942 87.7073 188.084ZM417.8 100.7V157H428.4L427.8 105.3H428L441.3 157H456.3L469.8 105.3H469.9L469.2 157H479.8V100.7H462.1L449 152.6H448.8L435.6 100.7H417.8ZM491.138 152.2C493.537 156.067 497.571 158 503.237 158C506.304 158 508.771 157.5 510.638 156.5C512.571 155.433 514.004 154.3 514.937 153.1C515.937 151.833 516.537 150.9 516.737 150.3H516.937L518.638 157H527.437V115.9H516.937V124.1H516.737C516.537 123.433 515.971 122.433 515.037 121.1C514.104 119.767 512.704 118.567 510.837 117.5C508.971 116.367 506.437 115.8 503.237 115.8C497.638 115.8 493.604 117.767 491.138 121.7C488.737 125.567 487.537 130.667 487.537 137C487.537 143.267 488.737 148.333 491.138 152.2ZM514.937 145.9C513.671 148.233 511.171 149.4 507.437 149.4C504.837 149.4 502.804 148.867 501.337 147.8C499.937 146.667 498.937 145.167 498.337 143.3C497.804 141.433 497.537 139.367 497.537 137.1C497.537 134.833 497.804 132.8 498.337 131C498.937 129.133 499.937 127.633 501.337 126.5C502.804 125.367 504.837 124.8 507.437 124.8C511.104 124.8 513.604 125.933 514.937 128.2C516.271 130.467 516.937 133.433 516.937 137.1C516.937 140.567 516.271 143.5 514.937 145.9ZM534.45 116.1V157H544.85V137.4C544.85 135.267 545.117 133.267 545.65 131.4C546.183 129.467 547.15 127.9 548.55 126.7C549.95 125.5 551.983 124.9 554.65 124.9C557.183 124.9 559.083 125.467 560.35 126.6C561.683 127.667 562.55 129.133 562.95 131C563.35 132.8 563.55 134.8 563.55 137V157H573.55V137.1C573.55 135.167 573.45 133 573.25 130.6C573.05 128.2 572.517 125.9 571.65 123.7C570.783 121.433 569.35 119.567 567.35 118.1C565.35 116.633 562.517 115.9 558.85 115.9C556.183 115.9 553.95 116.333 552.15 117.2C550.417 118 549.017 118.967 547.95 120.1C546.95 121.233 546.217 122.267 545.75 123.2C545.35 124.067 545.117 124.6 545.05 124.8H544.85L543.15 116.1H534.45ZM583.032 152.2C585.432 156.067 589.465 158 595.132 158C598.199 158 600.665 157.5 602.532 156.5C604.465 155.433 605.899 154.3 606.832 153.1C607.832 151.833 608.432 150.9 608.632 150.3H608.832L610.532 157H619.332V115.9H608.832V124.1H608.632C608.432 123.433 607.865 122.433 606.932 121.1C605.999 119.767 604.599 118.567 602.732 117.5C600.865 116.367 598.332 115.8 595.132 115.8C589.532 115.8 585.499 117.767 583.032 121.7C580.632 125.567 579.432 130.667 579.432 137C579.432 143.267 580.632 148.333 583.032 152.2ZM606.832 145.9C605.565 148.233 603.065 149.4 599.332 149.4C596.732 149.4 594.699 148.867 593.232 147.8C591.832 146.667 590.832 145.167 590.232 143.3C589.699 141.433 589.432 139.367 589.432 137.1C589.432 134.833 589.699 132.8 590.232 131C590.832 129.133 591.832 127.633 593.232 126.5C594.699 125.367 596.732 124.8 599.332 124.8C602.999 124.8 605.499 125.933 606.832 128.2C608.165 130.467 608.832 133.433 608.832 137.1C608.832 140.567 608.165 143.5 606.832 145.9ZM637.845 165.7V175.3H653.045C657.578 175.3 660.911 174.2 663.045 172C665.244 169.8 666.345 165.967 666.345 160.5V115.9H655.845L655.744 124.9H655.545C655.478 124.7 655.211 124.133 654.744 123.2C654.345 122.267 653.645 121.233 652.645 120.1C651.645 118.967 650.278 118 648.545 117.2C646.811 116.333 644.611 115.9 641.945 115.9C635.945 115.9 631.578 117.833 628.845 121.7C626.178 125.5 624.845 130.633 624.845 137.1C624.845 143.3 626.178 148.333 628.845 152.2C631.511 156.067 635.878 158 641.945 158C644.478 158 646.578 157.633 648.244 156.9C649.978 156.1 651.378 155.167 652.445 154.1C653.511 153.033 654.278 152.067 654.744 151.2C655.278 150.333 655.578 149.833 655.645 149.7H655.845V165.7H637.845ZM653.244 146C651.578 148.267 648.878 149.4 645.145 149.4C642.345 149.4 640.178 148.833 638.645 147.7C637.178 146.5 636.145 144.967 635.545 143.1C635.011 141.167 634.744 139.167 634.744 137.1C634.744 135.033 635.045 133.1 635.645 131.3C636.311 129.433 637.411 127.933 638.945 126.8C640.478 125.6 642.611 125 645.345 125C649.078 125 651.744 126.167 653.345 128.5C654.945 130.767 655.744 133.633 655.744 137.1C655.744 140.7 654.911 143.667 653.244 146ZM681.405 155C684.405 157 688.272 158 693.005 158C698.739 158 703.239 156.533 706.505 153.6C709.772 150.6 711.639 146.933 712.105 142.6H702.205C701.872 144.667 700.839 146.333 699.105 147.6C697.439 148.867 695.339 149.5 692.805 149.5C689.539 149.5 686.972 148.5 685.105 146.5C683.239 144.433 682.305 141.5 682.305 137.7H712.205V136.2V135.1C712.139 131.167 711.239 127.767 709.505 124.9C707.772 121.967 705.439 119.7 702.505 118.1C699.639 116.5 696.372 115.7 692.705 115.7C688.572 115.7 684.972 116.633 681.905 118.5C678.905 120.3 676.572 122.833 674.905 126.1C673.305 129.3 672.539 132.967 672.605 137.1C672.672 140.633 673.405 144 674.805 147.2C676.272 150.333 678.472 152.933 681.405 155ZM702.005 133.1H682.605C682.672 132.1 682.972 130.9 683.505 129.5C684.105 128.033 685.072 126.767 686.405 125.7C687.805 124.567 689.839 124 692.505 124C694.505 124 696.139 124.367 697.405 125.1C698.672 125.833 699.605 126.733 700.205 127.8C700.872 128.867 701.305 129.9 701.505 130.9C701.772 131.9 701.939 132.633 702.005 133.1ZM719.997 115.9V157H728.997V137.4C728.997 135.333 729.23 133.367 729.697 131.5C730.164 129.567 730.997 128 732.197 126.8C733.397 125.533 735.164 124.9 737.497 124.9C739.364 124.9 740.83 125.333 741.897 126.2C742.964 127.067 743.73 128.167 744.197 129.5C744.664 130.767 744.93 132.1 744.997 133.5C745.064 134.833 745.097 136 745.097 137V157H753.697V137.4C753.697 135.333 753.93 133.367 754.397 131.5C754.864 129.567 755.697 128 756.897 126.8C758.097 125.533 759.864 124.9 762.197 124.9C764.064 124.9 765.53 125.333 766.597 126.2C767.664 127.067 768.43 128.167 768.897 129.5C769.364 130.767 769.63 132.1 769.697 133.5C769.764 134.833 769.797 136 769.797 137V157H778.397V137.1C778.397 135.967 778.364 134.533 778.297 132.8C778.297 131 778.097 129.133 777.697 127.2C777.364 125.267 776.73 123.467 775.797 121.8C774.93 120.067 773.697 118.667 772.097 117.6C770.497 116.467 768.397 115.9 765.797 115.9C763.464 115.9 761.497 116.333 759.897 117.2C758.297 118 756.964 118.967 755.897 120.1C754.897 121.167 754.13 122.167 753.597 123.1C753.13 123.967 752.864 124.533 752.797 124.8H752.597C751.864 122.4 750.664 120.333 748.997 118.6C747.33 116.8 744.83 115.9 741.497 115.9C739.23 115.9 737.33 116.333 735.797 117.2C734.264 118 733.03 118.967 732.097 120.1C731.164 121.167 730.464 122.167 729.997 123.1C729.53 123.967 729.264 124.533 729.197 124.8H728.997L728.897 115.9H719.997ZM793.612 155C796.612 157 800.479 158 805.213 158C810.946 158 815.446 156.533 818.713 153.6C821.979 150.6 823.846 146.933 824.312 142.6H814.412C814.079 144.667 813.046 146.333 811.312 147.6C809.646 148.867 807.546 149.5 805.013 149.5C801.746 149.5 799.179 148.5 797.312 146.5C795.446 144.433 794.513 141.5 794.513 137.7H824.412V136.2V135.1C824.346 131.167 823.446 127.767 821.713 124.9C819.979 121.967 817.646 119.7 814.713 118.1C811.846 116.5 808.579 115.7 804.912 115.7C800.779 115.7 797.179 116.633 794.112 118.5C791.112 120.3 788.779 122.833 787.112 126.1C785.513 129.3 784.746 132.967 784.812 137.1C784.879 140.633 785.612 144 787.013 147.2C788.479 150.333 790.679 152.933 793.612 155ZM814.213 133.1H794.812C794.879 132.1 795.179 130.9 795.713 129.5C796.312 128.033 797.279 126.767 798.612 125.7C800.013 124.567 802.046 124 804.713 124C806.713 124 808.346 124.367 809.612 125.1C810.879 125.833 811.812 126.733 812.412 127.8C813.079 128.867 813.513 129.9 813.713 130.9C813.979 131.9 814.146 132.633 814.213 133.1ZM832.204 116.1V157H842.604V137.4C842.604 135.267 842.871 133.267 843.404 131.4C843.937 129.467 844.904 127.9 846.304 126.7C847.704 125.5 849.737 124.9 852.404 124.9C854.937 124.9 856.837 125.467 858.104 126.6C859.437 127.667 860.304 129.133 860.704 131C861.104 132.8 861.304 134.8 861.304 137V157H871.304V137.1C871.304 135.167 871.204 133 871.004 130.6C870.804 128.2 870.271 125.9 869.404 123.7C868.537 121.433 867.104 119.567 865.104 118.1C863.104 116.633 860.271 115.9 856.604 115.9C853.937 115.9 851.704 116.333 849.904 117.2C848.171 118 846.771 118.967 845.704 120.1C844.704 121.233 843.971 122.267 843.504 123.2C843.104 124.067 842.871 124.6 842.804 124.8H842.604L840.904 116.1H832.204ZM884.886 154.6C886.553 156.2 889.019 157 892.286 157H901.586V149H891.986V123.1H901.386V115.9H891.986V105.4H883.786C883.786 108.667 883.553 111.033 883.086 112.5C882.619 113.967 881.853 114.9 880.786 115.3C879.719 115.7 878.219 115.9 876.286 115.9V123.1H882.486V146.8C882.486 150.4 883.286 153 884.886 154.6ZM937.132 154.6C938.799 156.2 941.265 157 944.532 157H953.832V149H944.232V123.1H953.632V115.9H944.232V105.4H936.032C936.032 108.667 935.799 111.033 935.332 112.5C934.865 113.967 934.099 114.9 933.032 115.3C931.965 115.7 930.465 115.9 928.532 115.9V123.1H934.732V146.8C934.732 150.4 935.532 153 937.132 154.6ZM968.417 155C971.417 157 975.284 158 980.017 158C985.751 158 990.251 156.533 993.517 153.6C996.784 150.6 998.651 146.933 999.117 142.6H989.217C988.884 144.667 987.851 146.333 986.117 147.6C984.45 148.867 982.351 149.5 979.817 149.5C976.551 149.5 973.984 148.5 972.117 146.5C970.251 144.433 969.317 141.5 969.317 137.7H999.217V136.2V135.1C999.151 131.167 998.251 127.767 996.517 124.9C994.784 121.967 992.45 119.7 989.517 118.1C986.651 116.5 983.384 115.7 979.717 115.7C975.584 115.7 971.984 116.633 968.917 118.5C965.917 120.3 963.584 122.833 961.917 126.1C960.317 129.3 959.551 132.967 959.617 137.1C959.684 140.633 960.417 144 961.817 147.2C963.284 150.333 965.484 152.933 968.417 155ZM989.017 133.1H969.617C969.684 132.1 969.984 130.9 970.517 129.5C971.117 128.033 972.084 126.767 973.417 125.7C974.817 124.567 976.851 124 979.517 124C981.517 124 983.151 124.367 984.417 125.1C985.684 125.833 986.617 126.733 987.217 127.8C987.884 128.867 988.317 129.9 988.517 130.9C988.784 131.9 988.95 132.633 989.017 133.1ZM1009.01 152.2C1011.41 156.067 1015.44 158 1021.11 158C1024.18 158 1026.64 157.5 1028.51 156.5C1030.44 155.433 1031.88 154.3 1032.81 153.1C1033.81 151.833 1034.41 150.9 1034.61 150.3H1034.81L1036.51 157H1045.31V115.9H1034.81V124.1H1034.61C1034.41 123.433 1033.84 122.433 1032.91 121.1C1031.98 119.767 1030.58 118.567 1028.71 117.5C1026.84 116.367 1024.31 115.8 1021.11 115.8C1015.51 115.8 1011.48 117.767 1009.01 121.7C1006.61 125.567 1005.41 130.667 1005.41 137C1005.41 143.267 1006.61 148.333 1009.01 152.2ZM1032.81 145.9C1031.54 148.233 1029.04 149.4 1025.31 149.4C1022.71 149.4 1020.68 148.867 1019.21 147.8C1017.81 146.667 1016.81 145.167 1016.21 143.3C1015.68 141.433 1015.41 139.367 1015.41 137.1C1015.41 134.833 1015.68 132.8 1016.21 131C1016.81 129.133 1017.81 127.633 1019.21 126.5C1020.68 125.367 1022.71 124.8 1025.31 124.8C1028.98 124.8 1031.48 125.933 1032.81 128.2C1034.14 130.467 1034.81 133.433 1034.81 137.1C1034.81 140.567 1034.14 143.5 1032.81 145.9ZM1052.32 115.9V157H1061.32V137.4C1061.32 135.333 1061.55 133.367 1062.02 131.5C1062.49 129.567 1063.32 128 1064.52 126.8C1065.72 125.533 1067.49 124.9 1069.82 124.9C1071.69 124.9 1073.15 125.333 1074.22 126.2C1075.29 127.067 1076.05 128.167 1076.52 129.5C1076.99 130.767 1077.25 132.1 1077.32 133.5C1077.39 134.833 1077.42 136 1077.42 137V157H1086.02V137.4C1086.02 135.333 1086.25 133.367 1086.72 131.5C1087.19 129.567 1088.02 128 1089.22 126.8C1090.42 125.533 1092.19 124.9 1094.52 124.9C1096.39 124.9 1097.85 125.333 1098.92 126.2C1099.99 127.067 1100.75 128.167 1101.22 129.5C1101.69 130.767 1101.95 132.1 1102.02 133.5C1102.09 134.833 1102.12 136 1102.12 137V157H1110.72V137.1C1110.72 135.967 1110.69 134.533 1110.62 132.8C1110.62 131 1110.42 129.133 1110.02 127.2C1109.69 125.267 1109.05 123.467 1108.12 121.8C1107.25 120.067 1106.02 118.667 1104.42 117.6C1102.82 116.467 1100.72 115.9 1098.12 115.9C1095.79 115.9 1093.82 116.333 1092.22 117.2C1090.62 118 1089.29 118.967 1088.22 120.1C1087.22 121.167 1086.45 122.167 1085.92 123.1C1085.45 123.967 1085.19 124.533 1085.12 124.8H1084.92C1084.19 122.4 1082.99 120.333 1081.32 118.6C1079.65 116.8 1077.15 115.9 1073.82 115.9C1071.55 115.9 1069.65 116.333 1068.12 117.2C1066.59 118 1065.35 118.967 1064.42 120.1C1063.49 121.167 1062.79 122.167 1062.32 123.1C1061.85 123.967 1061.59 124.533 1061.52 124.8H1061.32L1061.22 115.9H1052.32ZM1151.61 157.1C1153.75 157.7 1155.68 158 1157.41 158C1162.61 158 1166.81 157.067 1170.01 155.2C1173.28 153.267 1174.91 150.333 1174.91 146.4C1174.91 143.8 1174.28 141.733 1173.01 140.2C1171.81 138.6 1170.21 137.333 1168.21 136.4C1166.28 135.467 1164.21 134.733 1162.01 134.2C1159.88 133.6 1157.81 133.033 1155.81 132.5C1153.88 131.967 1152.28 131.3 1151.01 130.5C1149.81 129.633 1149.21 128.433 1149.21 126.9C1149.21 125.567 1149.81 124.5 1151.01 123.7C1152.28 122.833 1154.11 122.4 1156.51 122.4C1157.85 122.4 1159.21 122.6 1160.61 123C1162.08 123.4 1163.28 124.133 1164.21 125.2C1165.21 126.2 1165.68 127.733 1165.61 129.8H1175.01C1175.01 126.2 1174.15 123.3 1172.41 121.1C1170.68 118.833 1168.38 117.2 1165.51 116.2C1162.65 115.133 1159.55 114.6 1156.21 114.6C1151.48 114.6 1147.58 115.6 1144.51 117.6C1141.45 119.533 1139.91 122.4 1139.91 126.2C1139.91 128.8 1140.51 130.933 1141.71 132.6C1142.91 134.2 1144.45 135.467 1146.31 136.4C1148.25 137.333 1150.28 138.1 1152.41 138.7C1154.61 139.233 1156.68 139.767 1158.61 140.3C1160.55 140.833 1162.11 141.533 1163.31 142.4C1164.58 143.2 1165.21 144.333 1165.21 145.8C1165.21 147.067 1164.55 148.2 1163.21 149.2C1161.88 150.133 1159.88 150.6 1157.21 150.6C1154.95 150.6 1153.21 150.233 1152.01 149.5C1150.81 148.767 1149.95 147.933 1149.41 147C1148.95 146 1148.68 145.133 1148.61 144.4C1148.55 143.6 1148.51 143.133 1148.51 143H1139.11C1139.11 145.6 1139.71 147.867 1140.91 149.8C1142.18 151.667 1143.75 153.2 1145.61 154.4C1147.55 155.6 1149.55 156.5 1151.61 157.1ZM1183.12 150.5C1184.05 152.7 1185.52 154.5 1187.52 155.9C1189.52 157.3 1192.32 158 1195.92 158C1198.38 158 1200.45 157.633 1202.12 156.9C1203.78 156.167 1205.12 155.267 1206.12 154.2C1207.18 153.133 1207.98 152.133 1208.52 151.2C1209.05 150.267 1209.38 149.6 1209.52 149.2H1209.72L1211.42 157H1220.12V115.9H1209.72L1209.62 137.2C1209.55 139.133 1209.28 141 1208.82 142.8C1208.35 144.6 1207.45 146.1 1206.12 147.3C1204.78 148.433 1202.82 149 1200.22 149C1197.55 149 1195.55 148.433 1194.22 147.3C1192.95 146.167 1192.12 144.667 1191.72 142.8C1191.32 140.933 1191.12 138.967 1191.12 136.9V115.9H1181.22V136.9C1181.22 138.9 1181.32 141.133 1181.52 143.6C1181.72 146 1182.25 148.3 1183.12 150.5ZM1246.81 156.9C1248.55 157.633 1250.68 158 1253.21 158C1259.15 158 1263.48 156.133 1266.21 152.4C1268.95 148.6 1270.31 143.533 1270.31 137.2C1270.31 130.867 1268.98 125.733 1266.31 121.8C1263.65 117.867 1259.24 115.9 1253.11 115.9C1250.51 115.9 1248.35 116.333 1246.61 117.2C1244.88 118 1243.51 118.967 1242.51 120.1C1241.58 121.233 1240.88 122.267 1240.41 123.2C1240.01 124.133 1239.78 124.7 1239.71 124.9H1239.51L1237.81 115.9H1228.91V175.3H1239.41V149.7H1239.61C1239.68 149.833 1239.95 150.333 1240.41 151.2C1240.95 152.067 1241.71 153.033 1242.71 154.1C1243.78 155.167 1245.15 156.1 1246.81 156.9ZM1256.51 147.7C1255.05 148.833 1252.91 149.4 1250.11 149.4C1246.38 149.4 1243.68 148.267 1242.01 146C1240.35 143.667 1239.51 140.7 1239.51 137.1C1239.51 133.633 1240.31 130.767 1241.91 128.5C1243.51 126.167 1246.18 125 1249.91 125C1252.65 125 1254.78 125.6 1256.31 126.8C1257.85 127.933 1258.91 129.433 1259.51 131.3C1260.18 133.1 1260.51 135.033 1260.51 137.1C1260.51 139.167 1260.21 141.167 1259.61 143.1C1259.08 144.967 1258.05 146.5 1256.51 147.7ZM1296.03 156.9C1297.76 157.633 1299.9 158 1302.43 158C1308.36 158 1312.7 156.133 1315.43 152.4C1318.16 148.6 1319.53 143.533 1319.53 137.2C1319.53 130.867 1318.2 125.733 1315.53 121.8C1312.86 117.867 1308.46 115.9 1302.33 115.9C1299.73 115.9 1297.56 116.333 1295.83 117.2C1294.1 118 1292.73 118.967 1291.73 120.1C1290.8 121.233 1290.1 122.267 1289.63 123.2C1289.23 124.133 1289 124.7 1288.93 124.9H1288.73L1287.03 115.9H1278.13V175.3H1288.63V149.7H1288.83C1288.9 149.833 1289.16 150.333 1289.63 151.2C1290.16 152.067 1290.93 153.033 1291.93 154.1C1293 155.167 1294.36 156.1 1296.03 156.9ZM1305.73 147.7C1304.26 148.833 1302.13 149.4 1299.33 149.4C1295.6 149.4 1292.9 148.267 1291.23 146C1289.56 143.667 1288.73 140.7 1288.73 137.1C1288.73 133.633 1289.53 130.767 1291.13 128.5C1292.73 126.167 1295.4 125 1299.13 125C1301.86 125 1304 125.6 1305.53 126.8C1307.06 127.933 1308.13 129.433 1308.73 131.3C1309.4 133.1 1309.73 135.033 1309.73 137.1C1309.73 139.167 1309.43 141.167 1308.83 143.1C1308.3 144.967 1307.26 146.5 1305.73 147.7ZM1333.95 155.3C1337.02 157.1 1340.88 158 1345.55 158C1350.22 158 1354.08 157.1 1357.15 155.3C1360.22 153.433 1362.48 150.9 1363.95 147.7C1365.42 144.5 1366.15 140.933 1366.15 137C1366.15 130.667 1364.38 125.567 1360.85 121.7C1357.38 117.833 1352.28 115.9 1345.55 115.9C1338.62 115.9 1333.38 117.9 1329.85 121.9C1326.38 125.833 1324.68 130.867 1324.75 137C1324.75 141.067 1325.52 144.7 1327.05 147.9C1328.58 151.033 1330.88 153.5 1333.95 155.3ZM1352.25 147.5C1350.72 148.767 1348.48 149.4 1345.55 149.4C1342.55 149.4 1340.25 148.767 1338.65 147.5C1337.12 146.233 1336.05 144.633 1335.45 142.7C1334.92 140.7 1334.65 138.7 1334.65 136.7C1334.65 134.633 1334.92 132.633 1335.45 130.7C1336.05 128.7 1337.12 127.067 1338.65 125.8C1340.25 124.467 1342.55 123.8 1345.55 123.8C1348.48 123.8 1350.72 124.433 1352.25 125.7C1353.85 126.967 1354.92 128.6 1355.45 130.6C1355.98 132.6 1356.25 134.633 1356.25 136.7C1356.25 138.7 1355.98 140.7 1355.45 142.7C1354.92 144.633 1353.85 146.233 1352.25 147.5ZM1373.82 115.9V157H1384.02V139.3C1384.02 134.967 1385.15 131.9 1387.42 130.1C1389.68 128.233 1393.68 127.3 1399.42 127.3H1400.92V115.9H1399.42C1396.08 115.9 1393.35 116.5 1391.22 117.7C1389.15 118.833 1387.52 120.3 1386.32 122.1C1385.18 123.833 1384.42 125.567 1384.02 127.3L1383.32 115.9H1373.82ZM1414.48 154.6C1416.14 156.2 1418.61 157 1421.88 157H1431.18V149H1421.58V123.1H1430.98V115.9H1421.58V105.4H1413.38C1413.38 108.667 1413.14 111.033 1412.68 112.5C1412.21 113.967 1411.44 114.9 1410.38 115.3C1409.31 115.7 1407.81 115.9 1405.88 115.9V123.1H1412.08V146.8C1412.08 150.4 1412.88 153 1414.48 154.6ZM1445.76 155C1448.76 157 1452.63 158 1457.36 158C1463.09 158 1467.59 156.533 1470.86 153.6C1474.13 150.6 1475.99 146.933 1476.46 142.6H1466.56C1466.23 144.667 1465.19 146.333 1463.46 147.6C1461.79 148.867 1459.69 149.5 1457.16 149.5C1453.89 149.5 1451.33 148.5 1449.46 146.5C1447.59 144.433 1446.66 141.5 1446.66 137.7H1476.56V136.2V135.1C1476.49 131.167 1475.59 127.767 1473.86 124.9C1472.13 121.967 1469.79 119.7 1466.86 118.1C1463.99 116.5 1460.73 115.7 1457.06 115.7C1452.93 115.7 1449.33 116.633 1446.26 118.5C1443.26 120.3 1440.93 122.833 1439.26 126.1C1437.66 129.3 1436.89 132.967 1436.96 137.1C1437.03 140.633 1437.76 144 1439.16 147.2C1440.63 150.333 1442.83 152.933 1445.76 155ZM1466.36 133.1H1446.96C1447.03 132.1 1447.33 130.9 1447.86 129.5C1448.46 128.033 1449.43 126.767 1450.76 125.7C1452.16 124.567 1454.19 124 1456.86 124C1458.86 124 1460.49 124.367 1461.76 125.1C1463.03 125.833 1463.96 126.733 1464.56 127.8C1465.23 128.867 1465.66 129.9 1465.86 130.9C1466.13 131.9 1466.29 132.633 1466.36 133.1ZM1488.75 152.3C1491.35 156.1 1495.72 158 1501.85 158C1504.32 158 1506.42 157.633 1508.15 156.9C1509.89 156.1 1511.29 155.167 1512.35 154.1C1513.49 153.033 1514.29 152.067 1514.75 151.2C1515.29 150.333 1515.59 149.833 1515.65 149.7H1515.85L1517.55 157H1526.35V100.7H1515.85V124.9H1515.65C1515.59 124.7 1515.32 124.133 1514.85 123.2C1514.39 122.267 1513.62 121.233 1512.55 120.1C1511.55 118.967 1510.15 118 1508.35 117.2C1506.62 116.333 1504.45 115.9 1501.85 115.9C1495.85 115.9 1491.52 117.833 1488.85 121.7C1486.19 125.567 1484.85 130.733 1484.85 137.2C1484.85 143.4 1486.15 148.433 1488.75 152.3ZM1513.25 146C1511.65 148.267 1508.95 149.4 1505.15 149.4C1502.42 149.4 1500.29 148.833 1498.75 147.7C1497.29 146.5 1496.25 144.967 1495.65 143.1C1495.12 141.167 1494.85 139.167 1494.85 137.1C1494.85 135.033 1495.15 133.1 1495.75 131.3C1496.35 129.433 1497.42 127.933 1498.95 126.8C1500.55 125.6 1502.72 125 1505.45 125C1509.19 125 1511.82 126.167 1513.35 128.5C1514.95 130.767 1515.75 133.633 1515.75 137.1C1515.75 140.7 1514.92 143.667 1513.25 146ZM1575.42 156.9C1577.15 157.633 1579.25 158 1581.72 158C1587.78 158 1592.12 156.1 1594.72 152.3C1597.38 148.5 1598.72 143.467 1598.72 137.2C1598.72 130.733 1597.38 125.567 1594.72 121.7C1592.05 117.833 1587.72 115.9 1581.72 115.9C1579.12 115.9 1576.92 116.333 1575.12 117.2C1573.38 118 1571.98 118.967 1570.92 120.1C1569.92 121.233 1569.18 122.267 1568.72 123.2C1568.25 124.133 1567.98 124.7 1567.92 124.9H1567.72V100.7H1557.22V157H1566.02L1567.72 149.7H1567.92C1567.98 149.833 1568.25 150.333 1568.72 151.2C1569.25 152.067 1570.05 153.033 1571.12 154.1C1572.25 155.167 1573.68 156.1 1575.42 156.9ZM1584.72 147.7C1583.25 148.833 1581.15 149.4 1578.42 149.4C1574.62 149.4 1571.88 148.267 1570.22 146C1568.62 143.667 1567.82 140.7 1567.82 137.1C1567.82 133.633 1568.58 130.767 1570.12 128.5C1571.72 126.167 1574.38 125 1578.12 125C1580.85 125 1582.98 125.6 1584.52 126.8C1586.12 127.933 1587.22 129.433 1587.82 131.3C1588.42 133.1 1588.72 135.033 1588.72 137.1C1588.72 139.167 1588.42 141.167 1587.82 143.1C1587.28 144.967 1586.25 146.5 1584.72 147.7ZM1602.13 168.2V176.1H1609.93C1612.47 176.1 1614.53 175.8 1616.13 175.2C1617.8 174.667 1619.3 173.467 1620.63 171.6C1621.97 169.8 1623.43 167.033 1625.03 163.3L1645.23 115.9H1634.73L1623.43 145.8L1612.93 115.9H1602.43L1618.43 156.3L1615.73 162.3C1614.8 164.167 1613.97 165.5 1613.23 166.3C1612.5 167.167 1611.77 167.7 1611.03 167.9C1610.3 168.1 1609.43 168.2 1608.43 168.2H1602.13ZM1673.95 152.2C1676.35 156.067 1680.38 158 1686.05 158C1689.12 158 1691.58 157.5 1693.45 156.5C1695.38 155.433 1696.82 154.3 1697.75 153.1C1698.75 151.833 1699.35 150.9 1699.55 150.3H1699.75L1701.45 157H1710.25V115.9H1699.75V124.1H1699.55C1699.35 123.433 1698.78 122.433 1697.85 121.1C1696.92 119.767 1695.52 118.567 1693.65 117.5C1691.78 116.367 1689.25 115.8 1686.05 115.8C1680.45 115.8 1676.42 117.767 1673.95 121.7C1671.55 125.567 1670.35 130.667 1670.35 137C1670.35 143.267 1671.55 148.333 1673.95 152.2ZM1697.75 145.9C1696.48 148.233 1693.98 149.4 1690.25 149.4C1687.65 149.4 1685.62 148.867 1684.15 147.8C1682.75 146.667 1681.75 145.167 1681.15 143.3C1680.62 141.433 1680.35 139.367 1680.35 137.1C1680.35 134.833 1680.62 132.8 1681.15 131C1681.75 129.133 1682.75 127.633 1684.15 126.5C1685.62 125.367 1687.65 124.8 1690.25 124.8C1693.92 124.8 1696.42 125.933 1697.75 128.2C1699.08 130.467 1699.75 133.433 1699.75 137.1C1699.75 140.567 1699.08 143.5 1697.75 145.9ZM1750.54 157.1C1752.67 157.7 1754.61 158 1756.34 158C1761.54 158 1765.74 157.067 1768.94 155.2C1772.21 153.267 1773.84 150.333 1773.84 146.4C1773.84 143.8 1773.21 141.733 1771.94 140.2C1770.74 138.6 1769.14 137.333 1767.14 136.4C1765.21 135.467 1763.14 134.733 1760.94 134.2C1758.81 133.6 1756.74 133.033 1754.74 132.5C1752.81 131.967 1751.21 131.3 1749.94 130.5C1748.74 129.633 1748.14 128.433 1748.14 126.9C1748.14 125.567 1748.74 124.5 1749.94 123.7C1751.21 122.833 1753.04 122.4 1755.44 122.4C1756.77 122.4 1758.14 122.6 1759.54 123C1761.01 123.4 1762.21 124.133 1763.14 125.2C1764.14 126.2 1764.61 127.733 1764.54 129.8H1773.94C1773.94 126.2 1773.07 123.3 1771.34 121.1C1769.61 118.833 1767.31 117.2 1764.44 116.2C1761.57 115.133 1758.47 114.6 1755.14 114.6C1750.41 114.6 1746.51 115.6 1743.44 117.6C1740.37 119.533 1738.84 122.4 1738.84 126.2C1738.84 128.8 1739.44 130.933 1740.64 132.6C1741.84 134.2 1743.37 135.467 1745.24 136.4C1747.17 137.333 1749.21 138.1 1751.34 138.7C1753.54 139.233 1755.61 139.767 1757.54 140.3C1759.47 140.833 1761.04 141.533 1762.24 142.4C1763.51 143.2 1764.14 144.333 1764.14 145.8C1764.14 147.067 1763.47 148.2 1762.14 149.2C1760.81 150.133 1758.81 150.6 1756.14 150.6C1753.87 150.6 1752.14 150.233 1750.94 149.5C1749.74 148.767 1748.87 147.933 1748.34 147C1747.87 146 1747.61 145.133 1747.54 144.4C1747.47 143.6 1747.44 143.133 1747.44 143H1738.04C1738.04 145.6 1738.64 147.867 1739.84 149.8C1741.11 151.667 1742.67 153.2 1744.54 154.4C1746.47 155.6 1748.47 156.5 1750.54 157.1ZM1780.54 115.9V157H1789.54V137.4C1789.54 135.333 1789.78 133.367 1790.24 131.5C1790.71 129.567 1791.54 128 1792.74 126.8C1793.94 125.533 1795.71 124.9 1798.04 124.9C1799.91 124.9 1801.38 125.333 1802.44 126.2C1803.51 127.067 1804.28 128.167 1804.74 129.5C1805.21 130.767 1805.48 132.1 1805.54 133.5C1805.61 134.833 1805.64 136 1805.64 137V157H1814.24V137.4C1814.24 135.333 1814.48 133.367 1814.94 131.5C1815.41 129.567 1816.24 128 1817.44 126.8C1818.64 125.533 1820.41 124.9 1822.74 124.9C1824.61 124.9 1826.08 125.333 1827.14 126.2C1828.21 127.067 1828.98 128.167 1829.44 129.5C1829.91 130.767 1830.18 132.1 1830.24 133.5C1830.31 134.833 1830.34 136 1830.34 137V157H1838.94V137.1C1838.94 135.967 1838.91 134.533 1838.84 132.8C1838.84 131 1838.64 129.133 1838.24 127.2C1837.91 125.267 1837.28 123.467 1836.34 121.8C1835.48 120.067 1834.24 118.667 1832.64 117.6C1831.04 116.467 1828.94 115.9 1826.34 115.9C1824.01 115.9 1822.04 116.333 1820.44 117.2C1818.84 118 1817.51 118.967 1816.44 120.1C1815.44 121.167 1814.68 122.167 1814.14 123.1C1813.68 123.967 1813.41 124.533 1813.34 124.8H1813.14C1812.41 122.4 1811.21 120.333 1809.54 118.6C1807.88 116.8 1805.38 115.9 1802.04 115.9C1799.78 115.9 1797.88 116.333 1796.34 117.2C1794.81 118 1793.58 118.967 1792.64 120.1C1791.71 121.167 1791.01 122.167 1790.54 123.1C1790.08 123.967 1789.81 124.533 1789.74 124.8H1789.54L1789.44 115.9H1780.54ZM1848.56 152.2C1850.96 156.067 1854.99 158 1860.66 158C1863.73 158 1866.19 157.5 1868.06 156.5C1869.99 155.433 1871.43 154.3 1872.36 153.1C1873.36 151.833 1873.96 150.9 1874.16 150.3H1874.36L1876.06 157H1884.86V115.9H1874.36V124.1H1874.16C1873.96 123.433 1873.39 122.433 1872.46 121.1C1871.53 119.767 1870.13 118.567 1868.26 117.5C1866.39 116.367 1863.86 115.8 1860.66 115.8C1855.06 115.8 1851.03 117.767 1848.56 121.7C1846.16 125.567 1844.96 130.667 1844.96 137C1844.96 143.267 1846.16 148.333 1848.56 152.2ZM1872.36 145.9C1871.09 148.233 1868.59 149.4 1864.86 149.4C1862.26 149.4 1860.23 148.867 1858.76 147.8C1857.36 146.667 1856.36 145.167 1855.76 143.3C1855.23 141.433 1854.96 139.367 1854.96 137.1C1854.96 134.833 1855.23 132.8 1855.76 131C1856.36 129.133 1857.36 127.633 1858.76 126.5C1860.23 125.367 1862.26 124.8 1864.86 124.8C1868.53 124.8 1871.03 125.933 1872.36 128.2C1873.69 130.467 1874.36 133.433 1874.36 137.1C1874.36 140.567 1873.69 143.5 1872.36 145.9ZM1892.97 100.7V157H1902.97V100.7H1892.97ZM1912.6 100.7V157H1922.6V100.7H1912.6ZM1932.93 160.5V167.2H1935.43C1938.76 167.2 1941.1 165.833 1942.43 163.1C1943.76 160.433 1944.43 157.2 1944.43 153.4C1944.43 150.267 1943.93 148.2 1942.93 147.2C1942 146.133 1940.66 145.6 1938.93 145.6C1936.8 145.6 1935.3 146.167 1934.43 147.3C1933.56 148.367 1933.13 149.7 1933.13 151.3C1933.13 153.033 1933.63 154.467 1934.63 155.6C1935.63 156.667 1937.4 157.133 1939.93 157C1939.93 158.267 1939.6 159.167 1938.93 159.7C1938.26 160.233 1937.06 160.5 1935.33 160.5H1932.93ZM1975.97 100.7V157H1986.47V137.4C1986.47 135.267 1986.73 133.267 1987.27 131.4C1987.8 129.467 1988.77 127.9 1990.17 126.7C1991.57 125.5 1993.57 124.9 1996.17 124.9C1998.77 124.9 2000.7 125.467 2001.97 126.6C2003.23 127.667 2004.07 129.133 2004.47 131C2004.93 132.8 2005.17 134.8 2005.17 137V157H2015.07V137.1C2015.07 135.3 2014.93 133.2 2014.67 130.8C2014.47 128.4 2013.9 126.067 2012.97 123.8C2012.03 121.533 2010.53 119.667 2008.47 118.2C2006.4 116.667 2003.57 115.9 1999.97 115.9C1997.37 115.9 1995.2 116.333 1993.47 117.2C1991.8 118 1990.47 118.967 1989.47 120.1C1988.53 121.233 1987.83 122.267 1987.37 123.2C1986.97 124.067 1986.73 124.6 1986.67 124.8H1986.47V100.7H1975.97ZM2025.62 109.9C2026.35 110.967 2027.82 111.467 2030.02 111.4C2032.09 111.333 2033.45 110.8 2034.12 109.8C2034.85 108.733 2035.22 107.433 2035.22 105.9C2035.22 104.433 2034.85 103.167 2034.12 102.1C2033.45 101.033 2032.09 100.5 2030.02 100.5C2027.89 100.5 2026.45 101.033 2025.72 102.1C2024.99 103.167 2024.62 104.433 2024.62 105.9C2024.62 107.433 2024.95 108.767 2025.62 109.9ZM2024.82 115.9V157H2035.02V115.9H2024.82ZM2055.42 165.7V175.3H2070.62C2075.16 175.3 2078.49 174.2 2080.62 172C2082.82 169.8 2083.92 165.967 2083.92 160.5V115.9H2073.42L2073.32 124.9H2073.12C2073.06 124.7 2072.79 124.133 2072.32 123.2C2071.92 122.267 2071.22 121.233 2070.22 120.1C2069.22 118.967 2067.86 118 2066.12 117.2C2064.39 116.333 2062.19 115.9 2059.52 115.9C2053.52 115.9 2049.16 117.833 2046.42 121.7C2043.76 125.5 2042.42 130.633 2042.42 137.1C2042.42 143.3 2043.76 148.333 2046.42 152.2C2049.09 156.067 2053.46 158 2059.52 158C2062.06 158 2064.16 157.633 2065.82 156.9C2067.56 156.1 2068.96 155.167 2070.02 154.1C2071.09 153.033 2071.86 152.067 2072.32 151.2C2072.86 150.333 2073.16 149.833 2073.22 149.7H2073.42V165.7H2055.42ZM2070.82 146C2069.16 148.267 2066.46 149.4 2062.72 149.4C2059.92 149.4 2057.76 148.833 2056.22 147.7C2054.76 146.5 2053.72 144.967 2053.12 143.1C2052.59 141.167 2052.32 139.167 2052.32 137.1C2052.32 135.033 2052.62 133.1 2053.22 131.3C2053.89 129.433 2054.99 127.933 2056.52 126.8C2058.06 125.6 2060.19 125 2062.92 125C2066.66 125 2069.32 126.167 2070.92 128.5C2072.52 130.767 2073.32 133.633 2073.32 137.1C2073.32 140.7 2072.49 143.667 2070.82 146ZM2091.98 100.7V157H2102.48V137.4C2102.48 135.267 2102.75 133.267 2103.28 131.4C2103.82 129.467 2104.78 127.9 2106.18 126.7C2107.58 125.5 2109.58 124.9 2112.18 124.9C2114.78 124.9 2116.72 125.467 2117.98 126.6C2119.25 127.667 2120.08 129.133 2120.48 131C2120.95 132.8 2121.18 134.8 2121.18 137V157H2131.08V137.1C2131.08 135.3 2130.95 133.2 2130.68 130.8C2130.48 128.4 2129.92 126.067 2128.98 123.8C2128.05 121.533 2126.55 119.667 2124.48 118.2C2122.42 116.667 2119.58 115.9 2115.98 115.9C2113.38 115.9 2111.22 116.333 2109.48 117.2C2107.82 118 2106.48 118.967 2105.48 120.1C2104.55 121.233 2103.85 122.267 2103.38 123.2C2102.98 124.067 2102.75 124.6 2102.68 124.8H2102.48V100.7H2091.98ZM2140.34 100.7V157H2150.34V100.7H2140.34ZM2154.96 168.2V176.1H2162.76C2165.3 176.1 2167.36 175.8 2168.96 175.2C2170.63 174.667 2172.13 173.467 2173.46 171.6C2174.8 169.8 2176.26 167.033 2177.86 163.3L2198.06 115.9H2187.56L2176.26 145.8L2165.76 115.9H2155.26L2171.26 156.3L2168.56 162.3C2167.63 164.167 2166.8 165.5 2166.06 166.3C2165.33 167.167 2164.6 167.7 2163.86 167.9C2163.13 168.1 2162.26 168.2 2161.26 168.2H2154.96ZM2203.3 131V138.1H2225.5V131H2203.3ZM2242.34 155C2245.34 157 2249.21 158 2253.94 158C2259.68 158 2264.18 156.533 2267.44 153.6C2270.71 150.6 2272.58 146.933 2273.04 142.6H2263.14C2262.81 144.667 2261.78 146.333 2260.04 147.6C2258.38 148.867 2256.28 149.5 2253.74 149.5C2250.48 149.5 2247.91 148.5 2246.04 146.5C2244.18 144.433 2243.24 141.5 2243.24 137.7H2273.14V136.2V135.1C2273.08 131.167 2272.18 127.767 2270.44 124.9C2268.71 121.967 2266.38 119.7 2263.44 118.1C2260.58 116.5 2257.31 115.7 2253.64 115.7C2249.51 115.7 2245.91 116.633 2242.84 118.5C2239.84 120.3 2237.51 122.833 2235.84 126.1C2234.24 129.3 2233.48 132.967 2233.54 137.1C2233.61 140.633 2234.34 144 2235.74 147.2C2237.21 150.333 2239.41 152.933 2242.34 155ZM2262.94 133.1H2243.54C2243.61 132.1 2243.91 130.9 2244.44 129.5C2245.04 128.033 2246.01 126.767 2247.34 125.7C2248.74 124.567 2250.78 124 2253.44 124C2255.44 124 2257.08 124.367 2258.34 125.1C2259.61 125.833 2260.54 126.733 2261.14 127.8C2261.81 128.867 2262.24 129.9 2262.44 130.9C2262.71 131.9 2262.88 132.633 2262.94 133.1ZM2284.53 123.1V157.1H2294.73V123.1H2304.83V115.9H2294.73V106.9H2305.13V99H2294.33C2291.07 99 2288.6 99.8 2286.93 101.4C2285.33 103 2284.53 105.6 2284.53 109.2V115.9H2278.93V123.1H2284.53ZM2315.3 123.1V157.1H2325.5V123.1H2335.6V115.9H2325.5V106.9H2335.9V99H2325.1C2321.83 99 2319.36 99.8 2317.7 101.4C2316.1 103 2315.3 105.6 2315.3 109.2V115.9H2309.7V123.1H2315.3ZM2345.93 109.9C2346.67 110.967 2348.13 111.467 2350.33 111.4C2352.4 111.333 2353.77 110.8 2354.43 109.8C2355.17 108.733 2355.53 107.433 2355.53 105.9C2355.53 104.433 2355.17 103.167 2354.43 102.1C2353.77 101.033 2352.4 100.5 2350.33 100.5C2348.2 100.5 2346.77 101.033 2346.03 102.1C2345.3 103.167 2344.93 104.433 2344.93 105.9C2344.93 107.433 2345.27 108.767 2345.93 109.9ZM2345.13 115.9V157H2355.33V115.9H2345.13ZM2373.54 155.7C2376.67 157.233 2380.17 158 2384.04 158C2388.17 158 2391.67 157.2 2394.54 155.6C2397.47 154 2399.74 151.933 2401.34 149.4C2403 146.867 2403.94 144.167 2404.14 141.3H2394.74C2394.27 143.9 2393.07 145.867 2391.14 147.2C2389.27 148.533 2387.07 149.2 2384.54 149.2C2380.8 149.2 2377.97 148.067 2376.04 145.8C2374.17 143.467 2373.24 140.367 2373.24 136.5C2373.24 132.967 2374.2 130.1 2376.14 127.9C2378.14 125.7 2380.94 124.6 2384.54 124.6C2390.34 124.6 2393.74 127.067 2394.74 132H2404.14C2403.94 129.333 2403.04 126.767 2401.44 124.3C2399.84 121.767 2397.57 119.733 2394.64 118.2C2391.77 116.6 2388.3 115.8 2384.24 115.8C2380.24 115.8 2376.67 116.667 2373.54 118.4C2370.47 120.133 2368 122.6 2366.14 125.8C2364.34 129 2363.37 132.833 2363.24 137.3C2363.24 141.767 2364.17 145.567 2366.04 148.7C2367.9 151.767 2370.4 154.1 2373.54 155.7ZM2413.51 109.9C2414.24 110.967 2415.71 111.467 2417.91 111.4C2419.98 111.333 2421.34 110.8 2422.01 109.8C2422.74 108.733 2423.11 107.433 2423.11 105.9C2423.11 104.433 2422.74 103.167 2422.01 102.1C2421.34 101.033 2419.98 100.5 2417.91 100.5C2415.78 100.5 2414.34 101.033 2413.61 102.1C2412.88 103.167 2412.51 104.433 2412.51 105.9C2412.51 107.433 2412.84 108.767 2413.51 109.9ZM2412.71 115.9V157H2422.91V115.9H2412.71ZM2439.41 155C2442.41 157 2446.28 158 2451.01 158C2456.75 158 2461.25 156.533 2464.51 153.6C2467.78 150.6 2469.65 146.933 2470.11 142.6H2460.21C2459.88 144.667 2458.85 146.333 2457.11 147.6C2455.45 148.867 2453.35 149.5 2450.81 149.5C2447.55 149.5 2444.98 148.5 2443.11 146.5C2441.25 144.433 2440.31 141.5 2440.31 137.7H2470.21V136.2V135.1C2470.15 131.167 2469.25 127.767 2467.51 124.9C2465.78 121.967 2463.45 119.7 2460.51 118.1C2457.65 116.5 2454.38 115.7 2450.71 115.7C2446.58 115.7 2442.98 116.633 2439.91 118.5C2436.91 120.3 2434.58 122.833 2432.91 126.1C2431.31 129.3 2430.55 132.967 2430.61 137.1C2430.68 140.633 2431.41 144 2432.81 147.2C2434.28 150.333 2436.48 152.933 2439.41 155ZM2460.01 133.1H2440.61C2440.68 132.1 2440.98 130.9 2441.51 129.5C2442.11 128.033 2443.08 126.767 2444.41 125.7C2445.81 124.567 2447.85 124 2450.51 124C2452.51 124 2454.15 124.367 2455.41 125.1C2456.68 125.833 2457.61 126.733 2458.21 127.8C2458.88 128.867 2459.31 129.9 2459.51 130.9C2459.78 131.9 2459.95 132.633 2460.01 133.1ZM2478 116.1V157H2488.4V137.4C2488.4 135.267 2488.67 133.267 2489.2 131.4C2489.74 129.467 2490.7 127.9 2492.1 126.7C2493.5 125.5 2495.54 124.9 2498.2 124.9C2500.74 124.9 2502.64 125.467 2503.9 126.6C2505.24 127.667 2506.1 129.133 2506.5 131C2506.9 132.8 2507.1 134.8 2507.1 137V157H2517.1V137.1C2517.1 135.167 2517 133 2516.8 130.6C2516.6 128.2 2516.07 125.9 2515.2 123.7C2514.34 121.433 2512.9 119.567 2510.9 118.1C2508.9 116.633 2506.07 115.9 2502.4 115.9C2499.74 115.9 2497.5 116.333 2495.7 117.2C2493.97 118 2492.57 118.967 2491.5 120.1C2490.5 121.233 2489.77 122.267 2489.3 123.2C2488.9 124.067 2488.67 124.6 2488.6 124.8H2488.4L2486.7 116.1H2478ZM2530.69 154.6C2532.35 156.2 2534.82 157 2538.09 157H2547.39V149H2537.79V123.1H2547.19V115.9H2537.79V105.4H2529.59C2529.59 108.667 2529.35 111.033 2528.89 112.5C2528.42 113.967 2527.65 114.9 2526.59 115.3C2525.52 115.7 2524.02 115.9 2522.09 115.9V123.1H2528.29V146.8C2528.29 150.4 2529.09 153 2530.69 154.6ZM2582.93 154.6C2584.6 156.2 2587.07 157 2590.33 157H2599.63V149H2590.03V123.1H2599.43V115.9H2590.03V105.4H2581.83C2581.83 108.667 2581.6 111.033 2581.13 112.5C2580.67 113.967 2579.9 114.9 2578.83 115.3C2577.77 115.7 2576.27 115.9 2574.33 115.9V123.1H2580.53V146.8C2580.53 150.4 2581.33 153 2582.93 154.6ZM2614.22 155C2617.22 157 2621.08 158 2625.82 158C2631.55 158 2636.05 156.533 2639.32 153.6C2642.58 150.6 2644.45 146.933 2644.92 142.6H2635.02C2634.68 144.667 2633.65 146.333 2631.92 147.6C2630.25 148.867 2628.15 149.5 2625.62 149.5C2622.35 149.5 2619.78 148.5 2617.92 146.5C2616.05 144.433 2615.12 141.5 2615.12 137.7H2645.02V136.2V135.1C2644.95 131.167 2644.05 127.767 2642.32 124.9C2640.58 121.967 2638.25 119.7 2635.32 118.1C2632.45 116.5 2629.18 115.7 2625.52 115.7C2621.38 115.7 2617.78 116.633 2614.72 118.5C2611.72 120.3 2609.38 122.833 2607.72 126.1C2606.12 129.3 2605.35 132.967 2605.42 137.1C2605.48 140.633 2606.22 144 2607.62 147.2C2609.08 150.333 2611.28 152.933 2614.22 155ZM2634.82 133.1H2615.42C2615.48 132.1 2615.78 130.9 2616.32 129.5C2616.92 128.033 2617.88 126.767 2619.22 125.7C2620.62 124.567 2622.65 124 2625.32 124C2627.32 124 2628.95 124.367 2630.22 125.1C2631.48 125.833 2632.42 126.733 2633.02 127.8C2633.68 128.867 2634.12 129.9 2634.32 130.9C2634.58 131.9 2634.75 132.633 2634.82 133.1ZM2654.81 152.2C2657.21 156.067 2661.24 158 2666.91 158C2669.98 158 2672.44 157.5 2674.31 156.5C2676.24 155.433 2677.68 154.3 2678.61 153.1C2679.61 151.833 2680.21 150.9 2680.41 150.3H2680.61L2682.31 157H2691.11V115.9H2680.61V124.1H2680.41C2680.21 123.433 2679.64 122.433 2678.71 121.1C2677.78 119.767 2676.38 118.567 2674.51 117.5C2672.64 116.367 2670.11 115.8 2666.91 115.8C2661.31 115.8 2657.28 117.767 2654.81 121.7C2652.41 125.567 2651.21 130.667 2651.21 137C2651.21 143.267 2652.41 148.333 2654.81 152.2ZM2678.61 145.9C2677.34 148.233 2674.84 149.4 2671.11 149.4C2668.51 149.4 2666.48 148.867 2665.01 147.8C2663.61 146.667 2662.61 145.167 2662.01 143.3C2661.48 141.433 2661.21 139.367 2661.21 137.1C2661.21 134.833 2661.48 132.8 2662.01 131C2662.61 129.133 2663.61 127.633 2665.01 126.5C2666.48 125.367 2668.51 124.8 2671.11 124.8C2674.78 124.8 2677.28 125.933 2678.61 128.2C2679.94 130.467 2680.61 133.433 2680.61 137.1C2680.61 140.567 2679.94 143.5 2678.61 145.9ZM2698.12 115.9V157H2707.12V137.4C2707.12 135.333 2707.36 133.367 2707.82 131.5C2708.29 129.567 2709.12 128 2710.32 126.8C2711.52 125.533 2713.29 124.9 2715.62 124.9C2717.49 124.9 2718.96 125.333 2720.02 126.2C2721.09 127.067 2721.86 128.167 2722.32 129.5C2722.79 130.767 2723.06 132.1 2723.12 133.5C2723.19 134.833 2723.22 136 2723.22 137V157H2731.82V137.4C2731.82 135.333 2732.06 133.367 2732.52 131.5C2732.99 129.567 2733.82 128 2735.02 126.8C2736.22 125.533 2737.99 124.9 2740.32 124.9C2742.19 124.9 2743.66 125.333 2744.72 126.2C2745.79 127.067 2746.56 128.167 2747.02 129.5C2747.49 130.767 2747.76 132.1 2747.82 133.5C2747.89 134.833 2747.92 136 2747.92 137V157H2756.52V137.1C2756.52 135.967 2756.49 134.533 2756.42 132.8C2756.42 131 2756.22 129.133 2755.82 127.2C2755.49 125.267 2754.86 123.467 2753.92 121.8C2753.06 120.067 2751.82 118.667 2750.22 117.6C2748.62 116.467 2746.52 115.9 2743.92 115.9C2741.59 115.9 2739.62 116.333 2738.02 117.2C2736.42 118 2735.09 118.967 2734.02 120.1C2733.02 121.167 2732.26 122.167 2731.72 123.1C2731.26 123.967 2730.99 124.533 2730.92 124.8H2730.72C2729.99 122.4 2728.79 120.333 2727.12 118.6C2725.46 116.8 2722.96 115.9 2719.62 115.9C2717.36 115.9 2715.46 116.333 2713.92 117.2C2712.39 118 2711.16 118.967 2710.22 120.1C2709.29 121.167 2708.59 122.167 2708.12 123.1C2707.66 123.967 2707.39 124.533 2707.32 124.8H2707.12L2707.02 115.9H2698.12ZM198.94 202.6C202.165 200.322 205.178 197.216 207.905 193.42L211.714 225H261.254L269.605 155.766C269.639 155.487 269.695 155.215 269.772 154.954C269.689 154.652 269.634 154.339 269.608 154.015C269.392 151.262 271.448 148.855 274.201 148.639L283.117 147.939L282.656 145.229L283.224 145.164L279.649 113.586L278.359 113.732C278.513 113.443 278.696 113.171 278.903 112.918C278.667 110.406 278.009 108.017 277 105.822V104H276.057C272.253 97.4242 265.143 93 257 93C251.604 93 246.662 94.9424 242.835 98.166C242.956 98.343 243.074 98.5213 243.19 98.701C241.559 99.7503 240.138 101.068 239 102.586C236.862 99.7332 233.724 97.5888 230.066 96.6012C226.602 94.3245 222.455 93 218 93C216.938 93 215.894 93.0752 214.872 93.2206C213.749 90.5727 212.526 88.0826 211.215 85.7706C213.395 85.2665 215.666 85 218 85C225.445 85 232.256 87.7117 237.5 92.2012C242.744 87.7117 249.555 85 257 85C273.017 85 286.102 97.5519 286.956 113.356C287.32 113.913 287.578 114.553 287.697 115.251L293.383 148.655C294.324 149.484 294.957 150.666 295.063 152.015C295.213 153.924 294.27 155.667 292.76 156.628C292.037 157.41 291.06 157.968 289.929 158.161C288.82 158.35 287.734 158.158 286.805 157.68L279.377 158.263L270.599 231.036C270.268 233.778 267.778 235.732 265.036 235.401C264.522 235.339 264.036 235.201 263.587 235H210.859C210.11 235.702 209.139 236.18 208.042 236.312C205.301 236.643 202.81 234.688 202.48 231.947L198.94 202.6Z" fill="#DCA413"/>
</svg>
