<svg width="552" height="592" viewBox="0 0 552 592" fill="none" xmlns="http://www.w3.org/2000/svg">
<path d="M101.711 36V0.208984H108.742L123.391 24.1104V0.208984H130.104V36H122.854L108.425 12.6602V36H101.711ZM152.736 27.748L159.572 28.8955C158.693 31.402 157.302 33.3145 155.397 34.6328C153.509 35.9349 151.141 36.5859 148.293 36.5859C143.785 36.5859 140.448 35.113 138.283 32.167C136.574 29.807 135.72 26.8285 135.72 23.2314C135.72 18.9346 136.843 15.5736 139.089 13.1484C141.335 10.707 144.175 9.48633 147.609 9.48633C151.467 9.48633 154.51 10.764 156.74 13.3193C158.97 15.8584 160.036 19.7565 159.938 25.0137H142.751C142.8 27.0482 143.353 28.6351 144.411 29.7744C145.469 30.8975 146.787 31.459 148.366 31.459C149.44 31.459 150.344 31.166 151.076 30.5801C151.809 29.9941 152.362 29.0501 152.736 27.748ZM153.127 20.8145C153.078 18.8288 152.565 17.3232 151.589 16.2979C150.612 15.2562 149.424 14.7354 148.024 14.7354C146.527 14.7354 145.29 15.2806 144.313 16.3711C143.337 17.4616 142.857 18.9427 142.873 20.8145H153.127ZM177.443 10.0723V15.541H172.756V25.9902C172.756 28.1061 172.797 29.3431 172.878 29.7012C172.976 30.043 173.179 30.3278 173.488 30.5557C173.814 30.7835 174.204 30.8975 174.66 30.8975C175.295 30.8975 176.215 30.6777 177.419 30.2383L178.005 35.5605C176.41 36.2441 174.603 36.5859 172.585 36.5859C171.348 36.5859 170.233 36.3825 169.24 35.9756C168.247 35.5524 167.515 35.0153 167.043 34.3643C166.587 33.6969 166.27 32.8018 166.091 31.6787C165.944 30.8812 165.871 29.2699 165.871 26.8447V15.541H162.722V10.0723H165.871V4.9209L172.756 0.916992V10.0723H177.443ZM196.364 36V0.501953H203.591V29.9697H221.56V36H196.364ZM225.1 22.6699C225.1 20.3913 225.661 18.1859 226.784 16.0537C227.907 13.9215 229.494 12.2939 231.545 11.1709C233.612 10.0479 235.915 9.48633 238.454 9.48633C242.377 9.48633 245.591 10.764 248.098 13.3193C250.604 15.8584 251.857 19.0729 251.857 22.9629C251.857 26.8854 250.588 30.1406 248.049 32.7285C245.526 35.3001 242.344 36.5859 238.503 36.5859C236.127 36.5859 233.856 36.0488 231.691 34.9746C229.543 33.9004 227.907 32.3298 226.784 30.2627C225.661 28.1794 225.1 25.6484 225.1 22.6699ZM232.131 23.0361C232.131 25.6077 232.741 27.5771 233.962 28.9443C235.183 30.3115 236.688 30.9951 238.479 30.9951C240.269 30.9951 241.766 30.3115 242.971 28.9443C244.191 27.5771 244.802 25.5915 244.802 22.9873C244.802 20.4482 244.191 18.4951 242.971 17.1279C241.766 15.7607 240.269 15.0771 238.479 15.0771C236.688 15.0771 235.183 15.7607 233.962 17.1279C232.741 18.4951 232.131 20.4645 232.131 23.0361ZM279.86 17.7383L273.098 18.959C272.87 17.6081 272.349 16.5908 271.535 15.9072C270.738 15.2236 269.696 14.8818 268.41 14.8818C266.701 14.8818 265.334 15.4759 264.309 16.6641C263.299 17.8359 262.795 19.8053 262.795 22.5723C262.795 25.6484 263.308 27.8213 264.333 29.0908C265.375 30.3604 266.766 30.9951 268.508 30.9951C269.81 30.9951 270.876 30.6289 271.706 29.8965C272.536 29.1478 273.122 27.8701 273.464 26.0635L280.202 27.2109C279.502 30.3034 278.16 32.639 276.174 34.2178C274.188 35.7965 271.527 36.5859 268.19 36.5859C264.398 36.5859 261.371 35.3896 259.108 32.9971C256.862 30.6045 255.739 27.2923 255.739 23.0605C255.739 18.7799 256.87 15.4515 259.133 13.0752C261.395 10.6826 264.455 9.48633 268.312 9.48633C271.47 9.48633 273.977 10.1699 275.832 11.5371C277.704 12.888 279.047 14.9551 279.86 17.7383ZM290.212 17.9824L283.986 16.8594C284.686 14.3529 285.891 12.4974 287.6 11.293C289.309 10.0885 291.848 9.48633 295.217 9.48633C298.277 9.48633 300.555 9.85254 302.053 10.585C303.55 11.3011 304.6 12.2207 305.202 13.3438C305.821 14.4505 306.13 16.4932 306.13 19.4717L306.057 27.4795C306.057 29.7581 306.162 31.4427 306.374 32.5332C306.602 33.6074 307.017 34.763 307.619 36H300.832C300.653 35.5443 300.433 34.8688 300.173 33.9736C300.059 33.5667 299.978 33.2982 299.929 33.168C298.757 34.3073 297.504 35.1618 296.169 35.7314C294.834 36.3011 293.41 36.5859 291.896 36.5859C289.227 36.5859 287.119 35.8617 285.573 34.4131C284.043 32.9645 283.278 31.1335 283.278 28.9199C283.278 27.4551 283.628 26.153 284.328 25.0137C285.028 23.8581 286.005 22.9792 287.258 22.377C288.527 21.7585 290.35 21.2214 292.727 20.7656C295.933 20.1634 298.155 19.6019 299.392 19.0811V18.3975C299.392 17.0791 299.066 16.1432 298.415 15.5898C297.764 15.0202 296.535 14.7354 294.729 14.7354C293.508 14.7354 292.556 14.9795 291.872 15.4678C291.188 15.9398 290.635 16.778 290.212 17.9824ZM299.392 23.5488C298.513 23.8418 297.121 24.1917 295.217 24.5986C293.312 25.0055 292.067 25.4043 291.481 25.7949C290.586 26.4297 290.139 27.2354 290.139 28.2119C290.139 29.1722 290.497 30.0023 291.213 30.7021C291.929 31.402 292.84 31.752 293.947 31.752C295.184 31.752 296.364 31.3451 297.487 30.5312C298.317 29.9128 298.863 29.1559 299.123 28.2607C299.302 27.6748 299.392 26.5599 299.392 24.916V23.5488ZM324.807 10.0723V15.541H320.119V25.9902C320.119 28.1061 320.16 29.3431 320.241 29.7012C320.339 30.043 320.542 30.3278 320.852 30.5557C321.177 30.7835 321.568 30.8975 322.023 30.8975C322.658 30.8975 323.578 30.6777 324.782 30.2383L325.368 35.5605C323.773 36.2441 321.966 36.5859 319.948 36.5859C318.711 36.5859 317.596 36.3825 316.604 35.9756C315.611 35.5524 314.878 35.0153 314.406 34.3643C313.951 33.6969 313.633 32.8018 313.454 31.6787C313.308 30.8812 313.234 29.2699 313.234 26.8447V15.541H310.085V10.0723H313.234V4.9209L320.119 0.916992V10.0723H324.807ZM329.567 6.55664V0.208984H336.428V6.55664H329.567ZM329.567 36V10.0723H336.428V36H329.567ZM341.896 22.6699C341.896 20.3913 342.458 18.1859 343.581 16.0537C344.704 13.9215 346.291 12.2939 348.342 11.1709C350.409 10.0479 352.712 9.48633 355.251 9.48633C359.174 9.48633 362.388 10.764 364.895 13.3193C367.401 15.8584 368.654 19.0729 368.654 22.9629C368.654 26.8854 367.385 30.1406 364.846 32.7285C362.323 35.3001 359.141 36.5859 355.3 36.5859C352.924 36.5859 350.653 36.0488 348.488 34.9746C346.34 33.9004 344.704 32.3298 343.581 30.2627C342.458 28.1794 341.896 25.6484 341.896 22.6699ZM348.928 23.0361C348.928 25.6077 349.538 27.5771 350.759 28.9443C351.979 30.3115 353.485 30.9951 355.275 30.9951C357.066 30.9951 358.563 30.3115 359.768 28.9443C360.988 27.5771 361.599 25.5915 361.599 22.9873C361.599 20.4482 360.988 18.4951 359.768 17.1279C358.563 15.7607 357.066 15.0771 355.275 15.0771C353.485 15.0771 351.979 15.7607 350.759 17.1279C349.538 18.4951 348.928 20.4645 348.928 23.0361ZM397.634 36H390.773V22.7676C390.773 19.9681 390.627 18.1615 390.334 17.3477C390.041 16.5176 389.561 15.8747 388.894 15.4189C388.243 14.9632 387.453 14.7354 386.525 14.7354C385.337 14.7354 384.271 15.0609 383.327 15.7119C382.383 16.363 381.732 17.2256 381.374 18.2998C381.032 19.374 380.861 21.3597 380.861 24.2568V36H374.001V10.0723H380.373V13.8809C382.635 10.9512 385.484 9.48633 388.918 9.48633C390.432 9.48633 391.815 9.76302 393.068 10.3164C394.322 10.8535 395.266 11.5452 395.9 12.3916C396.551 13.238 396.999 14.1982 397.243 15.2725C397.504 16.3467 397.634 17.8848 397.634 19.8867V36ZM402.199 28.6025L409.084 27.5527C409.377 28.8874 409.971 29.9046 410.866 30.6045C411.761 31.2881 413.015 31.6299 414.626 31.6299C416.4 31.6299 417.735 31.3044 418.63 30.6533C419.232 30.1976 419.533 29.5872 419.533 28.8223C419.533 28.3014 419.37 27.8701 419.045 27.5283C418.703 27.2028 417.938 26.9017 416.75 26.625C411.216 25.4043 407.709 24.2894 406.228 23.2803C404.177 21.8805 403.151 19.9355 403.151 17.4453C403.151 15.1992 404.038 13.3112 405.812 11.7812C407.587 10.2513 410.337 9.48633 414.064 9.48633C417.613 9.48633 420.249 10.0641 421.975 11.2197C423.7 12.3753 424.888 14.0843 425.539 16.3467L419.069 17.543C418.793 16.5339 418.264 15.7607 417.482 15.2236C416.717 14.6865 415.619 14.418 414.187 14.418C412.38 14.418 411.086 14.6702 410.305 15.1748C409.784 15.5329 409.523 15.9967 409.523 16.5664C409.523 17.0547 409.751 17.4697 410.207 17.8115C410.826 18.2673 412.958 18.9102 416.604 19.7402C420.266 20.5703 422.821 21.5876 424.27 22.792C425.702 24.0127 426.418 25.7135 426.418 27.8945C426.418 30.2708 425.425 32.3135 423.439 34.0225C421.454 35.7314 418.516 36.5859 414.626 36.5859C411.094 36.5859 408.295 35.8698 406.228 34.4375C404.177 33.0052 402.834 31.0602 402.199 28.6025Z" fill="black"/>
<rect x="336" y="560" width="18" height="18" fill="#DCA413"/>
<path d="M35.0029 583V553.651H46.0137C48.2559 553.651 50.0509 553.952 51.3989 554.552C52.7603 555.139 53.8213 556.054 54.582 557.295C55.3561 558.523 55.7432 559.811 55.7432 561.159C55.7432 562.413 55.4028 563.594 54.7222 564.702C54.0415 565.81 53.0138 566.704 51.6392 567.385C53.4142 567.905 54.7756 568.793 55.7231 570.047C56.6841 571.302 57.1646 572.783 57.1646 574.492C57.1646 575.866 56.8709 577.148 56.2837 578.335C55.7098 579.51 54.9958 580.417 54.1416 581.058C53.2874 581.699 52.2131 582.186 50.9185 582.52C49.6372 582.84 48.0623 583 46.1938 583H35.0029ZM38.8867 565.983H45.2329C46.9546 565.983 48.1891 565.87 48.9365 565.643C49.9242 565.349 50.6649 564.862 51.1587 564.182C51.6659 563.501 51.9194 562.647 51.9194 561.619C51.9194 560.645 51.6859 559.791 51.2188 559.057C50.7516 558.309 50.0843 557.802 49.2168 557.535C48.3493 557.255 46.8612 557.115 44.7524 557.115H38.8867V565.983ZM38.8867 579.537H46.1938C47.4484 579.537 48.3293 579.49 48.8364 579.396C49.7306 579.236 50.478 578.969 51.0786 578.596C51.6792 578.222 52.173 577.681 52.5601 576.974C52.9471 576.253 53.1406 575.426 53.1406 574.492C53.1406 573.397 52.8604 572.45 52.2998 571.649C51.7393 570.835 50.9585 570.268 49.9575 569.947C48.9699 569.614 47.5418 569.447 45.6733 569.447H38.8867V579.537ZM60.708 572.37C60.708 568.432 61.8024 565.516 63.9912 563.621C65.8197 562.046 68.0485 561.259 70.6777 561.259C73.6006 561.259 75.9896 562.22 77.8447 564.142C79.6999 566.05 80.6274 568.693 80.6274 572.069C80.6274 574.805 80.2137 576.961 79.3862 578.536C78.5721 580.097 77.3776 581.312 75.8027 582.179C74.2412 583.047 72.5329 583.48 70.6777 583.48C67.7015 583.48 65.2925 582.526 63.4507 580.618C61.6222 578.709 60.708 575.96 60.708 572.37ZM64.4116 572.37C64.4116 575.092 65.0055 577.134 66.1934 578.496C67.3812 579.844 68.876 580.518 70.6777 580.518C72.4661 580.518 73.9543 579.837 75.1421 578.476C76.3299 577.114 76.9238 575.039 76.9238 572.25C76.9238 569.62 76.3232 567.632 75.1221 566.284C73.9342 564.922 72.4528 564.242 70.6777 564.242C68.876 564.242 67.3812 564.916 66.1934 566.264C65.0055 567.612 64.4116 569.647 64.4116 572.37ZM83.5303 572.37C83.5303 568.432 84.6247 565.516 86.8135 563.621C88.6419 562.046 90.8708 561.259 93.5 561.259C96.4229 561.259 98.8118 562.22 100.667 564.142C102.522 566.05 103.45 568.693 103.45 572.069C103.45 574.805 103.036 576.961 102.208 578.536C101.394 580.097 100.2 581.312 98.625 582.179C97.0635 583.047 95.3551 583.48 93.5 583.48C90.5238 583.48 88.1147 582.526 86.2729 580.618C84.4445 578.709 83.5303 575.96 83.5303 572.37ZM87.2339 572.37C87.2339 575.092 87.8278 577.134 89.0156 578.496C90.2035 579.844 91.6982 580.518 93.5 580.518C95.2884 580.518 96.7765 579.837 97.9644 578.476C99.1522 577.114 99.7461 575.039 99.7461 572.25C99.7461 569.62 99.1455 567.632 97.9443 566.284C96.7565 564.922 95.2751 564.242 93.5 564.242C91.6982 564.242 90.2035 564.916 89.0156 566.264C87.8278 567.612 87.2339 569.647 87.2339 572.37ZM107.714 583V553.651H111.317V570.388L119.846 561.739H124.51L116.382 569.627L125.331 583H120.887L113.86 572.129L111.317 574.572V583H107.714ZM142.748 576.153L146.472 576.614C145.884 578.789 144.797 580.478 143.208 581.679C141.62 582.88 139.592 583.48 137.123 583.48C134.013 583.48 131.544 582.526 129.715 580.618C127.9 578.696 126.993 576.007 126.993 572.55C126.993 568.973 127.914 566.197 129.755 564.222C131.597 562.246 133.986 561.259 136.922 561.259C139.765 561.259 142.087 562.226 143.889 564.162C145.691 566.097 146.592 568.819 146.592 572.33C146.592 572.543 146.585 572.863 146.572 573.291H130.716C130.85 575.626 131.51 577.415 132.698 578.656C133.886 579.897 135.368 580.518 137.143 580.518C138.464 580.518 139.592 580.171 140.526 579.477C141.46 578.783 142.201 577.675 142.748 576.153ZM130.917 570.328H142.788C142.628 568.539 142.174 567.198 141.427 566.304C140.279 564.916 138.791 564.222 136.962 564.222C135.307 564.222 133.913 564.776 132.778 565.883C131.657 566.991 131.037 568.472 130.917 570.328ZM164.81 583V580.317C163.462 582.426 161.48 583.48 158.864 583.48C157.169 583.48 155.607 583.013 154.179 582.079C152.764 581.145 151.663 579.844 150.876 578.175C150.102 576.494 149.715 574.565 149.715 572.39C149.715 570.268 150.069 568.346 150.776 566.624C151.483 564.889 152.544 563.561 153.959 562.64C155.374 561.719 156.955 561.259 158.704 561.259C159.985 561.259 161.126 561.532 162.127 562.08C163.128 562.613 163.942 563.314 164.569 564.182V553.651H168.153V583H164.81ZM153.418 572.39C153.418 575.112 153.992 577.148 155.14 578.496C156.288 579.844 157.643 580.518 159.204 580.518C160.779 580.518 162.114 579.877 163.208 578.596C164.316 577.301 164.87 575.333 164.87 572.69C164.87 569.78 164.309 567.645 163.188 566.284C162.067 564.922 160.686 564.242 159.044 564.242C157.442 564.242 156.101 564.896 155.02 566.204C153.952 567.512 153.418 569.574 153.418 572.39ZM192.136 591.628C190.148 589.119 188.466 586.183 187.091 582.82C185.717 579.457 185.029 575.973 185.029 572.37C185.029 569.193 185.543 566.15 186.571 563.241C187.772 559.864 189.627 556.501 192.136 553.151H194.719C193.104 555.927 192.036 557.909 191.516 559.097C190.701 560.938 190.061 562.86 189.594 564.862C189.02 567.358 188.733 569.867 188.733 572.39C188.733 578.809 190.728 585.222 194.719 591.628H192.136ZM199.363 583V553.651H210.434C212.383 553.651 213.871 553.745 214.898 553.932C216.34 554.172 217.548 554.632 218.522 555.313C219.496 555.98 220.277 556.921 220.864 558.136C221.465 559.35 221.765 560.685 221.765 562.14C221.765 564.635 220.971 566.751 219.383 568.486C217.795 570.208 214.925 571.068 210.774 571.068H203.247V583H199.363ZM203.247 567.605H210.834C213.344 567.605 215.125 567.138 216.18 566.204C217.234 565.269 217.761 563.955 217.761 562.26C217.761 561.032 217.448 559.984 216.82 559.117C216.206 558.236 215.392 557.655 214.378 557.375C213.724 557.201 212.516 557.115 210.754 557.115H203.247V567.605ZM233.817 578.255V570.208H225.829V566.844H233.817V558.856H237.22V566.844H245.208V570.208H237.22V578.255H233.817ZM250.653 583V553.651H261.724C263.673 553.651 265.161 553.745 266.188 553.932C267.63 554.172 268.838 554.632 269.812 555.313C270.786 555.98 271.567 556.921 272.154 558.136C272.755 559.35 273.055 560.685 273.055 562.14C273.055 564.635 272.261 566.751 270.673 568.486C269.085 570.208 266.215 571.068 262.064 571.068H254.537V583H250.653ZM254.537 567.605H262.125C264.634 567.605 266.415 567.138 267.47 566.204C268.524 565.269 269.051 563.955 269.051 562.26C269.051 561.032 268.738 559.984 268.11 559.117C267.496 558.236 266.682 557.655 265.668 557.375C265.014 557.201 263.806 557.115 262.044 557.115H254.537V567.605ZM279.902 591.628H277.319C281.31 585.222 283.305 578.809 283.305 572.39C283.305 569.881 283.018 567.391 282.444 564.922C281.991 562.92 281.357 560.999 280.542 559.157C280.022 557.956 278.948 555.954 277.319 553.151H279.902C282.411 556.501 284.266 559.864 285.467 563.241C286.495 566.15 287.009 569.193 287.009 572.37C287.009 575.973 286.315 579.457 284.927 582.82C283.552 586.183 281.877 589.119 279.902 591.628Z" fill="black"/>
<path d="M389.422 553.651H393.306V570.608C393.306 573.557 392.972 575.9 392.305 577.635C391.637 579.37 390.43 580.785 388.681 581.879C386.946 582.96 384.664 583.5 381.834 583.5C379.085 583.5 376.836 583.027 375.088 582.079C373.34 581.132 372.092 579.764 371.344 577.975C370.597 576.173 370.223 573.718 370.223 570.608V553.651H374.107V570.588C374.107 573.137 374.34 575.019 374.808 576.233C375.288 577.435 376.102 578.362 377.25 579.016C378.411 579.67 379.826 579.997 381.494 579.997C384.35 579.997 386.386 579.35 387.6 578.055C388.815 576.761 389.422 574.271 389.422 570.588V553.651ZM399.332 583V561.739H402.575V564.762C404.136 562.427 406.392 561.259 409.341 561.259C410.623 561.259 411.797 561.492 412.865 561.959C413.946 562.413 414.753 563.014 415.287 563.761C415.821 564.509 416.195 565.396 416.408 566.424C416.542 567.091 416.608 568.259 416.608 569.927V583H413.005V570.067C413.005 568.599 412.865 567.505 412.584 566.784C412.304 566.05 411.804 565.47 411.083 565.042C410.376 564.602 409.542 564.382 408.581 564.382C407.046 564.382 405.718 564.869 404.597 565.843C403.489 566.818 402.935 568.666 402.935 571.389V583H399.332ZM425.477 583H422.134V553.651H425.737V564.122C427.259 562.213 429.201 561.259 431.563 561.259C432.871 561.259 434.105 561.526 435.267 562.06C436.441 562.58 437.402 563.321 438.149 564.282C438.91 565.229 439.504 566.377 439.931 567.725C440.358 569.073 440.572 570.514 440.572 572.049C440.572 575.693 439.671 578.509 437.869 580.498C436.067 582.486 433.905 583.48 431.383 583.48C428.874 583.48 426.905 582.433 425.477 580.337V583ZM425.437 572.209C425.437 574.759 425.784 576.6 426.478 577.735C427.612 579.59 429.147 580.518 431.083 580.518C432.657 580.518 434.019 579.837 435.167 578.476C436.314 577.101 436.888 575.059 436.888 572.35C436.888 569.574 436.334 567.525 435.227 566.204C434.132 564.882 432.804 564.222 431.243 564.222C429.668 564.222 428.306 564.909 427.159 566.284C426.011 567.645 425.437 569.62 425.437 572.209ZM443.635 572.37C443.635 568.432 444.729 565.516 446.918 563.621C448.746 562.046 450.975 561.259 453.604 561.259C456.527 561.259 458.916 562.22 460.771 564.142C462.627 566.05 463.554 568.693 463.554 572.069C463.554 574.805 463.14 576.961 462.313 578.536C461.499 580.097 460.304 581.312 458.729 582.179C457.168 583.047 455.46 583.48 453.604 583.48C450.628 583.48 448.219 582.526 446.377 580.618C444.549 578.709 443.635 575.96 443.635 572.37ZM447.338 572.37C447.338 575.092 447.932 577.134 449.12 578.496C450.308 579.844 451.803 580.518 453.604 580.518C455.393 580.518 456.881 579.837 458.069 578.476C459.257 577.114 459.851 575.039 459.851 572.25C459.851 569.62 459.25 567.632 458.049 566.284C456.861 564.922 455.38 564.242 453.604 564.242C451.803 564.242 450.308 564.916 449.12 566.264C447.932 567.612 447.338 569.647 447.338 572.37ZM466.457 572.37C466.457 568.432 467.551 565.516 469.74 563.621C471.569 562.046 473.798 561.259 476.427 561.259C479.35 561.259 481.739 562.22 483.594 564.142C485.449 566.05 486.376 568.693 486.376 572.069C486.376 574.805 485.963 576.961 485.135 578.536C484.321 580.097 483.127 581.312 481.552 582.179C479.99 583.047 478.282 583.48 476.427 583.48C473.451 583.48 471.042 582.526 469.2 580.618C467.371 578.709 466.457 575.96 466.457 572.37ZM470.161 572.37C470.161 575.092 470.755 577.134 471.942 578.496C473.13 579.844 474.625 580.518 476.427 580.518C478.215 580.518 479.703 579.837 480.891 578.476C482.079 577.114 482.673 575.039 482.673 572.25C482.673 569.62 482.072 567.632 480.871 566.284C479.683 564.922 478.202 564.242 476.427 564.242C474.625 564.242 473.13 564.916 471.942 566.264C470.755 567.612 470.161 569.647 470.161 572.37ZM490.641 583V553.651H494.244V570.388L502.772 561.739H507.437L499.309 569.627L508.258 583H503.813L496.787 572.129L494.244 574.572V583H490.641ZM525.675 576.153L529.398 576.614C528.811 578.789 527.723 580.478 526.135 581.679C524.547 582.88 522.518 583.48 520.049 583.48C516.94 583.48 514.471 582.526 512.642 580.618C510.827 578.696 509.919 576.007 509.919 572.55C509.919 568.973 510.84 566.197 512.682 564.222C514.524 562.246 516.913 561.259 519.849 561.259C522.692 561.259 525.014 562.226 526.816 564.162C528.618 566.097 529.519 568.819 529.519 572.33C529.519 572.543 529.512 572.863 529.499 573.291H513.643C513.777 575.626 514.437 577.415 515.625 578.656C516.813 579.897 518.294 580.518 520.069 580.518C521.391 580.518 522.518 580.171 523.453 579.477C524.387 578.783 525.128 577.675 525.675 576.153ZM513.843 570.328H525.715C525.555 568.539 525.101 567.198 524.354 566.304C523.206 564.916 521.718 564.222 519.889 564.222C518.234 564.222 516.84 564.776 515.705 565.883C514.584 566.991 513.963 568.472 513.843 570.328ZM547.736 583V580.317C546.388 582.426 544.406 583.48 541.791 583.48C540.096 583.48 538.534 583.013 537.106 582.079C535.691 581.145 534.59 579.844 533.803 578.175C533.029 576.494 532.642 574.565 532.642 572.39C532.642 570.268 532.995 568.346 533.703 566.624C534.41 564.889 535.471 563.561 536.886 562.64C538.3 561.719 539.882 561.259 541.63 561.259C542.912 561.259 544.053 561.532 545.054 562.08C546.055 562.613 546.869 563.314 547.496 564.182V553.651H551.08V583H547.736ZM536.345 572.39C536.345 575.112 536.919 577.148 538.067 578.496C539.215 579.844 540.569 580.518 542.131 580.518C543.706 580.518 545.04 579.877 546.135 578.596C547.243 577.301 547.796 575.333 547.796 572.69C547.796 569.78 547.236 567.645 546.115 566.284C544.994 564.922 543.612 564.242 541.971 564.242C540.369 564.242 539.028 564.896 537.947 566.204C536.879 567.512 536.345 569.574 536.345 572.39Z" fill="black"/>
<path d="M0 560H18V578H0V560Z" fill="#5F5E6A"/>
<path d="M178.066 340V311.602H183.848V335.176H198.223V340H178.066ZM201.055 329.336C201.055 327.513 201.504 325.749 202.402 324.043C203.301 322.337 204.57 321.035 206.211 320.137C207.865 319.238 209.707 318.789 211.738 318.789C214.876 318.789 217.448 319.811 219.453 321.855C221.458 323.887 222.461 326.458 222.461 329.57C222.461 332.708 221.445 335.312 219.414 337.383C217.396 339.44 214.85 340.469 211.777 340.469C209.876 340.469 208.06 340.039 206.328 339.18C204.609 338.32 203.301 337.064 202.402 335.41C201.504 333.743 201.055 331.719 201.055 329.336ZM206.68 329.629C206.68 331.686 207.168 333.262 208.145 334.355C209.121 335.449 210.326 335.996 211.758 335.996C213.19 335.996 214.388 335.449 215.352 334.355C216.328 333.262 216.816 331.673 216.816 329.59C216.816 327.559 216.328 325.996 215.352 324.902C214.388 323.809 213.19 323.262 211.758 323.262C210.326 323.262 209.121 323.809 208.145 324.902C207.168 325.996 206.68 327.572 206.68 329.629ZM244.863 325.391L239.453 326.367C239.271 325.286 238.854 324.473 238.203 323.926C237.565 323.379 236.732 323.105 235.703 323.105C234.336 323.105 233.242 323.581 232.422 324.531C231.615 325.469 231.211 327.044 231.211 329.258C231.211 331.719 231.621 333.457 232.441 334.473C233.275 335.488 234.388 335.996 235.781 335.996C236.823 335.996 237.676 335.703 238.34 335.117C239.004 334.518 239.473 333.496 239.746 332.051L245.137 332.969C244.577 335.443 243.503 337.311 241.914 338.574C240.326 339.837 238.197 340.469 235.527 340.469C232.493 340.469 230.072 339.512 228.262 337.598C226.465 335.684 225.566 333.034 225.566 329.648C225.566 326.224 226.471 323.561 228.281 321.66C230.091 319.746 232.539 318.789 235.625 318.789C238.151 318.789 240.156 319.336 241.641 320.43C243.138 321.51 244.212 323.164 244.863 325.391ZM253.145 325.586L248.164 324.688C248.724 322.682 249.688 321.198 251.055 320.234C252.422 319.271 254.453 318.789 257.148 318.789C259.596 318.789 261.419 319.082 262.617 319.668C263.815 320.241 264.655 320.977 265.137 321.875C265.632 322.76 265.879 324.395 265.879 326.777L265.82 333.184C265.82 335.007 265.905 336.354 266.074 337.227C266.257 338.086 266.589 339.01 267.07 340H261.641C261.497 339.635 261.322 339.095 261.113 338.379C261.022 338.053 260.957 337.839 260.918 337.734C259.98 338.646 258.978 339.329 257.91 339.785C256.842 340.241 255.703 340.469 254.492 340.469C252.357 340.469 250.671 339.889 249.434 338.73C248.21 337.572 247.598 336.107 247.598 334.336C247.598 333.164 247.878 332.122 248.438 331.211C248.997 330.286 249.779 329.583 250.781 329.102C251.797 328.607 253.255 328.177 255.156 327.812C257.721 327.331 259.499 326.882 260.488 326.465V325.918C260.488 324.863 260.228 324.115 259.707 323.672C259.186 323.216 258.203 322.988 256.758 322.988C255.781 322.988 255.02 323.184 254.473 323.574C253.926 323.952 253.483 324.622 253.145 325.586ZM260.488 330.039C259.785 330.273 258.672 330.553 257.148 330.879C255.625 331.204 254.629 331.523 254.16 331.836C253.444 332.344 253.086 332.988 253.086 333.77C253.086 334.538 253.372 335.202 253.945 335.762C254.518 336.322 255.247 336.602 256.133 336.602C257.122 336.602 258.066 336.276 258.965 335.625C259.629 335.13 260.065 334.525 260.273 333.809C260.417 333.34 260.488 332.448 260.488 331.133V330.039ZM280.82 319.258V323.633H277.07V331.992C277.07 333.685 277.103 334.674 277.168 334.961C277.246 335.234 277.409 335.462 277.656 335.645C277.917 335.827 278.229 335.918 278.594 335.918C279.102 335.918 279.837 335.742 280.801 335.391L281.27 339.648C279.993 340.195 278.548 340.469 276.934 340.469C275.944 340.469 275.052 340.306 274.258 339.98C273.464 339.642 272.878 339.212 272.5 338.691C272.135 338.158 271.882 337.441 271.738 336.543C271.621 335.905 271.562 334.616 271.562 332.676V323.633H269.043V319.258H271.562V315.137L277.07 311.934V319.258H280.82ZM284.629 316.445V311.367H290.117V316.445H284.629ZM284.629 340V319.258H290.117V340H284.629ZM294.492 329.336C294.492 327.513 294.941 325.749 295.84 324.043C296.738 322.337 298.008 321.035 299.648 320.137C301.302 319.238 303.145 318.789 305.176 318.789C308.314 318.789 310.885 319.811 312.891 321.855C314.896 323.887 315.898 326.458 315.898 329.57C315.898 332.708 314.883 335.312 312.852 337.383C310.833 339.44 308.288 340.469 305.215 340.469C303.314 340.469 301.497 340.039 299.766 339.18C298.047 338.32 296.738 337.064 295.84 335.41C294.941 333.743 294.492 331.719 294.492 329.336ZM300.117 329.629C300.117 331.686 300.605 333.262 301.582 334.355C302.559 335.449 303.763 335.996 305.195 335.996C306.628 335.996 307.826 335.449 308.789 334.355C309.766 333.262 310.254 331.673 310.254 329.59C310.254 327.559 309.766 325.996 308.789 324.902C307.826 323.809 306.628 323.262 305.195 323.262C303.763 323.262 302.559 323.809 301.582 324.902C300.605 325.996 300.117 327.572 300.117 329.629ZM339.082 340H333.594V329.414C333.594 327.174 333.477 325.729 333.242 325.078C333.008 324.414 332.624 323.9 332.09 323.535C331.569 323.171 330.938 322.988 330.195 322.988C329.245 322.988 328.392 323.249 327.637 323.77C326.882 324.29 326.361 324.98 326.074 325.84C325.801 326.699 325.664 328.288 325.664 330.605V340H320.176V319.258H325.273V322.305C327.083 319.961 329.362 318.789 332.109 318.789C333.32 318.789 334.427 319.01 335.43 319.453C336.432 319.883 337.188 320.436 337.695 321.113C338.216 321.79 338.574 322.559 338.77 323.418C338.978 324.277 339.082 325.508 339.082 327.109V340ZM342.734 334.082L348.242 333.242C348.477 334.31 348.952 335.124 349.668 335.684C350.384 336.23 351.387 336.504 352.676 336.504C354.095 336.504 355.163 336.243 355.879 335.723C356.361 335.358 356.602 334.87 356.602 334.258C356.602 333.841 356.471 333.496 356.211 333.223C355.938 332.962 355.326 332.721 354.375 332.5C349.948 331.523 347.142 330.632 345.957 329.824C344.316 328.704 343.496 327.148 343.496 325.156C343.496 323.359 344.206 321.849 345.625 320.625C347.044 319.401 349.245 318.789 352.227 318.789C355.065 318.789 357.174 319.251 358.555 320.176C359.935 321.1 360.885 322.467 361.406 324.277L356.23 325.234C356.009 324.427 355.586 323.809 354.961 323.379C354.349 322.949 353.47 322.734 352.324 322.734C350.879 322.734 349.844 322.936 349.219 323.34C348.802 323.626 348.594 323.997 348.594 324.453C348.594 324.844 348.776 325.176 349.141 325.449C349.635 325.814 351.341 326.328 354.258 326.992C357.188 327.656 359.232 328.47 360.391 329.434C361.536 330.41 362.109 331.771 362.109 333.516C362.109 335.417 361.315 337.051 359.727 338.418C358.138 339.785 355.788 340.469 352.676 340.469C349.85 340.469 347.611 339.896 345.957 338.75C344.316 337.604 343.242 336.048 342.734 334.082Z" fill="black"/>
<path fill-rule="evenodd" clip-rule="evenodd" d="M264.965 75.0205C144.862 76.6443 48 174.511 48 295C48 416.503 146.497 515 268 515C389.503 515 488 416.503 488 295C488 248.468 473.553 205.309 448.901 169.766L379.069 220.358C393.547 241.813 402 267.669 402 295.5C402 369.782 341.782 430 267.5 430C193.218 430 133 369.782 133 295.5C133 222.054 191.869 162.358 264.996 161.023L264.965 75.0205ZM134.383 437.642C135.051 438.71 136.112 439.551 137.566 440.165C135.871 440.885 134.63 441.913 133.843 443.248C133.055 444.569 132.662 446.024 132.662 447.612C132.662 450.495 133.709 452.764 135.805 454.418C137.58 455.82 139.802 456.521 142.471 456.521C145.341 456.521 147.636 455.673 149.358 453.978C151.093 452.283 151.96 450.081 151.96 447.372C151.96 445.73 151.533 444.282 150.679 443.027C149.838 441.773 148.604 440.819 146.976 440.165C148.257 439.604 149.251 438.797 149.958 437.742C150.666 436.674 151.02 435.46 151.02 434.099C151.02 431.91 150.245 430.101 148.697 428.673C147.162 427.245 145 426.531 142.211 426.531C139.395 426.531 137.219 427.245 135.685 428.673C134.163 430.101 133.402 431.91 133.402 434.099C133.402 435.38 133.729 436.561 134.383 437.642ZM139.668 437.122C139.041 436.494 138.728 435.62 138.728 434.499C138.728 433.445 139.048 432.597 139.688 431.957C140.329 431.316 141.19 430.996 142.271 430.996C143.312 430.996 144.146 431.316 144.773 431.957C145.414 432.584 145.734 433.425 145.734 434.479C145.734 435.6 145.414 436.481 144.773 437.122C144.133 437.749 143.279 438.062 142.211 438.062C141.157 438.062 140.309 437.749 139.668 437.122ZM139.388 450.695C138.601 449.827 138.207 448.619 138.207 447.071C138.207 445.964 138.541 444.936 139.208 443.988C139.889 443.041 140.916 442.567 142.291 442.567C143.479 442.567 144.46 442.987 145.234 443.828C146.008 444.656 146.395 445.757 146.395 447.131C146.395 448.706 146.015 449.914 145.254 450.755C144.493 451.582 143.532 451.996 142.371 451.996C141.183 451.996 140.189 451.562 139.388 450.695ZM161.25 447.872L155.644 448.453C155.978 450.908 156.999 452.864 158.707 454.318C160.415 455.773 162.624 456.5 165.333 456.5C168.723 456.5 171.373 455.206 173.281 452.617C174.683 450.722 175.383 448.566 175.383 446.15C175.383 443.254 174.516 440.899 172.781 439.083C171.046 437.268 168.93 436.361 166.435 436.361C165.127 436.361 163.845 436.674 162.591 437.302L163.472 432.317H174.082V427.052H159.208L156.325 442.327L160.889 442.987C162.17 441.559 163.618 440.845 165.233 440.845C166.528 440.845 167.576 441.299 168.376 442.207C169.191 443.101 169.598 444.449 169.598 446.25C169.598 448.172 169.191 449.614 168.376 450.575C167.562 451.522 166.568 451.996 165.394 451.996C164.366 451.996 163.458 451.629 162.671 450.895C161.883 450.148 161.41 449.14 161.25 447.872ZM180.148 428.053C179 429.321 178.426 431.269 178.426 433.898C178.426 436.541 179 438.496 180.148 439.764C181.309 441.019 182.911 441.646 184.953 441.646C186.928 441.646 188.489 441.012 189.637 439.744C190.798 438.476 191.379 436.528 191.379 433.898C191.379 431.256 190.798 429.307 189.637 428.053C188.489 426.785 186.895 426.151 184.853 426.151C182.877 426.151 181.309 426.785 180.148 428.053ZM183.471 437.702C183.031 437.048 182.811 435.767 182.811 433.858C182.811 431.95 183.031 430.669 183.471 430.015C183.805 429.534 184.265 429.294 184.853 429.294C185.453 429.294 185.92 429.541 186.254 430.035C186.681 430.675 186.895 431.95 186.895 433.858C186.895 435.767 186.681 437.048 186.254 437.702C185.92 438.183 185.453 438.423 184.853 438.423C184.265 438.423 183.805 438.183 183.471 437.702ZM184.973 457.121H189.137L204.652 426.151H200.608L184.973 457.121ZM199.947 443.568C198.799 444.836 198.226 446.784 198.226 449.414C198.226 452.056 198.799 454.011 199.947 455.279C201.108 456.547 202.71 457.181 204.752 457.181C206.727 457.181 208.289 456.547 209.437 455.279C210.598 454.011 211.178 452.056 211.178 449.414C211.178 446.784 210.598 444.836 209.437 443.568C208.289 442.3 206.707 441.666 204.692 441.666C202.69 441.666 201.108 442.3 199.947 443.568ZM203.271 453.217C202.83 452.577 202.61 451.302 202.61 449.394C202.61 447.485 202.83 446.204 203.271 445.55C203.591 445.069 204.051 444.829 204.652 444.829C205.252 444.829 205.72 445.069 206.053 445.55C206.48 446.204 206.694 447.485 206.694 449.394C206.694 451.302 206.474 452.583 206.033 453.237C205.713 453.718 205.252 453.958 204.652 453.958C204.065 453.958 203.604 453.711 203.271 453.217Z" fill="#DCA413"/>
<path fill-rule="evenodd" clip-rule="evenodd" d="M269.996 161.023C313.631 161.817 352.19 183.39 376.195 216.266L446.005 165.69C406.367 111.22 342.337 75.6419 269.965 75.0086L269.996 161.023ZM312.51 152H318.136V122.531H313.571C312.931 124.32 311.749 125.888 310.028 127.236C308.306 128.57 306.711 129.478 305.243 129.958V135.063C308.033 134.143 310.455 132.721 312.51 130.799V152ZM332.249 143.872L326.644 144.453C326.978 146.908 327.999 148.864 329.707 150.318C331.415 151.773 333.624 152.5 336.333 152.5C339.723 152.5 342.373 151.206 344.281 148.617C345.683 146.722 346.383 144.566 346.383 142.15C346.383 139.254 345.516 136.899 343.781 135.083C342.046 133.268 339.93 132.361 337.435 132.361C336.127 132.361 334.845 132.674 333.591 133.302L334.472 128.317H345.082V123.052H330.208L327.325 138.327L331.889 138.987C333.17 137.559 334.618 136.845 336.233 136.845C337.528 136.845 338.576 137.299 339.376 138.207C340.191 139.101 340.598 140.449 340.598 142.25C340.598 144.172 340.191 145.614 339.376 146.575C338.562 147.522 337.568 147.996 336.394 147.996C335.366 147.996 334.458 147.629 333.671 146.895C332.883 146.148 332.41 145.14 332.249 143.872ZM351.148 124.053C350 125.321 349.426 127.269 349.426 129.898C349.426 132.541 350 134.496 351.148 135.764C352.309 137.019 353.911 137.646 355.953 137.646C357.928 137.646 359.489 137.012 360.637 135.744C361.798 134.476 362.379 132.528 362.379 129.898C362.379 127.256 361.798 125.307 360.637 124.053C359.489 122.785 357.895 122.151 355.853 122.151C353.877 122.151 352.309 122.785 351.148 124.053ZM354.471 133.702C354.031 133.048 353.811 131.767 353.811 129.858C353.811 127.95 354.031 126.669 354.471 126.015C354.805 125.534 355.265 125.294 355.853 125.294C356.453 125.294 356.92 125.541 357.254 126.035C357.681 126.675 357.895 127.95 357.895 129.858C357.895 131.767 357.681 133.048 357.254 133.702C356.92 134.183 356.453 134.423 355.853 134.423C355.265 134.423 354.805 134.183 354.471 133.702ZM355.973 153.121H360.137L375.652 122.151H371.608L355.973 153.121ZM370.947 139.568C369.799 140.836 369.226 142.784 369.226 145.414C369.226 148.056 369.799 150.011 370.947 151.279C372.108 152.547 373.71 153.181 375.752 153.181C377.727 153.181 379.289 152.547 380.437 151.279C381.598 150.011 382.178 148.056 382.178 145.414C382.178 142.784 381.598 140.836 380.437 139.568C379.289 138.3 377.707 137.666 375.692 137.666C373.69 137.666 372.108 138.3 370.947 139.568ZM374.27 149.217C373.83 148.577 373.61 147.302 373.61 145.394C373.61 143.485 373.83 142.204 374.27 141.55C374.591 141.069 375.051 140.829 375.652 140.829C376.252 140.829 376.72 141.069 377.053 141.55C377.48 142.204 377.694 143.485 377.694 145.394C377.694 147.302 377.474 148.583 377.033 149.237C376.713 149.718 376.252 149.958 375.652 149.958C375.065 149.958 374.604 149.711 374.27 149.217Z" fill="#5F5E6A"/>
<path d="M172.969 280.812V271.969L194.906 263.344L172.969 254.812V246.031L204.406 259.625V267.125L172.969 280.812ZM239.75 277.844V286H208.969C209.302 282.917 210.302 280 211.969 277.25C213.635 274.479 216.927 270.812 221.844 266.25C225.802 262.562 228.229 260.062 229.125 258.75C230.333 256.938 230.938 255.146 230.938 253.375C230.938 251.417 230.406 249.917 229.344 248.875C228.302 247.812 226.854 247.281 225 247.281C223.167 247.281 221.708 247.833 220.625 248.938C219.542 250.042 218.917 251.875 218.75 254.438L210 253.562C210.521 248.729 212.156 245.26 214.906 243.156C217.656 241.052 221.094 240 225.219 240C229.74 240 233.292 241.219 235.875 243.656C238.458 246.094 239.75 249.125 239.75 252.75C239.75 254.812 239.375 256.781 238.625 258.656C237.896 260.51 236.729 262.458 235.125 264.5C234.062 265.854 232.146 267.802 229.375 270.344C226.604 272.885 224.844 274.573 224.094 275.406C223.365 276.24 222.771 277.052 222.312 277.844H239.75ZM247.375 277.219H256.156V283.5C256.156 286.042 255.938 288.042 255.5 289.5C255.062 290.979 254.229 292.302 253 293.469C251.792 294.635 250.25 295.552 248.375 296.219L246.656 292.594C248.427 292.01 249.688 291.208 250.438 290.188C251.188 289.167 251.583 287.771 251.625 286H247.375V277.219ZM280.75 286V276.781H262V269.094L281.875 240H289.25V269.062H294.938V276.781H289.25V286H280.75ZM280.75 269.062V253.406L270.219 269.062H280.75ZM314 240C318.438 240 321.906 241.583 324.406 244.75C327.385 248.5 328.875 254.719 328.875 263.406C328.875 272.073 327.375 278.302 324.375 282.094C321.896 285.219 318.438 286.781 314 286.781C309.542 286.781 305.948 285.073 303.219 281.656C300.49 278.219 299.125 272.104 299.125 263.312C299.125 254.688 300.625 248.479 303.625 244.688C306.104 241.562 309.562 240 314 240ZM314 247.281C312.938 247.281 311.99 247.625 311.156 248.312C310.323 248.979 309.677 250.188 309.219 251.938C308.615 254.208 308.312 258.031 308.312 263.406C308.312 268.781 308.583 272.479 309.125 274.5C309.667 276.5 310.344 277.833 311.156 278.5C311.99 279.167 312.938 279.5 314 279.5C315.062 279.5 316.01 279.167 316.844 278.5C317.677 277.812 318.323 276.594 318.781 274.844C319.385 272.594 319.688 268.781 319.688 263.406C319.688 258.031 319.417 254.344 318.875 252.344C318.333 250.323 317.646 248.979 316.812 248.312C316 247.625 315.062 247.281 314 247.281ZM349.625 240C354.062 240 357.531 241.583 360.031 244.75C363.01 248.5 364.5 254.719 364.5 263.406C364.5 272.073 363 278.302 360 282.094C357.521 285.219 354.062 286.781 349.625 286.781C345.167 286.781 341.573 285.073 338.844 281.656C336.115 278.219 334.75 272.104 334.75 263.312C334.75 254.688 336.25 248.479 339.25 244.688C341.729 241.562 345.188 240 349.625 240ZM349.625 247.281C348.562 247.281 347.615 247.625 346.781 248.312C345.948 248.979 345.302 250.188 344.844 251.938C344.24 254.208 343.938 258.031 343.938 263.406C343.938 268.781 344.208 272.479 344.75 274.5C345.292 276.5 345.969 277.833 346.781 278.5C347.615 279.167 348.562 279.5 349.625 279.5C350.688 279.5 351.635 279.167 352.469 278.5C353.302 277.812 353.948 276.594 354.406 274.844C355.01 272.594 355.312 268.781 355.312 263.406C355.312 258.031 355.042 254.344 354.5 252.344C353.958 250.323 353.271 248.979 352.438 248.312C351.625 247.625 350.688 247.281 349.625 247.281Z" fill="black"/>
</svg>
