<svg width="622" height="603" viewBox="0 0 622 603" fill="none" xmlns="http://www.w3.org/2000/svg">
<path d="M189.567 580.7V551.113H195.46L202.463 572.063C203.109 574.013 203.579 575.473 203.876 576.442C204.212 575.365 204.737 573.785 205.45 571.699L212.533 551.113H217.801V580.7H214.027V555.937L205.429 580.7H201.898L193.341 555.514V580.7H189.567ZM237.639 578.056C236.294 579.2 234.996 580.008 233.745 580.478C232.507 580.949 231.175 581.184 229.749 581.184C227.394 581.184 225.584 580.612 224.32 579.469C223.055 578.312 222.423 576.839 222.423 575.05C222.423 574 222.658 573.045 223.129 572.184C223.614 571.309 224.24 570.609 225.006 570.085C225.786 569.56 226.661 569.163 227.63 568.894C228.343 568.706 229.419 568.524 230.859 568.349C233.791 567.999 235.952 567.582 237.337 567.098C237.351 566.6 237.357 566.283 237.357 566.149C237.357 564.669 237.014 563.626 236.328 563.021C235.399 562.2 234.02 561.79 232.19 561.79C230.482 561.79 229.218 562.093 228.397 562.698C227.589 563.29 226.991 564.347 226.601 565.867L223.048 565.382C223.372 563.862 223.903 562.638 224.643 561.709C225.383 560.767 226.452 560.047 227.852 559.55C229.251 559.038 230.872 558.783 232.716 558.783C234.545 558.783 236.032 558.998 237.176 559.428C238.319 559.859 239.16 560.404 239.698 561.063C240.236 561.709 240.613 562.53 240.829 563.525C240.95 564.144 241.01 565.261 241.01 566.876V571.719C241.01 575.096 241.084 577.235 241.232 578.138C241.393 579.025 241.703 579.88 242.161 580.7H238.366C237.989 579.947 237.747 579.065 237.639 578.056ZM237.337 569.944C236.018 570.481 234.04 570.939 231.403 571.316C229.91 571.53 228.854 571.773 228.235 572.043C227.616 572.312 227.139 572.708 226.802 573.233C226.465 573.744 226.298 574.316 226.298 574.948C226.298 575.917 226.661 576.724 227.388 577.37C228.128 578.016 229.203 578.339 230.617 578.339C232.016 578.339 233.26 578.036 234.35 577.431C235.44 576.812 236.24 575.971 236.752 574.908C237.142 574.087 237.337 572.876 237.337 571.275V569.944ZM246.661 580.7V559.267H249.93V562.314C251.505 559.96 253.778 558.783 256.752 558.783C258.043 558.783 259.228 559.018 260.303 559.489C261.393 559.946 262.208 560.552 262.746 561.305C263.284 562.059 263.66 562.953 263.876 563.99C264.01 564.662 264.078 565.84 264.078 567.521V580.7H260.446V567.662C260.446 566.182 260.303 565.08 260.021 564.353C259.739 563.613 259.234 563.028 258.508 562.597C257.794 562.153 256.954 561.931 255.985 561.931C254.437 561.931 253.099 562.422 251.968 563.404C250.852 564.387 250.294 566.25 250.294 568.995V580.7H246.661ZM283.654 578.056C282.308 579.2 281.01 580.008 279.759 580.478C278.521 580.949 277.189 581.184 275.763 581.184C273.409 581.184 271.599 580.612 270.334 579.469C269.07 578.312 268.437 576.839 268.437 575.05C268.437 574 268.673 573.045 269.144 572.184C269.627 571.309 270.253 570.609 271.021 570.085C271.801 569.56 272.675 569.163 273.644 568.894C274.357 568.706 275.433 568.524 276.873 568.349C279.806 567.999 281.966 567.582 283.352 567.098C283.365 566.6 283.372 566.283 283.372 566.149C283.372 564.669 283.028 563.626 282.343 563.021C281.414 562.2 280.035 561.79 278.205 561.79C276.497 561.79 275.231 562.093 274.411 562.698C273.603 563.29 273.005 564.347 272.614 565.867L269.063 565.382C269.385 563.862 269.917 562.638 270.657 561.709C271.397 560.767 272.467 560.047 273.866 559.55C275.266 559.038 276.887 558.783 278.73 558.783C280.559 558.783 282.046 558.998 283.19 559.428C284.334 559.859 285.174 560.404 285.713 561.063C286.251 561.709 286.628 562.53 286.843 563.525C286.964 564.144 287.024 565.261 287.024 566.876V571.719C287.024 575.096 287.099 577.235 287.247 578.138C287.408 579.025 287.718 579.88 288.175 580.7H284.381C284.004 579.947 283.762 579.065 283.654 578.056ZM283.352 569.944C282.033 570.481 280.055 570.939 277.418 571.316C275.925 571.53 274.869 571.773 274.25 572.043C273.631 572.312 273.153 572.708 272.817 573.233C272.48 573.744 272.312 574.316 272.312 574.948C272.312 575.917 272.675 576.724 273.402 577.37C274.142 578.016 275.218 578.339 276.631 578.339C278.03 578.339 279.275 578.036 280.365 577.431C281.454 576.812 282.255 575.971 282.766 574.908C283.156 574.087 283.352 572.876 283.352 571.275V569.944ZM292.009 582.476L295.542 583.001C295.689 584.09 296.099 584.885 296.773 585.383C297.674 586.055 298.905 586.392 300.465 586.392C302.148 586.392 303.446 586.055 304.361 585.383C305.276 584.709 305.895 583.768 306.218 582.557C306.406 581.817 306.493 580.263 306.48 577.895C304.892 579.765 302.914 580.7 300.546 580.7C297.6 580.7 295.319 579.638 293.705 577.511C292.09 575.385 291.282 572.836 291.282 569.863C291.282 567.818 291.652 565.933 292.392 564.212C293.133 562.476 294.203 561.137 295.602 560.195C297.015 559.254 298.67 558.783 300.566 558.783C303.096 558.783 305.181 559.805 306.822 561.851V559.267H310.173V577.794C310.173 581.131 309.83 583.492 309.144 584.878C308.471 586.277 307.395 587.38 305.915 588.187C304.448 588.995 302.639 589.398 300.485 589.398C297.93 589.398 295.864 588.82 294.29 587.663C292.716 586.519 291.956 584.79 292.009 582.476ZM295.016 569.6C295.016 572.413 295.575 574.464 296.692 575.755C297.808 577.047 299.207 577.693 300.89 577.693C302.558 577.693 303.957 577.054 305.087 575.776C306.218 574.484 306.782 572.466 306.782 569.721C306.782 567.098 306.197 565.12 305.027 563.788C303.87 562.455 302.47 561.79 300.829 561.79C299.214 561.79 297.842 562.449 296.712 563.768C295.582 565.072 295.016 567.017 295.016 569.6ZM330.355 573.798L334.109 574.262C333.517 576.455 332.42 578.158 330.819 579.368C329.217 580.579 327.173 581.184 324.684 581.184C321.549 581.184 319.06 580.222 317.217 578.299C315.386 576.361 314.472 573.65 314.472 570.165C314.472 566.559 315.4 563.761 317.257 561.77C319.113 559.778 321.522 558.783 324.482 558.783C327.347 558.783 329.689 559.758 331.505 561.709C333.321 563.66 334.23 566.404 334.23 569.944C334.23 570.158 334.223 570.481 334.21 570.912H318.225C318.36 573.266 319.026 575.07 320.223 576.321C321.421 577.572 322.915 578.198 324.704 578.198C326.036 578.198 327.173 577.848 328.115 577.149C329.056 576.449 329.803 575.332 330.355 573.798ZM318.428 567.925H330.395C330.234 566.122 329.776 564.77 329.023 563.869C327.866 562.47 326.366 561.77 324.523 561.77C322.854 561.77 321.448 562.328 320.304 563.444C319.174 564.561 318.549 566.054 318.428 567.925ZM338.69 580.7V559.267H341.939V562.274C342.612 561.225 343.506 560.384 344.623 559.752C345.74 559.106 347.011 558.783 348.438 558.783C350.026 558.783 351.324 559.113 352.332 559.772C353.355 560.431 354.075 561.353 354.493 562.536C356.187 560.034 358.394 558.783 361.112 558.783C363.238 558.783 364.872 559.375 366.016 560.559C367.159 561.73 367.731 563.539 367.731 565.988V580.7H364.119V567.199C364.119 565.746 363.998 564.703 363.756 564.07C363.527 563.424 363.103 562.906 362.484 562.516C361.865 562.126 361.139 561.931 360.304 561.931C358.797 561.931 357.546 562.435 356.551 563.444C355.555 564.44 355.057 566.041 355.057 568.248V580.7H351.425V566.775C351.425 565.16 351.129 563.949 350.537 563.142C349.945 562.335 348.976 561.931 347.63 561.931C346.608 561.931 345.66 562.2 344.785 562.739C343.924 563.276 343.298 564.063 342.907 565.1C342.517 566.136 342.323 567.629 342.323 569.58V580.7H338.69ZM387.792 573.798L391.545 574.262C390.954 576.455 389.857 578.158 388.256 579.368C386.655 580.579 384.61 581.184 382.121 581.184C378.987 581.184 376.497 580.222 374.654 578.299C372.824 576.361 371.909 573.65 371.909 570.165C371.909 566.559 372.837 563.761 374.694 561.77C376.551 559.778 378.959 558.783 381.919 558.783C384.785 558.783 387.126 559.758 388.943 561.709C390.759 563.66 391.667 566.404 391.667 569.944C391.667 570.158 391.66 570.481 391.647 570.912H375.663C375.798 573.266 376.463 575.07 377.661 576.321C378.858 577.572 380.351 578.198 382.141 578.198C383.474 578.198 384.61 577.848 385.552 577.149C386.494 576.449 387.241 575.332 387.792 573.798ZM375.864 567.925H387.833C387.671 566.122 387.214 564.77 386.461 563.869C385.303 562.47 383.803 561.77 381.959 561.77C380.291 561.77 378.886 562.328 377.741 563.444C376.611 564.561 375.985 566.054 375.864 567.925ZM396.127 580.7V559.267H399.397V562.314C400.971 559.96 403.245 558.783 406.218 558.783C407.51 558.783 408.693 559.018 409.77 559.489C410.86 559.946 411.674 560.552 412.212 561.305C412.75 562.059 413.127 562.953 413.343 563.99C413.477 564.662 413.544 565.84 413.544 567.521V580.7H409.911V567.662C409.911 566.182 409.77 565.08 409.488 564.353C409.205 563.613 408.7 563.028 407.974 562.597C407.261 562.153 406.42 561.931 405.451 561.931C403.904 561.931 402.565 562.422 401.435 563.404C400.318 564.387 399.759 566.25 399.759 568.995V580.7H396.127ZM427.066 577.451L427.59 580.66C426.568 580.876 425.653 580.982 424.846 580.982C423.528 580.982 422.504 580.774 421.778 580.357C421.052 579.94 420.541 579.395 420.244 578.722C419.949 578.036 419.801 576.603 419.801 574.424V562.093H417.136V559.267H419.801V553.959L423.413 551.78V559.267H427.066V562.093H423.413V574.625C423.413 575.662 423.473 576.327 423.594 576.623C423.729 576.92 423.938 577.155 424.22 577.33C424.516 577.504 424.933 577.592 425.471 577.592C425.875 577.592 426.407 577.545 427.066 577.451ZM459.054 577.209C457.857 578.541 456.551 579.543 455.139 580.216C453.726 580.876 452.199 581.204 450.558 581.204C447.531 581.204 445.128 580.182 443.353 578.138C441.913 576.469 441.193 574.605 441.193 572.547C441.193 570.717 441.778 569.069 442.949 567.602C444.133 566.122 445.895 564.823 448.236 563.708C446.904 562.173 446.016 560.929 445.573 559.974C445.128 559.018 444.906 558.096 444.906 557.208C444.906 555.433 445.599 553.892 446.985 552.587C448.384 551.269 450.14 550.609 452.252 550.609C454.271 550.609 455.919 551.228 457.197 552.466C458.489 553.704 459.135 555.19 459.135 556.926C459.135 559.738 457.271 562.14 453.544 564.131L458.853 570.892C459.457 569.708 459.928 568.336 460.265 566.775L464.039 567.582C463.393 570.165 462.518 572.292 461.415 573.959C462.774 575.762 464.314 577.276 466.037 578.5L463.595 581.387C462.128 580.444 460.615 579.052 459.054 577.209ZM451.668 561.79C453.241 560.862 454.258 560.047 454.715 559.347C455.186 558.648 455.421 557.875 455.421 557.027C455.421 556.018 455.098 555.197 454.452 554.565C453.82 553.919 453.027 553.596 452.071 553.596C451.089 553.596 450.269 553.912 449.609 554.545C448.963 555.177 448.64 555.95 448.64 556.866C448.64 557.323 448.754 557.807 448.983 558.318C449.225 558.816 449.582 559.347 450.053 559.913L451.668 561.79ZM456.774 574.343L450.113 566.089C448.149 567.259 446.824 568.349 446.137 569.358C445.452 570.354 445.108 571.343 445.108 572.325C445.108 573.522 445.586 574.766 446.542 576.059C447.496 577.35 448.849 577.995 450.598 577.995C451.688 577.995 452.811 577.66 453.968 576.986C455.139 576.301 456.074 575.42 456.774 574.343ZM482.343 580.7V551.113H486.259V580.7H482.343ZM492.717 580.7V559.267H495.987V562.314C497.561 559.96 499.835 558.783 502.808 558.783C504.099 558.783 505.284 559.018 506.36 559.489C507.45 559.946 508.264 560.552 508.802 561.305C509.34 562.059 509.716 562.953 509.932 563.99C510.066 564.662 510.134 565.84 510.134 567.521V580.7H506.502V567.662C506.502 566.182 506.36 565.08 506.077 564.353C505.795 563.613 505.291 563.028 504.564 562.597C503.85 562.153 503.009 561.931 502.041 561.931C500.494 561.931 499.155 562.422 498.024 563.404C496.908 564.387 496.35 566.25 496.35 568.995V580.7H492.717ZM514.271 574.303L517.864 573.737C518.065 575.177 518.624 576.281 519.538 577.047C520.467 577.814 521.758 578.198 523.413 578.198C525.082 578.198 526.32 577.861 527.127 577.189C527.934 576.502 528.338 575.702 528.338 574.787C528.338 573.966 527.981 573.321 527.269 572.849C526.771 572.526 525.533 572.116 523.555 571.618C520.891 570.946 519.04 570.367 518.005 569.883C516.982 569.385 516.202 568.706 515.664 567.845C515.139 566.97 514.877 566.008 514.877 564.959C514.877 564.003 515.092 563.122 515.522 562.314C515.967 561.494 516.565 560.814 517.318 560.276C517.884 559.859 518.65 559.509 519.619 559.226C520.602 558.931 521.651 558.783 522.767 558.783C524.45 558.783 525.923 559.025 527.188 559.509C528.466 559.994 529.408 560.653 530.013 561.487C530.618 562.308 531.036 563.411 531.265 564.797L527.712 565.281C527.551 564.178 527.08 563.317 526.3 562.698C525.532 562.079 524.443 561.77 523.03 561.77C521.362 561.77 520.171 562.045 519.458 562.597C518.745 563.149 518.388 563.794 518.388 564.534C518.388 565.005 518.536 565.429 518.833 565.806C519.128 566.197 519.593 566.519 520.225 566.775C520.588 566.909 521.657 567.219 523.434 567.703C526.003 568.389 527.793 568.955 528.802 569.398C529.825 569.829 530.625 570.461 531.204 571.296C531.782 572.129 532.071 573.166 532.071 574.404C532.071 575.614 531.715 576.758 531.001 577.834C530.302 578.898 529.287 579.724 527.954 580.317C526.622 580.896 525.115 581.184 523.434 581.184C520.648 581.184 518.523 580.606 517.056 579.449C515.603 578.292 514.675 576.576 514.271 574.303ZM536.411 555.291V551.113H540.043V555.291H536.411ZM536.411 580.7V559.267H540.043V580.7H536.411ZM559.499 580.7V577.995C558.14 580.122 556.142 581.184 553.504 581.184C551.796 581.184 550.222 580.713 548.782 579.772C547.356 578.83 546.246 577.519 545.452 575.836C544.671 574.141 544.281 572.197 544.281 570.004C544.281 567.865 544.638 565.927 545.351 564.191C546.065 562.442 547.134 561.104 548.56 560.175C549.986 559.247 551.581 558.783 553.343 558.783C554.634 558.783 555.785 559.058 556.794 559.611C557.803 560.148 558.624 560.855 559.257 561.73V551.113H562.869V580.7H559.499ZM548.015 570.004C548.015 572.748 548.594 574.801 549.751 576.16C550.907 577.519 552.273 578.198 553.848 578.198C555.435 578.198 556.781 577.552 557.884 576.26C559.001 574.955 559.559 572.971 559.559 570.307C559.559 567.373 558.994 565.221 557.863 563.849C556.733 562.476 555.341 561.79 553.686 561.79C552.072 561.79 550.719 562.449 549.629 563.768C548.554 565.087 548.015 567.165 548.015 570.004ZM583.273 573.798L587.027 574.262C586.434 576.455 585.338 578.158 583.736 579.368C582.136 580.579 580.091 581.184 577.601 581.184C574.467 581.184 571.978 580.222 570.134 578.299C568.304 576.361 567.39 573.65 567.39 570.165C567.39 566.559 568.318 563.761 570.174 561.77C572.031 559.778 574.44 558.783 577.399 558.783C580.265 558.783 582.606 559.758 584.423 561.709C586.239 563.66 587.148 566.404 587.148 569.944C587.148 570.158 587.141 570.481 587.128 570.912H571.143C571.278 573.266 571.944 575.07 573.141 576.321C574.339 577.572 575.832 578.198 577.622 578.198C578.954 578.198 580.091 577.848 581.033 577.149C581.974 576.449 582.721 575.332 583.273 573.798ZM571.345 567.925H583.313C583.152 566.122 582.694 564.77 581.941 563.869C580.784 562.47 579.284 561.77 577.44 561.77C575.771 561.77 574.366 562.328 573.222 563.444C572.092 564.561 571.467 566.054 571.345 567.925ZM591.567 580.7V559.267H594.837V562.516C595.671 560.996 596.437 559.994 597.137 559.509C597.851 559.025 598.631 558.783 599.479 558.783C600.703 558.783 601.948 559.173 603.212 559.953L601.961 563.323C601.073 562.799 600.185 562.536 599.296 562.536C598.503 562.536 597.79 562.779 597.157 563.263C596.525 563.734 596.075 564.393 595.805 565.241C595.402 566.532 595.201 567.946 595.201 569.479V580.7H591.567ZM603.919 574.303L607.511 573.737C607.713 575.177 608.272 576.281 609.186 577.047C610.114 577.814 611.406 578.198 613.061 578.198C614.73 578.198 615.967 577.861 616.774 577.189C617.581 576.502 617.986 575.702 617.986 574.787C617.986 573.966 617.629 573.321 616.916 572.849C616.418 572.526 615.18 572.116 613.202 571.618C610.538 570.946 608.688 570.367 607.653 569.883C606.629 569.385 605.849 568.706 605.311 567.845C604.787 566.97 604.524 566.008 604.524 564.959C604.524 564.003 604.739 563.122 605.17 562.314C605.614 561.494 606.213 560.814 606.966 560.276C607.531 559.859 608.298 559.509 609.267 559.226C610.249 558.931 611.298 558.783 612.415 558.783C614.096 558.783 615.57 559.025 616.834 559.509C618.113 559.994 619.055 560.653 619.66 561.487C620.266 562.308 620.683 563.411 620.911 564.797L617.36 565.281C617.198 564.178 616.728 563.317 615.947 562.698C615.18 562.079 614.09 561.77 612.677 561.77C611.009 561.77 609.818 562.045 609.105 562.597C608.393 563.149 608.036 563.794 608.036 564.534C608.036 565.005 608.184 565.429 608.479 565.806C608.776 566.197 609.239 566.519 609.872 566.775C610.235 566.909 611.305 567.219 613.081 567.703C615.651 568.389 617.44 568.955 618.449 569.398C619.472 569.829 620.272 570.461 620.851 571.296C621.429 572.129 621.719 573.166 621.719 574.404C621.719 575.614 621.363 576.758 620.649 577.834C619.949 578.898 618.933 579.724 617.602 580.317C616.27 580.896 614.763 581.184 613.081 581.184C610.296 581.184 608.17 580.606 606.704 579.449C605.25 578.292 604.322 576.576 603.919 574.303Z" fill="black"/>
<path d="M34.2784 580.7V551.113H38.1937V565.786L52.886 551.113H58.1939L45.7821 563.102L58.7388 580.7H53.5722L43.0374 565.726L38.1937 570.448V580.7H34.2784ZM61.8468 580.7V551.113H65.762V565.786L80.4543 551.113H85.7622L73.3503 563.102L86.3071 580.7H81.1405L70.6057 565.726L65.762 570.448V580.7H61.8468ZM89.637 580.7V551.113H102.755C105.392 551.113 107.397 551.382 108.769 551.921C110.141 552.446 111.238 553.381 112.059 554.726C112.879 556.071 113.29 557.558 113.29 559.186C113.29 561.285 112.61 563.054 111.251 564.494C109.892 565.933 107.794 566.849 104.955 567.239C105.991 567.737 106.778 568.228 107.317 568.712C108.46 569.761 109.543 571.074 110.566 572.647L115.712 580.7H110.788L106.872 574.545C105.729 572.768 104.786 571.409 104.046 570.468C103.306 569.526 102.641 568.867 102.049 568.49C101.471 568.113 100.878 567.851 100.273 567.703C99.8289 567.609 99.1023 567.562 98.0932 567.562H93.5523V580.7H89.637ZM93.5523 564.171H101.968C103.758 564.171 105.157 563.99 106.165 563.626C107.175 563.25 107.942 562.658 108.467 561.851C108.991 561.03 109.253 560.142 109.253 559.186C109.253 557.787 108.742 556.637 107.72 555.735C106.711 554.834 105.11 554.384 102.916 554.384H93.5523V564.171Z" fill="black"/>
<path d="M18.1459 557.514H0V575.66H18.1459V557.514Z" fill="#5F5E6A"/>
<path d="M174.402 554.489H156.256V572.635H174.402V554.489Z" fill="#DCA413"/>
<path d="M203.015 287.462V274.267C198.901 273.09 195.877 271.317 193.945 268.944C192.035 266.551 191.08 263.654 191.08 260.252C191.08 256.809 192.161 253.923 194.323 251.592C196.507 249.241 199.405 247.886 203.015 247.529V244.411H207.582V247.529C210.92 247.928 213.576 249.072 215.55 250.962C217.523 252.83 218.783 255.34 219.329 258.489L211.361 259.528C210.878 257.051 209.618 255.371 207.582 254.489V266.803C212.62 268.168 216.054 269.941 217.88 272.125C219.707 274.288 220.62 277.069 220.62 280.47C220.62 284.271 219.465 287.472 217.155 290.076C214.868 292.68 211.676 294.275 207.582 294.862V300.752H203.015V295.021C199.383 294.579 196.434 293.226 194.166 290.958C191.899 288.691 190.449 285.488 189.821 281.352L198.04 280.47C198.376 282.15 199.005 283.599 199.93 284.817C200.853 286.034 201.882 286.916 203.015 287.462ZM203.015 254.394C201.777 254.815 200.79 255.528 200.056 256.536C199.321 257.544 198.953 258.656 198.953 259.875C198.953 260.987 199.289 262.026 199.961 262.993C200.633 263.937 201.651 264.703 203.015 265.291V254.394ZM207.582 287.903C209.157 287.609 210.438 286.885 211.424 285.73C212.411 284.554 212.905 283.179 212.905 281.604C212.905 280.197 212.484 278.99 211.645 277.982C210.826 276.954 209.472 276.166 207.582 275.621V287.903ZM256.144 286.077V294.296H225.124C225.459 291.189 226.467 288.249 228.147 285.478C229.826 282.685 233.144 278.99 238.099 274.393C242.088 270.676 244.534 268.156 245.437 266.834C246.654 265.008 247.264 263.202 247.264 261.417C247.264 259.444 246.728 257.933 245.657 256.882C244.607 255.811 243.148 255.276 241.28 255.276C239.432 255.276 237.962 255.832 236.871 256.946C235.779 258.059 235.149 259.906 234.981 262.489L226.163 261.606C226.688 256.735 228.336 253.239 231.107 251.119C233.878 248.999 237.343 247.938 241.5 247.938C246.056 247.938 249.636 249.167 252.239 251.623C254.842 254.08 256.144 257.134 256.144 260.788C256.144 262.866 255.766 264.85 255.01 266.74C254.276 268.608 253.1 270.571 251.483 272.629C250.412 273.993 248.481 275.957 245.689 278.518C242.896 281.079 241.122 282.78 240.366 283.62C239.632 284.46 239.033 285.278 238.571 286.077H256.144ZM262.348 283.62L270.914 282.675C271.125 284.418 271.67 285.709 272.552 286.548C273.434 287.389 274.599 287.808 276.048 287.808C277.874 287.808 279.428 286.969 280.709 285.289C281.99 283.61 282.808 280.125 283.165 274.834C280.939 277.416 278.158 278.707 274.819 278.707C271.187 278.707 268.048 277.311 265.404 274.519C262.778 271.705 261.466 268.052 261.466 263.559C261.466 258.877 262.852 255.109 265.623 252.253C268.416 249.377 271.964 247.938 276.268 247.938C280.951 247.938 284.792 249.754 287.794 253.387C290.796 256.998 292.298 262.95 292.298 271.243C292.298 279.683 290.734 285.772 287.606 289.509C284.478 293.246 280.404 295.114 275.387 295.114C271.775 295.114 268.857 294.16 266.631 292.249C264.406 290.317 262.978 287.441 262.348 283.62ZM282.378 264.284C282.378 261.428 281.716 259.213 280.393 257.638C279.092 256.063 277.581 255.276 275.858 255.276C274.222 255.276 272.856 255.927 271.765 257.229C270.694 258.51 270.158 260.619 270.158 263.559C270.158 266.54 270.747 268.734 271.922 270.141C273.098 271.526 274.567 272.22 276.331 272.22C278.032 272.22 279.459 271.548 280.614 270.204C281.79 268.86 282.378 266.887 282.378 264.284ZM313.021 247.938C317.492 247.938 320.988 249.534 323.508 252.725C326.51 256.505 328.011 262.772 328.011 271.526C328.011 280.261 326.499 286.538 323.476 290.36C320.977 293.509 317.492 295.083 313.021 295.083C308.527 295.083 304.905 293.362 302.155 289.918C299.405 286.455 298.029 280.292 298.029 271.432C298.029 262.741 299.541 256.483 302.564 252.663C305.064 249.513 308.548 247.938 313.021 247.938ZM313.021 255.276C311.95 255.276 310.994 255.623 310.155 256.315C309.314 256.987 308.664 258.206 308.202 259.969C307.593 262.257 307.289 266.11 307.289 271.526C307.289 276.943 307.562 280.67 308.107 282.707C308.653 284.722 309.335 286.066 310.155 286.738C310.994 287.41 311.95 287.746 313.021 287.746C314.091 287.746 315.047 287.41 315.886 286.738C316.727 286.044 317.377 284.817 317.839 283.053C318.448 280.786 318.752 276.943 318.752 271.526C318.752 266.11 318.479 262.394 317.933 260.378C317.388 258.342 316.694 256.987 315.855 256.315C315.036 255.623 314.091 255.276 313.021 255.276Z" fill="black"/>
<path d="M346.675 295.304V266.448H355.394L360.63 286.131L365.806 266.448H374.546V295.304H369.133V272.59L363.406 295.304H357.795L352.087 272.59V295.304H346.675ZM380.254 295.304V266.448H388.974L394.209 286.131L399.386 266.448H408.126V295.304H402.713V272.59L396.985 295.304H391.375L385.666 272.59V295.304H380.254Z" fill="black"/>
<path d="M241.945 350.731V321.876H263.341V326.757H247.771V333.155H262.257V338.016H247.771V345.87H263.892V350.731H241.945ZM282.452 358.684V348.173C281.731 349.104 280.832 349.846 279.756 350.397C278.68 350.935 277.519 351.204 276.272 351.204C273.897 351.204 271.942 350.311 270.406 348.526C268.595 346.44 267.69 343.612 267.69 340.044C267.69 336.684 268.537 334.067 270.23 332.19C271.935 330.301 274.048 329.355 276.568 329.355C277.958 329.355 279.159 329.651 280.169 330.241C281.192 330.832 282.098 331.724 282.885 332.918V329.828H287.984V358.684H282.452ZM282.629 340.024C282.629 337.885 282.19 336.297 281.311 335.26C280.445 334.211 279.356 333.686 278.043 333.686C276.705 333.686 275.583 334.217 274.678 335.28C273.785 336.343 273.339 338.029 273.339 340.339C273.339 342.635 273.772 344.295 274.639 345.319C275.505 346.329 276.574 346.834 277.847 346.834C279.119 346.834 280.235 346.263 281.192 345.122C282.151 343.98 282.629 342.281 282.629 340.024ZM307.194 350.731V347.602C306.433 348.717 305.429 349.597 304.183 350.24C302.949 350.883 301.643 351.204 300.266 351.204C298.862 351.204 297.602 350.896 296.486 350.279C295.371 349.662 294.565 348.795 294.066 347.681C293.567 346.565 293.318 345.023 293.318 343.055V329.828H298.849V339.433C298.849 342.373 298.947 344.177 299.144 344.846C299.353 345.502 299.727 346.027 300.266 346.421C300.804 346.801 301.486 346.992 302.312 346.992C303.258 346.992 304.104 346.736 304.852 346.224C305.6 345.7 306.112 345.056 306.387 344.295C306.663 343.521 306.801 341.638 306.801 338.646V329.828H312.332V350.731H307.194ZM318.079 326.993V321.876H323.61V326.993H318.079ZM318.079 350.731V329.828H323.61V350.731H318.079ZM338.884 329.828V334.237H335.105V342.661C335.105 344.367 335.138 345.364 335.203 345.653C335.282 345.928 335.446 346.158 335.696 346.343C335.958 346.526 336.272 346.618 336.64 346.618C337.152 346.618 337.893 346.44 338.864 346.087L339.337 350.377C338.051 350.928 336.594 351.204 334.967 351.204C333.969 351.204 333.071 351.04 332.27 350.711C331.47 350.371 330.88 349.937 330.499 349.412C330.132 348.875 329.876 348.152 329.732 347.248C329.613 346.605 329.554 345.306 329.554 343.35V334.237H327.015V329.828H329.554V325.675L335.105 322.447V329.828H338.884ZM340.104 329.828H345.989L350.989 344.669L355.87 329.828H361.599L354.217 349.944L352.898 353.585C352.413 354.806 351.947 355.737 351.501 356.38C351.067 357.023 350.562 357.542 349.985 357.935C349.421 358.342 348.719 358.658 347.879 358.88C347.052 359.103 346.114 359.215 345.064 359.215C344.002 359.215 342.959 359.103 341.935 358.88L341.443 354.55C342.309 354.72 343.09 354.806 343.785 354.806C345.071 354.806 346.022 354.425 346.639 353.664C347.256 352.916 347.729 351.958 348.056 350.791L340.104 329.828Z" fill="black"/>
<path fill-rule="evenodd" clip-rule="evenodd" d="M165.372 276.639C176.732 214.608 230.954 167.558 296.209 167.317V80.6481C187.785 80.8909 97.7656 159.497 79.7838 262.834L165.372 276.639ZM161.151 180.418V175.152H149.894C150.19 174.641 150.573 174.116 151.044 173.578C151.528 173.041 152.665 171.95 154.454 170.31C156.243 168.669 157.48 167.411 158.165 166.538C159.201 165.219 159.954 163.962 160.426 162.764C160.91 161.554 161.151 160.283 161.151 158.951C161.151 156.611 160.318 154.654 158.65 153.081C156.982 151.507 154.689 150.72 151.77 150.72C149.108 150.72 146.887 151.399 145.113 152.757C143.337 154.116 142.281 156.355 141.945 159.476L147.594 160.04C147.702 158.387 148.105 157.203 148.804 156.49C149.504 155.777 150.446 155.421 151.629 155.421C152.826 155.421 153.76 155.763 154.434 156.45C155.119 157.122 155.463 158.09 155.463 159.355C155.463 160.498 155.073 161.655 154.293 162.825C153.714 163.672 152.147 165.286 149.591 167.667C146.417 170.613 144.292 172.979 143.216 174.769C142.14 176.544 141.495 178.427 141.279 180.418H161.151ZM170.291 171.904L164.804 172.569C165.086 175.057 166.108 177.075 167.87 178.622C169.632 180.156 171.851 180.922 174.528 180.922C177.352 180.922 179.713 180.007 181.609 178.178C183.506 176.349 184.454 174.136 184.454 171.54C184.454 169.751 183.943 168.226 182.92 166.961C181.912 165.696 180.56 164.883 178.865 164.52C181.703 162.973 183.123 160.901 183.123 158.306C183.123 156.476 182.43 154.835 181.044 153.383C179.363 151.607 177.131 150.72 174.346 150.72C172.719 150.72 171.246 151.029 169.928 151.648C168.623 152.253 167.601 153.094 166.862 154.17C166.135 155.232 165.591 156.658 165.227 158.447L170.452 159.335C170.6 158.043 171.018 157.061 171.703 156.389C172.389 155.716 173.217 155.381 174.185 155.381C175.167 155.381 175.954 155.676 176.545 156.268C177.137 156.86 177.433 157.653 177.433 158.649C177.433 159.819 177.03 160.76 176.223 161.474C175.416 162.173 174.245 162.502 172.712 162.462L172.087 167.082C173.096 166.8 173.963 166.659 174.689 166.659C175.792 166.659 176.727 167.075 177.494 167.909C178.26 168.743 178.643 169.872 178.643 171.298C178.643 172.805 178.24 174.002 177.433 174.89C176.64 175.778 175.657 176.221 174.487 176.221C173.398 176.221 172.47 175.851 171.703 175.112C170.937 174.372 170.466 173.303 170.291 171.904ZM189.78 152.253C188.623 153.531 188.045 155.494 188.045 158.144C188.045 160.807 188.623 162.778 189.78 164.055C190.95 165.32 192.565 165.952 194.623 165.952C196.613 165.952 198.186 165.313 199.343 164.035C200.513 162.757 201.099 160.794 201.099 158.144C201.099 155.481 200.513 153.517 199.343 152.253C198.186 150.976 196.58 150.337 194.522 150.337C192.531 150.337 190.95 150.976 189.78 152.253ZM193.129 161.977C192.686 161.318 192.464 160.027 192.464 158.104C192.464 156.181 192.686 154.89 193.129 154.231C193.466 153.746 193.929 153.504 194.522 153.504C195.127 153.504 195.597 153.753 195.934 154.251C196.364 154.896 196.58 156.181 196.58 158.104C196.58 160.027 196.364 161.318 195.934 161.977C195.597 162.462 195.127 162.704 194.522 162.704C193.929 162.704 193.466 162.462 193.129 161.977ZM194.643 181.547H198.839L214.475 150.337H210.399L194.643 181.547ZM209.733 167.889C208.576 169.167 207.999 171.13 207.999 173.78C207.999 176.443 208.576 178.413 209.733 179.691C210.903 180.969 212.518 181.608 214.576 181.608C216.566 181.608 218.14 180.969 219.297 179.691C220.467 178.413 221.052 176.443 221.052 173.78C221.052 171.13 220.467 169.167 219.297 167.889C218.14 166.611 216.546 165.972 214.515 165.972C212.498 165.972 210.903 166.611 209.733 167.889ZM213.083 177.613C212.639 176.968 212.417 175.683 212.417 173.76C212.417 171.836 212.639 170.546 213.083 169.886C213.406 169.402 213.869 169.16 214.475 169.16C215.079 169.16 215.551 169.402 215.887 169.886C216.317 170.546 216.533 171.836 216.533 173.76C216.533 175.683 216.311 176.974 215.867 177.633C215.544 178.118 215.079 178.36 214.475 178.36C213.883 178.36 213.419 178.111 213.083 177.613Z" fill="#DCA413"/>
<path fill-rule="evenodd" clip-rule="evenodd" d="M431.497 300.801C431.497 228.572 374.148 169.737 302.502 167.347V80.6483C422.021 83.0628 518.165 180.704 518.165 300.801C518.165 422.414 419.579 521 297.967 521C176.355 521 77.7683 422.414 77.7683 300.801C77.7683 289.572 78.6088 278.54 80.2303 267.763L165.812 281.566C164.905 287.848 164.437 294.269 164.437 300.801C164.437 374.547 224.22 434.331 297.967 434.331C371.714 434.331 431.497 374.547 431.497 300.801ZM363.716 426.367V431.633H376.607C373.945 434.981 371.812 438.781 370.212 443.032C368.625 447.281 367.784 451.451 367.691 455.54H373.158C373.144 452.931 373.568 449.972 374.429 446.663C375.303 443.341 376.567 440.207 378.222 437.261C379.876 434.315 381.503 432.056 383.104 430.483V426.367H363.716ZM386.715 426.367V431.633H399.607C396.944 434.981 394.812 438.781 393.211 443.032C391.624 447.281 390.784 451.451 390.69 455.54H396.157C396.144 452.931 396.567 449.972 397.428 446.663C398.303 443.341 399.566 440.207 401.221 437.261C402.876 434.315 404.504 432.056 406.104 430.483V426.367H386.715ZM411.49 427.376C410.334 428.654 409.755 430.617 409.755 433.266C409.755 435.93 410.334 437.9 411.49 439.178C412.661 440.443 414.275 441.074 416.333 441.074C418.323 441.074 419.896 440.436 421.053 439.158C422.223 437.88 422.809 435.917 422.809 433.266C422.809 430.604 422.223 428.64 421.053 427.376C419.896 426.098 418.29 425.459 416.232 425.459C414.241 425.459 412.661 426.098 411.49 427.376ZM414.839 437.1C414.396 436.441 414.174 435.15 414.174 433.226C414.174 431.303 414.396 430.012 414.839 429.353C415.176 428.868 415.639 428.626 416.232 428.626C416.837 428.626 417.307 428.875 417.644 429.373C418.074 430.018 418.29 431.303 418.29 433.226C418.29 435.15 418.074 436.441 417.644 437.1C417.307 437.585 416.837 437.826 416.232 437.826C415.639 437.826 415.176 437.585 414.839 437.1ZM416.353 456.67H420.549L436.185 425.459H432.11L416.353 456.67ZM431.443 443.011C430.286 444.289 429.709 446.252 429.709 448.903C429.709 451.565 430.286 453.536 431.443 454.813C432.613 456.091 434.228 456.73 436.286 456.73C438.276 456.73 439.85 456.091 441.007 454.813C442.177 453.536 442.762 451.565 442.762 448.903C442.762 446.252 442.177 444.289 441.007 443.011C439.85 441.734 438.256 441.095 436.225 441.095C434.208 441.095 432.613 441.734 431.443 443.011ZM434.793 452.735C434.349 452.09 434.127 450.806 434.127 448.883C434.127 446.959 434.349 445.668 434.793 445.009C435.116 444.524 435.579 444.282 436.185 444.282C436.79 444.282 437.261 444.524 437.597 445.009C438.027 445.668 438.243 446.959 438.243 448.883C438.243 450.806 438.021 452.096 437.577 452.756C437.254 453.24 436.79 453.482 436.185 453.482C435.593 453.482 435.129 453.233 434.793 452.735Z" fill="#5F5E6A"/>
<path d="M166.337 22.9097C166.337 19.2344 166.887 16.1497 167.986 13.6556C168.806 11.818 169.922 10.169 171.333 8.70867C172.761 7.24837 174.319 6.16544 176.01 5.4599C178.257 4.50824 180.85 4.03241 183.786 4.03241C189.103 4.03241 193.352 5.68141 196.536 8.9794C199.736 12.2774 201.335 16.8634 201.335 22.7374C201.335 28.5623 199.752 33.1237 196.585 36.4216C193.418 39.7032 189.185 41.3441 183.885 41.3441C178.52 41.3441 174.254 39.7115 171.087 36.4463C167.92 33.1647 166.337 28.6525 166.337 22.9097ZM173.843 22.6636C173.843 26.7492 174.787 29.8503 176.674 31.9669C178.561 34.0671 180.957 35.1173 183.861 35.1173C186.765 35.1173 189.144 34.0754 190.998 31.9915C192.868 29.8913 193.804 26.7492 193.804 22.5652C193.804 18.4304 192.894 15.3457 191.072 13.3111C189.267 11.2765 186.863 10.2592 183.861 10.2592C180.858 10.2592 178.437 11.2929 176.601 13.3603C174.763 15.4113 173.843 18.5124 173.843 22.6636ZM211.869 40.7288L203.6 14.591H210.319L215.216 31.7209L219.72 14.591H226.39L230.746 31.7209L235.743 14.591H242.56L234.167 40.7288H227.522L223.018 23.9188L218.588 40.7288H211.869ZM270.002 40.7288H263.087V27.3891C263.087 24.5669 262.939 22.7457 262.643 21.9253C262.348 21.0885 261.864 20.4404 261.192 19.9809C260.535 19.5215 259.739 19.2918 258.803 19.2918C257.606 19.2918 256.531 19.62 255.579 20.2763C254.628 20.9326 253.972 21.8022 253.611 22.8851C253.266 23.968 253.093 25.9698 253.093 28.8904V40.7288H246.178V14.591H252.602V18.4304C254.883 15.477 257.754 14.0002 261.216 14.0002C262.742 14.0002 264.136 14.2791 265.399 14.837C266.664 15.3785 267.615 16.0758 268.254 16.929C268.912 17.7823 269.362 18.7503 269.608 19.8333C269.871 20.9162 270.002 22.4668 270.002 24.4849V40.7288ZM292.178 32.4099L299.069 33.5667C298.183 36.0935 296.78 38.0215 294.86 39.3505C292.957 40.6631 290.57 41.3194 287.699 41.3194C283.153 41.3194 279.79 39.8346 277.608 36.8647C275.885 34.4856 275.023 31.4829 275.023 27.8567C275.023 23.5251 276.155 20.1368 278.419 17.692C280.684 15.2308 283.547 14.0002 287.009 14.0002C290.897 14.0002 293.966 15.2883 296.214 17.8643C298.462 20.4239 299.537 24.3536 299.438 29.6534H282.112C282.16 31.7044 282.719 33.3042 283.785 34.4527C284.852 35.5849 286.18 36.151 287.772 36.151C288.855 36.151 289.765 35.8556 290.504 35.2649C291.242 34.6742 291.801 33.7225 292.178 32.4099ZM292.572 25.4202C292.522 23.4184 292.005 21.9006 291.02 20.867C290.036 19.8169 288.839 19.2918 287.427 19.2918C285.918 19.2918 284.671 19.8415 283.686 20.9408C282.703 22.0401 282.218 23.5332 282.235 25.4202H292.572ZM311.72 40.7288H304.803V14.591H311.227V18.3073C312.327 16.5517 313.311 15.3949 314.181 14.837C315.067 14.2791 316.068 14.0002 317.184 14.0002C318.758 14.0002 320.277 14.435 321.736 15.3047L319.595 21.3346C318.431 20.5798 317.347 20.2025 316.347 20.2025C315.378 20.2025 314.558 20.4731 313.885 21.0146C313.213 21.5397 312.679 22.4995 312.285 23.8942C311.908 25.2888 311.72 28.2095 311.72 32.6561V40.7288ZM322.303 33.2713L329.244 32.213C329.538 33.5585 330.138 34.584 331.04 35.2895C331.942 35.9787 333.205 36.3232 334.831 36.3232C336.619 36.3232 337.964 35.9951 338.866 35.3387C339.474 34.8793 339.777 34.264 339.777 33.4929C339.777 32.9678 339.613 32.533 339.284 32.1884C338.941 31.8603 338.169 31.5567 336.972 31.2778C331.393 30.0472 327.856 28.9233 326.363 27.906C324.296 26.4948 323.263 24.5341 323.263 22.0237C323.263 19.7594 324.157 17.8561 325.945 16.3137C327.733 14.7714 330.507 14.0002 334.264 14.0002C337.841 14.0002 340.499 14.5827 342.238 15.7476C343.977 16.9126 345.176 18.6355 345.832 20.9162L339.31 22.1222C339.03 21.1049 338.497 20.3254 337.71 19.784C336.938 19.2425 335.831 18.9719 334.387 18.9719C332.565 18.9719 331.261 19.2261 330.473 19.7348C329.948 20.0958 329.686 20.5634 329.686 21.1377C329.686 21.6299 329.916 22.0483 330.376 22.3929C330.999 22.8524 333.148 23.5005 336.824 24.3372C340.515 25.174 343.092 26.1996 344.552 27.4137C345.995 28.6443 346.718 30.3589 346.718 32.5576C346.718 34.9531 345.717 37.0124 343.715 38.7352C341.713 40.458 338.751 41.3194 334.831 41.3194C331.27 41.3194 328.447 40.5975 326.363 39.1536C324.296 37.7097 322.943 35.7489 322.303 33.2713ZM359.688 4.6477V17.9136C361.919 15.3047 364.586 14.0002 367.687 14.0002C369.278 14.0002 370.714 14.2956 371.994 14.8862C373.274 15.477 374.233 16.2317 374.873 17.1505C375.53 18.0694 375.973 19.0867 376.203 20.2025C376.449 21.3181 376.572 23.0492 376.572 25.3955V40.7288H369.655V26.9215C369.655 24.1813 369.524 22.4422 369.262 21.7037C368.999 20.9654 368.532 20.3829 367.859 19.9563C367.203 19.5133 366.374 19.2918 365.373 19.2918C364.225 19.2918 363.2 19.5707 362.297 20.1286C361.394 20.6864 360.73 21.5314 360.303 22.6636C359.893 23.7793 359.688 25.4365 359.688 27.6352V40.7288H352.772V4.6477H359.688ZM383.611 11.0468V4.6477H390.527V11.0468H383.611ZM383.611 40.7288V14.591H390.527V40.7288H383.611ZM397.443 14.591H403.891V18.4304C404.727 17.1178 405.861 16.0512 407.288 15.2308C408.715 14.4104 410.298 14.0002 412.037 14.0002C415.074 14.0002 417.649 15.1898 419.765 17.569C421.882 19.9481 422.941 23.2626 422.941 27.5121C422.941 31.8767 421.874 35.2731 419.741 37.7015C417.608 40.1134 415.024 41.3194 411.989 41.3194C410.544 41.3194 409.232 41.0323 408.05 40.458C406.886 39.8838 405.655 38.8993 404.358 37.5046V50.672H397.443V14.591ZM404.285 27.2168C404.285 30.1539 404.868 32.3279 406.032 33.739C407.197 35.1337 408.617 35.831 410.29 35.831C411.898 35.831 413.236 35.191 414.302 33.9113C415.368 32.615 415.901 30.4984 415.901 27.5614C415.901 24.8213 415.352 22.7866 414.253 21.4576C413.153 20.1286 411.791 19.464 410.167 19.464C408.478 19.464 407.074 20.1204 405.958 21.4331C404.842 22.7293 404.285 24.6572 404.285 27.2168Z" fill="black"/>
</svg>
