<svg width="537" height="584" viewBox="0 0 537 584" fill="none" xmlns="http://www.w3.org/2000/svg">
<path d="M5.6377 37V1.20898H17.2344C21.6289 1.20898 24.4935 1.38802 25.8281 1.74609C27.8789 2.2832 29.596 3.45508 30.9795 5.26172C32.363 7.05208 33.0547 9.37142 33.0547 12.2197C33.0547 14.417 32.6559 16.2643 31.8584 17.7617C31.0609 19.2591 30.0436 20.4391 28.8066 21.3018C27.5859 22.1481 26.3408 22.7096 25.0713 22.9863C23.346 23.3281 20.8477 23.499 17.5762 23.499H12.8643V37H5.6377ZM12.8643 7.26367V17.4199H16.8193C19.6676 17.4199 21.5719 17.2327 22.5322 16.8584C23.4925 16.484 24.2412 15.8981 24.7783 15.1006C25.3317 14.3031 25.6084 13.3753 25.6084 12.3174C25.6084 11.0153 25.2259 9.94108 24.4609 9.09473C23.696 8.24837 22.7275 7.7194 21.5557 7.50781C20.693 7.34505 18.9596 7.26367 16.3555 7.26367H12.8643ZM45.5059 37H38.6455V11.0723H45.0176V14.7588C46.1081 13.0173 47.0846 11.8698 47.9473 11.3164C48.8262 10.763 49.819 10.4863 50.9258 10.4863C52.4883 10.4863 53.9938 10.9176 55.4424 11.7803L53.3184 17.7617C52.1628 17.013 51.0885 16.6387 50.0957 16.6387C49.1354 16.6387 48.3216 16.9072 47.6543 17.4443C46.987 17.9652 46.458 18.9173 46.0674 20.3008C45.693 21.6842 45.5059 24.5814 45.5059 28.9922V37ZM56.834 23.6699C56.834 21.3913 57.3955 19.1859 58.5186 17.0537C59.6416 14.9215 61.2285 13.2939 63.2793 12.1709C65.3464 11.0479 67.6494 10.4863 70.1885 10.4863C74.111 10.4863 77.3255 11.764 79.832 14.3193C82.3385 16.8584 83.5918 20.0729 83.5918 23.9629C83.5918 27.8854 82.3223 31.1406 79.7832 33.7285C77.2604 36.3001 74.0785 37.5859 70.2373 37.5859C67.861 37.5859 65.5905 37.0488 63.4258 35.9746C61.2773 34.9004 59.6416 33.3298 58.5186 31.2627C57.3955 29.1794 56.834 26.6484 56.834 23.6699ZM63.8652 24.0361C63.8652 26.6077 64.4756 28.5771 65.6963 29.9443C66.917 31.3115 68.4225 31.9951 70.2129 31.9951C72.0033 31.9951 73.5007 31.3115 74.7051 29.9443C75.9258 28.5771 76.5361 26.5915 76.5361 23.9873C76.5361 21.4482 75.9258 19.4951 74.7051 18.1279C73.5007 16.7607 72.0033 16.0771 70.2129 16.0771C68.4225 16.0771 66.917 16.7607 65.6963 18.1279C64.4756 19.4951 63.8652 21.4645 63.8652 24.0361ZM112.767 37H106.395V33.1914C105.337 34.6725 104.083 35.7793 102.635 36.5117C101.202 37.2279 99.7539 37.5859 98.2891 37.5859C95.3105 37.5859 92.7552 36.3896 90.623 33.9971C88.5072 31.5882 87.4492 28.2354 87.4492 23.9385C87.4492 19.5439 88.4827 16.2074 90.5498 13.9287C92.6169 11.6338 95.2292 10.4863 98.3867 10.4863C101.284 10.4863 103.79 11.6908 105.906 14.0996V1.20898H112.767V37ZM94.4561 23.4746C94.4561 26.2415 94.8385 28.2435 95.6035 29.4805C96.7103 31.2708 98.2565 32.166 100.242 32.166C101.821 32.166 103.164 31.4987 104.271 30.1641C105.377 28.8132 105.931 26.8031 105.931 24.1338C105.931 21.1553 105.394 19.015 104.319 17.7129C103.245 16.3945 101.87 15.7354 100.193 15.7354C98.5658 15.7354 97.1986 16.3864 96.0918 17.6885C95.0013 18.9743 94.4561 20.903 94.4561 23.4746ZM136.619 37V33.1182C135.675 34.5016 134.43 35.5921 132.884 36.3896C131.354 37.1872 129.734 37.5859 128.025 37.5859C126.284 37.5859 124.721 37.2035 123.338 36.4385C121.954 35.6735 120.953 34.5993 120.335 33.2158C119.716 31.8324 119.407 29.9199 119.407 27.4785V11.0723H126.268V22.9863C126.268 26.6322 126.39 28.8701 126.634 29.7002C126.894 30.514 127.358 31.165 128.025 31.6533C128.693 32.1253 129.539 32.3613 130.564 32.3613C131.736 32.3613 132.786 32.0439 133.714 31.4092C134.642 30.7581 135.276 29.9606 135.618 29.0166C135.96 28.0563 136.131 25.7207 136.131 22.0098V11.0723H142.991V37H136.619ZM172.728 18.7383L165.965 19.959C165.737 18.6081 165.216 17.5908 164.402 16.9072C163.605 16.2236 162.563 15.8818 161.277 15.8818C159.568 15.8818 158.201 16.4759 157.176 17.6641C156.167 18.8359 155.662 20.8053 155.662 23.5723C155.662 26.6484 156.175 28.8213 157.2 30.0908C158.242 31.3604 159.633 31.9951 161.375 31.9951C162.677 31.9951 163.743 31.6289 164.573 30.8965C165.403 30.1478 165.989 28.8701 166.331 27.0635L173.069 28.2109C172.369 31.3034 171.027 33.639 169.041 35.2178C167.055 36.7965 164.394 37.5859 161.058 37.5859C157.265 37.5859 154.238 36.3896 151.976 33.9971C149.729 31.6045 148.606 28.2923 148.606 24.0605C148.606 19.7799 149.738 16.4515 152 14.0752C154.262 11.6826 157.322 10.4863 161.18 10.4863C164.337 10.4863 166.844 11.1699 168.699 12.5371C170.571 13.888 171.914 15.9551 172.728 18.7383ZM189.842 11.0723V16.541H185.154V26.9902C185.154 29.1061 185.195 30.3431 185.276 30.7012C185.374 31.043 185.577 31.3278 185.887 31.5557C186.212 31.7835 186.603 31.8975 187.059 31.8975C187.693 31.8975 188.613 31.6777 189.817 31.2383L190.403 36.5605C188.808 37.2441 187.002 37.5859 184.983 37.5859C183.746 37.5859 182.632 37.3825 181.639 36.9756C180.646 36.5524 179.913 36.0153 179.441 35.3643C178.986 34.6969 178.668 33.8018 178.489 32.6787C178.343 31.8812 178.27 30.2699 178.27 27.8447V16.541H175.12V11.0723H178.27V5.9209L185.154 1.91699V11.0723H189.842ZM194.603 7.55664V1.20898H201.463V7.55664H194.603ZM194.603 37V11.0723H201.463V37H194.603ZM206.932 23.6699C206.932 21.3913 207.493 19.1859 208.616 17.0537C209.739 14.9215 211.326 13.2939 213.377 12.1709C215.444 11.0479 217.747 10.4863 220.286 10.4863C224.209 10.4863 227.423 11.764 229.93 14.3193C232.436 16.8584 233.689 20.0729 233.689 23.9629C233.689 27.8854 232.42 31.1406 229.881 33.7285C227.358 36.3001 224.176 37.5859 220.335 37.5859C217.959 37.5859 215.688 37.0488 213.523 35.9746C211.375 34.9004 209.739 33.3298 208.616 31.2627C207.493 29.1794 206.932 26.6484 206.932 23.6699ZM213.963 24.0361C213.963 26.6077 214.573 28.5771 215.794 29.9443C217.015 31.3115 218.52 31.9951 220.311 31.9951C222.101 31.9951 223.598 31.3115 224.803 29.9443C226.023 28.5771 226.634 26.5915 226.634 23.9873C226.634 21.4482 226.023 19.4951 224.803 18.1279C223.598 16.7607 222.101 16.0771 220.311 16.0771C218.52 16.0771 217.015 16.7607 215.794 18.1279C214.573 19.4951 213.963 21.4645 213.963 24.0361ZM262.669 37H255.809V23.7676C255.809 20.9681 255.662 19.1615 255.369 18.3477C255.076 17.5176 254.596 16.8747 253.929 16.4189C253.278 15.9632 252.488 15.7354 251.561 15.7354C250.372 15.7354 249.306 16.0609 248.362 16.7119C247.418 17.363 246.767 18.2256 246.409 19.2998C246.067 20.374 245.896 22.3597 245.896 25.2568V37H239.036V11.0723H245.408V14.8809C247.671 11.9512 250.519 10.4863 253.953 10.4863C255.467 10.4863 256.85 10.763 258.104 11.3164C259.357 11.8535 260.301 12.5452 260.936 13.3916C261.587 14.238 262.034 15.1982 262.278 16.2725C262.539 17.3467 262.669 18.8848 262.669 20.8867V37ZM306.517 23.8408L313.523 26.0625C312.449 29.9688 310.659 32.874 308.152 34.7783C305.662 36.6663 302.496 37.6104 298.655 37.6104C293.903 37.6104 289.996 35.9909 286.937 32.752C283.877 29.4967 282.347 25.0534 282.347 19.4219C282.347 13.4648 283.885 8.84245 286.961 5.55469C290.037 2.25065 294.082 0.598633 299.095 0.598633C303.473 0.598633 307.029 1.89258 309.764 4.48047C311.391 6.01042 312.612 8.20768 313.426 11.0723L306.272 12.7812C305.849 10.9258 304.962 9.46094 303.611 8.38672C302.277 7.3125 300.649 6.77539 298.729 6.77539C296.076 6.77539 293.919 7.72754 292.259 9.63184C290.615 11.5361 289.793 14.6204 289.793 18.8848C289.793 23.4095 290.607 26.6322 292.234 28.5527C293.862 30.4733 295.978 31.4336 298.582 31.4336C300.503 31.4336 302.155 30.8232 303.538 29.6025C304.922 28.3818 305.914 26.4613 306.517 23.8408ZM324.827 18.9824L318.602 17.8594C319.301 15.3529 320.506 13.4974 322.215 12.293C323.924 11.0885 326.463 10.4863 329.832 10.4863C332.892 10.4863 335.171 10.8525 336.668 11.585C338.165 12.3011 339.215 13.2207 339.817 14.3438C340.436 15.4505 340.745 17.4932 340.745 20.4717L340.672 28.4795C340.672 30.7581 340.778 32.4427 340.989 33.5332C341.217 34.6074 341.632 35.763 342.234 37H335.447C335.268 36.5443 335.049 35.8688 334.788 34.9736C334.674 34.5667 334.593 34.2982 334.544 34.168C333.372 35.3073 332.119 36.1618 330.784 36.7314C329.45 37.3011 328.025 37.5859 326.512 37.5859C323.842 37.5859 321.735 36.8617 320.188 35.4131C318.659 33.9645 317.894 32.1335 317.894 29.9199C317.894 28.4551 318.243 27.153 318.943 26.0137C319.643 24.8581 320.62 23.9792 321.873 23.377C323.143 22.7585 324.965 22.2214 327.342 21.7656C330.548 21.1634 332.77 20.6019 334.007 20.0811V19.3975C334.007 18.0791 333.681 17.1432 333.03 16.5898C332.379 16.0202 331.15 15.7354 329.344 15.7354C328.123 15.7354 327.171 15.9795 326.487 16.4678C325.804 16.9398 325.25 17.778 324.827 18.9824ZM334.007 24.5488C333.128 24.8418 331.736 25.1917 329.832 25.5986C327.928 26.0055 326.683 26.4043 326.097 26.7949C325.201 27.4297 324.754 28.2354 324.754 29.2119C324.754 30.1722 325.112 31.0023 325.828 31.7021C326.544 32.402 327.456 32.752 328.562 32.752C329.799 32.752 330.979 32.3451 332.103 31.5312C332.933 30.9128 333.478 30.1559 333.738 29.2607C333.917 28.6748 334.007 27.5599 334.007 25.916V24.5488ZM347.337 11.0723H353.733V14.8809C354.563 13.5788 355.687 12.5208 357.103 11.707C358.519 10.8932 360.089 10.4863 361.814 10.4863C364.826 10.4863 367.381 11.6663 369.48 14.0264C371.58 16.3864 372.63 19.6742 372.63 23.8896C372.63 28.2191 371.572 31.5882 369.456 33.9971C367.34 36.3896 364.777 37.5859 361.766 37.5859C360.333 37.5859 359.031 37.3011 357.859 36.7314C356.704 36.1618 355.483 35.1852 354.197 33.8018V46.8633H347.337V11.0723ZM354.124 23.5967C354.124 26.5101 354.702 28.6667 355.857 30.0664C357.013 31.4499 358.421 32.1416 360.081 32.1416C361.676 32.1416 363.003 31.5068 364.061 30.2373C365.118 28.9515 365.647 26.8519 365.647 23.9385C365.647 21.2204 365.102 19.2021 364.012 17.8838C362.921 16.5654 361.57 15.9062 359.959 15.9062C358.283 15.9062 356.891 16.5573 355.784 17.8594C354.677 19.1452 354.124 21.0576 354.124 23.5967ZM383.226 18.9824L377 17.8594C377.7 15.3529 378.904 13.4974 380.613 12.293C382.322 11.0885 384.861 10.4863 388.23 10.4863C391.29 10.4863 393.569 10.8525 395.066 11.585C396.564 12.3011 397.614 13.2207 398.216 14.3438C398.834 15.4505 399.144 17.4932 399.144 20.4717L399.07 28.4795C399.07 30.7581 399.176 32.4427 399.388 33.5332C399.616 34.6074 400.031 35.763 400.633 37H393.846C393.667 36.5443 393.447 35.8688 393.187 34.9736C393.073 34.5667 392.991 34.2982 392.942 34.168C391.771 35.3073 390.517 36.1618 389.183 36.7314C387.848 37.3011 386.424 37.5859 384.91 37.5859C382.241 37.5859 380.133 36.8617 378.587 35.4131C377.057 33.9645 376.292 32.1335 376.292 29.9199C376.292 28.4551 376.642 27.153 377.342 26.0137C378.042 24.8581 379.018 23.9792 380.271 23.377C381.541 22.7585 383.364 22.2214 385.74 21.7656C388.947 21.1634 391.168 20.6019 392.405 20.0811V19.3975C392.405 18.0791 392.08 17.1432 391.429 16.5898C390.778 16.0202 389.549 15.7354 387.742 15.7354C386.521 15.7354 385.569 15.9795 384.886 16.4678C384.202 16.9398 383.649 17.778 383.226 18.9824ZM392.405 24.5488C391.526 24.8418 390.135 25.1917 388.23 25.5986C386.326 26.0055 385.081 26.4043 384.495 26.7949C383.6 27.4297 383.152 28.2354 383.152 29.2119C383.152 30.1722 383.51 31.0023 384.227 31.7021C384.943 32.402 385.854 32.752 386.961 32.752C388.198 32.752 389.378 32.3451 390.501 31.5312C391.331 30.9128 391.876 30.1559 392.137 29.2607C392.316 28.6748 392.405 27.5599 392.405 25.916V24.5488ZM405.638 37V1.20898H412.498V14.0996C414.614 11.6908 417.12 10.4863 420.018 10.4863C423.175 10.4863 425.787 11.6338 427.854 13.9287C429.922 16.2074 430.955 19.487 430.955 23.7676C430.955 28.1947 429.897 31.6045 427.781 33.9971C425.682 36.3896 423.126 37.5859 420.115 37.5859C418.634 37.5859 417.169 37.2197 415.721 36.4873C414.288 35.7386 413.051 34.64 412.01 33.1914V37H405.638ZM412.449 23.4746C412.449 26.1602 412.872 28.1458 413.719 29.4316C414.907 31.2546 416.486 32.166 418.455 32.166C419.969 32.166 421.255 31.5231 422.312 30.2373C423.387 28.9352 423.924 26.8926 423.924 24.1094C423.924 21.1471 423.387 19.015 422.312 17.7129C421.238 16.3945 419.863 15.7354 418.187 15.7354C416.543 15.7354 415.175 16.3783 414.085 17.6641C412.994 18.9336 412.449 20.8704 412.449 23.4746ZM436.497 7.55664V1.20898H443.357V7.55664H436.497ZM436.497 37V11.0723H443.357V37H436.497ZM450.413 37V1.20898H457.273V37H450.413ZM464.329 7.55664V1.20898H471.189V7.55664H464.329ZM464.329 37V11.0723H471.189V37H464.329ZM490.135 11.0723V16.541H485.447V26.9902C485.447 29.1061 485.488 30.3431 485.569 30.7012C485.667 31.043 485.87 31.3278 486.18 31.5557C486.505 31.7835 486.896 31.8975 487.352 31.8975C487.986 31.8975 488.906 31.6777 490.11 31.2383L490.696 36.5605C489.101 37.2441 487.295 37.5859 485.276 37.5859C484.039 37.5859 482.924 37.3825 481.932 36.9756C480.939 36.5524 480.206 36.0153 479.734 35.3643C479.279 34.6969 478.961 33.8018 478.782 32.6787C478.636 31.8812 478.562 30.2699 478.562 27.8447V16.541H475.413V11.0723H478.562V5.9209L485.447 1.91699V11.0723H490.135ZM491.648 11.0723H498.948L505.149 29.4805L511.204 11.0723H518.309L509.153 36.0234L507.518 40.54C506.915 42.0537 506.338 43.2093 505.784 44.0068C505.247 44.8044 504.62 45.4473 503.904 45.9355C503.204 46.4401 502.334 46.8307 501.292 47.1074C500.267 47.3841 499.103 47.5225 497.801 47.5225C496.482 47.5225 495.188 47.3841 493.919 47.1074L493.309 41.7363C494.383 41.9479 495.351 42.0537 496.214 42.0537C497.809 42.0537 498.989 41.5817 499.754 40.6377C500.519 39.71 501.105 38.5218 501.512 37.0732L491.648 11.0723Z" fill="black"/>
<path d="M264.469 255.406L255.969 256.344C255.76 254.594 255.219 253.302 254.344 252.469C253.469 251.635 252.333 251.219 250.938 251.219C249.083 251.219 247.51 252.052 246.219 253.719C244.948 255.385 244.146 258.854 243.812 264.125C246 261.542 248.719 260.25 251.969 260.25C255.635 260.25 258.771 261.646 261.375 264.438C264 267.229 265.312 270.833 265.312 275.25C265.312 279.938 263.938 283.698 261.188 286.531C258.438 289.365 254.906 290.781 250.594 290.781C245.969 290.781 242.167 288.99 239.188 285.406C236.208 281.802 234.719 275.906 234.719 267.719C234.719 259.323 236.271 253.271 239.375 249.562C242.479 245.854 246.51 244 251.469 244C254.948 244 257.823 244.979 260.094 246.938C262.385 248.875 263.844 251.698 264.469 255.406ZM244.562 274.562C244.562 277.417 245.219 279.625 246.531 281.188C247.844 282.729 249.344 283.5 251.031 283.5C252.656 283.5 254.01 282.865 255.094 281.594C256.177 280.323 256.719 278.24 256.719 275.344C256.719 272.365 256.135 270.188 254.969 268.812C253.802 267.417 252.344 266.719 250.594 266.719C248.906 266.719 247.479 267.385 246.312 268.719C245.146 270.031 244.562 271.979 244.562 274.562ZM285.188 244C289.625 244 293.094 245.583 295.594 248.75C298.573 252.5 300.062 258.719 300.062 267.406C300.062 276.073 298.562 282.302 295.562 286.094C293.083 289.219 289.625 290.781 285.188 290.781C280.729 290.781 277.135 289.073 274.406 285.656C271.677 282.219 270.312 276.104 270.312 267.312C270.312 258.688 271.812 252.479 274.812 248.688C277.292 245.562 280.75 244 285.188 244ZM285.188 251.281C284.125 251.281 283.177 251.625 282.344 252.312C281.51 252.979 280.865 254.188 280.406 255.938C279.802 258.208 279.5 262.031 279.5 267.406C279.5 272.781 279.771 276.479 280.312 278.5C280.854 280.5 281.531 281.833 282.344 282.5C283.177 283.167 284.125 283.5 285.188 283.5C286.25 283.5 287.198 283.167 288.031 282.5C288.865 281.812 289.51 280.594 289.969 278.844C290.573 276.594 290.875 272.781 290.875 267.406C290.875 262.031 290.604 258.344 290.062 256.344C289.521 254.323 288.833 252.979 288 252.312C287.188 251.625 286.25 251.281 285.188 251.281Z" fill="black"/>
<path d="M198.832 345V316.367H207.484L212.68 335.898L217.816 316.367H226.488V345H221.117V322.461L215.434 345H209.867L204.203 322.461V345H198.832ZM231.957 345V316.367H237.445V326.68C239.138 324.753 241.143 323.789 243.461 323.789C245.987 323.789 248.077 324.707 249.73 326.543C251.384 328.366 252.211 330.99 252.211 334.414C252.211 337.956 251.365 340.684 249.672 342.598C247.992 344.512 245.948 345.469 243.539 345.469C242.354 345.469 241.182 345.176 240.023 344.59C238.878 343.991 237.888 343.112 237.055 341.953V345H231.957ZM237.406 334.18C237.406 336.328 237.745 337.917 238.422 338.945C239.372 340.404 240.635 341.133 242.211 341.133C243.422 341.133 244.451 340.618 245.297 339.59C246.156 338.548 246.586 336.914 246.586 334.688C246.586 332.318 246.156 330.612 245.297 329.57C244.438 328.516 243.337 327.988 241.996 327.988C240.681 327.988 239.587 328.503 238.715 329.531C237.842 330.547 237.406 332.096 237.406 334.18ZM255.375 334.336C255.375 332.513 255.824 330.749 256.723 329.043C257.621 327.337 258.891 326.035 260.531 325.137C262.185 324.238 264.027 323.789 266.059 323.789C269.197 323.789 271.768 324.811 273.773 326.855C275.779 328.887 276.781 331.458 276.781 334.57C276.781 337.708 275.766 340.312 273.734 342.383C271.716 344.44 269.171 345.469 266.098 345.469C264.197 345.469 262.38 345.039 260.648 344.18C258.93 343.32 257.621 342.064 256.723 340.41C255.824 338.743 255.375 336.719 255.375 334.336ZM261 334.629C261 336.686 261.488 338.262 262.465 339.355C263.441 340.449 264.646 340.996 266.078 340.996C267.51 340.996 268.708 340.449 269.672 339.355C270.648 338.262 271.137 336.673 271.137 334.59C271.137 332.559 270.648 330.996 269.672 329.902C268.708 328.809 267.51 328.262 266.078 328.262C264.646 328.262 263.441 328.809 262.465 329.902C261.488 330.996 261 332.572 261 334.629ZM293.109 338.398L298.578 339.316C297.875 341.322 296.762 342.852 295.238 343.906C293.728 344.948 291.833 345.469 289.555 345.469C285.948 345.469 283.279 344.29 281.547 341.934C280.18 340.046 279.496 337.663 279.496 334.785C279.496 331.348 280.395 328.659 282.191 326.719C283.988 324.766 286.26 323.789 289.008 323.789C292.094 323.789 294.529 324.811 296.312 326.855C298.096 328.887 298.949 332.005 298.871 336.211H285.121C285.16 337.839 285.603 339.108 286.449 340.02C287.296 340.918 288.35 341.367 289.613 341.367C290.473 341.367 291.195 341.133 291.781 340.664C292.367 340.195 292.81 339.44 293.109 338.398ZM293.422 332.852C293.383 331.263 292.973 330.059 292.191 329.238C291.41 328.405 290.46 327.988 289.34 327.988C288.142 327.988 287.152 328.424 286.371 329.297C285.59 330.169 285.206 331.354 285.219 332.852H293.422ZM300.434 345.488L307.523 315.879H311.645L304.477 345.488H300.434ZM333.52 345H328.422V341.953C327.576 343.138 326.573 344.023 325.414 344.609C324.268 345.182 323.109 345.469 321.938 345.469C319.555 345.469 317.51 344.512 315.805 342.598C314.112 340.671 313.266 337.988 313.266 334.551C313.266 331.035 314.092 328.366 315.746 326.543C317.4 324.707 319.49 323.789 322.016 323.789C324.333 323.789 326.339 324.753 328.031 326.68V316.367H333.52V345ZM318.871 334.18C318.871 336.393 319.177 337.995 319.789 338.984C320.674 340.417 321.911 341.133 323.5 341.133C324.763 341.133 325.837 340.599 326.723 339.531C327.608 338.451 328.051 336.842 328.051 334.707C328.051 332.324 327.621 330.612 326.762 329.57C325.902 328.516 324.802 327.988 323.461 327.988C322.159 327.988 321.065 328.509 320.18 329.551C319.307 330.579 318.871 332.122 318.871 334.18Z" fill="black"/>
<path d="M322.123 583V553.651H326.107L341.522 576.694V553.651H345.246V583H341.262L325.847 559.938V583H322.123ZM365.525 571.489V568.045L377.958 568.025V578.916C376.049 580.438 374.08 581.585 372.052 582.359C370.023 583.12 367.941 583.5 365.806 583.5C362.923 583.5 360.3 582.887 357.938 581.659C355.589 580.417 353.814 578.629 352.613 576.293C351.412 573.958 350.811 571.349 350.811 568.466C350.811 565.61 351.405 562.947 352.593 560.478C353.794 557.996 355.516 556.154 357.758 554.953C360 553.751 362.583 553.151 365.505 553.151C367.627 553.151 369.543 553.498 371.251 554.192C372.973 554.873 374.321 555.827 375.295 557.055C376.269 558.283 377.01 559.884 377.517 561.859L374.014 562.82C373.573 561.326 373.026 560.151 372.372 559.297C371.718 558.443 370.784 557.762 369.569 557.255C368.355 556.734 367.007 556.474 365.525 556.474C363.75 556.474 362.215 556.748 360.921 557.295C359.626 557.829 358.579 558.536 357.778 559.417C356.99 560.298 356.376 561.265 355.936 562.32C355.189 564.135 354.815 566.104 354.815 568.226C354.815 570.841 355.262 573.03 356.156 574.792C357.064 576.554 358.378 577.862 360.1 578.716C361.822 579.57 363.65 579.997 365.585 579.997C367.267 579.997 368.909 579.677 370.51 579.036C372.112 578.382 373.326 577.688 374.154 576.954V571.489H365.525ZM383.543 583V553.651H387.427V579.537H401.881V583H383.543ZM404.624 576.654L408.187 576.093C408.387 577.521 408.941 578.616 409.849 579.376C410.77 580.137 412.051 580.518 413.692 580.518C415.347 580.518 416.575 580.184 417.376 579.517C418.177 578.836 418.577 578.042 418.577 577.134C418.577 576.32 418.223 575.68 417.516 575.212C417.022 574.892 415.794 574.485 413.833 573.991C411.19 573.324 409.355 572.75 408.327 572.27C407.313 571.776 406.539 571.102 406.005 570.248C405.484 569.38 405.224 568.426 405.224 567.385C405.224 566.437 405.438 565.563 405.865 564.762C406.305 563.948 406.899 563.274 407.646 562.74C408.207 562.326 408.968 561.979 409.929 561.699C410.903 561.406 411.944 561.259 413.052 561.259C414.72 561.259 416.181 561.499 417.436 561.979C418.704 562.46 419.638 563.114 420.239 563.941C420.839 564.756 421.253 565.85 421.48 567.225L417.957 567.705C417.796 566.611 417.329 565.757 416.555 565.143C415.794 564.529 414.713 564.222 413.312 564.222C411.657 564.222 410.476 564.495 409.769 565.042C409.061 565.59 408.708 566.23 408.708 566.964C408.708 567.431 408.854 567.852 409.148 568.226C409.442 568.613 409.902 568.933 410.529 569.187C410.89 569.32 411.951 569.627 413.712 570.107C416.262 570.788 418.037 571.349 419.038 571.789C420.052 572.216 420.846 572.843 421.42 573.671C421.994 574.498 422.281 575.526 422.281 576.754C422.281 577.955 421.927 579.09 421.22 580.157C420.526 581.212 419.518 582.032 418.197 582.62C416.875 583.194 415.381 583.48 413.712 583.48C410.95 583.48 408.841 582.907 407.386 581.759C405.945 580.611 405.024 578.909 404.624 576.654Z" fill="black"/>
<path d="M490.982 568.706C490.982 563.835 492.29 560.024 494.906 557.275C497.522 554.512 500.898 553.131 505.036 553.131C507.745 553.131 510.187 553.778 512.363 555.073C514.538 556.367 516.193 558.176 517.328 560.498C518.475 562.807 519.049 565.43 519.049 568.366C519.049 571.342 518.449 574.005 517.248 576.354C516.046 578.702 514.345 580.484 512.143 581.699C509.94 582.9 507.565 583.5 505.016 583.5C502.253 583.5 499.784 582.833 497.608 581.499C495.433 580.164 493.785 578.342 492.664 576.033C491.542 573.724 490.982 571.282 490.982 568.706ZM494.986 568.766C494.986 572.303 495.933 575.092 497.829 577.134C499.737 579.163 502.126 580.177 504.996 580.177C507.918 580.177 510.321 579.15 512.203 577.094C514.098 575.039 515.045 572.123 515.045 568.346C515.045 565.957 514.638 563.875 513.824 562.1C513.023 560.311 511.842 558.93 510.281 557.956C508.733 556.968 506.991 556.474 505.056 556.474C502.306 556.474 499.937 557.422 497.949 559.317C495.973 561.199 494.986 564.348 494.986 568.766ZM523.634 557.795V553.651H527.237V557.795H523.634ZM523.634 583V561.739H527.237V583H523.634ZM532.663 583V553.651H536.266V583H532.663Z" fill="black"/>
<path d="M34.123 583V553.651H38.1069L53.522 576.694V553.651H57.2456V583H53.2617L37.8467 559.938V583H34.123ZM77.2051 580.377C75.8704 581.512 74.5825 582.313 73.3413 582.78C72.1134 583.247 70.7922 583.48 69.3774 583.48C67.0418 583.48 65.2467 582.913 63.9922 581.779C62.7376 580.631 62.1104 579.17 62.1104 577.395C62.1104 576.354 62.3439 575.406 62.811 574.552C63.2915 573.684 63.9121 572.99 64.6729 572.47C65.4469 571.949 66.3145 571.556 67.2754 571.289C67.9827 571.102 69.0505 570.922 70.4785 570.748C73.388 570.401 75.5301 569.987 76.9048 569.507C76.9181 569.013 76.9248 568.699 76.9248 568.566C76.9248 567.098 76.5845 566.063 75.9038 565.463C74.9829 564.649 73.6149 564.242 71.7998 564.242C70.1048 564.242 68.8503 564.542 68.0361 565.143C67.2354 565.73 66.6414 566.778 66.2544 568.286L62.731 567.805C63.0513 566.297 63.5785 565.083 64.3125 564.162C65.0465 563.227 66.1076 562.513 67.4956 562.02C68.8836 561.512 70.4919 561.259 72.3203 561.259C74.1354 561.259 75.6102 561.472 76.7446 561.899C77.8791 562.326 78.7132 562.867 79.2471 563.521C79.7809 564.162 80.1546 564.976 80.3682 565.963C80.4883 566.577 80.5483 567.685 80.5483 569.287V574.091C80.5483 577.441 80.6217 579.563 80.7686 580.458C80.9287 581.338 81.2357 582.186 81.6895 583H77.9258C77.5521 582.253 77.3118 581.378 77.2051 580.377ZM76.9048 572.33C75.5968 572.863 73.6349 573.317 71.019 573.691C69.5376 573.904 68.4899 574.145 67.876 574.412C67.262 574.679 66.7882 575.072 66.4546 575.593C66.1209 576.1 65.9541 576.667 65.9541 577.294C65.9541 578.255 66.3145 579.056 67.0352 579.697C67.7692 580.337 68.8369 580.658 70.2383 580.658C71.6263 580.658 72.8608 580.357 73.9419 579.757C75.0229 579.143 75.8171 578.309 76.3242 577.254C76.7113 576.44 76.9048 575.239 76.9048 573.651V572.33ZM94.0215 579.777L94.542 582.96C93.5277 583.174 92.6201 583.28 91.8193 583.28C90.5114 583.28 89.4971 583.073 88.7764 582.66C88.0557 582.246 87.5485 581.705 87.2549 581.038C86.9613 580.357 86.8145 578.936 86.8145 576.774V564.542H84.1719V561.739H86.8145V556.474L90.3979 554.312V561.739H94.0215V564.542H90.3979V576.974C90.3979 578.002 90.458 578.662 90.5781 578.956C90.7116 579.25 90.9185 579.483 91.1987 579.657C91.4924 579.83 91.9061 579.917 92.4399 579.917C92.8403 579.917 93.3675 579.87 94.0215 579.777ZM111.499 583V579.877C109.844 582.279 107.595 583.48 104.752 583.48C103.497 583.48 102.323 583.24 101.229 582.76C100.147 582.279 99.34 581.679 98.8062 580.958C98.2856 580.224 97.9186 579.33 97.7051 578.275C97.5583 577.568 97.4849 576.447 97.4849 574.912V561.739H101.088V573.531C101.088 575.413 101.162 576.681 101.309 577.334C101.535 578.282 102.016 579.029 102.75 579.577C103.484 580.111 104.392 580.377 105.473 580.377C106.554 580.377 107.568 580.104 108.516 579.557C109.463 578.996 110.131 578.242 110.518 577.294C110.918 576.333 111.118 574.945 111.118 573.13V561.739H114.722V583H111.499ZM120.347 583V561.739H123.59V564.962C124.418 563.454 125.179 562.46 125.873 561.979C126.58 561.499 127.354 561.259 128.195 561.259C129.409 561.259 130.644 561.646 131.898 562.42L130.657 565.763C129.776 565.243 128.896 564.982 128.015 564.982C127.227 564.982 126.52 565.223 125.893 565.703C125.265 566.17 124.818 566.824 124.551 567.665C124.151 568.946 123.951 570.348 123.951 571.869V583H120.347ZM147.914 580.377C146.579 581.512 145.292 582.313 144.05 582.78C142.822 583.247 141.501 583.48 140.086 583.48C137.751 583.48 135.956 582.913 134.701 581.779C133.447 580.631 132.819 579.17 132.819 577.395C132.819 576.354 133.053 575.406 133.52 574.552C134 573.684 134.621 572.99 135.382 572.47C136.156 571.949 137.023 571.556 137.984 571.289C138.692 571.102 139.759 570.922 141.188 570.748C144.097 570.401 146.239 569.987 147.614 569.507C147.627 569.013 147.634 568.699 147.634 568.566C147.634 567.098 147.293 566.063 146.613 565.463C145.692 564.649 144.324 564.242 142.509 564.242C140.814 564.242 139.559 564.542 138.745 565.143C137.944 565.73 137.35 566.778 136.963 568.286L133.44 567.805C133.76 566.297 134.287 565.083 135.021 564.162C135.756 563.227 136.817 562.513 138.205 562.02C139.593 561.512 141.201 561.259 143.029 561.259C144.844 561.259 146.319 561.472 147.454 561.899C148.588 562.326 149.422 562.867 149.956 563.521C150.49 564.162 150.864 564.976 151.077 565.963C151.197 566.577 151.257 567.685 151.257 569.287V574.091C151.257 577.441 151.331 579.563 151.478 580.458C151.638 581.338 151.945 582.186 152.398 583H148.635C148.261 582.253 148.021 581.378 147.914 580.377ZM147.614 572.33C146.306 572.863 144.344 573.317 141.728 573.691C140.247 573.904 139.199 574.145 138.585 574.412C137.971 574.679 137.497 575.072 137.164 575.593C136.83 576.1 136.663 576.667 136.663 577.294C136.663 578.255 137.023 579.056 137.744 579.697C138.478 580.337 139.546 580.658 140.947 580.658C142.335 580.658 143.57 580.357 144.651 579.757C145.732 579.143 146.526 578.309 147.033 577.254C147.42 576.44 147.614 575.239 147.614 573.651V572.33ZM156.783 583V553.651H160.386V583H156.783ZM191.597 571.489V568.045L204.029 568.025V578.916C202.12 580.438 200.152 581.585 198.123 582.359C196.094 583.12 194.012 583.5 191.877 583.5C188.994 583.5 186.372 582.887 184.009 581.659C181.66 580.417 179.885 578.629 178.684 576.293C177.483 573.958 176.882 571.349 176.882 568.466C176.882 565.61 177.476 562.947 178.664 560.478C179.865 557.996 181.587 556.154 183.829 554.953C186.071 553.751 188.654 553.151 191.577 553.151C193.699 553.151 195.614 553.498 197.322 554.192C199.044 554.873 200.392 555.827 201.366 557.055C202.34 558.283 203.081 559.884 203.588 561.859L200.085 562.82C199.645 561.326 199.097 560.151 198.443 559.297C197.789 558.443 196.855 557.762 195.641 557.255C194.426 556.734 193.078 556.474 191.597 556.474C189.822 556.474 188.287 556.748 186.992 557.295C185.698 557.829 184.65 558.536 183.849 559.417C183.062 560.298 182.448 561.265 182.007 562.32C181.26 564.135 180.886 566.104 180.886 568.226C180.886 570.841 181.333 573.03 182.228 574.792C183.135 576.554 184.45 577.862 186.171 578.716C187.893 579.57 189.722 579.997 191.657 579.997C193.338 579.997 194.98 579.677 196.582 579.036C198.183 578.382 199.398 577.688 200.225 576.954V571.489H191.597ZM223.188 580.377C221.853 581.512 220.565 582.313 219.324 582.78C218.096 583.247 216.775 583.48 215.36 583.48C213.024 583.48 211.229 582.913 209.975 581.779C208.72 580.631 208.093 579.17 208.093 577.395C208.093 576.354 208.326 575.406 208.793 574.552C209.274 573.684 209.895 572.99 210.655 572.47C211.429 571.949 212.297 571.556 213.258 571.289C213.965 571.102 215.033 570.922 216.461 570.748C219.37 570.401 221.513 569.987 222.887 569.507C222.901 569.013 222.907 568.699 222.907 568.566C222.907 567.098 222.567 566.063 221.886 565.463C220.965 564.649 219.597 564.242 217.782 564.242C216.087 564.242 214.833 564.542 214.019 565.143C213.218 565.73 212.624 566.778 212.237 568.286L208.713 567.805C209.034 566.297 209.561 565.083 210.295 564.162C211.029 563.227 212.09 562.513 213.478 562.02C214.866 561.512 216.474 561.259 218.303 561.259C220.118 561.259 221.593 561.472 222.727 561.899C223.861 562.326 224.696 562.867 225.229 563.521C225.763 564.162 226.137 564.976 226.351 565.963C226.471 566.577 226.531 567.685 226.531 569.287V574.091C226.531 577.441 226.604 579.563 226.751 580.458C226.911 581.338 227.218 582.186 227.672 583H223.908C223.535 582.253 223.294 581.378 223.188 580.377ZM222.887 572.33C221.579 572.863 219.617 573.317 217.001 573.691C215.52 573.904 214.472 574.145 213.858 574.412C213.244 574.679 212.771 575.072 212.437 575.593C212.103 576.1 211.937 576.667 211.937 577.294C211.937 578.255 212.297 579.056 213.018 579.697C213.752 580.337 214.819 580.658 216.221 580.658C217.609 580.658 218.843 580.357 219.924 579.757C221.005 579.143 221.799 578.309 222.307 577.254C222.694 576.44 222.887 575.239 222.887 573.651V572.33ZM230.695 576.654L234.258 576.093C234.458 577.521 235.012 578.616 235.92 579.376C236.841 580.137 238.122 580.518 239.764 580.518C241.419 580.518 242.646 580.184 243.447 579.517C244.248 578.836 244.648 578.042 244.648 577.134C244.648 576.32 244.295 575.68 243.587 575.212C243.094 574.892 241.866 574.485 239.904 573.991C237.261 573.324 235.426 572.75 234.398 572.27C233.384 571.776 232.61 571.102 232.076 570.248C231.556 569.38 231.295 568.426 231.295 567.385C231.295 566.437 231.509 565.563 231.936 564.762C232.376 563.948 232.97 563.274 233.718 562.74C234.278 562.326 235.039 561.979 236 561.699C236.974 561.406 238.015 561.259 239.123 561.259C240.791 561.259 242.253 561.499 243.507 561.979C244.775 562.46 245.709 563.114 246.31 563.941C246.911 564.756 247.324 565.85 247.551 567.225L244.028 567.705C243.868 566.611 243.401 565.757 242.626 565.143C241.866 564.529 240.785 564.222 239.383 564.222C237.728 564.222 236.547 564.495 235.84 565.042C235.132 565.59 234.779 566.23 234.779 566.964C234.779 567.431 234.926 567.852 235.219 568.226C235.513 568.613 235.973 568.933 236.601 569.187C236.961 569.32 238.022 569.627 239.784 570.107C242.333 570.788 244.108 571.349 245.109 571.789C246.123 572.216 246.917 572.843 247.491 573.671C248.065 574.498 248.352 575.526 248.352 576.754C248.352 577.955 247.998 579.09 247.291 580.157C246.597 581.212 245.589 582.032 244.268 582.62C242.947 583.194 241.452 583.48 239.784 583.48C237.021 583.48 234.912 582.907 233.458 581.759C232.016 580.611 231.095 578.909 230.695 576.654Z" fill="black"/>
<path d="M0 559H18V577H0V559Z" fill="#5F5E6A"/>
<rect x="285" y="559" width="18" height="18" fill="#DCA413"/>
<rect x="459" y="559" width="18" height="18" fill="#00194E"/>
<path fill-rule="evenodd" clip-rule="evenodd" d="M46.9622 256.7C61.9214 170.653 126.868 101.761 210.791 81.0334L228.862 165.825C179.68 179.102 141.753 219.793 132.482 270.493L46.9622 256.7ZM128.127 174.05V168.825H116.956C117.249 168.318 117.63 167.797 118.097 167.263C118.577 166.73 119.705 165.648 121.48 164.02C123.255 162.392 124.483 161.144 125.164 160.277C126.191 158.969 126.939 157.721 127.406 156.533C127.886 155.332 128.127 154.071 128.127 152.749C128.127 150.427 127.299 148.485 125.644 146.924C123.989 145.362 121.714 144.581 118.818 144.581C116.175 144.581 113.973 145.255 112.211 146.603C110.449 147.951 109.402 150.173 109.068 153.27L114.674 153.83C114.78 152.189 115.181 151.014 115.875 150.307C116.569 149.6 117.503 149.246 118.677 149.246C119.865 149.246 120.793 149.586 121.46 150.267C122.141 150.934 122.481 151.895 122.481 153.15C122.481 154.284 122.094 155.432 121.32 156.593C120.746 157.434 119.191 159.035 116.655 161.398C113.506 164.321 111.397 166.669 110.329 168.445C109.262 170.206 108.621 172.075 108.407 174.05H128.127ZM150.949 174.05V168.825H139.778C140.072 168.318 140.452 167.797 140.919 167.263C141.4 166.73 142.527 165.648 144.302 164.02C146.077 162.392 147.305 161.144 147.986 160.277C149.014 158.969 149.761 157.721 150.228 156.533C150.709 155.332 150.949 154.071 150.949 152.749C150.949 150.427 150.121 148.485 148.466 146.924C146.812 145.362 144.536 144.581 141.64 144.581C138.997 144.581 136.795 145.255 135.033 146.603C133.272 147.951 132.224 150.173 131.89 153.27L137.496 153.83C137.603 152.189 138.003 151.014 138.697 150.307C139.391 149.6 140.325 149.246 141.5 149.246C142.688 149.246 143.615 149.586 144.282 150.267C144.963 150.934 145.303 151.895 145.303 153.15C145.303 154.284 144.916 155.432 144.142 156.593C143.568 157.434 142.014 159.035 139.478 161.398C136.328 164.321 134.219 166.669 133.152 168.445C132.084 170.206 131.443 172.075 131.23 174.05H150.949ZM156.534 146.103C155.387 147.371 154.813 149.319 154.813 151.948C154.813 154.591 155.387 156.546 156.534 157.814C157.695 159.069 159.297 159.696 161.339 159.696C163.314 159.696 164.876 159.062 166.024 157.794C167.185 156.526 167.765 154.578 167.765 151.948C167.765 149.306 167.185 147.357 166.024 146.103C164.876 144.835 163.281 144.201 161.239 144.201C159.264 144.201 157.695 144.835 156.534 146.103ZM159.858 155.752C159.417 155.098 159.197 153.817 159.197 151.908C159.197 150 159.417 148.719 159.858 148.065C160.191 147.584 160.652 147.344 161.239 147.344C161.84 147.344 162.307 147.591 162.64 148.085C163.067 148.725 163.281 150 163.281 151.908C163.281 153.817 163.067 155.098 162.64 155.752C162.307 156.233 161.84 156.473 161.239 156.473C160.652 156.473 160.191 156.233 159.858 155.752ZM161.359 175.171H165.523L181.038 144.201H176.994L161.359 175.171ZM176.334 161.618C175.186 162.886 174.612 164.834 174.612 167.464C174.612 170.106 175.186 172.061 176.334 173.329C177.495 174.597 179.096 175.231 181.138 175.231C183.114 175.231 184.675 174.597 185.823 173.329C186.984 172.061 187.565 170.106 187.565 167.464C187.565 164.834 186.984 162.886 185.823 161.618C184.675 160.35 183.094 159.716 181.078 159.716C179.076 159.716 177.495 160.35 176.334 161.618ZM179.657 171.267C179.216 170.627 178.996 169.352 178.996 167.444C178.996 165.535 179.216 164.254 179.657 163.6C179.977 163.119 180.438 162.879 181.038 162.879C181.639 162.879 182.106 163.119 182.44 163.6C182.867 164.254 183.08 165.535 183.08 167.444C183.08 169.352 182.86 170.633 182.42 171.287C182.099 171.768 181.639 172.008 181.038 172.008C180.451 172.008 179.991 171.761 179.657 171.267Z" fill="#DCA413"/>
<path fill-rule="evenodd" clip-rule="evenodd" d="M269.474 161.628C341.08 163.999 398.401 222.794 398.401 294.977C398.401 368.665 338.665 428.401 264.977 428.401C191.289 428.401 131.554 368.665 131.554 294.977C131.554 288.451 132.022 282.034 132.928 275.758L47.4143 261.965C45.7941 272.733 44.9543 283.757 44.9543 294.977C44.9543 416.492 143.462 515 264.977 515C386.492 515 485 416.492 485 294.977C485 174.964 388.913 77.3937 269.474 74.9993V104.145L277.022 89.1927H281.066L269.474 112.333V161.628ZM330.661 425.605V420.38H349.9V424.464C348.312 426.025 346.697 428.267 345.055 431.19C343.414 434.113 342.159 437.223 341.292 440.519C340.438 443.802 340.017 446.739 340.031 449.328H334.605C334.699 445.271 335.533 441.133 337.108 436.916C338.696 432.698 340.811 428.928 343.454 425.605H330.661ZM364.514 449.328V443.422H352.503V438.497L365.235 419.859H369.96V438.477H373.603V443.422H369.96V449.328H364.514ZM364.514 438.477V428.447L357.768 438.477H364.514ZM376.346 427.226C376.346 424.597 376.92 422.648 378.068 421.381C379.229 420.113 380.797 419.479 382.772 419.479C384.814 419.479 386.409 420.113 387.557 421.381C388.718 422.635 389.299 424.584 389.299 427.226C389.299 429.856 388.718 431.804 387.557 433.072C386.409 434.34 384.848 434.974 382.872 434.974C380.83 434.974 379.229 434.347 378.068 433.092C376.92 431.824 376.346 429.869 376.346 427.226ZM380.73 427.186C380.73 429.095 380.95 430.376 381.391 431.03C381.725 431.51 382.185 431.751 382.772 431.751C383.373 431.751 383.84 431.51 384.174 431.03C384.601 430.376 384.814 429.095 384.814 427.186C384.814 425.278 384.601 424.003 384.174 423.363C383.84 422.869 383.373 422.622 382.772 422.622C382.185 422.622 381.725 422.862 381.391 423.342C380.95 423.996 380.73 425.278 380.73 427.186ZM387.056 450.449H382.892L398.528 419.479H402.572L387.056 450.449ZM396.145 442.741C396.145 440.112 396.719 438.164 397.867 436.896C399.028 435.628 400.61 434.994 402.612 434.994C404.627 434.994 406.208 435.628 407.356 436.896C408.517 438.164 409.098 440.112 409.098 442.741C409.098 445.384 408.517 447.339 407.356 448.607C406.208 449.875 404.647 450.509 402.672 450.509C400.63 450.509 399.028 449.875 397.867 448.607C396.719 447.339 396.145 445.384 396.145 442.741ZM400.53 442.721C400.53 444.63 400.75 445.905 401.19 446.545C401.524 447.039 401.984 447.286 402.572 447.286C403.172 447.286 403.633 447.046 403.953 446.565C404.393 445.911 404.614 444.63 404.614 442.721C404.614 440.813 404.4 439.532 403.973 438.878C403.639 438.397 403.172 438.157 402.572 438.157C401.971 438.157 401.51 438.397 401.19 438.878C400.75 439.532 400.53 440.813 400.53 442.721ZM276.362 106.61C275.214 107.878 274.64 109.826 274.64 112.455C274.64 115.098 275.214 117.053 276.362 118.321C277.523 119.589 279.124 120.223 281.166 120.223C283.142 120.223 284.703 119.589 285.851 118.321C287.012 117.053 287.593 115.098 287.593 112.455C287.593 109.826 287.012 107.878 285.851 106.61C284.703 105.342 283.122 104.708 281.106 104.708C279.104 104.708 277.523 105.342 276.362 106.61ZM279.685 116.259C279.244 115.618 279.024 114.344 279.024 112.435C279.024 110.527 279.244 109.246 279.685 108.592C280.005 108.111 280.466 107.871 281.066 107.871C281.667 107.871 282.134 108.111 282.468 108.592C282.895 109.246 283.108 110.527 283.108 112.435C283.108 114.344 282.888 115.625 282.448 116.279C282.127 116.76 281.667 117 281.066 117C280.479 117 280.019 116.753 279.685 116.259Z" fill="#5F5E6A"/>
<path fill-rule="evenodd" clip-rule="evenodd" d="M233.715 164.987C243.204 162.806 253.079 161.637 263.221 161.6V120.163H261.387L263.221 116.53V104.472C262.65 104.616 262.032 104.688 261.367 104.688C259.325 104.688 257.724 104.061 256.562 102.806C255.415 101.538 254.841 99.5828 254.841 96.9403C254.841 94.311 255.415 92.3625 256.562 91.0946C257.724 89.8266 259.292 89.1927 261.267 89.1927C261.972 89.1927 262.623 89.2682 263.221 89.4192V75C246.888 75.0366 230.973 76.8528 215.66 80.2651L233.715 164.987ZM263.221 95.0431C263.122 94.1358 262.937 93.4802 262.668 93.0765C262.335 92.5827 261.868 92.3358 261.267 92.3358C260.68 92.3358 260.219 92.576 259.886 93.0565C259.445 93.7104 259.225 94.9917 259.225 96.9002C259.225 98.8087 259.445 100.09 259.886 100.744C260.219 101.224 260.68 101.465 261.267 101.465C261.868 101.465 262.335 101.224 262.668 100.744C262.937 100.332 263.122 99.6705 263.221 98.76V95.0431ZM237.224 110.594L231.778 111.254C232.058 113.723 233.073 115.725 234.821 117.26C236.57 118.782 238.772 119.542 241.428 119.542C244.23 119.542 246.573 118.635 248.454 116.82C250.336 115.005 251.277 112.809 251.277 110.233C251.277 108.458 250.77 106.943 249.756 105.689C248.755 104.434 247.413 103.627 245.732 103.266C248.548 101.732 249.956 99.6763 249.956 97.1004C249.956 95.2853 249.269 93.6571 247.894 92.2156C246.226 90.4539 244.01 89.5731 241.247 89.5731C239.633 89.5731 238.171 89.88 236.863 90.494C235.569 91.0946 234.554 91.9287 233.82 92.9964C233.099 94.0508 232.559 95.4655 232.199 97.2405L237.384 98.1214C237.53 96.8402 237.944 95.8659 238.625 95.1986C239.306 94.5312 240.126 94.1976 241.087 94.1976C242.062 94.1976 242.842 94.4912 243.43 95.0784C244.017 95.6657 244.31 96.4531 244.31 97.4407C244.31 98.6019 243.91 99.5361 243.109 100.243C242.308 100.937 241.147 101.264 239.626 101.224L239.005 105.809C240.006 105.529 240.867 105.388 241.588 105.388C242.682 105.388 243.61 105.802 244.37 106.63C245.131 107.457 245.512 108.578 245.512 109.993C245.512 111.488 245.111 112.676 244.31 113.556C243.523 114.437 242.549 114.878 241.388 114.878C240.307 114.878 239.386 114.511 238.625 113.777C237.864 113.043 237.397 111.982 237.224 110.594Z" fill="#00194E"/>
</svg>
