<svg width="530" height="530" viewBox="0 0 530 530" fill="none" xmlns="http://www.w3.org/2000/svg">
<path fill-rule="evenodd" clip-rule="evenodd" d="M265 530C411.355 530 530 411.355 530 265C530 118.645 411.355 0 265 0C118.645 0 0 118.645 0 265C0 411.355 118.645 530 265 530ZM265.5 518C405.504 518 519 404.504 519 264.5C519 124.496 405.504 11 265.5 11C125.496 11 12 124.496 12 264.5C12 404.504 125.496 518 265.5 518Z" fill="#DCA413"/>
<path fill-rule="evenodd" clip-rule="evenodd" d="M307.552 159.477L315.666 102.75C372.641 121.366 418.134 170.893 437.244 234.367H445V265.392H86V234.367H93.7562C113.302 169.444 160.45 119.111 219.255 101.523L226.452 159.022L229.425 158.622L221.936 98.7891L221.839 98.8021C225.204 91.9557 232.211 87 240.754 87H294.258C302.911 87 310.08 92.1254 313.376 99.2237L313.145 99.1883L304.587 159.022L307.552 159.477Z" fill="#DCA413"/>
<path fill-rule="evenodd" clip-rule="evenodd" d="M265.5 445.633C190.201 445.633 128.178 374.937 120 284H411C402.822 374.937 340.799 445.633 265.5 445.633ZM265 438.636C196.687 438.636 140.419 374.499 133 292H397C389.581 374.499 333.313 438.636 265 438.636Z" fill="#DCA413"/>
</svg>
