<svg width="1440" height="818" viewBox="0 0 1440 818" fill="none" xmlns="http://www.w3.org/2000/svg">
<path fill-rule="evenodd" clip-rule="evenodd" d="M781.341 242.151L989.625 0H1101.91L849.028 294H836.549L836.656 294.101H701.732L486.537 92H621.461L781.341 242.151Z" fill="#DCA413"/>
<path fill-rule="evenodd" clip-rule="evenodd" d="M549.572 256.182L726.647 50H836.924L627.37 294H583.64H517.093H474.875L294.081 125H409.235L549.572 256.182Z" fill="#1B1B1B"/>
<path d="M709.875 796V724.74H761.399V733.149H719.305V754.974H758.726V763.335H719.305V787.591H763.052V796H709.875ZM775.982 796V724.74H785.655L823.084 780.688V724.74H832.125V796H822.452L785.023 740.003V796H775.982ZM848.214 796V724.74H899.739V733.149H857.644V754.974H897.066V763.335H857.644V787.591H901.392V796H848.214ZM914.565 796V724.74H946.16C952.512 724.74 957.34 725.388 960.645 726.684C963.951 727.948 966.592 730.2 968.569 733.441C970.545 736.682 971.534 740.262 971.534 744.183C971.534 749.239 969.897 753.5 966.624 756.967C963.351 760.435 958.296 762.638 951.458 763.578C953.954 764.777 955.849 765.96 957.146 767.127C959.9 769.654 962.509 772.814 964.972 776.605L977.367 796H965.506L956.076 781.174C953.322 776.897 951.053 773.624 949.271 771.356C947.489 769.087 945.885 767.499 944.459 766.592C943.065 765.685 941.64 765.053 940.181 764.696C939.112 764.469 937.362 764.356 934.932 764.356H923.995V796H914.565ZM923.995 756.19H944.264C948.574 756.19 951.944 755.752 954.375 754.877C956.805 753.97 958.652 752.544 959.916 750.6C961.18 748.623 961.812 746.484 961.812 744.183C961.812 740.813 960.581 738.043 958.118 735.871C955.687 733.7 951.831 732.615 946.549 732.615H923.995V756.19ZM1019.7 768.05V759.69L1049.89 759.641V786.084C1045.26 789.778 1040.48 792.565 1035.55 794.445C1030.63 796.292 1025.57 797.215 1020.39 797.215C1013.39 797.215 1007.02 795.725 1001.28 792.743C995.579 789.73 991.269 785.387 988.352 779.716C985.436 774.045 983.977 767.71 983.977 760.71C983.977 753.775 985.42 747.311 988.304 741.316C991.22 735.288 995.4 730.816 1000.84 727.9C1006.29 724.983 1012.56 723.525 1019.66 723.525C1024.81 723.525 1029.46 724.367 1033.61 726.052C1037.79 727.705 1041.06 730.022 1043.43 733.003C1045.79 735.985 1047.59 739.873 1048.82 744.669L1040.31 747.003C1039.25 743.373 1037.92 740.522 1036.33 738.448C1034.74 736.374 1032.47 734.721 1029.52 733.49C1026.57 732.226 1023.3 731.594 1019.7 731.594C1015.39 731.594 1011.67 732.258 1008.52 733.587C1005.38 734.883 1002.84 736.6 1000.89 738.739C998.981 740.878 997.491 743.227 996.421 745.787C994.607 750.195 993.699 754.974 993.699 760.127C993.699 766.478 994.785 771.793 996.956 776.071C999.159 780.348 1002.35 783.524 1006.53 785.598C1010.71 787.672 1015.15 788.709 1019.85 788.709C1023.93 788.709 1027.92 787.931 1031.81 786.376C1035.7 784.788 1038.65 783.103 1040.65 781.32V768.05H1019.7ZM1083.92 796V765.814L1056.45 724.74H1067.92L1081.97 746.225C1084.56 750.243 1086.98 754.262 1089.21 758.28C1091.35 754.553 1093.95 750.357 1096.99 745.69L1110.8 724.74H1121.78L1093.35 765.814V796H1083.92Z" fill="#1B1B1B"/>
<path d="M1200.29 796V724.74H1209.72V787.591H1244.82V796H1200.29ZM1266.84 796V733.149H1243.36V724.74H1299.84V733.149H1276.27V796H1266.84ZM1309.56 796V724.74H1334.11C1339.65 724.74 1343.88 725.08 1346.8 725.761C1350.88 726.701 1354.36 728.402 1357.25 730.865C1361.01 734.04 1363.81 738.107 1365.66 743.065C1367.54 747.991 1368.48 753.63 1368.48 759.981C1368.48 765.393 1367.84 770.189 1366.58 774.369C1365.32 778.55 1363.7 782.017 1361.72 784.771C1359.74 787.494 1357.57 789.648 1355.21 791.236C1352.87 792.792 1350.04 793.975 1346.7 794.785C1343.39 795.595 1339.59 796 1335.28 796H1309.56ZM1318.99 787.591H1334.21C1338.91 787.591 1342.58 787.153 1345.24 786.278C1347.93 785.403 1350.07 784.172 1351.66 782.584C1353.89 780.348 1355.63 777.351 1356.86 773.592C1358.12 769.8 1358.75 765.215 1358.75 759.835C1358.75 752.382 1357.52 746.662 1355.06 742.677C1352.63 738.658 1349.66 735.969 1346.17 734.608C1343.64 733.635 1339.57 733.149 1333.96 733.149H1318.99V787.591Z" fill="#1B1B1B"/>
<path d="M1382.86 796V786.035H1392.83V796H1382.86Z" fill="black"/>
<path d="M694.55 669.311V496.91H753.143C767.277 496.91 777.722 498.502 784.478 501.686C791.312 504.792 796.632 509.451 800.437 515.664C804.32 521.799 806.261 528.322 806.261 535.234C806.261 543.932 803.233 552.241 797.175 560.162C791.196 568.006 780.44 574.374 764.908 579.266C777.256 582.295 786.691 586.061 793.215 590.565C799.816 595.069 804.786 600.428 808.125 606.641C811.542 612.853 813.251 619.532 813.251 626.676C813.251 634.442 811.231 641.703 807.193 648.459C803.233 655.138 797.758 660.302 790.768 663.952C783.779 667.525 773.024 669.311 758.502 669.311H694.55ZM729.03 568.666H736.835C747.862 568.666 756.094 565.987 761.53 560.628C767.044 555.192 769.801 548.591 769.801 540.825C769.801 536.709 768.985 533.137 767.355 530.108C765.724 527.08 762.889 524.75 758.851 523.119C754.813 521.411 747.047 520.557 735.554 520.557H729.03V568.666ZM729.03 644.848H736.02C748.678 644.848 757.298 644.033 761.88 642.402C766.461 640.771 769.917 638.131 772.247 634.481C774.577 630.831 775.742 626.793 775.742 622.366C775.742 613.824 771.936 606.602 764.326 600.7C756.715 594.72 747.047 591.73 735.321 591.73H729.03V644.848ZM844.819 669.311V496.91H909.352C922.554 496.91 932.611 498.579 939.523 501.919C946.434 505.18 951.87 510.189 955.831 516.945C959.869 523.624 961.888 531.196 961.888 539.66C961.888 549.756 958.976 559.308 953.152 568.316C947.327 577.247 939.096 584.081 928.456 588.818L984.836 669.311H941.153L898.403 598.836H878.6V669.311H844.819ZM878.6 575.189H886.87C901.703 575.189 911.915 571.966 917.507 565.521C923.098 559.075 925.894 551.775 925.894 543.621C925.894 536.554 923.603 530.963 919.021 526.847C914.439 522.653 905.12 520.557 891.064 520.557H878.6V575.189ZM1009.53 669.311V496.91H1045.41V669.311H1009.53ZM1227.48 662.438C1219.95 665.777 1213.38 668.068 1207.79 669.311C1202.2 670.553 1195.83 671.563 1188.69 672.339C1181.62 673.194 1174.63 673.621 1167.72 673.621C1137.59 673.621 1115.11 665.117 1100.27 648.11C1085.44 631.103 1078.03 609.436 1078.03 583.11C1078.03 556.629 1085.4 534.923 1100.16 517.994C1114.99 501.064 1138.25 492.6 1169.93 492.6C1188.65 492.6 1207.29 494.813 1225.85 499.239V527.313C1216.92 524.206 1209.62 521.954 1203.95 520.557C1198.28 519.081 1192.88 517.994 1187.76 517.295C1182.71 516.596 1177.66 516.246 1172.61 516.246C1152.81 516.246 1138.44 522.614 1129.51 535.35C1120.58 548.086 1116.12 563.851 1116.12 582.644C1116.12 602.369 1121.16 618.328 1131.26 630.52C1141.43 642.713 1156.54 648.809 1176.57 648.809C1193.27 648.809 1210.24 644.538 1227.48 635.995V662.438ZM1258.81 669.311V496.91H1293.29V580.547L1359.23 496.91H1389.05L1329.29 574.257L1403.49 669.311H1358.64L1293.29 584.508V669.311H1258.81Z" fill="#DCA413"/>
<path d="M46.1408 671L2.4845 495.902H36.9126L68.8562 624.031L99.0252 495.902H129.431L158.062 623.321L191.662 495.902H216.862L170.957 671H136.174L109.2 550.916L80.9238 671H46.1408ZM240.997 671V495.902H350.433V519.919H277.436V568.78H337.301V592.916H277.436V646.155H355.994V671H240.997ZM376.698 669.462V639.411C390.185 645.09 400.242 648.482 406.867 649.586C413.571 650.69 419.723 651.242 425.323 651.242C435.419 651.242 442.951 648.955 447.92 644.38C452.889 639.806 455.374 634.324 455.374 627.935C455.374 623.045 454.033 618.628 451.351 614.685C448.67 610.82 441.887 605.811 431.002 599.659L419.29 593.152C402.568 583.766 391.25 575.09 385.335 567.124C379.34 559.158 376.343 549.93 376.343 539.44C376.343 526.268 381.312 514.989 391.25 505.603C401.267 496.217 415.622 491.524 434.315 491.524C448.275 491.524 464.011 493.535 481.52 497.558V525.597C463.695 518.893 449.537 515.541 439.047 515.541C430.371 515.541 423.746 517.473 419.171 521.338C414.675 525.124 412.428 529.699 412.428 535.062C412.428 539.164 413.768 542.989 416.45 546.538C419.053 550.088 425.797 554.938 436.681 561.09L449.222 568.071C468.388 578.876 480.613 588.262 485.898 596.228C491.103 604.273 493.706 613.304 493.706 623.321C493.706 637.676 488.264 649.941 477.38 660.116C466.574 670.29 449.34 675.377 425.678 675.377C411.639 675.377 395.312 673.406 376.698 669.462ZM568.36 671V519.919H505.656V495.902H667.621V519.919H604.917V671H568.36Z" fill="#1B1B1B"/>
</svg>
