<svg width="2292" height="647" viewBox="0 0 2292 647" fill="none" xmlns="http://www.w3.org/2000/svg">
<path d="M1597.87 645V573.74H1649.4V582.149H1607.3V603.974H1646.73V612.335H1607.3V636.591H1651.05V645H1597.87ZM1663.98 645V573.74H1673.66L1711.08 629.688V573.74H1720.12V645H1710.45L1673.02 589.003V645H1663.98ZM1736.21 645V573.74H1787.74V582.149H1745.64V603.974H1785.07V612.335H1745.64V636.591H1789.39V645H1736.21ZM1802.56 645V573.74H1834.16C1840.51 573.74 1845.34 574.388 1848.65 575.684C1851.95 576.948 1854.59 579.2 1856.57 582.441C1858.55 585.682 1859.53 589.262 1859.53 593.183C1859.53 598.239 1857.9 602.5 1854.62 605.967C1851.35 609.435 1846.3 611.638 1839.46 612.578C1841.95 613.777 1843.85 614.96 1845.15 616.127C1847.9 618.654 1850.51 621.814 1852.97 625.605L1865.37 645H1853.51L1844.08 630.174C1841.32 625.897 1839.05 622.624 1837.27 620.356C1835.49 618.087 1833.88 616.499 1832.46 615.592C1831.07 614.685 1829.64 614.053 1828.18 613.696C1827.11 613.469 1825.36 613.356 1822.93 613.356H1811.99V645H1802.56ZM1811.99 605.19H1832.26C1836.57 605.19 1839.94 604.752 1842.37 603.877C1844.81 602.97 1846.65 601.544 1847.92 599.6C1849.18 597.623 1849.81 595.484 1849.81 593.183C1849.81 589.813 1848.58 587.043 1846.12 584.871C1843.69 582.7 1839.83 581.615 1834.55 581.615H1811.99V605.19ZM1907.7 617.05V608.69L1937.89 608.641V635.084C1933.26 638.778 1928.48 641.565 1923.55 643.445C1918.63 645.292 1913.57 646.215 1908.39 646.215C1901.39 646.215 1895.02 644.725 1889.28 641.743C1883.58 638.73 1879.27 634.387 1876.35 628.716C1873.44 623.045 1871.98 616.71 1871.98 609.71C1871.98 602.775 1873.42 596.311 1876.3 590.316C1879.22 584.288 1883.4 579.816 1888.84 576.9C1894.29 573.983 1900.56 572.525 1907.66 572.525C1912.81 572.525 1917.46 573.367 1921.61 575.052C1925.79 576.705 1929.06 579.022 1931.43 582.003C1933.79 584.985 1935.59 588.873 1936.82 593.669L1928.31 596.003C1927.25 592.373 1925.92 589.522 1924.33 587.448C1922.74 585.374 1920.47 583.721 1917.52 582.49C1914.57 581.226 1911.3 580.594 1907.7 580.594C1903.39 580.594 1899.67 581.258 1896.52 582.587C1893.38 583.883 1890.84 585.6 1888.89 587.739C1886.98 589.878 1885.49 592.227 1884.42 594.787C1882.61 599.195 1881.7 603.974 1881.7 609.127C1881.7 615.478 1882.78 620.793 1884.96 625.071C1887.16 629.348 1890.35 632.524 1894.53 634.598C1898.71 636.672 1903.15 637.709 1907.85 637.709C1911.93 637.709 1915.92 636.931 1919.81 635.376C1923.7 633.788 1926.65 632.103 1928.65 630.32V617.05H1907.7ZM1971.92 645V614.814L1944.45 573.74H1955.92L1969.97 595.225C1972.56 599.243 1974.98 603.262 1977.21 607.28C1979.35 603.553 1981.95 599.357 1984.99 594.69L1998.8 573.74H2009.78L1981.35 614.814V645H1971.92Z" fill="#1B1B1B"/>
<path d="M2088.29 645V573.74H2097.72V636.591H2132.82V645H2088.29ZM2154.84 645V582.149H2131.36V573.74H2187.84V582.149H2164.27V645H2154.84ZM2197.56 645V573.74H2222.11C2227.65 573.74 2231.88 574.08 2234.8 574.761C2238.88 575.701 2242.36 577.402 2245.25 579.865C2249.01 583.04 2251.81 587.107 2253.66 592.065C2255.54 596.991 2256.48 602.63 2256.48 608.981C2256.48 614.393 2255.84 619.189 2254.58 623.369C2253.32 627.55 2251.7 631.017 2249.72 633.771C2247.74 636.494 2245.57 638.648 2243.21 640.236C2240.87 641.792 2238.04 642.975 2234.7 643.785C2231.39 644.595 2227.59 645 2223.28 645H2197.56ZM2206.99 636.591H2222.21C2226.91 636.591 2230.58 636.153 2233.24 635.278C2235.93 634.403 2238.07 633.172 2239.66 631.584C2241.89 629.348 2243.63 626.351 2244.86 622.592C2246.12 618.8 2246.75 614.215 2246.75 608.835C2246.75 601.382 2245.52 595.662 2243.06 591.677C2240.63 587.658 2237.66 584.969 2234.17 583.608C2231.64 582.635 2227.57 582.149 2221.96 582.149H2206.99V636.591Z" fill="#1B1B1B"/>
<path d="M2270.86 645V635.035H2280.83V645H2270.86Z" fill="black"/>
<path fill-rule="evenodd" clip-rule="evenodd" d="M487.341 501.151L695.625 259H807.909L555.028 553H542.549L542.656 553.101H407.732L192.537 351H327.461L487.341 501.151Z" fill="#DCA413"/>
<path fill-rule="evenodd" clip-rule="evenodd" d="M255.572 515.182L432.647 309H542.924L333.37 553H289.64H223.093H180.875L0.0805054 384H115.235L255.572 515.182Z" fill="#1B1B1B"/>
<path d="M1582.55 518.311V345.91H1641.14C1655.28 345.91 1665.72 347.502 1672.48 350.686C1679.31 353.792 1684.63 358.451 1688.44 364.664C1692.32 370.799 1694.26 377.322 1694.26 384.234C1694.26 392.932 1691.23 401.241 1685.18 409.162C1679.2 417.006 1668.44 423.374 1652.91 428.266C1665.26 431.295 1674.69 435.061 1681.21 439.565C1687.82 444.069 1692.79 449.428 1696.13 455.641C1699.54 461.853 1701.25 468.532 1701.25 475.676C1701.25 483.442 1699.23 490.703 1695.19 497.459C1691.23 504.138 1685.76 509.302 1678.77 512.952C1671.78 516.525 1661.02 518.311 1646.5 518.311H1582.55ZM1617.03 417.666H1624.83C1635.86 417.666 1644.09 414.987 1649.53 409.628C1655.04 404.192 1657.8 397.591 1657.8 389.825C1657.8 385.709 1656.99 382.137 1655.35 379.108C1653.72 376.08 1650.89 373.75 1646.85 372.119C1642.81 370.411 1635.05 369.557 1623.55 369.557H1617.03V417.666ZM1617.03 493.848H1624.02C1636.68 493.848 1645.3 493.033 1649.88 491.402C1654.46 489.771 1657.92 487.131 1660.25 483.481C1662.58 479.831 1663.74 475.793 1663.74 471.366C1663.74 462.824 1659.94 455.602 1652.33 449.7C1644.72 443.72 1635.05 440.73 1623.32 440.73H1617.03V493.848ZM1732.82 518.311V345.91H1797.35C1810.55 345.91 1820.61 347.579 1827.52 350.919C1834.43 354.18 1839.87 359.189 1843.83 365.945C1847.87 372.624 1849.89 380.196 1849.89 388.66C1849.89 398.756 1846.98 408.308 1841.15 417.316C1835.33 426.247 1827.1 433.081 1816.46 437.818L1872.84 518.311H1829.15L1786.4 447.836H1766.6V518.311H1732.82ZM1766.6 424.189H1774.87C1789.7 424.189 1799.92 420.966 1805.51 414.521C1811.1 408.075 1813.89 400.775 1813.89 392.621C1813.89 385.554 1811.6 379.963 1807.02 375.847C1802.44 371.653 1793.12 369.557 1779.06 369.557H1766.6V424.189ZM1897.53 518.311V345.91H1933.41V518.311H1897.53ZM2115.48 511.438C2107.95 514.777 2101.38 517.068 2095.79 518.311C2090.2 519.553 2083.83 520.563 2076.69 521.339C2069.62 522.194 2062.63 522.621 2055.72 522.621C2025.59 522.621 2003.11 514.117 1988.27 497.11C1973.44 480.103 1966.03 458.436 1966.03 432.11C1966.03 405.629 1973.4 383.923 1988.16 366.994C2002.99 350.064 2026.25 341.6 2057.93 341.6C2076.65 341.6 2095.29 343.813 2113.85 348.239V376.313C2104.92 373.206 2097.62 370.954 2091.95 369.557C2086.28 368.081 2080.88 366.994 2075.76 366.295C2070.71 365.596 2065.66 365.246 2060.61 365.246C2040.81 365.246 2026.44 371.614 2017.51 384.35C2008.58 397.086 2004.12 412.851 2004.12 431.644C2004.12 451.369 2009.16 467.328 2019.26 479.52C2029.43 491.713 2044.54 497.809 2064.57 497.809C2081.27 497.809 2098.24 493.538 2115.48 484.995V511.438ZM2146.81 518.311V345.91H2181.29V429.547L2247.23 345.91H2277.05L2217.29 423.257L2291.49 518.311H2246.64L2181.29 433.508V518.311H2146.81Z" fill="#DCA413"/>
<path d="M934.141 520L890.485 344.902H924.913L956.856 473.031L987.025 344.902H1017.43L1046.06 472.321L1079.66 344.902H1104.86L1058.96 520H1024.17L997.2 399.916L968.924 520H934.141ZM1129 520V344.902H1238.43V368.919H1165.44V417.78H1225.3V441.916H1165.44V495.155H1243.99V520H1129ZM1264.7 518.462V488.411C1278.19 494.09 1288.24 497.482 1294.87 498.586C1301.57 499.69 1307.72 500.242 1313.32 500.242C1323.42 500.242 1330.95 497.955 1335.92 493.38C1340.89 488.806 1343.37 483.324 1343.37 476.935C1343.37 472.045 1342.03 467.628 1339.35 463.685C1336.67 459.82 1329.89 454.811 1319 448.659L1307.29 442.152C1290.57 432.766 1279.25 424.09 1273.33 416.124C1267.34 408.158 1264.34 398.93 1264.34 388.44C1264.34 375.268 1269.31 363.989 1279.25 354.603C1289.27 345.217 1303.62 340.524 1322.31 340.524C1336.28 340.524 1352.01 342.535 1369.52 346.558V374.597C1351.7 367.893 1337.54 364.541 1327.05 364.541C1318.37 364.541 1311.75 366.473 1307.17 370.338C1302.68 374.124 1300.43 378.699 1300.43 384.062C1300.43 388.164 1301.77 391.989 1304.45 395.538C1307.05 399.088 1313.8 403.938 1324.68 410.09L1337.22 417.071C1356.39 427.876 1368.61 437.262 1373.9 445.228C1379.1 453.273 1381.71 462.304 1381.71 472.321C1381.71 486.676 1376.26 498.941 1365.38 509.116C1354.57 519.29 1337.34 524.377 1313.68 524.377C1299.64 524.377 1283.31 522.406 1264.7 518.462ZM1456.36 520V368.919H1393.66V344.902H1555.62V368.919H1492.92V520H1456.36Z" fill="#1B1B1B"/>
<path d="M239.113 177V130.988H158.62V105.127L237.715 4.59896H269.283V105.127H289.435V130.988H269.283V177H239.113ZM186.228 105.127H239.812V37.5648L186.228 105.127ZM378.548 181.31C364.725 181.31 352.804 177.466 342.786 169.778C332.768 162.09 325.08 151.062 319.722 136.695C314.363 122.329 311.684 107.03 311.684 90.7995C311.684 74.6466 314.325 59.3868 319.605 45.02C324.964 30.5756 332.691 19.5093 342.786 11.8212C352.882 4.13301 364.802 0.288933 378.548 0.288933C392.138 0.288933 403.981 4.09418 414.076 11.7047C424.172 19.3152 431.899 30.3426 437.257 44.787C442.616 59.1538 445.295 74.4913 445.295 90.7995C445.295 106.564 442.732 121.591 437.607 135.88C432.481 150.091 424.91 161.235 414.892 169.312C404.874 177.311 392.759 181.31 378.548 181.31ZM378.548 159.76C388.876 159.76 396.487 154.052 401.379 142.636C406.272 131.221 408.718 113.165 408.718 88.4697C408.718 66.2595 406.194 49.6018 401.146 38.4967C396.176 27.3916 388.643 21.8391 378.548 21.8391C368.219 21.8391 360.57 27.5469 355.6 38.9627C350.707 50.3008 348.261 68.3175 348.261 93.0127C348.261 115.223 350.785 131.919 355.833 143.102C360.881 154.207 368.452 159.76 378.548 159.76ZM543.843 177V130.988H463.351V105.127L542.445 4.59896H574.013V105.127H594.166V130.988H574.013V177H543.843ZM490.958 105.127H544.542V37.5648L490.958 105.127ZM1325.47 177V4.59896H1433.92V28.2459H1361.35V80.6651H1420.99V104.428H1361.35V177H1325.47ZM1539.23 181.31C1521.29 181.31 1505.68 177.621 1492.4 170.244C1479.12 162.789 1469.02 152.111 1462.11 138.21C1455.2 124.231 1451.74 108.428 1451.74 90.7995C1451.74 73.2487 1455.2 57.4841 1462.11 43.5057C1469.02 29.5272 1479.16 18.8492 1492.51 11.4717C1505.87 4.01652 1521.44 0.288933 1539.23 0.288933C1556.93 0.288933 1572.46 4.01652 1585.82 11.4717C1599.18 18.8492 1609.31 29.5272 1616.22 43.5057C1623.14 57.4841 1626.59 73.2487 1626.59 90.7995C1626.59 108.428 1623.14 124.231 1616.22 138.21C1609.31 152.111 1599.22 162.789 1585.94 170.244C1572.74 177.621 1557.17 181.31 1539.23 181.31ZM1539.23 157.547C1555.85 157.547 1568.19 150.79 1576.27 137.278C1584.42 123.688 1588.5 108.156 1588.5 90.683C1588.5 73.1323 1584.42 57.6395 1576.27 44.2046C1568.12 30.6921 1555.77 23.9358 1539.23 23.9358C1522.61 23.9358 1510.22 30.6921 1502.07 44.2046C1493.91 57.6395 1489.84 73.1323 1489.84 90.683C1489.84 108.156 1493.87 123.688 1501.95 137.278C1510.1 150.79 1522.53 157.547 1539.23 157.547ZM1657.46 4.59896H1693.34V110.253C1693.34 129.357 1696.56 142.015 1703.01 148.228C1709.53 154.44 1717.96 157.547 1728.28 157.547C1738.46 157.547 1746.53 154.479 1752.51 148.344C1758.57 142.209 1761.6 130.366 1761.6 112.816V4.59896H1792.82V110.486C1792.82 130.444 1790.29 144.772 1785.25 153.47C1780.28 162.09 1773.05 168.885 1763.58 173.855C1754.11 178.825 1742.11 181.31 1727.59 181.31C1713.3 181.31 1701.03 179.019 1690.78 174.437C1680.53 169.778 1672.41 162.905 1666.43 153.819C1660.45 144.655 1657.46 130.094 1657.46 110.136V4.59896ZM1834.52 177V4.59896H1866.09L1946 122.368V4.59896H1974.77V177H1942.62L1863.29 59.2315V177H1834.52ZM2017.87 177V4.59896H2092.07C2111.95 4.59896 2127.41 7.78294 2138.44 14.1509C2149.54 20.5189 2158.36 29.9155 2164.88 42.3408C2171.48 54.6885 2174.78 69.6376 2174.78 87.1884C2174.78 104.351 2171.64 119.688 2165.34 133.201C2159.13 146.713 2150.05 157.391 2138.09 165.235C2126.13 173.078 2109.74 177 2088.93 177H2017.87ZM2053.75 152.538H2080.54C2094.52 152.538 2105.2 150.363 2112.58 146.014C2120.03 141.666 2125.89 134.327 2130.17 123.998C2134.51 113.592 2136.69 102.021 2136.69 89.2851C2136.69 77.0928 2134.59 66.2983 2130.4 56.9017C2126.21 47.5051 2120.38 40.3994 2112.93 35.5846C2105.55 30.6921 2093.05 28.2459 2075.42 28.2459H2053.75V152.538Z" fill="#DCA413"/>
<path d="M704.829 177V4.59896H736.397L816.307 122.368V4.59896H845.079V177H812.929L733.601 59.2315V177H704.829ZM964.944 181.31C947.005 181.31 931.396 177.621 918.117 170.244C904.837 162.789 894.741 152.111 887.83 138.21C880.918 124.231 877.463 108.428 877.463 90.7995C877.463 73.2487 880.918 57.4841 887.83 43.5057C894.741 29.5272 904.876 18.8492 918.233 11.4717C931.59 4.01652 947.161 0.288933 964.944 0.288933C982.65 0.288933 998.182 4.01652 1011.54 11.4717C1024.9 18.8492 1035.03 29.5272 1041.94 43.5057C1048.85 57.4841 1052.31 73.2487 1052.31 90.7995C1052.31 108.428 1048.85 124.231 1041.94 138.21C1035.03 152.111 1024.94 162.789 1011.66 170.244C998.454 177.621 982.883 181.31 964.944 181.31ZM964.944 157.547C981.563 157.547 993.911 150.79 1001.99 137.278C1010.14 123.688 1014.22 108.156 1014.22 90.683C1014.22 73.1323 1010.14 57.6395 1001.99 44.2046C993.833 30.6921 981.486 23.9358 964.944 23.9358C948.326 23.9358 935.939 30.6921 927.785 44.2046C919.631 57.6395 915.554 73.1323 915.554 90.683C915.554 108.156 919.592 123.688 927.668 137.278C935.823 150.79 948.248 157.547 964.944 157.547ZM1127.33 177V28.2459H1065.59V4.59896H1225.06V28.2459H1163.32V177H1127.33Z" fill="#1B1B1B"/>
</svg>
