<svg width="2328" height="408" viewBox="0 0 2328 408" fill="none" xmlns="http://www.w3.org/2000/svg">
<g opacity="0.075">
<path d="M1597.87 386V314.74H1649.4V323.149H1607.3V344.974H1646.73V353.335H1607.3V377.591H1651.05V386H1597.87ZM1663.98 386V314.74H1673.66L1711.08 370.688V314.74H1720.12V386H1710.45L1673.02 330.003V386H1663.98ZM1736.21 386V314.74H1787.74V323.149H1745.64V344.974H1785.07V353.335H1745.64V377.591H1789.39V386H1736.21ZM1802.56 386V314.74H1834.16C1840.51 314.74 1845.34 315.388 1848.65 316.684C1851.95 317.948 1854.59 320.2 1856.57 323.441C1858.55 326.682 1859.53 330.262 1859.53 334.183C1859.53 339.239 1857.9 343.5 1854.62 346.967C1851.35 350.435 1846.3 352.638 1839.46 353.578C1841.95 354.777 1843.85 355.96 1845.15 357.127C1847.9 359.654 1850.51 362.814 1852.97 366.605L1865.37 386H1853.51L1844.08 371.174C1841.32 366.897 1839.05 363.624 1837.27 361.356C1835.49 359.087 1833.88 357.499 1832.46 356.592C1831.07 355.685 1829.64 355.053 1828.18 354.696C1827.11 354.469 1825.36 354.356 1822.93 354.356H1811.99V386H1802.56ZM1811.99 346.19H1832.26C1836.57 346.19 1839.94 345.752 1842.37 344.877C1844.81 343.97 1846.65 342.544 1847.92 340.6C1849.18 338.623 1849.81 336.484 1849.81 334.183C1849.81 330.813 1848.58 328.043 1846.12 325.871C1843.69 323.7 1839.83 322.615 1834.55 322.615H1811.99V346.19ZM1907.7 358.05V349.69L1937.89 349.641V376.084C1933.26 379.778 1928.48 382.565 1923.55 384.445C1918.63 386.292 1913.57 387.215 1908.39 387.215C1901.39 387.215 1895.02 385.725 1889.28 382.743C1883.58 379.73 1879.27 375.387 1876.35 369.716C1873.44 364.045 1871.98 357.71 1871.98 350.71C1871.98 343.775 1873.42 337.311 1876.3 331.316C1879.22 325.288 1883.4 320.816 1888.84 317.9C1894.29 314.983 1900.56 313.525 1907.66 313.525C1912.81 313.525 1917.46 314.367 1921.61 316.052C1925.79 317.705 1929.06 320.022 1931.43 323.003C1933.79 325.985 1935.59 329.873 1936.82 334.669L1928.31 337.003C1927.25 333.373 1925.92 330.522 1924.33 328.448C1922.74 326.374 1920.47 324.721 1917.52 323.49C1914.57 322.226 1911.3 321.594 1907.7 321.594C1903.39 321.594 1899.67 322.258 1896.52 323.587C1893.38 324.883 1890.84 326.6 1888.89 328.739C1886.98 330.878 1885.49 333.227 1884.42 335.787C1882.61 340.195 1881.7 344.974 1881.7 350.127C1881.7 356.478 1882.78 361.793 1884.96 366.071C1887.16 370.348 1890.35 373.524 1894.53 375.598C1898.71 377.672 1903.15 378.709 1907.85 378.709C1911.93 378.709 1915.92 377.931 1919.81 376.376C1923.7 374.788 1926.65 373.103 1928.65 371.32V358.05H1907.7ZM1971.92 386V355.814L1944.45 314.74H1955.92L1969.97 336.225C1972.56 340.243 1974.98 344.262 1977.21 348.28C1979.35 344.553 1981.95 340.357 1984.99 335.69L1998.8 314.74H2009.78L1981.35 355.814V386H1971.92Z" fill="#1B1B1B"/>
<path d="M2088.29 386V314.74H2097.72V377.591H2132.82V386H2088.29ZM2154.84 386V323.149H2131.36V314.74H2187.84V323.149H2164.27V386H2154.84ZM2197.56 386V314.74H2222.11C2227.65 314.74 2231.88 315.08 2234.8 315.761C2238.88 316.701 2242.36 318.402 2245.25 320.865C2249.01 324.04 2251.81 328.107 2253.66 333.065C2255.54 337.991 2256.48 343.63 2256.48 349.981C2256.48 355.393 2255.84 360.189 2254.58 364.369C2253.32 368.55 2251.7 372.017 2249.72 374.771C2247.74 377.494 2245.57 379.648 2243.21 381.236C2240.87 382.792 2238.04 383.975 2234.7 384.785C2231.39 385.595 2227.59 386 2223.28 386H2197.56ZM2206.99 377.591H2222.21C2226.91 377.591 2230.58 377.153 2233.24 376.278C2235.93 375.403 2238.07 374.172 2239.66 372.584C2241.89 370.348 2243.63 367.351 2244.86 363.592C2246.12 359.8 2246.75 355.215 2246.75 349.835C2246.75 342.382 2245.52 336.662 2243.06 332.677C2240.63 328.658 2237.66 325.969 2234.17 324.608C2231.64 323.635 2227.57 323.149 2221.96 323.149H2206.99V377.591Z" fill="#1B1B1B"/>
<path d="M2270.86 386V376.035H2280.83V386H2270.86Z" fill="black"/>
<path fill-rule="evenodd" clip-rule="evenodd" d="M487.341 242.151L695.625 0H807.909L555.028 294H542.549L542.656 294.101H407.732L192.537 92H327.461L487.341 242.151Z" fill="#DCA413"/>
<path fill-rule="evenodd" clip-rule="evenodd" d="M255.572 256.182L432.647 50H542.924L333.37 294H289.64H223.093H180.875L0.0805664 125H115.235L255.572 256.182Z" fill="#1B1B1B"/>
<path d="M1582.55 259.311V86.9096H1641.14C1655.28 86.9096 1665.72 88.5016 1672.48 91.6856C1679.31 94.7919 1684.63 99.4514 1688.44 105.664C1692.32 111.799 1694.26 118.322 1694.26 125.234C1694.26 133.932 1691.23 142.241 1685.18 150.162C1679.2 158.006 1668.44 164.374 1652.91 169.266C1665.26 172.295 1674.69 176.061 1681.21 180.565C1687.82 185.069 1692.79 190.428 1696.13 196.641C1699.54 202.853 1701.25 209.532 1701.25 216.676C1701.25 224.442 1699.23 231.703 1695.19 238.459C1691.23 245.138 1685.76 250.302 1678.77 253.952C1671.78 257.525 1661.02 259.311 1646.5 259.311H1582.55ZM1617.03 158.666H1624.83C1635.86 158.666 1644.09 155.987 1649.53 150.628C1655.04 145.192 1657.8 138.591 1657.8 130.825C1657.8 126.709 1656.99 123.137 1655.35 120.108C1653.72 117.08 1650.89 114.75 1646.85 113.119C1642.81 111.411 1635.05 110.557 1623.55 110.557H1617.03V158.666ZM1617.03 234.848H1624.02C1636.68 234.848 1645.3 234.033 1649.88 232.402C1654.46 230.771 1657.92 228.131 1660.25 224.481C1662.58 220.831 1663.74 216.793 1663.74 212.366C1663.74 203.824 1659.94 196.602 1652.33 190.7C1644.72 184.72 1635.05 181.73 1623.32 181.73H1617.03V234.848ZM1732.82 259.311V86.9096H1797.35C1810.55 86.9096 1820.61 88.5793 1827.52 91.9186C1834.43 95.1802 1839.87 100.189 1843.83 106.945C1847.87 113.624 1849.89 121.196 1849.89 129.66C1849.89 139.756 1846.98 149.308 1841.15 158.316C1835.33 167.247 1827.1 174.081 1816.46 178.818L1872.84 259.311H1829.15L1786.4 188.836H1766.6V259.311H1732.82ZM1766.6 165.189H1774.87C1789.7 165.189 1799.92 161.966 1805.51 155.521C1811.1 149.075 1813.89 141.775 1813.89 133.621C1813.89 126.554 1811.6 120.963 1807.02 116.847C1802.44 112.653 1793.12 110.557 1779.06 110.557H1766.6V165.189ZM1897.53 259.311V86.9096H1933.41V259.311H1897.53ZM2115.48 252.438C2107.95 255.777 2101.38 258.068 2095.79 259.311C2090.2 260.553 2083.83 261.563 2076.69 262.339C2069.62 263.194 2062.63 263.621 2055.72 263.621C2025.59 263.621 2003.11 255.117 1988.28 238.11C1973.44 221.103 1966.03 199.436 1966.03 173.11C1966.03 146.629 1973.4 124.923 1988.16 107.994C2002.99 91.0643 2026.25 82.5996 2057.93 82.5996C2076.65 82.5996 2095.29 84.8128 2113.85 89.2394V117.313C2104.92 114.206 2097.62 111.954 2091.95 110.557C2086.28 109.081 2080.88 107.994 2075.76 107.295C2070.71 106.596 2065.66 106.246 2060.61 106.246C2040.81 106.246 2026.44 112.614 2017.51 125.35C2008.58 138.086 2004.12 153.851 2004.12 172.644C2004.12 192.369 2009.17 208.328 2019.26 220.52C2029.43 232.713 2044.54 238.809 2064.57 238.809C2081.27 238.809 2098.24 234.538 2115.48 225.995V252.438ZM2146.81 259.311V86.9096H2181.29V170.547L2247.23 86.9096H2277.05L2217.29 164.257L2291.49 259.311H2246.64L2181.29 174.508V259.311H2146.81Z" fill="#DCA413"/>
<path d="M934.141 261L890.485 85.9017H924.913L956.856 214.031L987.025 85.9017H1017.43L1046.06 213.321L1079.66 85.9017H1104.86L1058.96 261H1024.17L997.2 140.916L968.924 261H934.141ZM1129 261V85.9017H1238.43V109.919H1165.44V158.78H1225.3V182.916H1165.44V236.155H1243.99V261H1129ZM1264.7 259.462V229.411C1278.19 235.09 1288.24 238.482 1294.87 239.586C1301.57 240.69 1307.72 241.242 1313.32 241.242C1323.42 241.242 1330.95 238.955 1335.92 234.38C1340.89 229.806 1343.37 224.324 1343.37 217.935C1343.37 213.045 1342.03 208.628 1339.35 204.685C1336.67 200.82 1329.89 195.811 1319 189.659L1307.29 183.152C1290.57 173.766 1279.25 165.09 1273.33 157.124C1267.34 149.158 1264.34 139.93 1264.34 129.44C1264.34 116.268 1269.31 104.989 1279.25 95.6031C1289.27 86.2172 1303.62 81.5242 1322.31 81.5242C1336.28 81.5242 1352.01 83.5355 1369.52 87.558V115.597C1351.7 108.893 1337.54 105.541 1327.05 105.541C1318.37 105.541 1311.75 107.473 1307.17 111.338C1302.68 115.124 1300.43 119.699 1300.43 125.062C1300.43 129.164 1301.77 132.989 1304.45 136.538C1307.05 140.088 1313.8 144.938 1324.68 151.09L1337.22 158.071C1356.39 168.876 1368.61 178.262 1373.9 186.228C1379.1 194.273 1381.71 203.304 1381.71 213.321C1381.71 227.676 1376.26 239.941 1365.38 250.116C1354.57 260.29 1337.34 265.377 1313.68 265.377C1299.64 265.377 1283.31 263.406 1264.7 259.462ZM1456.36 261V109.919H1393.66V85.9017H1555.62V109.919H1492.92V261H1456.36Z" fill="#1B1B1B"/>
</g>
</svg>
