<svg width="1402" height="798" viewBox="0 0 1402 798" fill="none" xmlns="http://www.w3.org/2000/svg">
<g opacity="0.07">
<path fill-rule="evenodd" clip-rule="evenodd" d="M779.341 242.151L987.625 0H1099.91L847.028 294H834.549L834.656 294.101H699.732L484.537 92H619.461L779.341 242.151Z" fill="#DCA413"/>
<path fill-rule="evenodd" clip-rule="evenodd" d="M547.572 256.182L724.647 50H834.924L625.37 294H581.64H515.093H472.875L292.081 125H407.235L547.572 256.182Z" fill="#1B1B1B"/>
<path d="M707.875 796V724.74H759.399V733.149H717.305V754.974H756.726V763.335H717.305V787.591H761.052V796H707.875ZM773.982 796V724.74H783.655L821.084 780.688V724.74H830.125V796H820.452L783.023 740.003V796H773.982ZM846.214 796V724.74H897.739V733.149H855.644V754.974H895.066V763.335H855.644V787.591H899.392V796H846.214ZM912.565 796V724.74H944.16C950.512 724.74 955.34 725.388 958.645 726.684C961.951 727.948 964.592 730.2 966.569 733.441C968.545 736.682 969.534 740.262 969.534 744.183C969.534 749.239 967.897 753.5 964.624 756.967C961.351 760.435 956.296 762.638 949.458 763.578C951.954 764.777 953.849 765.96 955.146 767.127C957.9 769.654 960.509 772.814 962.972 776.605L975.367 796H963.506L954.076 781.174C951.322 776.897 949.053 773.624 947.271 771.356C945.489 769.087 943.885 767.499 942.459 766.592C941.065 765.685 939.64 765.053 938.181 764.696C937.112 764.469 935.362 764.356 932.932 764.356H921.995V796H912.565ZM921.995 756.19H942.264C946.574 756.19 949.944 755.752 952.375 754.877C954.805 753.97 956.652 752.544 957.916 750.6C959.18 748.623 959.812 746.484 959.812 744.183C959.812 740.813 958.581 738.043 956.118 735.871C953.687 733.7 949.831 732.615 944.549 732.615H921.995V756.19ZM1017.7 768.05V759.69L1047.89 759.641V786.084C1043.26 789.778 1038.48 792.565 1033.55 794.445C1028.63 796.292 1023.57 797.215 1018.39 797.215C1011.39 797.215 1005.02 795.725 999.282 792.743C993.579 789.73 989.269 785.387 986.352 779.716C983.436 774.045 981.977 767.71 981.977 760.71C981.977 753.775 983.42 747.311 986.304 741.316C989.22 735.288 993.4 730.816 998.845 727.9C1004.29 724.983 1010.56 723.525 1017.66 723.525C1022.81 723.525 1027.46 724.367 1031.61 726.052C1035.79 727.705 1039.06 730.022 1041.43 733.003C1043.79 735.985 1045.59 739.873 1046.82 744.669L1038.31 747.003C1037.25 743.373 1035.92 740.522 1034.33 738.448C1032.74 736.374 1030.47 734.721 1027.52 733.49C1024.57 732.226 1021.3 731.594 1017.7 731.594C1013.39 731.594 1009.67 732.258 1006.52 733.587C1003.38 734.883 1000.84 736.6 998.893 738.739C996.981 740.878 995.491 743.227 994.421 745.787C992.607 750.195 991.699 754.974 991.699 760.127C991.699 766.478 992.785 771.793 994.956 776.071C997.159 780.348 1000.35 783.524 1004.53 785.598C1008.71 787.672 1013.15 788.709 1017.85 788.709C1021.93 788.709 1025.92 787.931 1029.81 786.376C1033.7 784.788 1036.65 783.103 1038.65 781.32V768.05H1017.7ZM1081.92 796V765.814L1054.45 724.74H1065.92L1079.97 746.225C1082.56 750.243 1084.98 754.262 1087.21 758.28C1089.35 754.553 1091.95 750.357 1094.99 745.69L1108.8 724.74H1119.78L1091.35 765.814V796H1081.92Z" fill="#1B1B1B"/>
<path d="M1198.29 796V724.74H1207.72V787.591H1242.82V796H1198.29ZM1264.84 796V733.149H1241.36V724.74H1297.84V733.149H1274.27V796H1264.84ZM1307.56 796V724.74H1332.11C1337.65 724.74 1341.88 725.08 1344.8 725.761C1348.88 726.701 1352.36 728.402 1355.25 730.865C1359.01 734.04 1361.81 738.107 1363.66 743.065C1365.54 747.991 1366.48 753.63 1366.48 759.981C1366.48 765.393 1365.84 770.189 1364.58 774.369C1363.32 778.55 1361.7 782.017 1359.72 784.771C1357.74 787.494 1355.57 789.648 1353.21 791.236C1350.87 792.792 1348.04 793.975 1344.7 794.785C1341.39 795.595 1337.59 796 1333.28 796H1307.56ZM1316.99 787.591H1332.21C1336.91 787.591 1340.58 787.153 1343.24 786.278C1345.93 785.403 1348.07 784.172 1349.66 782.584C1351.89 780.348 1353.63 777.351 1354.86 773.592C1356.12 769.8 1356.75 765.215 1356.75 759.835C1356.75 752.382 1355.52 746.662 1353.06 742.677C1350.63 738.658 1347.66 735.969 1344.17 734.608C1341.64 733.635 1337.57 733.149 1331.96 733.149H1316.99V787.591Z" fill="#1B1B1B"/>
<path d="M1380.86 796V786.035H1390.83V796H1380.86Z" fill="black"/>
<path d="M692.55 669.311V496.91H751.143C765.277 496.91 775.722 498.502 782.478 501.686C789.312 504.792 794.632 509.451 798.437 515.664C802.32 521.799 804.261 528.322 804.261 535.234C804.261 543.932 801.233 552.241 795.175 560.162C789.196 568.006 778.44 574.374 762.908 579.266C775.256 582.295 784.691 586.061 791.215 590.565C797.816 595.069 802.786 600.428 806.125 606.641C809.542 612.853 811.251 619.532 811.251 626.676C811.251 634.442 809.231 641.703 805.193 648.459C801.233 655.138 795.758 660.302 788.768 663.952C781.779 667.525 771.024 669.311 756.502 669.311H692.55ZM727.03 568.666H734.835C745.862 568.666 754.094 565.987 759.53 560.628C765.044 555.192 767.801 548.591 767.801 540.825C767.801 536.709 766.985 533.137 765.355 530.108C763.724 527.08 760.889 524.75 756.851 523.119C752.813 521.411 745.047 520.557 733.554 520.557H727.03V568.666ZM727.03 644.848H734.02C746.678 644.848 755.298 644.033 759.88 642.402C764.461 640.771 767.917 638.131 770.247 634.481C772.577 630.831 773.742 626.793 773.742 622.366C773.742 613.824 769.936 606.602 762.326 600.7C754.715 594.72 745.047 591.73 733.321 591.73H727.03V644.848ZM842.819 669.311V496.91H907.352C920.554 496.91 930.611 498.579 937.523 501.919C944.434 505.18 949.87 510.189 953.831 516.945C957.869 523.624 959.888 531.196 959.888 539.66C959.888 549.756 956.976 559.308 951.152 568.316C945.327 577.247 937.096 584.081 926.456 588.818L982.836 669.311H939.153L896.403 598.836H876.6V669.311H842.819ZM876.6 575.189H884.87C899.703 575.189 909.915 571.966 915.507 565.521C921.098 559.075 923.894 551.775 923.894 543.621C923.894 536.554 921.603 530.963 917.021 526.847C912.439 522.653 903.12 520.557 889.064 520.557H876.6V575.189ZM1007.53 669.311V496.91H1043.41V669.311H1007.53ZM1225.48 662.438C1217.95 665.777 1211.38 668.068 1205.79 669.311C1200.2 670.553 1193.83 671.563 1186.69 672.339C1179.62 673.194 1172.63 673.621 1165.72 673.621C1135.59 673.621 1113.11 665.117 1098.27 648.11C1083.44 631.103 1076.03 609.436 1076.03 583.11C1076.03 556.629 1083.4 534.923 1098.16 517.994C1112.99 501.064 1136.25 492.6 1167.93 492.6C1186.65 492.6 1205.29 494.813 1223.85 499.239V527.313C1214.92 524.206 1207.62 521.954 1201.95 520.557C1196.28 519.081 1190.88 517.994 1185.76 517.295C1180.71 516.596 1175.66 516.246 1170.61 516.246C1150.81 516.246 1136.44 522.614 1127.51 535.35C1118.58 548.086 1114.12 563.851 1114.12 582.644C1114.12 602.369 1119.16 618.328 1129.26 630.52C1139.43 642.713 1154.54 648.809 1174.57 648.809C1191.27 648.809 1208.24 644.538 1225.48 635.995V662.438ZM1256.81 669.311V496.91H1291.29V580.547L1357.23 496.91H1387.05L1327.29 574.257L1401.49 669.311H1356.64L1291.29 584.508V669.311H1256.81Z" fill="#DCA413"/>
<path d="M44.1408 671L0.484503 495.902H34.9126L66.8562 624.031L97.0252 495.902H127.431L156.062 623.321L189.662 495.902H214.862L168.957 671H134.174L107.2 550.916L78.9238 671H44.1408ZM238.997 671V495.902H348.433V519.919H275.436V568.78H335.301V592.916H275.436V646.155H353.994V671H238.997ZM374.698 669.462V639.411C388.185 645.09 398.242 648.482 404.867 649.586C411.571 650.69 417.723 651.242 423.323 651.242C433.419 651.242 440.951 648.955 445.92 644.38C450.889 639.806 453.374 634.324 453.374 627.935C453.374 623.045 452.033 618.628 449.351 614.685C446.67 610.82 439.887 605.811 429.002 599.659L417.29 593.152C400.568 583.766 389.25 575.09 383.335 567.124C377.34 559.158 374.343 549.93 374.343 539.44C374.343 526.268 379.312 514.989 389.25 505.603C399.267 496.217 413.622 491.524 432.315 491.524C446.275 491.524 462.011 493.535 479.52 497.558V525.597C461.695 518.893 447.537 515.541 437.047 515.541C428.371 515.541 421.746 517.473 417.171 521.338C412.675 525.124 410.428 529.699 410.428 535.062C410.428 539.164 411.768 542.989 414.45 546.538C417.053 550.088 423.797 554.938 434.681 561.09L447.222 568.071C466.388 578.876 478.613 588.262 483.898 596.228C489.103 604.273 491.706 613.304 491.706 623.321C491.706 637.676 486.264 649.941 475.38 660.116C464.574 670.29 447.34 675.377 423.678 675.377C409.639 675.377 393.312 673.406 374.698 669.462ZM566.36 671V519.919H503.656V495.902H665.621V519.919H602.917V671H566.36Z" fill="#1B1B1B"/>
</g>
</svg>
